<?xml version="1.0" standalone="no"?>
<!DOCTYPE svg PUBLIC "-//W3C//DTD SVG 1.1//EN" "http://www.w3.org/Graphics/SVG/1.1/DTD/svg11.dtd" >
<svg>
<metadata>
Created by FontForge 20090622 at Fri Sep 15 10:40:03 2017
 By deploy user
Copyright (c) 2015 by type me! Font Foundry. All rights reserved.
</metadata>
<defs>
<font id="CeraPro-Bold" horiz-adv-x="560" >
  <font-face 
    font-family="Cera Pro"
    font-weight="700"
    font-stretch="normal"
    units-per-em="1000"
    panose-1="0 0 0 0 0 0 0 0 0 0"
    ascent="799"
    descent="-201"
    x-height="495"
    cap-height="660"
    bbox="-176 -245 1369 1000"
    underline-thickness="50"
    underline-position="-50"
    unicode-range="U+0020-U+FB02"
  />
<missing-glyph horiz-adv-x="713" 
d="M76 660h561v-660h-561v660zM545 77v499h-379z" />
    <glyph glyph-name=".notdef" horiz-adv-x="713" 
d="M76 660h561v-660h-561v660zM545 77v499h-379z" />
    <glyph glyph-name=".null" horiz-adv-x="0" 
 />
    <glyph glyph-name="nonmarkingreturn" horiz-adv-x="333" 
 />
    <glyph glyph-name="space" unicode=" " horiz-adv-x="280" 
 />
    <glyph glyph-name="exclam" unicode="!" horiz-adv-x="347" 
d="M253 660l-25 -418h-110l-26 418h161zM175 174h-1q39 0 66 -27t27 -66q0 -40 -27 -67t-66 -27q-40 0 -67 27t-27 67q0 39 27 66t68 27z" />
    <glyph glyph-name="quotedbl" unicode="&#x22;" horiz-adv-x="538" 
d="M242 660l-56 -278h-103l5 278h154zM479 660l-56 -278h-103l5 278h154z" />
    <glyph glyph-name="numbersign" unicode="#" horiz-adv-x="631" 
d="M604 381h-97l-14 -102h91v-113h-106l-23 -166h-109l22 166h-148l-23 -166h-109l22 166h-83v113h98l13 102h-90v113h106l22 166h110l-22 -166h148l22 166h110l-22 -166h82v-113zM234 273h148l15 114h-148z" />
    <glyph glyph-name="dollar" unicode="$" horiz-adv-x="538" 
d="M493 200l-1 -3q0 -71 -46 -117t-120 -58v-122h-118v124q-118 26 -177 135l91 68q58 -91 151 -91q39 0 63 15t24 44q0 24 -18 39q-21 17 -58 31l-68 25q-149 54 -149 174q0 62 39 105t103 58v121h118v-119q98 -20 149 -114l-90 -68q-47 68 -115 68q-31 0 -52 -12t-21 -38
q0 -22 17 -36q20 -16 51 -27l75 -26q152 -52 152 -176z" />
    <glyph glyph-name="percent" unicode="%" horiz-adv-x="831" 
d="M212 672h-2q70 0 120 -48t50 -117q0 -70 -49 -118t-120 -48t-120 48t-49 118q0 69 50 117t120 48zM658 660l-380 -660h-108l379 660h109zM211 579q-30 0 -48 -20q-18 -19 -18 -51t18 -51q18 -20 48 -20q28 0 48 20q19 19 19 51t-19 51q-20 20 -48 20zM617 318h-1
q70 0 120 -48t50 -117q0 -70 -50 -118t-120 -48t-120 48q-49 48 -49 118q0 69 50 117q49 48 120 48zM617 225l-1 -2q-31 0 -49 -19q-18 -20 -18 -51t18 -51q18 -19 49 -19q29 0 47 20q18 19 18 51t-18 51q-18 20 -46 20z" />
    <glyph glyph-name="ampersand" unicode="&#x26;" horiz-adv-x="674" 
d="M643 294q-91 -130 -114 -159l111 -135h-158l-40 49q-82 -61 -180 -61q-96 0 -156 51t-60 133q0 58 33 103t99 96q-57 73 -57 144t46 114q47 44 121 44t118 -40q45 -41 45 -105q0 -50 -27 -90q-26 -40 -77 -81l99 -121l93 132zM287 557q-21 0 -33 -12t-12 -32
q0 -31 37 -74q51 41 51 75q0 43 -43 43zM271 107v1q49 0 93 37l-114 138q-36 -28 -52 -49q-16 -20 -16 -48q0 -34 24 -57q23 -22 65 -22z" />
    <glyph glyph-name="quotesingle" unicode="'" horiz-adv-x="301" 
d="M242 660l-56 -278h-103l5 278h154z" />
    <glyph glyph-name="parenleft" unicode="(" horiz-adv-x="365" 
d="M286 739l53 -83q-153 -100 -153 -354t153 -354l-53 -81q-95 43 -157 152q-61 107 -61 284t61 284q62 109 157 152z" />
    <glyph glyph-name="parenright" unicode=")" horiz-adv-x="365" 
d="M80 739v-2q95 -44 156 -151t61 -284q0 -176 -61 -283t-156 -151l-54 81q154 102 154 354q0 253 -154 355z" />
    <glyph glyph-name="asterisk" unicode="*" horiz-adv-x="467" 
d="M428 615l-92 -68l92 -67l-39 -67l-104 45l-13 -112h-77l-13 112l-104 -45l-39 67l91 67l-91 68l39 67l104 -45l13 112h77l13 -112l104 45z" />
    <glyph glyph-name="plus" unicode="+" 
d="M516 263h-170v-178h-129v178h-172v114h172v176h129v-176h170v-114z" />
    <glyph glyph-name="comma" unicode="," horiz-adv-x="270" 
d="M222 123l-52 -301h-107l5 301h154z" />
    <glyph glyph-name="hyphen" unicode="-" horiz-adv-x="342" 
d="M297 377v-113h-252v113h252z" />
    <glyph glyph-name="period" unicode="." horiz-adv-x="270" 
d="M136 174h-1q39 0 66 -27t27 -66t-26 -67q-26 -27 -66 -27t-67 27t-27 67q0 39 27 66t67 27z" />
    <glyph glyph-name="slash" unicode="/" horiz-adv-x="672" 
d="M669 780l-523 -901h-143l523 901h143z" />
    <glyph glyph-name="zero" unicode="0" horiz-adv-x="659" 
d="M329 549l-1 -1q120 0 204 -81t84 -199t-84 -199t-205 -81t-203 81q-83 81 -83 199q0 119 84 200t204 81zM328 424q-66 0 -108 -45t-42 -112t42 -112t107 -45t107 45t42 112t-42 112t-106 45z" />
    <glyph glyph-name="one" unicode="1" horiz-adv-x="516" 
d="M347 537v-423h130v-114h-407v114h142v302h-132v121h267z" />
    <glyph glyph-name="two" unicode="2" horiz-adv-x="581" 
d="M341 114l187 1v-114h-489v29l208 155q47 35 66 51t39 45q19 28 19 57q0 38 -24 63t-65 25t-65 -25t-24 -63q0 -11 4 -42h-132q-8 32 -8 55q0 79 64 139q65 60 165 60q98 0 161 -57t63 -142q0 -65 -37 -115t-111 -106z" />
    <glyph glyph-name="three" unicode="3" horiz-adv-x="537" 
d="M334 298l-1 1q65 -18 112 -72q46 -53 46 -132q0 -99 -72 -163q-71 -64 -176 -64q-81 0 -145 41q-63 41 -96 108l93 67q62 -92 142 -92q51 0 84 27t33 74q0 46 -35 72q-34 25 -101 25h-81v35l136 191h-220v121h426v-36z" />
    <glyph glyph-name="four" unicode="4" horiz-adv-x="576" 
d="M564 114v-114h-85v-121h-134v121h-328v36l198 501h139l-169 -423h160v186h134v-186h85z" />
    <glyph glyph-name="five" unicode="5" horiz-adv-x="553" 
d="M286 306l2 2q89 0 155 -57t66 -154q0 -101 -73 -165t-180 -64q-83 0 -147 41q-62 40 -97 108l94 67q60 -92 147 -92q52 0 84 28q33 28 33 75t-34 71t-100 24h-155v347h383v-121h-253v-118q40 8 75 8z" />
    <glyph glyph-name="six" unicode="6" horiz-adv-x="562" 
d="M305 448l1 -3q88 0 153 -64q66 -65 66 -160q0 -101 -72 -168q-71 -67 -171 -67q-98 0 -171 68q-72 68 -72 170q0 54 21 97t69 111l165 228h159l-152 -212h4zM282 109l-2 -2q46 0 78 32t32 80q0 49 -31 80q-32 32 -78 32t-78 -32q-31 -31 -31 -78q0 -45 32 -79
q32 -33 78 -33z" />
    <glyph glyph-name="seven" unicode="7" horiz-adv-x="525" 
d="M38 537h464v-36l-302 -622h-147l268 537h-283v121z" />
    <glyph glyph-name="eight" unicode="8" horiz-adv-x="588" 
d="M412 342v-3q129 -53 129 -165q0 -86 -69 -137t-178 -51q-110 0 -179 51t-69 137q0 114 130 166q-100 58 -100 156q0 82 62 129t156 47q95 0 156 -46q62 -47 62 -129q0 -98 -100 -155zM294 560v-1q-41 0 -66 -19q-26 -20 -26 -54q0 -28 23 -48t69 -42q46 21 69 42t23 51
q0 32 -26 52q-25 19 -66 19zM294 94l-2 -1q55 0 84 23t29 60t-28 61q-30 25 -84 44q-57 -20 -84 -43q-28 -24 -28 -61t29 -60t84 -23z" />
    <glyph glyph-name="nine" unicode="9" horiz-adv-x="562" 
d="M282 549l-2 -3q100 0 171 -67q72 -67 72 -169q0 -54 -21 -96q-23 -46 -70 -110l-163 -226h-159l151 210h-5q-85 0 -152 65q-66 65 -66 161q0 100 72 168q71 67 172 67zM279 199h-1q46 0 78 32t32 78q0 49 -31 80q-32 32 -78 32t-78 -32q-31 -31 -31 -80q0 -46 32 -78
t77 -32z" />
    <glyph glyph-name="colon" unicode=":" horiz-adv-x="270" 
d="M136 504q40 0 66 -27q26 -28 26 -67q0 -40 -26 -66t-66 -26q-39 0 -67 26q-27 26 -27 66t27 67t67 27zM136 174h-1q39 0 66 -27t27 -66t-26 -67q-26 -27 -66 -27t-67 27t-27 67q0 39 27 66t67 27z" />
    <glyph glyph-name="semicolon" unicode=";" horiz-adv-x="270" 
d="M136 504q40 0 66 -27q26 -28 26 -67q0 -40 -26 -66t-66 -26q-39 0 -67 26q-27 26 -27 66t27 67t67 27zM222 123l-52 -301h-107l5 301h154z" />
    <glyph glyph-name="less" unicode="&#x3c;" 
d="M501 544v-117l-249 -106l249 -106v-118l-464 205v37z" />
    <glyph glyph-name="equal" unicode="=" 
d="M506 485v-114h-451v114h451zM506 270v-114h-451v114h451z" />
    <glyph glyph-name="greater" unicode="&#x3e;" 
d="M59 544l464 -205v-37l-464 -205v118l249 106l-249 106v117z" />
    <glyph glyph-name="question" unicode="?" horiz-adv-x="452" 
d="M221 672l-2 -3q84 0 141 -48t57 -126q0 -45 -21 -77t-63 -69q-6 -4 -12 -10q-3 -3 -6.5 -6t-4.5 -4l-9 -9l-9 -9l-8 -8q-4 -4 -6 -8q-1 -2 -5 -8q-2 -3 -4 -9l-3 -9q-1 -3 -1 -9q0 -5 2 -21h-114q-11 25 -11 48q0 22 14 45q14 22 26 35q4 4 38 34q36 31 47 45
q12 15 12 37q0 28 -18 46t-44 18q-55 0 -83 -76l-110 48q21 75 73 114t124 39zM212 171q40 0 67 -27t27 -66q0 -40 -27 -67t-67 -27t-67 27t-27 67q0 39 27 66t67 27z" />
    <glyph glyph-name="at" unicode="@" horiz-adv-x="953" 
d="M490 666l-2 -2q182 0 303 -112t121 -273q0 -125 -78 -188t-208 -63h-49v49q-45 -60 -132 -60q-88 0 -145 62q-57 61 -57 156t57 156q57 62 145 62q85 0 129 -56v47h113v-310q117 8 117 147q0 125 -85 203t-228 78q-151 0 -249 -90q-97 -90 -97 -233t96 -232
q95 -88 237 -88q62 0 119 15l21 -93q-66 -25 -153 -25q-179 0 -303 120t-124 302q0 184 131 306t321 122zM469 129l1 1q40 0 69 27t29 79q0 51 -28 78t-69 27t-72 -29q-30 -28 -30 -77q0 -48 29 -77t71 -29z" />
    <glyph glyph-name="A" unicode="A" horiz-adv-x="661" 
d="M502 0l-37 86h-270l-37 -86h-145l295 672h45l294 -672h-145zM417 197l-87 222l-87 -222h174z" />
    <glyph glyph-name="B" unicode="B" horiz-adv-x="621" 
d="M470 357v-1q56 -20 86 -62t30 -101q0 -86 -60 -140t-156 -54h-294v660h234q92 0 150 -51q59 -51 59 -132q0 -73 -49 -119zM299 543h-94v-151h93q40 0 63 21t23 56t-22 54q-23 20 -63 20zM359 115q44 0 69 22t25 61q0 38 -25 60q-26 23 -69 23h-154v-166h154z" />
    <glyph glyph-name="C" unicode="C" horiz-adv-x="720" 
d="M390 672v-5q95 0 171 -43q77 -44 120 -120l-102 -72q-71 111 -189 111q-93 0 -153 -61q-60 -62 -60 -157t60 -155t153 -60q118 0 189 111l102 -72q-43 -77 -120 -120q-76 -43 -171 -43q-148 0 -250 99t-102 244t102 244t250 99z" />
    <glyph glyph-name="D" unicode="D" horiz-adv-x="690" 
d="M292 660h-2q160 0 261 -90q100 -90 100 -238q0 -146 -100 -239q-101 -93 -259 -93h-216v660h216zM289 538l-82 1v-416h80q101 0 162 57t61 152t-60 151q-58 53 -161 55z" />
    <glyph glyph-name="E" unicode="E" horiz-adv-x="573" 
d="M520 660v-122h-309v-134h227v-115h-227v-167h321v-122h-456v660h444z" />
    <glyph glyph-name="F" unicode="F" horiz-adv-x="535" 
d="M510 660v-122h-299v-165h245v-122h-245v-251h-135v660h434z" />
    <glyph glyph-name="G" unicode="G" horiz-adv-x="747" 
d="M391 672v-3q178 0 279 -143l-96 -79q-70 97 -184 97q-95 0 -153 -61t-58 -156q0 -97 60 -159t159 -62q116 0 174 82v54h-182v117h317v-195q-45 -80 -129 -129q-83 -49 -187 -49q-149 0 -251 99t-102 244t102 244t251 99z" />
    <glyph glyph-name="H" unicode="H" horiz-adv-x="713" 
d="M638 660v-660h-135v285h-292v-285h-135v660h135v-253h292v253h135z" />
    <glyph glyph-name="I" unicode="I" horiz-adv-x="286" 
d="M211 660v-660h-135v660h135z" />
    <glyph glyph-name="J" unicode="J" horiz-adv-x="389" 
d="M313 660l1 -484q0 -95 -52 -141q-53 -47 -150 -47q-47 0 -95 12v115q48 -4 66 -4q49 0 72 18t23 61v470h135z" />
    <glyph glyph-name="K" unicode="K" horiz-adv-x="670" 
d="M657 0h-163l-283 344v-344h-135v660h135v-307l252 307h161l-253 -311z" />
    <glyph glyph-name="L" unicode="L" horiz-adv-x="524" 
d="M211 660v-538h289v-122h-424v660h135z" />
    <glyph glyph-name="M" unicode="M" horiz-adv-x="798" 
d="M678 672h44v-672h-135v353l-166 -209h-44l-166 209v-353h-135v672h44l279 -358z" />
    <glyph glyph-name="N" unicode="N" horiz-adv-x="713" 
d="M503 660h135v-672h-45l-382 408v-396h-135v672h44l383 -405v393z" />
    <glyph glyph-name="O" unicode="O" horiz-adv-x="778" 
d="M388 672q146 0 249 -99t103 -244t-103 -244t-249 -99t-248 99t-102 244t102 244t248 99zM389 547l-2 -1q-92 0 -152 -61t-60 -156q0 -96 60 -156t153 -60q92 0 152 61q60 62 60 156t-60 156q-60 61 -151 61z" />
    <glyph glyph-name="P" unicode="P" horiz-adv-x="594" 
d="M324 660v-1q106 0 171 -58q66 -59 66 -154q0 -94 -66 -154t-171 -60h-113v-233h-135v660h248zM324 540l-114 -1v-190h113q47 0 74 27t27 70t-27 68q-28 26 -73 26z" />
    <glyph glyph-name="Q" unicode="Q" horiz-adv-x="778" 
d="M965 -106h-2q28 0 92 4v-106q-51 -13 -118 -13q-133 0 -247 57t-193 169q-56 -17 -111 -17q-146 0 -248 99t-102 244t102 244t248 99t249 -99t103 -244q0 -81 -34 -149q-35 -70 -94 -117q68 -87 153 -129t202 -42zM175 330l-2 -1q0 -96 60 -156t153 -60q92 0 152 61
q60 62 60 156t-60 156q-60 61 -151 61q-92 0 -152 -61q-60 -62 -60 -156z" />
    <glyph glyph-name="R" unicode="R" horiz-adv-x="640" 
d="M633 0l-151 -2l-171 233h-99v-233h-135v660h248q106 0 171 -58q66 -58 66 -154q0 -64 -31 -111q-32 -48 -85 -75zM212 539l-1 -189h113q46 0 74 26q27 26 27 69t-27 68q-28 26 -73 26h-113z" />
    <glyph glyph-name="S" unicode="S" horiz-adv-x="559" 
d="M283 672l-2 1q77 0 132 -34q56 -35 87 -91l-92 -71q-51 76 -126 76q-35 0 -58 -16q-24 -17 -24 -48q0 -26 18 -41q20 -17 60 -34l75 -33q81 -35 123 -82q40 -44 40 -112q0 -90 -65 -144t-165 -54q-84 0 -150 39t-104 107l93 70q69 -96 162 -96q43 0 69 20q25 19 25 54
q0 20 -12 35q-13 16 -27 23l-46 23l-71 32q-75 34 -118 80q-42 45 -42 110q0 84 62 135q61 51 156 51z" />
    <glyph glyph-name="T" unicode="T" horiz-adv-x="585" 
d="M572 660v-122h-212v-538h-135v538h-211v122h558z" />
    <glyph glyph-name="U" unicode="U" horiz-adv-x="700" 
d="M630 660l-3 -387q-2 -132 -78 -208q-78 -78 -201 -78t-201 78t-78 208v387h135v-397q0 -72 41 -111t105 -39t105 39q40 39 40 111v397h135z" />
    <glyph glyph-name="V" unicode="V" horiz-adv-x="661" 
d="M495 660h152l-294 -672h-45l-295 672h153l165 -400z" />
    <glyph glyph-name="W" unicode="W" horiz-adv-x="1035" 
d="M860 660h150l-264 -672h-44l-184 413l-185 -413h-44l-264 672h150l147 -389l173 401h45l173 -401z" />
    <glyph glyph-name="X" unicode="X" horiz-adv-x="614" 
d="M600 0h-153l-140 219l-140 -219h-154l219 336l-206 324h154l127 -209l126 209h153l-202 -324z" />
    <glyph glyph-name="Y" unicode="Y" horiz-adv-x="624" 
d="M607 660l-227 -400v-260h-135v259l-228 401h150l145 -262l146 262h149z" />
    <glyph glyph-name="Z" unicode="Z" horiz-adv-x="588" 
d="M227 122h333v-122h-540v36l331 502h-288v122h496v-36z" />
    <glyph glyph-name="bracketleft" unicode="[" horiz-adv-x="357" 
d="M319 730v-109h-114v-642h114v-109h-229v860h229z" />
    <glyph glyph-name="backslash" unicode="\" horiz-adv-x="672" 
d="M3 780h143l523 -901h-143z" />
    <glyph glyph-name="bracketright" unicode="]" horiz-adv-x="357" 
d="M268 730v-860h-230v109h114v642h-114v109h230z" />
    <glyph glyph-name="asciicircum" unicode="^" horiz-adv-x="536" 
d="M486 276h-129l-89 184l-90 -184h-129l197 394h44z" />
    <glyph glyph-name="underscore" unicode="_" horiz-adv-x="502" 
d="M467 -65v-106h-432v106h432z" />
    <glyph glyph-name="grave" unicode="`" horiz-adv-x="295" 
d="M192 780l73 -209h-98l-137 185v24h162z" />
    <glyph glyph-name="a" unicode="a" horiz-adv-x="545" 
d="M270 506l1 -2q98 0 155 -54t57 -157v-294h-124v48q-57 -60 -151 -60q-80 0 -126 42t-46 107q0 67 51 106t137 39h124v22q0 41 -24 63q-25 23 -69 23q-66 0 -131 -68l-70 83q86 102 216 102zM244 85v1q44 0 74 27t30 71v6h-106q-69 0 -69 -50q0 -25 20 -40q19 -15 51 -15z
" />
    <glyph glyph-name="b" unicode="b" horiz-adv-x="629" 
d="M350 506h-1q106 0 173 -73q68 -74 68 -186q0 -113 -67 -186t-172 -73t-159 74v-62h-124v750h135v-303q53 59 147 59zM324 111h-1q56 0 92 38q36 37 36 99t-37 99q-38 38 -91 38q-52 0 -88 -36t-36 -102q0 -68 37 -102t88 -34z" />
    <glyph glyph-name="c" unicode="c" horiz-adv-x="552" 
d="M304 506l-2 1q74 0 129 -33t87 -90l-94 -73q-48 72 -119 72q-57 0 -93 -39t-36 -97t36 -97t93 -39q69 0 119 71l94 -72q-32 -57 -87 -90t-127 -33q-112 0 -188 75q-77 75 -77 185q0 109 77 184q76 75 188 75z" />
    <glyph glyph-name="d" unicode="d" horiz-adv-x="629" 
d="M427 750l134 -2v-750h-124v62q-54 -74 -159 -74q-104 0 -172 74q-67 73 -67 186q0 112 68 186t173 74q94 0 147 -59v303zM303 109v-3q50 0 88 35q37 34 37 102q0 66 -37 102t-88 36q-54 0 -91 -37t-37 -99q0 -61 36 -99q36 -37 92 -37z" />
    <glyph glyph-name="e" unicode="e" horiz-adv-x="569" 
d="M531 276l-1 -2q0 -36 -9 -74h-348q13 -46 50 -72q35 -25 90 -25q73 0 138 50l56 -92q-89 -74 -198 -74q-117 0 -194 75t-77 185q0 109 75 184t185 75q104 0 168 -66q65 -67 65 -164zM292 395h1q-43 0 -75 -27q-32 -28 -44 -73h226q-1 46 -33 73q-31 27 -75 27z" />
    <glyph glyph-name="f" unicode="f" horiz-adv-x="342" 
d="M315 641h1q-46 0 -69 -18q-22 -18 -22 -60v-69h109v-114h-109v-381h-135v381h-70v114h70v81q0 93 51 140q52 47 140 47q38 0 74 -11v-113q-23 3 -40 3z" />
    <glyph glyph-name="g" unicode="g" horiz-adv-x="631" 
d="M440 495l124 -2v-440q0 -121 -70 -184t-186 -63q-139 0 -243 92l71 94q82 -64 161 -64q60 0 96 30t36 88v27q-54 -59 -151 -59q-104 0 -171 69q-67 68 -67 178t67 177q68 68 171 68q110 0 162 -73v62zM306 127l-2 -2q50 0 88 35q37 34 37 99t-36 96q-37 32 -88 32
q-56 0 -91 -34q-36 -35 -36 -94q0 -60 37 -96t91 -36z" />
    <glyph glyph-name="h" unicode="h" horiz-adv-x="585" 
d="M338 506v-1q84 0 134 -54q50 -55 50 -144v-307h-134v288q0 44 -25 70q-25 27 -66 27q-40 0 -67 -27t-27 -70v-288h-135v750h135v-297q53 53 135 53z" />
    <glyph glyph-name="i" unicode="i" horiz-adv-x="269" 
d="M135 759h-2q35 0 61 -24q25 -24 25 -60q0 -35 -25 -59t-61 -24q-35 0 -61 24q-25 24 -25 59q0 36 26 60q25 24 62 24zM200 495v-495h-135v495h135z" />
    <glyph glyph-name="j" unicode="j" horiz-adv-x="269" 
d="M135 759h-2q35 0 61 -24q25 -24 25 -60q0 -35 -25 -59t-61 -24q-35 0 -61 24q-25 24 -25 59q0 36 26 60q25 24 62 24zM200 495v-502q0 -91 -51 -138q-52 -47 -139 -47q-39 0 -75 11v113q24 -3 41 -3q45 0 67 18t22 59v489h135z" />
    <glyph glyph-name="k" unicode="k" 
d="M555 0h-154l-199 273v-273h-135v750h135v-467l178 212h160l-186 -219z" />
    <glyph glyph-name="l" unicode="l" horiz-adv-x="269" 
d="M202 750v-750h-135v750h135z" />
    <glyph glyph-name="m" unicode="m" horiz-adv-x="892" 
d="M643 506v-1q87 0 137 -54q50 -55 50 -144v-307h-135v288q0 44 -24 69q-24 26 -64 26t-66 -26q-25 -25 -25 -66v-291h-135v288q0 44 -24 69q-24 26 -64 26t-66 -26q-25 -25 -25 -69v-288h-135v495h124v-44q52 55 140 55q100 0 147 -71q62 71 165 71z" />
    <glyph glyph-name="n" unicode="n" horiz-adv-x="585" 
d="M336 506l1 -1q85 0 135 -54q50 -55 50 -144v-307h-134v289q0 44 -25 70q-25 27 -66 27q-40 0 -67 -27t-27 -70v-289h-135v495h124v-45q56 56 144 56z" />
    <glyph glyph-name="o" unicode="o" horiz-adv-x="608" 
d="M304 506l-1 -1q110 0 188 -75t78 -184t-78 -184t-189 -75q-110 0 -187 75q-76 75 -76 185q0 109 77 184q76 75 188 75zM303 382l-1 -1q-56 0 -92 -39t-36 -97q0 -59 36 -96t92 -37t92 38t36 96t-36 97t-91 39z" />
    <glyph glyph-name="p" unicode="p" horiz-adv-x="629" 
d="M350 506l-2 1q106 0 173 -73q68 -74 68 -186q0 -113 -67 -186q-68 -74 -172 -74q-92 0 -148 60v-228h-135v675h124v-62q52 73 159 73zM323 112h-1q53 0 91 38q37 37 37 99q0 61 -36 99t-91 38q-51 0 -88 -34t-37 -102q0 -66 36 -102t89 -36z" />
    <glyph glyph-name="q" unicode="q" horiz-adv-x="629" 
d="M438 495l122 -1v-675h-135v228q-55 -60 -148 -60q-104 0 -172 74q-67 73 -67 186q0 112 68 186q67 73 173 73q107 0 159 -73v62zM302 110l-1 -3q51 0 88 36t37 102q0 68 -37 102q-38 35 -88 35q-55 0 -91 -37t-36 -99t37 -99t91 -37z" />
    <glyph glyph-name="r" unicode="r" horiz-adv-x="388" 
d="M327 501l-1 1q26 0 45 -6v-119h-36q-61 0 -97 -33t-36 -97v-247h-135v495h124v-60q51 66 136 66z" />
    <glyph glyph-name="s" unicode="s" horiz-adv-x="455" 
d="M235 507l-1 -5q110 0 178 -75l-68 -83q-50 47 -111 47q-53 0 -53 -35q0 -14 12 -23q8 -6 41 -20l48 -20q74 -31 105 -62q33 -33 33 -88q0 -74 -54 -116t-138 -42q-131 0 -205 96l68 82q64 -67 138 -67q26 0 45 11q18 11 18 30q0 16 -12 25q-13 9 -40 21l-53 22
q-68 29 -101 63t-33 90q0 71 51 110t132 39z" />
    <glyph glyph-name="t" unicode="t" horiz-adv-x="416" 
d="M321 109h1q17 0 64 4v-113q-48 -12 -93 -12q-94 0 -147 47q-52 46 -52 140v207h-78v114h78v125h135v-125h140v-114h-140v-195q0 -42 22 -60t70 -18z" />
    <glyph glyph-name="u" unicode="u" horiz-adv-x="580" 
d="M518 495l-3 -278q-2 -105 -64 -166q-65 -63 -162 -63q-101 0 -165 63t-64 167v277h135v-288q0 -43 27 -69q28 -26 68 -26q38 0 66 26q27 26 27 69v288h135z" />
    <glyph glyph-name="v" unicode="v" horiz-adv-x="559" 
d="M404 495h143l-245 -507h-45l-245 507h142l125 -281z" />
    <glyph glyph-name="w" unicode="w" horiz-adv-x="857" 
d="M703 495h142l-230 -507h-44l-143 288l-142 -288h-44l-230 507h142l118 -282l134 293h45l137 -287z" />
    <glyph glyph-name="x" unicode="x" horiz-adv-x="531" 
d="M523 0h-151l-107 158l-106 -158h-151l182 256l-170 239h151l94 -142l95 142h151l-171 -239z" />
    <glyph glyph-name="y" unicode="y" horiz-adv-x="559" 
d="M405 495h142l-237 -538q-35 -77 -81 -113q-47 -36 -116 -36q-42 0 -87 12v113q41 -4 58 -4q35 0 61 14q23 12 42 53l15 33l-190 466h143l121 -325z" />
    <glyph glyph-name="z" unicode="z" horiz-adv-x="468" 
d="M215 114h237v-114h-435v36l236 345h-213v114h410v-36z" />
    <glyph glyph-name="braceleft" unicode="{" horiz-adv-x="413" 
d="M317 621l2 -1q-62 0 -62 -65q0 -16 11 -82t11 -88q0 -37 -18 -58t-55 -30q37 -9 54 -29t17 -57q0 -23 -11 -87t-11 -83q0 -65 62 -65h58v-108h-81q-154 0 -154 140q0 31 11 99t11 82q0 52 -55 52h-62v115h62q55 0 55 52q0 15 -11 83t-11 98q0 141 154 141h81v-109h-58z
" />
    <glyph glyph-name="bar" unicode="|" horiz-adv-x="332" 
d="M222 780v-901h-112v901h112z" />
    <glyph glyph-name="braceright" unicode="}" horiz-adv-x="413" 
d="M306 357l61 -2v-115h-61q-55 0 -55 -52q0 -14 11 -82t11 -99q0 -140 -154 -140h-81v108h57q63 0 63 65q0 19 -11 83t-11 87q0 37 17 57t54 29q-37 9 -54 30q-17 22 -17 58q0 22 11 88t11 83q0 65 -63 65h-57v109h81q154 0 154 -141q0 -29 -11 -97t-11 -82q0 -51 55 -52z
" />
    <glyph glyph-name="asciitilde" unicode="~" 
d="M157 432q42 0 84 -26l88 -54q36 -22 55 -22q16 0 25 11t9 27v16h102q3 -14 3 -33q0 -62 -35 -103q-34 -40 -86 -40q-42 0 -85 26l-88 53q-37 23 -55 23q-33 0 -33 -39v-15h-103q-2 24 -2 33q0 61 35 102t86 41z" />
    <glyph glyph-name="exclamdown" unicode="&#xa1;" horiz-adv-x="347" 
d="M175 506h-1q38 0 66 -26q27 -26 27 -66t-27 -67t-66 -27q-40 0 -67 27t-27 67t27 66q28 26 68 26zM228 252l25 -432h-161l26 432h110z" />
    <glyph glyph-name="cent" unicode="&#xa2;" horiz-adv-x="557" 
d="M300 191l-1 2q70 0 120 71l93 -72q-57 -104 -175 -120v-167h-118v175q-82 24 -135 92q-52 67 -52 156t52 156q53 68 135 92v175h118v-167q119 -16 177 -120l-94 -72q-50 71 -120 71q-57 0 -93 -39t-36 -97t36 -97t93 -39z" />
    <glyph glyph-name="sterling" unicode="&#xa3;" horiz-adv-x="569" 
d="M308 219l1 -1q0 -59 -32 -105h249v-114h-483v29q65 47 99 92q33 44 33 96v10h-122v114h79q-43 82 -43 138q0 87 62 140t156 53q85 0 144 -46q60 -47 84 -135l-113 -41q-31 97 -108 97q-42 0 -66 -25t-24 -66q0 -18 8 -42q7 -20 14 -33l23 -39h161v-114h-122v-8z" />
    <glyph glyph-name="currency" unicode="&#xa4;" horiz-adv-x="657" 
d="M571 330v-1q0 -71 -39 -126l108 -110l-80 -80l-112 114q-55 -31 -123 -31q-64 0 -121 30l-106 -113l-81 80l103 109q-39 55 -39 128q0 68 39 126l-103 105l81 81l106 -109q56 31 121 31q66 0 125 -32l109 110l81 -81l-107 -105q38 -58 38 -126zM326 219h-1q47 0 77 31
q30 32 30 79t-30 79q-30 31 -76 31q-48 0 -78 -31q-30 -32 -30 -79t30 -79q30 -31 78 -31z" />
    <glyph glyph-name="yen" unicode="&#xa5;" horiz-adv-x="599" 
d="M594 660l-197 -285h151v-109h-180v-62h180v-109h-180v-95h-135v95h-181v109h181v62h-181v109h150l-197 285h150l145 -213l145 213h149z" />
    <glyph glyph-name="brokenbar" unicode="&#xa6;" horiz-adv-x="332" 
d="M222 780v-300h-112v300h112zM222 179v-300h-112v300h112z" />
    <glyph glyph-name="section" unicode="&#xa7;" horiz-adv-x="602" 
d="M573 196l-2 -2q0 -53 -31 -90q-32 -38 -85 -54q2 -22 2 -24q0 -72 -51 -117t-136 -45q-135 0 -198 107l85 69q47 -63 113 -63q60 0 60 48q0 23 -16 40q-16 18 -58 46l-91 62q-84 57 -105 84q-32 41 -32 91q0 53 31 90q32 38 85 54q-2 10 -2 24q0 72 51 117t136 45
q134 0 197 -107l-85 -69q-47 63 -113 63q-60 0 -60 -48q0 -23 16 -39q12 -12 60 -45l90 -62q84 -57 106 -84q33 -40 33 -91zM321 205h-2q60 -38 89 -69q34 19 34 54q0 20 -15 38t-61 49l-98 65q-54 36 -82 64q-34 -19 -34 -54q0 -20 16 -37q15 -17 63 -49z" />
    <glyph glyph-name="dieresis" unicode="&#xa8;" horiz-adv-x="459" 
d="M111 754l2 -1q32 0 57 -23q24 -22 24 -56q0 -32 -24 -54q-25 -23 -57 -23q-31 0 -57 24q-25 24 -25 54q0 33 24 56q25 23 56 23zM351 753l2 -1q32 0 57 -23q24 -22 24 -56q0 -31 -24 -54q-25 -23 -57 -23q-31 0 -57 24q-25 24 -25 54q0 34 24 56q25 23 56 23z" />
    <glyph glyph-name="copyright" unicode="&#xa9;" horiz-adv-x="778" 
d="M389 672l-2 -1q145 0 248 -99q104 -99 104 -243t-104 -243q-103 -99 -248 -99q-143 0 -247 99q-103 99 -103 243q0 145 104 244q103 99 248 99zM386 591v1q-109 0 -185 -73q-77 -74 -77 -190q0 -117 77 -189q76 -72 185 -72q107 0 185 72t78 188q0 117 -78 190
q-77 73 -185 73zM394 516l3 -1q92 0 150 -79l-70 -61q-34 46 -81 46q-38 0 -62 -26q-24 -25 -24 -66q0 -39 24 -65t62 -26q47 0 80 45l70 -61q-60 -78 -152 -78q-79 0 -134 53q-54 53 -54 132t54 133t134 54z" />
    <glyph glyph-name="ordfeminine" unicode="&#xaa;" horiz-adv-x="371" 
d="M183 565h-3q66 0 104 -35t38 -102v-184h-95v25q-35 -33 -90 -33q-51 0 -79 28t-28 70q0 44 33 68t90 24h67v11q0 42 -50 42q-35 0 -83 -33l-42 67q58 52 138 52zM169 310v-1q22 0 35 13q14 14 14 36v9h-49q-35 0 -35 -29q0 -28 35 -28z" />
    <glyph glyph-name="guillemotleft" unicode="&#xab;" horiz-adv-x="597" 
d="M224 500l86 -75l-135 -152l135 -153l-86 -75l-195 209v36zM481 500l86 -75l-135 -152l135 -153l-86 -75l-195 209v36z" />
    <glyph glyph-name="logicalnot" unicode="&#xac;" 
d="M484 378v-275h-126v160h-315v115h441z" />
    <glyph glyph-name="uni00AD" unicode="&#xad;" horiz-adv-x="342" 
d="M297 377v-113h-252v113h252z" />
    <glyph glyph-name="registered" unicode="&#xae;" horiz-adv-x="574" 
d="M288 692l-1 -1q104 0 179 -75t75 -181t-75 -181t-178 -75q-105 0 -180 75t-75 182q0 106 75 181t180 75zM287 241l-1 -1q79 0 133 56t54 138t-54 138t-132 56q-80 0 -134 -55t-54 -138t54 -138q54 -56 134 -56zM351 400l66 -92h-77l-57 75h-28v-75h-70v251h104
q43 0 72 -24t29 -64q0 -47 -39 -71zM255 498v-57h34q13 0 21 8t8 20q0 13 -8 21t-21 8h-34z" />
    <glyph glyph-name="macron" unicode="&#xaf;" horiz-adv-x="362" 
d="M332 728v-106h-302v106h302z" />
    <glyph glyph-name="degree" unicode="&#xb0;" horiz-adv-x="361" 
d="M181 672v2q65 0 110 -45t45 -109t-45 -109t-110 -45q-66 0 -111 45t-45 108t45 108t111 45zM181 587l-1 -2q-29 0 -48 -19t-19 -48t19 -48t48 -19q28 0 48 20q19 19 19 48t-18 49q-18 19 -48 19z" />
    <glyph glyph-name="plusminus" unicode="&#xb1;" 
d="M345 558v-134h161v-109h-161v-141h-129v141h-161v109h161v134h129zM506 108v-108h-451v108h451z" />
    <glyph glyph-name="uni00B2" unicode="&#xb2;" horiz-adv-x="385" 
d="M214 454l132 -1v-90l-313 -1v21l149 162q52 58 52 97q0 25 -13 39q-13 15 -36 15t-36 -15q-13 -14 -13 -40q0 -1 0.5 -5t1 -10.5t0.5 -13.5h-99q-4 15 -4 35q0 56 42 98t109 42q64 0 108 -39q43 -39 43 -97q0 -44 -22 -79q-23 -36 -69 -84z" />
    <glyph glyph-name="uni00B3" unicode="&#xb3;" horiz-adv-x="360" 
d="M235 628l-2 -1q39 -14 65 -46q27 -33 27 -80q0 -63 -46 -105q-47 -42 -114 -42q-53 0 -93 27t-61 72l69 49q37 -55 84 -55q26 0 42 15q17 15 17 40q0 48 -76 48h-48v25l78 115h-133v90h275v-27z" />
    <glyph glyph-name="acute" unicode="&#xb4;" horiz-adv-x="295" 
d="M265 780v-24l-137 -185h-98l72 209h163z" />
    <glyph glyph-name="uni00B5" unicode="&#xb5;" horiz-adv-x="610" 
d="M568 111h-1q18 0 27 1v-112q-31 -10 -72 -10q-75 0 -107 53q-40 -55 -111 -55q-63 0 -103 46v-214h-135v675h135v-285q0 -44 26 -72q25 -27 66 -27t68 27t27 72v285h134v-323q0 -61 46 -61z" />
    <glyph glyph-name="paragraph" unicode="&#xb6;" horiz-adv-x="613" 
d="M338 660l-1 -444h-58q-106 0 -177 62q-70 61 -70 162q0 100 70 160q71 60 178 60h58zM537 659l-1 -664q0 -95 -52 -141q-53 -47 -147 -47q-47 0 -93 12v115q48 -4 64 -4q48 0 71 18t23 62v649h135z" />
    <glyph glyph-name="periodcentered" unicode="&#xb7;" horiz-adv-x="270" 
d="M136 413h-1q39 0 66 -27t27 -66t-26 -67q-26 -27 -66 -27t-67 27t-27 67q0 39 27 66t67 27z" />
    <glyph glyph-name="cedilla" unicode="&#xb8;" horiz-adv-x="289" 
d="M192 44l1 -1q67 -37 67 -108q0 -55 -42 -91t-114 -36q-41 0 -74 10v89q34 -2 60 -2q28 0 45 15t17 43q0 27 -13 57z" />
    <glyph glyph-name="uni00B9" unicode="&#xb9;" horiz-adv-x="370" 
d="M246 780v-326h86v-90h-290v90h103v236h-94v90h195z" />
    <glyph glyph-name="ordmasculine" unicode="&#xba;" horiz-adv-x="400" 
d="M200 565v1q70 0 120 -48t50 -117q0 -70 -50 -118t-120 -48q-72 0 -121 48t-49 118t50 117t120 47zM200 473v-2q-30 0 -48 -19q-18 -20 -18 -51t18 -51q18 -19 48 -19t48 20q18 19 18 51t-18 51q-18 20 -48 20z" />
    <glyph glyph-name="guillemotright" unicode="&#xbb;" horiz-adv-x="597" 
d="M117 500l194 -210v-36l-194 -209l-86 75l134 153l-134 152zM374 500l194 -210v-36l-194 -209l-87 75l135 153l-135 152z" />
    <glyph glyph-name="onequarter" unicode="&#xbc;" horiz-adv-x="936" 
d="M332 334v-90h-290v90h103v236h-94v90h195v-326h86zM631 660h109l-380 -660h-109zM926 146v-82h-50v-64h-91v64h-212v26l124 326h103l-104 -270h89v109h91v-109h50z" />
    <glyph glyph-name="onehalf" unicode="&#xbd;" horiz-adv-x="971" 
d="M332 334v-90h-290v90h103v236h-94v90h195v-326h86zM631 660h109l-380 -660h-109zM800 90l132 -1v-90l-313 -1v21l149 162q52 58 52 97q0 25 -13 39q-13 15 -36 15t-36 -15q-13 -14 -13 -40q0 -1 0.5 -5t1 -10.5t0.5 -13.5h-99q-4 15 -4 35q0 56 42 98t109 42
q64 0 108 -39q43 -39 43 -97q0 -44 -22 -79q-23 -36 -69 -84z" />
    <glyph glyph-name="threequarters" unicode="&#xbe;" horiz-adv-x="891" 
d="M326 382l-1 -1q0 -63 -46 -105q-47 -42 -114 -42q-53 0 -93 27t-61 72l69 49q37 -55 84 -55q26 0 42 15q17 15 17 40q0 48 -76 48h-48v25l78 115h-133v90h275v-27l-85 -125q38 -12 65 -45t27 -81zM585 659h109l-380 -660h-109zM880 145v-82h-50v-64h-91v64h-212v26
l124 326h103l-104 -270h89v109h91v-109h50z" />
    <glyph glyph-name="questiondown" unicode="&#xbf;" horiz-adv-x="451" 
d="M237 506q39 0 67 -26q27 -26 27 -66t-27 -67t-67 -27t-67 27t-27 67t27 66q28 26 67 26zM299 252l-4 4q11 -30 11 -47q0 -10 -1 -15q-2 -10 -3 -14q-2 -7 -6 -14q-1 -2 -3.5 -6t-3.5 -6l-9 -12l-9 -12q-4 -6 -10 -12l-10 -10q-1 -1 -2.5 -2t-4.5 -3.5t-5 -4.5
q-6 -5 -10 -9q-33 -31 -45 -49q-13 -19 -13 -42q0 -29 19 -47q20 -18 45 -18q53 0 81 75l111 -48q-21 -75 -73 -114t-123 -39q-84 0 -141 51t-57 131q0 49 21 82q22 35 61 68q39 34 55 54q15 18 15 39v11v9h114z" />
    <glyph glyph-name="Agrave" unicode="&#xc0;" horiz-adv-x="661" 
d="M380 724h-98l-137 162v24h163zM502 0l-37 86h-270l-37 -86h-145l295 672h45l294 -672h-145zM417 197l-87 222l-87 -222h174z" />
    <glyph glyph-name="Aacute" unicode="&#xc1;" horiz-adv-x="661" 
d="M513 886l-137 -162h-98l72 186h163v-24zM502 0l-37 86h-270l-37 -86h-145l295 672h45l294 -672h-145zM417 197l-87 222l-87 -222h174z" />
    <glyph glyph-name="Acircumflex" unicode="&#xc2;" horiz-adv-x="661" 
d="M330 804l-90 -80h-102l148 186h89l148 -186h-103zM502 0l-37 86h-270l-37 -86h-145l295 672h45l294 -672h-145zM417 197l-87 222l-87 -222h174z" />
    <glyph glyph-name="Atilde" unicode="&#xc3;" horiz-adv-x="661" 
d="M237 735l-104 1q-3 16 -3 34q0 60 33 97t83 37q38 0 75 -21l31 -18q30 -17 44 -17q28 0 28 34v12h103q2 -14 2 -33q0 -61 -33 -99q-33 -37 -82 -37q-35 0 -75 22l-30 16q-32 17 -45 17q-27 0 -27 -33v-12zM501 1l-37 86h-270l-37 -86h-145l295 672h45l294 -672h-145z
M416 198l-87 222l-87 -222h174z" />
    <glyph glyph-name="Adieresis" unicode="&#xc4;" horiz-adv-x="661" 
d="M202 737l2 -3q-32 0 -57 24t-25 54q0 34 24 56q25 23 56 23q34 0 57 -22q24 -23 24 -55t-24 -54q-25 -23 -57 -23zM462 733l2 -1q-32 0 -57 24t-25 54q0 34 24 56q25 23 56 23q32 0 57 -23q24 -22 24 -56q0 -32 -24 -54q-25 -23 -57 -23zM506 -4l-37 86h-270l-37 -86
h-145l295 672h45l294 -672h-145zM421 193l-87 222l-87 -222h174z" />
    <glyph glyph-name="Aring" unicode="&#xc5;" horiz-adv-x="661" 
d="M330 675q-54 0 -90 36t-36 88q0 51 36 86q37 35 90 35q54 0 91 -35q36 -35 36 -86q0 -52 -36 -88t-91 -36zM331 839h1q-18 0 -30 -12t-12 -29q0 -18 12 -30t29 -12t29 12t12 30q0 17 -12 29t-29 12zM503 0l-37 86h-270l-37 -86h-145l295 672h45l294 -672h-145zM418 197
l-87 222l-87 -222h174z" />
    <glyph glyph-name="AE" unicode="&#xc6;" horiz-adv-x="852" 
d="M569 122h243v-122h-355l-15 86h-247l-45 -86h-145l338 660h457v-122h-301l23 -134h197v-115h-178zM380 466l-129 -269h172z" />
    <glyph glyph-name="Ccedilla" unicode="&#xc7;" horiz-adv-x="720" 
d="M390 113v-4q118 0 189 111l102 -72q-71 -125 -214 -156q16 -26 16 -61q0 -55 -42 -91t-114 -36q-41 0 -74 10v89q34 -2 60 -2q29 0 45 15q17 15 17 43q0 13 -3 27q-142 6 -238 103t-96 238q0 145 102 244t250 99q95 0 171 -43q77 -43 120 -120l-102 -72q-71 111 -189 111
q-93 0 -153 -61t-60 -157q0 -95 60 -155t153 -60z" />
    <glyph glyph-name="Egrave" unicode="&#xc8;" horiz-adv-x="573" 
d="M272 910l72 -186h-98l-137 162v24h163zM520 660v-122h-309v-134h227v-115h-227v-167h321v-122h-456v660h444z" />
    <glyph glyph-name="Eacute" unicode="&#xc9;" horiz-adv-x="573" 
d="M477 910v-24l-137 -162h-98l72 186h163zM520 660v-122h-309v-134h227v-115h-227v-167h321v-122h-456v660h444z" />
    <glyph glyph-name="Ecircumflex" unicode="&#xca;" horiz-adv-x="573" 
d="M294 804l-90 -80h-102l148 186h89l148 -186h-103zM211 122h321v-122h-456v660h444v-122h-309v-134h227v-115h-227v-167z" />
    <glyph glyph-name="Edieresis" unicode="&#xcb;" horiz-adv-x="573" 
d="M166 892l2 -3q34 0 57 -22q24 -23 24 -55t-24 -54q-25 -23 -57 -23t-57 24t-25 54q0 33 24 56q25 23 56 23zM426 889l2 -1q32 0 57 -23q24 -22 24 -56q0 -31 -24 -54q-25 -23 -57 -23t-57 24t-25 54q0 34 24 56q25 23 56 23zM524 656v-122h-309v-134h227v-115h-227v-167
h321v-122h-456v660h444z" />
    <glyph glyph-name="Igrave" unicode="&#xcc;" horiz-adv-x="286" 
d="M120 910l72 -186h-98l-137 162v24h163zM211 660v-660h-135v660h135z" />
    <glyph glyph-name="Iacute" unicode="&#xcd;" horiz-adv-x="286" 
d="M326 910v-24l-137 -162h-98l72 186h163zM211 660v-660h-135v660h135z" />
    <glyph glyph-name="Icircumflex" unicode="&#xce;" horiz-adv-x="286" 
d="M188 910l148 -186h-103l-90 80l-90 -80h-102l148 186h89zM76 0v660h135v-660h-135z" />
    <glyph glyph-name="Idieresis" unicode="&#xcf;" horiz-adv-x="286" 
d="M14 892l2 -3q34 0 57 -22q24 -23 24 -55t-24 -54q-25 -23 -57 -23t-57 24t-25 54q0 33 24 56q25 23 56 23zM274 889l2 -1q32 0 57 -23q24 -22 24 -56q0 -31 -24 -54q-25 -23 -57 -23t-57 24t-25 54q0 34 24 56q25 23 56 23zM215 656v-660h-135v660h135z" />
    <glyph glyph-name="Eth" unicode="&#xd0;" horiz-adv-x="690" 
d="M292 660h-2q160 0 261 -90q100 -90 100 -238q0 -146 -100 -239q-101 -93 -259 -93h-216v257h-84v113h84v290h216zM289 122l-2 1q101 0 162 57t61 152t-60 151q-59 55 -161 55h-80v-168h108v-113h-108v-135h80z" />
    <glyph glyph-name="Ntilde" unicode="&#xd1;" horiz-adv-x="713" 
d="M264 735l-103 1q-3 16 -3 34q0 60 33 97t83 37q36 0 74 -21l31 -18q30 -17 44 -17q28 0 28 34v12h103q2 -14 2 -33q0 -61 -33 -99q-33 -37 -82 -37q-35 0 -75 22l-30 16q-32 17 -45 17q-27 0 -27 -33v-12zM503 661h135v-672h-45l-382 408v-396h-135v672h44l383 -405v393z
" />
    <glyph glyph-name="Ograve" unicode="&#xd2;" horiz-adv-x="778" 
d="M366 910l72 -186h-98l-137 162v24h163zM388 672q146 0 249 -99t103 -244t-103 -244t-249 -99t-248 99t-102 244t102 244t248 99zM389 547l-2 -1q-92 0 -152 -61t-60 -156q0 -96 60 -156t153 -60q92 0 152 61q60 62 60 156t-60 156q-60 61 -151 61z" />
    <glyph glyph-name="Oacute" unicode="&#xd3;" horiz-adv-x="778" 
d="M571 910v-24l-137 -162h-98l72 186h163zM388 672q146 0 249 -99t103 -244t-103 -244t-249 -99t-248 99t-102 244t102 244t248 99zM389 547l-2 -1q-92 0 -152 -61t-60 -156q0 -96 60 -156t153 -60q92 0 152 61q60 62 60 156t-60 156q-60 61 -151 61z" />
    <glyph glyph-name="Ocircumflex" unicode="&#xd4;" horiz-adv-x="778" 
d="M388 804l-90 -80h-102l148 186h89l148 -186h-103zM388 672q146 0 249 -99t103 -244t-103 -244t-249 -99t-248 99t-102 244t102 244t248 99zM389 113l-2 -1q92 0 152 61t60 156t-60 156t-151 61q-92 0 -152 -61t-60 -156q0 -96 60 -156t153 -60z" />
    <glyph glyph-name="Otilde" unicode="&#xd5;" horiz-adv-x="778" 
d="M306 903v1q36 0 74 -21l31 -18q30 -17 44 -17q28 0 28 34v12h103q2 -14 2 -33q0 -61 -33 -99q-33 -37 -82 -37q-35 0 -75 22l-30 16q-32 17 -45 17q-27 0 -27 -33v-12h-103q-3 16 -3 34q0 59 33 97q33 37 83 37zM388 673q146 0 249 -99t103 -244t-103 -244t-249 -99
t-248 99t-102 244t102 244t248 99zM389 548l-2 -1q-92 0 -152 -61q-60 -62 -60 -156q0 -96 60 -156t153 -60q92 0 152 61t60 156t-60 156t-151 61z" />
    <glyph glyph-name="Odieresis" unicode="&#xd6;" horiz-adv-x="778" 
d="M260 892l2 -3q34 0 57 -22q24 -23 24 -55t-24 -54q-25 -23 -57 -23t-57 24t-25 54q0 33 24 56q25 23 56 23zM520 889l2 -1q32 0 57 -23q24 -22 24 -56q0 -31 -24 -54q-25 -23 -57 -23t-57 24t-25 54q0 34 24 56q25 23 56 23zM392 668q146 0 249 -99t103 -244t-103 -244
t-249 -99t-248 99t-102 244t102 244t248 99zM393 543l-2 -1q-92 0 -152 -61t-60 -156q0 -96 60 -156t153 -60q92 0 152 61q60 62 60 156t-60 156q-60 61 -151 61z" />
    <glyph glyph-name="multiply" unicode="&#xd7;" 
d="M427 550l80 -80l-147 -147l147 -147l-80 -81l-148 147l-147 -147l-80 81l147 147l-147 147l80 80l148 -147z" />
    <glyph glyph-name="Oslash" unicode="&#xd8;" horiz-adv-x="778" 
d="M747 608l-75 -75q68 -89 68 -203q0 -145 -103 -244t-249 -99q-110 0 -200 60l-76 -77l-81 81l74 74q-67 91 -67 204q0 145 102 244t248 99q113 0 201 -61l77 78zM171 330l-1 -1q0 -61 26 -111l305 306q-50 29 -113 29q-94 0 -156 -63q-61 -62 -61 -160zM606 329l-1 -1
q0 60 -27 111l-304 -305q50 -29 114 -29q94 0 156 63q62 64 62 161z" />
    <glyph glyph-name="Ugrave" unicode="&#xd9;" horiz-adv-x="700" 
d="M327 910l72 -186h-98l-137 162v24h163zM630 660l-3 -387q-2 -132 -78 -208q-78 -78 -201 -78t-201 78t-78 208v387h135v-397q0 -72 41 -111t105 -39t105 39q40 39 40 111v397h135z" />
    <glyph glyph-name="Uacute" unicode="&#xda;" horiz-adv-x="700" 
d="M532 910v-24l-137 -162h-98l72 186h163zM630 660l-3 -387q-2 -132 -78 -208q-78 -78 -201 -78t-201 78t-78 208v387h135v-397q0 -72 41 -111t105 -39t105 39q40 39 40 111v397h135z" />
    <glyph glyph-name="Ucircumflex" unicode="&#xdb;" horiz-adv-x="700" 
d="M349 804l-90 -80h-102l148 186h89l148 -186h-103zM495 660h132v-387q0 -130 -78 -208t-201 -78t-201 78t-78 208v387h135v-397q0 -72 41 -111t105 -39t105 39q40 39 40 111v397z" />
    <glyph glyph-name="Udieresis" unicode="&#xdc;" horiz-adv-x="700" 
d="M221 892l2 -3q34 0 57 -22q24 -23 24 -55t-24 -54q-25 -23 -57 -23q-31 0 -57 24q-25 24 -25 54q0 33 24 56q25 23 56 23zM481 889l2 -1q32 0 57 -23q24 -22 24 -56q0 -31 -24 -54q-25 -23 -57 -23q-31 0 -57 24q-25 24 -25 54q0 34 24 56q25 23 56 23zM634 656l-3 -387
q-2 -132 -78 -208q-78 -78 -201 -78t-201 78t-78 208v387h135v-397q0 -72 41 -111t105 -39t105 39q40 39 40 111v397h135z" />
    <glyph glyph-name="Yacute" unicode="&#xdd;" horiz-adv-x="624" 
d="M493 886l-137 -162h-98l72 186h163v-24zM607 660l-227 -400v-260h-135v259l-228 401h150l145 -262l146 262h149z" />
    <glyph glyph-name="Thorn" unicode="&#xde;" horiz-adv-x="594" 
d="M211 660v-101h113q104 0 171 -59q66 -58 66 -156q0 -96 -66 -156t-171 -60h-113v-128h-135v660h135zM324 440h-113v-194h113q46 0 73 27t27 70t-27 70t-73 27z" />
    <glyph glyph-name="germandbls" unicode="&#xdf;" horiz-adv-x="650" 
d="M308 762l-4 -4q95 0 152 -45t57 -118q0 -41 -17 -83l-36 -93q-16 -40 -16 -55q0 -6 1 -9l3 -9q1 -3 5 -9q2 -3 6 -7q1 -1 9 -7t9 -7t11 -7q5 -3 11 -6l12 -8q10 -7 14 -8q50 -30 74 -62q24 -31 24 -81q0 -72 -51 -115q-50 -43 -136 -43q-105 0 -176 61l51 95
q65 -42 125 -42q57 0 57 42q0 10 -3 18q-3 7 -15 16q-17 13 -19 14l-32 20q-6 5 -10 6q-51 31 -78 59q-25 26 -25 63q0 26 18 72l34 87q14 37 14 66q0 34 -20 56q-19 21 -57 21q-44 0 -72 -30q-29 -31 -29 -93v-516h-133v522q0 113 65 176t177 63z" />
    <glyph glyph-name="agrave" unicode="&#xe0;" horiz-adv-x="545" 
d="M321 571h-98l-137 185v24h162zM270 506l1 -2q98 0 155 -54t57 -157v-294h-124v48q-57 -60 -151 -60q-80 0 -126 42t-46 107q0 67 51 106t137 39h124v22q0 41 -24 63q-25 23 -69 23q-66 0 -131 -68l-70 83q86 102 216 102zM244 85v1q44 0 74 27t30 71v6h-106
q-69 0 -69 -50q0 -25 20 -40q19 -15 51 -15z" />
    <glyph glyph-name="aacute" unicode="&#xe1;" horiz-adv-x="545" 
d="M457 756l-137 -185h-98l72 209h163v-24zM270 506l1 -2q98 0 155 -54t57 -157v-294h-124v48q-57 -60 -151 -60q-80 0 -126 42t-46 107q0 67 51 106t137 39h124v22q0 41 -24 63q-25 23 -69 23q-66 0 -131 -68l-70 83q86 102 216 102zM244 85v1q44 0 74 27t30 71v6h-106
q-69 0 -69 -50q0 -25 20 -40q19 -15 51 -15z" />
    <glyph glyph-name="acircumflex" unicode="&#xe2;" horiz-adv-x="545" 
d="M271 663l-80 -92h-99l135 209h88l134 -209h-98zM270 506l1 -2q98 0 155 -54t57 -157v-294h-124v48q-57 -60 -151 -60q-80 0 -126 42t-46 107q0 67 51 106t137 39h124v22q0 41 -24 63q-25 23 -69 23q-66 0 -131 -68l-70 83q86 102 216 102zM244 85v1q44 0 74 27t30 71v6
h-106q-69 0 -69 -50q0 -25 20 -40q19 -15 51 -15z" />
    <glyph glyph-name="atilde" unicode="&#xe3;" horiz-adv-x="545" 
d="M183 590h-103q-2 30 -2 33q0 61 33 99t82 38q36 0 71 -22l28 -18q27 -18 40 -18q28 0 28 35v12h103q2 -32 2 -34q0 -61 -33 -99q-33 -37 -82 -37q-36 0 -72 22l-28 17q-32 19 -39 19q-28 0 -28 -35v-12zM270 506l1 -2q98 0 155 -54t57 -157v-294h-124v48
q-57 -60 -151 -60q-80 0 -126 42t-46 107q0 67 51 106t137 39h124v22q0 41 -24 63q-25 23 -69 23q-66 0 -131 -68l-70 83q86 102 216 102zM244 85v1q44 0 74 27t30 71v6h-106q-69 0 -69 -50q0 -25 20 -40q19 -15 51 -15z" />
    <glyph glyph-name="adieresis" unicode="&#xe4;" horiz-adv-x="545" 
d="M152 598l2 -1q-32 0 -57 24t-25 54q0 33 24 56q25 23 56 23q32 0 57 -23q24 -23 24 -56q0 -31 -24 -54q-25 -23 -57 -23zM392 597l2 -1q-32 0 -57 24t-25 54q0 34 24 56q25 23 56 23q32 0 57 -23q24 -22 24 -56q0 -32 -24 -54q-25 -23 -57 -23zM274 504l1 -2
q98 0 155 -54t57 -157v-294h-124v48q-57 -60 -151 -60q-80 0 -126 42t-46 107q0 67 51 106t137 39h124v22q0 41 -24 63q-25 23 -69 23q-66 0 -131 -68l-70 83q86 102 216 102zM248 83v1q44 0 74 27t30 71v6h-106q-69 0 -69 -50q0 -25 20 -40q19 -15 51 -15z" />
    <glyph glyph-name="aring" unicode="&#xe5;" horiz-adv-x="545" 
d="M270 548v-1q-54 0 -90 36t-36 88q0 51 36 87t90 36t91 -35q36 -35 36 -87t-36 -88t-91 -36zM271 711q-18 0 -30 -12t-12 -30t12 -30t30 -12q17 0 29 12t12 30t-12 30t-29 12zM270 505l1 -2q98 0 155 -54t57 -157v-294h-124v48q-57 -60 -151 -60q-80 0 -126 42t-46 107
q0 67 51 106t137 39h124v22q0 40 -24 63q-25 23 -69 23q-66 0 -131 -68l-70 83q86 102 216 102zM244 84v1q44 0 74 27t30 71v6h-106q-69 0 -69 -50q0 -25 20 -40q19 -15 51 -15z" />
    <glyph glyph-name="ae" unicode="&#xe6;" horiz-adv-x="878" 
d="M840 276l-3 1q0 -45 -10 -79h-345q28 -93 138 -93q73 0 138 50l56 -92q-86 -74 -195 -74q-134 0 -207 100q-60 -100 -195 -100q-87 0 -134 42t-47 107q0 68 51 109q50 40 137 40h124v16q0 41 -24 63q-25 23 -67 23q-66 0 -132 -68l-69 83q86 102 215 102q111 0 163 -73
q67 73 174 73q102 0 167 -66q65 -67 65 -164zM600 398l-1 -1q-46 0 -79 -30q-32 -29 -43 -81h229q1 52 -29 82t-77 30zM238 88h1q44 0 74 27t30 69v13h-106q-69 0 -69 -52q0 -27 19 -42t51 -15z" />
    <glyph glyph-name="ccedilla" unicode="&#xe7;" horiz-adv-x="552" 
d="M306 112v-1q69 0 119 71l94 -72q-50 -87 -145 -114q17 -26 17 -62q0 -55 -42 -91t-114 -36q-41 0 -74 10v89q34 -2 60 -2q29 0 45 15q17 15 17 43q0 15 -3 27q-104 9 -173 83t-69 177q0 109 77 184t188 75q73 0 129 -33t87 -90l-94 -73q-48 72 -119 72q-57 0 -93 -39
t-36 -97t36 -97t93 -39z" />
    <glyph glyph-name="egrave" unicode="&#xe8;" horiz-adv-x="569" 
d="M348 571h-98l-137 185v24h162zM531 276l-1 -2q0 -36 -9 -74h-348q13 -46 50 -72q35 -25 90 -25q73 0 138 50l56 -92q-89 -74 -198 -74q-117 0 -194 75t-77 185q0 109 75 184t185 75q104 0 168 -66q65 -67 65 -164zM292 395h1q-43 0 -75 -27q-32 -28 -44 -73h226
q-1 46 -33 73q-31 27 -75 27z" />
    <glyph glyph-name="eacute" unicode="&#xe9;" horiz-adv-x="569" 
d="M484 756l-137 -185h-98l72 209h163v-24zM531 276l-1 -2q0 -36 -9 -74h-348q13 -46 50 -72q35 -25 90 -25q73 0 138 50l56 -92q-89 -74 -198 -74q-117 0 -194 75t-77 185q0 109 75 184t185 75q104 0 168 -66q65 -67 65 -164zM292 395h1q-43 0 -75 -27q-32 -28 -44 -73h226
q-1 46 -33 73q-31 27 -75 27z" />
    <glyph glyph-name="ecircumflex" unicode="&#xea;" horiz-adv-x="569" 
d="M298 663l-80 -92h-99l135 209h88l134 -209h-98zM531 276l-1 -2q0 -36 -9 -74h-348q13 -46 50 -72q35 -25 90 -25q73 0 138 50l56 -92q-89 -74 -198 -74q-117 0 -194 75t-77 185q0 109 75 184t185 75q104 0 168 -66q65 -67 65 -164zM292 395h1q-43 0 -75 -27
q-32 -28 -44 -73h226q-1 46 -33 73q-31 27 -75 27z" />
    <glyph glyph-name="edieresis" unicode="&#xeb;" horiz-adv-x="569" 
d="M179 598l2 -1q-31 0 -57 24q-25 24 -25 54q0 33 24 56q25 23 56 23q32 0 57 -23q24 -23 24 -56q0 -31 -24 -54q-25 -23 -57 -23zM419 597l2 -1q-31 0 -57 24q-25 24 -25 54q0 34 24 56q25 23 56 23q32 0 57 -23q24 -22 24 -56q0 -32 -24 -54q-25 -23 -57 -23zM535 274
l-1 -2q0 -36 -9 -74h-348q13 -46 50 -72q35 -25 90 -25q73 0 138 50l56 -92q-89 -74 -198 -74q-118 0 -194 75q-77 75 -77 185q0 109 75 184t185 75q104 0 168 -66q65 -67 65 -164zM296 393h1q-43 0 -75 -27q-32 -28 -44 -73h226q-1 46 -33 73q-31 27 -75 27z" />
    <glyph glyph-name="igrave" unicode="&#xec;" horiz-adv-x="269" 
d="M143 780l43 -209h-98l-107 185v24h162zM202 495v-495h-135v495h135z" />
    <glyph glyph-name="iacute" unicode="&#xed;" horiz-adv-x="269" 
d="M290 780v-24l-107 -185h-98l42 209h163zM202 495v-495h-135v495h135z" />
    <glyph glyph-name="icircumflex" unicode="&#xee;" horiz-adv-x="269" 
d="M179 780l134 -209h-98l-80 92l-80 -92h-99l135 209h88zM67 0v495h135v-495h-135z" />
    <glyph glyph-name="idieresis" unicode="&#xef;" horiz-adv-x="269" 
d="M25 754q32 0 57 -23q24 -23 24 -56q0 -31 -24 -54q-25 -23 -57 -23q-31 0 -56 23q-24 23 -24 54q0 33 24 56q25 23 56 23zM245 754l2 -1q32 0 57 -23q24 -22 24 -56q0 -32 -24 -54q-25 -23 -57 -23q-31 0 -57 24q-25 24 -25 54q0 33 24 56q25 23 56 23zM204 494v-495
h-135v495h135z" />
    <glyph glyph-name="eth" unicode="&#xf0;" horiz-adv-x="573" 
d="M416 482v2q60 -80 89 -135q30 -57 30 -121q0 -104 -70 -171t-177 -67q-110 0 -180 66t-70 165q0 98 68 161t165 63h10l-61 83l-136 -67l-47 96l119 59l-53 72l101 74l67 -89l156 77l48 -95l-138 -69zM286 110l-1 -2q49 0 81 32t32 81q0 50 -31 81q-32 32 -81 32
q-50 0 -81 -31t-31 -81t31 -81t81 -31z" />
    <glyph glyph-name="ntilde" unicode="&#xf1;" horiz-adv-x="585" 
d="M193 590h-103q-2 30 -2 33q0 61 33 99t82 38q36 0 71 -22l28 -18q27 -18 40 -18q28 0 28 35v12h103q2 -32 2 -34q0 -61 -33 -99q-33 -37 -82 -37q-36 0 -72 22l-28 17q-32 19 -39 19q-28 0 -28 -35v-12zM336 506l1 -1q85 0 135 -54q50 -55 50 -144v-307h-134v289
q0 44 -25 70q-25 27 -66 27q-40 0 -67 -27t-27 -70v-289h-135v495h124v-45q56 56 144 56z" />
    <glyph glyph-name="ograve" unicode="&#xf2;" horiz-adv-x="608" 
d="M281 780l73 -209h-98l-137 185v24h162zM304 506l-1 -1q110 0 188 -75t78 -184t-78 -184t-189 -75q-110 0 -187 75q-76 75 -76 185q0 109 77 184q76 75 188 75zM303 382l-1 -1q-56 0 -92 -39t-36 -97q0 -59 36 -96t92 -37t92 38t36 96t-36 97t-91 39z" />
    <glyph glyph-name="oacute" unicode="&#xf3;" horiz-adv-x="608" 
d="M490 780v-24l-137 -185h-98l72 209h163zM304 506l-1 -1q110 0 188 -75t78 -184t-78 -184t-189 -75q-110 0 -187 75q-76 75 -76 185q0 109 77 184q76 75 188 75zM303 382l-1 -1q-56 0 -92 -39t-36 -97q0 -59 36 -96t92 -37t92 38t36 96t-36 97t-91 39z" />
    <glyph glyph-name="ocircumflex" unicode="&#xf4;" horiz-adv-x="608" 
d="M305 663l-80 -92h-99l135 209h88l134 -209h-98zM304 506l-1 -1q110 0 188 -75t78 -184t-78 -184t-189 -75q-110 0 -187 75q-76 75 -76 185q0 109 77 184q76 75 188 75zM303 112l-1 -1q56 0 92 38q36 37 36 96q0 58 -36 97t-91 39q-56 0 -92 -39t-36 -97q0 -59 36 -96
t92 -37z" />
    <glyph glyph-name="otilde" unicode="&#xf5;" horiz-adv-x="608" 
d="M225 759q36 0 71 -22l28 -18q27 -18 40 -18q28 0 28 35v12h103q2 -32 2 -34q0 -62 -33 -99t-82 -37q-36 0 -72 22l-28 17q-32 19 -39 19q-28 0 -28 -35v-12h-103q-2 30 -2 33q0 62 33 99q33 38 82 38zM304 506l-1 -1q110 0 188 -75t78 -184t-78 -184t-189 -75
q-110 0 -187 75q-76 75 -76 185q0 109 77 184q76 75 188 75zM303 382l-1 -1q-56 0 -92 -39t-36 -97q0 -59 36 -96t92 -37t92 38t36 96t-36 97t-91 39z" />
    <glyph glyph-name="odieresis" unicode="&#xf6;" horiz-adv-x="608" 
d="M185 754l2 -1q32 0 57 -23q24 -22 24 -56q0 -32 -24 -54q-25 -23 -57 -23q-31 0 -57 24q-25 24 -25 54q0 33 24 56q25 23 56 23zM425 753l2 -1q32 0 57 -23q24 -22 24 -56q0 -31 -24 -54q-25 -23 -57 -23q-31 0 -57 24q-25 24 -25 54q0 34 24 56q25 23 56 23zM308 504
l-1 -1q110 0 188 -75t78 -184t-78 -184t-189 -75t-187 75t-76 185q0 109 77 184q76 75 188 75zM307 380l-1 -1q-56 0 -92 -39t-36 -97q0 -59 36 -96t92 -37t92 38t36 96t-36 97t-91 39z" />
    <glyph glyph-name="divide" unicode="&#xf7;" 
d="M279 584v-2q34 0 57 -22q24 -22 24 -54t-24 -55q-23 -22 -57 -22q-33 0 -58 23q-24 22 -24 56q0 32 24 54q23 22 58 22zM515 376v-115h-471v115h471zM279 207v-1q34 0 57 -22q24 -23 24 -55q0 -31 -24 -54q-23 -22 -57 -22q-33 0 -58 23q-24 22 -24 54t24 55q23 22 58 22
z" />
    <glyph glyph-name="oslash" unicode="&#xf8;" horiz-adv-x="612" 
d="M582 443l-54 -54q43 -64 43 -143q0 -109 -78 -184t-189 -75q-76 0 -138 39l-55 -56l-81 81l53 53q-42 64 -42 142q0 110 77 185q76 75 188 75q75 0 140 -38l55 55zM305 391l1 1q-61 0 -100 -40t-39 -105q0 -31 12 -63l192 192q-29 15 -66 15zM305 102l1 -1q62 0 101 41
q39 40 39 105q0 35 -12 63l-192 -193q32 -15 63 -15z" />
    <glyph glyph-name="ugrave" unicode="&#xf9;" horiz-adv-x="580" 
d="M267 780l73 -209h-98l-137 185v24h162zM518 495l-3 -278q-2 -105 -64 -166q-65 -63 -162 -63q-101 0 -165 63t-64 167v277h135v-288q0 -43 27 -69q28 -26 68 -26q38 0 66 26q27 26 27 69v288h135z" />
    <glyph glyph-name="uacute" unicode="&#xfa;" horiz-adv-x="580" 
d="M476 780v-24l-137 -185h-98l72 209h163zM518 495l-3 -278q-2 -105 -64 -166q-65 -63 -162 -63q-101 0 -165 63t-64 167v277h135v-288q0 -43 27 -69q28 -26 68 -26q38 0 66 26q27 26 27 69v288h135z" />
    <glyph glyph-name="ucircumflex" unicode="&#xfb;" horiz-adv-x="580" 
d="M291 663l-80 -92h-99l135 209h88l134 -209h-98zM383 495l132 -1v-277q0 -103 -64 -166q-65 -63 -162 -63q-101 0 -165 63t-64 167v277h135v-288q0 -43 27 -69q28 -26 68 -26q38 0 66 26q27 26 27 69v288z" />
    <glyph glyph-name="udieresis" unicode="&#xfc;" horiz-adv-x="580" 
d="M171 754l2 -1q32 0 57 -23q24 -22 24 -56q0 -32 -24 -54q-25 -23 -57 -23q-31 0 -57 24q-25 24 -25 54q0 33 24 56q25 23 56 23zM411 753l2 -1q32 0 57 -23q24 -22 24 -56q0 -31 -24 -54q-25 -23 -57 -23q-31 0 -57 24q-25 24 -25 54q0 34 24 56q25 23 56 23zM522 493
l-3 -278q-2 -105 -64 -166q-65 -63 -162 -63q-101 0 -165 63t-64 167v277h135v-288q0 -43 27 -69q28 -26 68 -26q38 0 66 26q27 26 27 69v288h135z" />
    <glyph glyph-name="yacute" unicode="&#xfd;" horiz-adv-x="559" 
d="M465 756l-137 -185h-98l72 209h163v-24zM405 495h142l-237 -538q-35 -77 -81 -113q-47 -36 -116 -36q-42 0 -87 12v113q41 -4 58 -4q35 0 61 14q23 12 42 53l15 33l-190 466h143l121 -325z" />
    <glyph glyph-name="thorn" unicode="&#xfe;" horiz-adv-x="629" 
d="M350 506l-1 1q106 0 173 -73q68 -74 68 -186q0 -113 -67 -186q-68 -74 -172 -74q-93 0 -148 60v-228h-135v930h135v-303q53 59 147 59zM324 112h-1q53 0 91 38q37 37 37 99q0 61 -36 99t-91 38q-51 0 -88 -34t-37 -102q0 -66 36 -102t89 -36z" />
    <glyph glyph-name="ydieresis" unicode="&#xff;" horiz-adv-x="559" 
d="M160 598l2 -1q-32 0 -57 24t-25 54q0 33 24 56q25 23 56 23q32 0 57 -23q24 -23 24 -56q0 -31 -24 -54q-25 -23 -57 -23zM400 597l2 -1q-32 0 -57 24t-25 54q0 34 24 56q25 23 56 23q32 0 57 -23q24 -22 24 -56q0 -32 -24 -54q-25 -23 -57 -23zM409 493h142l-237 -538
q-35 -77 -81 -113q-47 -36 -116 -36q-42 0 -87 12v113q41 -4 58 -4q35 0 61 14q23 12 42 53l15 33l-190 466h143l121 -325z" />
    <glyph glyph-name="Amacron" unicode="&#x100;" horiz-adv-x="661" 
d="M492 861v-106h-322v106h322zM502 0l-37 86h-270l-37 -86h-145l295 672h45l294 -672h-145zM417 197l-87 222l-87 -222h174z" />
    <glyph glyph-name="amacron" unicode="&#x101;" horiz-adv-x="545" 
d="M422 728v-106h-302v106h302zM270 506l1 -2q98 0 155 -54t57 -157v-294h-124v48q-57 -60 -151 -60q-80 0 -126 42t-46 107q0 67 51 106t137 39h124v22q0 41 -24 63q-25 23 -69 23q-66 0 -131 -68l-70 83q86 102 216 102zM244 85v1q44 0 74 27t30 71v6h-106q-69 0 -69 -50
q0 -25 20 -40q19 -15 51 -15z" />
    <glyph glyph-name="Abreve" unicode="&#x102;" horiz-adv-x="661" 
d="M331 730h-1q-76 0 -124 49t-48 124h106q0 -33 18 -53t48 -20t48 20t18 53h106q0 -75 -48 -124t-123 -49zM501 0l-37 86h-270l-37 -86h-145l295 672h45l294 -672h-145zM416 197l-87 222l-87 -222h174z" />
    <glyph glyph-name="abreve" unicode="&#x103;" horiz-adv-x="545" 
d="M271 575h-1q-76 0 -124 49q-48 50 -48 124h106q0 -34 18 -53q18 -20 48 -20t48 20q18 19 18 53h106q0 -74 -48 -124q-48 -49 -123 -49zM269 506l1 -2q98 0 155 -54t57 -157v-294h-124v48q-57 -60 -151 -60q-79 0 -126 42q-46 42 -46 107q0 67 51 106t137 39h124v22
q0 41 -24 63q-25 23 -69 23q-66 0 -131 -68l-70 83q85 102 216 102zM243 85v1q44 0 74 27t30 71v6h-106q-69 0 -69 -50q0 -25 20 -40t51 -15z" />
    <glyph glyph-name="Aogonek" unicode="&#x104;" horiz-adv-x="661" 
d="M607 -25v1q-38 -23 -38 -42q0 -29 36 -29q11 0 42 6v-88q-45 -15 -86 -15q-56 0 -88 28q-33 28 -33 72q0 55 60 97l-35 81h-270l-37 -86h-145l295 672h45l294 -672zM417 198l-87 222l-87 -222h174z" />
    <glyph glyph-name="aogonek" unicode="&#x105;" horiz-adv-x="545" 
d="M270 506l1 -1q98 0 155 -54t57 -157v-294l-40 -25q-38 -23 -38 -42q0 -29 36 -29q11 0 42 6v-88q-45 -15 -86 -15q-56 0 -88 28q-33 29 -33 72q0 64 83 112v28q-57 -60 -151 -60q-80 0 -126 42t-46 107q0 67 51 106t137 39h124v22q0 41 -24 63q-25 23 -69 23
q-66 0 -131 -68l-70 83q86 102 216 102zM244 86v1q44 0 74 27t30 71v6h-106q-69 0 -69 -50q0 -25 20 -40q19 -15 51 -15z" />
    <glyph glyph-name="Cacute" unicode="&#x106;" horiz-adv-x="720" 
d="M573 910v-24l-137 -162h-98l72 186h163zM390 672v-5q95 0 171 -43q77 -44 120 -120l-102 -72q-71 111 -189 111q-93 0 -153 -61q-60 -62 -60 -157t60 -155t153 -60q118 0 189 111l102 -72q-43 -77 -120 -120q-76 -43 -171 -43q-148 0 -250 99t-102 244t102 244t250 99z
" />
    <glyph glyph-name="cacute" unicode="&#x107;" horiz-adv-x="552" 
d="M489 780v-24l-137 -185h-98l72 209h163zM304 506l-2 1q74 0 129 -33t87 -90l-94 -73q-48 72 -119 72q-57 0 -93 -39t-36 -97t36 -97t93 -39q69 0 119 71l94 -72q-32 -57 -87 -90t-127 -33q-112 0 -188 75q-77 75 -77 185q0 109 77 184q76 75 188 75z" />
    <glyph glyph-name="Ccircumflex" unicode="&#x108;" horiz-adv-x="720" 
d="M389 804l-90 -80h-102l148 186h89l148 -186h-103zM390 113v-5q118 0 189 111l102 -72q-43 -77 -120 -120q-76 -43 -171 -43q-148 0 -250 99t-102 244t102 244t250 99q95 0 171 -43q77 -43 120 -120l-102 -72q-71 111 -189 111q-93 0 -153 -61t-60 -157q0 -95 60 -155
t153 -60z" />
    <glyph glyph-name="ccircumflex" unicode="&#x109;" horiz-adv-x="552" 
d="M303 663l-80 -92h-99l135 209h88l134 -209h-98zM306 112l-2 1q69 0 119 71l94 -72q-31 -57 -87 -90t-127 -33q-111 0 -188 75t-77 185q0 109 77 184t188 75q73 0 129 -33t87 -90l-94 -73q-48 72 -119 72q-57 0 -93 -39t-36 -97t36 -97t93 -39z" />
    <glyph glyph-name="Cdotaccent" unicode="&#x10a;" horiz-adv-x="720" 
d="M390 899h-3q35 0 60 -24q26 -24 26 -59t-25 -59q-26 -24 -60 -24q-36 0 -61 24t-25 59t26 59t62 24zM387 672v-5q95 0 171 -43q76 -44 120 -120l-102 -72q-70 111 -189 111q-93 0 -153 -61q-60 -62 -60 -157t60 -155t153 -60q119 0 189 111l102 -72q-44 -77 -120 -120
t-171 -43q-148 0 -250 99t-102 244t102 244t250 99z" />
    <glyph glyph-name="cdotaccent" unicode="&#x10b;" horiz-adv-x="552" 
d="M303 759h-2q35 0 61 -24q25 -24 25 -60q0 -35 -25 -59q-26 -24 -61 -24t-61 24q-25 24 -25 59q0 36 26 60t62 24zM302 506l-2 1q74 0 129 -33t87 -90l-94 -73q-48 72 -119 72q-57 0 -93 -39t-36 -97t36 -97t93 -39q69 0 119 71l94 -72q-32 -57 -87 -90t-127 -33
q-112 0 -188 75q-77 75 -77 185q0 109 77 184q76 75 188 75z" />
    <glyph glyph-name="Ccaron" unicode="&#x10c;" horiz-adv-x="720" 
d="M434 724h-89l-148 186h102l90 -80l90 80h103zM390 113v-5q118 0 189 111l102 -72q-43 -77 -120 -120q-76 -43 -171 -43q-148 0 -250 99t-102 244t102 244t250 99q95 0 171 -43q77 -43 120 -120l-102 -72q-71 111 -189 111q-93 0 -153 -61t-60 -157q0 -95 60 -155t153 -60
z" />
    <glyph glyph-name="ccaron" unicode="&#x10d;" horiz-adv-x="552" 
d="M347 571h-88l-135 209h99l80 -92l80 92h98zM306 112l-2 1q69 0 119 71l94 -72q-31 -57 -87 -90t-127 -33q-111 0 -188 75t-77 185q0 109 77 184t188 75q73 0 129 -33t87 -90l-94 -73q-48 72 -119 72q-57 0 -93 -39t-36 -97t36 -97t93 -39z" />
    <glyph glyph-name="Dcaron" unicode="&#x10e;" horiz-adv-x="690" 
d="M324 724h-89l-148 186h102l90 -80l90 80h103zM292 660h-2q160 0 261 -90q100 -90 100 -238q0 -146 -100 -239q-101 -93 -259 -93h-216v660h216zM289 122l-2 1q101 0 162 57t61 152t-60 151q-59 55 -161 55h-80v-416h80z" />
    <glyph glyph-name="dcaron" unicode="&#x10f;" horiz-adv-x="800" 
d="M427 447l-1 301h135v-750h-124v62q-54 -74 -159 -74q-104 0 -172 74q-67 73 -67 186q0 112 68 186t173 74q94 0 147 -59zM654 748h139l-49 -206h-95zM303 109v-3q50 0 88 35q37 34 37 102q0 66 -37 102t-88 36q-54 0 -91 -37t-37 -99q0 -61 36 -99q36 -37 92 -37z" />
    <glyph glyph-name="Dcroat" unicode="&#x110;" horiz-adv-x="690" 
d="M292 660h-2q160 0 261 -90q100 -90 100 -238q0 -146 -100 -239q-101 -93 -259 -93h-216v257h-84v113h84v290h216zM289 122l-2 1q101 0 162 57t61 152t-60 151q-59 55 -161 55h-80v-168h108v-113h-108v-135h80z" />
    <glyph glyph-name="dcroat" unicode="&#x111;" horiz-adv-x="636" 
d="M640 662l-2 -110h-79v-553h-123v63q-56 -75 -162 -75q-102 0 -169 69q-67 68 -67 176q0 106 68 176q68 69 168 69q96 0 153 -63v139h-204v109h204v88h134v-88h79zM301 101l1 -2q52 0 90 33q37 33 37 97q0 65 -37 99t-90 34q-52 0 -90 -36q-37 -36 -37 -95q0 -58 36 -94
t90 -36z" />
    <glyph glyph-name="Emacron" unicode="&#x112;" horiz-adv-x="573" 
d="M455 861v-106h-322v106h322zM520 660v-122h-309v-134h227v-115h-227v-167h321v-122h-456v660h444z" />
    <glyph glyph-name="emacron" unicode="&#x113;" horiz-adv-x="569" 
d="M448 728v-106h-302v106h302zM531 276l-1 -2q0 -36 -9 -74h-348q13 -46 50 -72q35 -25 90 -25q73 0 138 50l56 -92q-89 -74 -198 -74q-117 0 -194 75t-77 185q0 109 75 184t185 75q104 0 168 -66q65 -67 65 -164zM292 395h1q-43 0 -75 -27q-32 -28 -44 -73h226
q-1 46 -33 73q-31 27 -75 27z" />
    <glyph glyph-name="Ebreve" unicode="&#x114;" horiz-adv-x="573" 
d="M467 903h-1q0 -75 -48 -124t-123 -49q-76 0 -124 49t-48 124h106q0 -33 18 -53t48 -20t48 20t18 53h106zM519 660v-122h-309v-134h227v-115h-227v-167h321v-122h-456v660h444z" />
    <glyph glyph-name="ebreve" unicode="&#x115;" horiz-adv-x="569" 
d="M298 575h-1q-76 0 -124 49q-48 50 -48 124h106q0 -34 18 -53q18 -20 48 -20t48 20q18 19 18 53h106q0 -74 -48 -124q-48 -49 -123 -49zM530 276l-1 -2q0 -36 -9 -74h-348q13 -46 50 -72q35 -25 90 -25q73 0 138 50l56 -92q-89 -74 -198 -74q-118 0 -194 75
q-77 75 -77 185q0 109 75 184t185 75q103 0 168 -66q65 -67 65 -164zM291 395h1q-44 0 -75 -27q-32 -28 -44 -73h226q-1 46 -33 73t-75 27z" />
    <glyph glyph-name="Edotaccent" unicode="&#x116;" horiz-adv-x="573" 
d="M295 899h-3q34 0 60 -24t26 -59t-25 -59t-60 -24t-61 24q-25 24 -25 59t26 59q25 24 62 24zM517 660v-122h-309v-134h227v-115h-227v-167h321v-122h-456v660h444z" />
    <glyph glyph-name="edotaccent" unicode="&#x117;" horiz-adv-x="569" 
d="M298 592h-2q-36 0 -61 24t-25 59q0 36 26 60t62 24t61 -24t25 -60q0 -35 -25 -59t-61 -24zM529 276l-1 -2q0 -36 -9 -74h-348q13 -46 50 -72q35 -25 90 -25q73 0 138 50l56 -92q-89 -74 -198 -74q-117 0 -194 75t-77 185q0 109 75 184t185 75q104 0 168 -66
q65 -67 65 -164zM290 395h1q-43 0 -75 -27q-32 -28 -44 -73h226q-1 46 -33 73q-31 27 -75 27z" />
    <glyph glyph-name="Eogonek" unicode="&#x118;" horiz-adv-x="573" 
d="M454 -66q0 -29 36 -29q10 0 42 6v-88q-45 -15 -86 -15q-56 0 -88 28q-33 28 -33 72q0 52 53 93h-302v660h444v-122h-309v-134h227v-115h-227v-167h321v-122l-40 -25q-38 -23 -38 -42z" />
    <glyph glyph-name="eogonek" unicode="&#x119;" horiz-adv-x="569" 
d="M531 276l-1 -3q0 -37 -9 -74h-348q13 -46 50 -72q35 -25 90 -25q73 0 138 50l54 -92q-25 -25 -92 -66q-45 -27 -45 -58q0 -33 38 -33q18 0 42 6v-87q-45 -16 -87 -16q-56 0 -87 28q-32 29 -32 73t37 80q-102 7 -171 81q-69 73 -69 179q0 109 75 184t184 75q104 0 168 -66
q65 -67 65 -164zM292 394h1q-43 0 -75 -27q-32 -28 -44 -73h226q-1 46 -33 73q-31 27 -75 27z" />
    <glyph glyph-name="Ecaron" unicode="&#x11a;" horiz-adv-x="573" 
d="M339 724h-89l-148 186h102l90 -80l90 80h103zM211 122h321v-122h-456v660h444v-122h-309v-134h227v-115h-227v-167z" />
    <glyph glyph-name="ecaron" unicode="&#x11b;" horiz-adv-x="569" 
d="M342 571h-88l-135 209h99l80 -92l80 92h98zM531 276l-1 -2q0 -36 -9 -74h-348q13 -46 50 -72q35 -25 90 -25q73 0 138 50l56 -92q-89 -74 -198 -74q-117 0 -194 75t-77 185q0 109 75 184t185 75q104 0 168 -66q65 -67 65 -164zM292 395h1q-43 0 -75 -27q-32 -28 -44 -73
h226q-1 46 -33 73q-31 27 -75 27z" />
    <glyph glyph-name="Gcircumflex" unicode="&#x11c;" horiz-adv-x="747" 
d="M391 804l-90 -80h-102l148 186h89l148 -186h-103zM389 362l317 -3v-195q-45 -80 -129 -129q-83 -49 -187 -49q-149 0 -251 99t-102 244t102 244t251 99q178 0 279 -143l-96 -79q-70 97 -184 97q-95 0 -153 -61t-58 -156q0 -98 60 -159q60 -62 159 -62q116 0 174 82v54
h-182v117z" />
    <glyph glyph-name="gcircumflex" unicode="&#x11d;" horiz-adv-x="631" 
d="M313 663l-80 -92h-99l135 209h88l134 -209h-98zM440 495l124 -2v-440q0 -121 -70 -184t-186 -63q-139 0 -243 92l71 94q82 -64 161 -64q60 0 96 30t36 88v27q-54 -59 -151 -59q-104 0 -171 69q-67 68 -67 178t67 177q68 68 171 68q110 0 162 -73v62zM306 127l-2 -2
q50 0 88 35q37 34 37 99t-36 96q-37 32 -88 32q-56 0 -91 -34q-36 -35 -36 -94q0 -60 37 -96t91 -36z" />
    <glyph glyph-name="Gbreve" unicode="&#x11e;" horiz-adv-x="747" 
d="M564 903h-1q0 -75 -48 -124t-123 -49q-76 0 -124 49t-48 124h106q0 -33 18 -53t48 -20t48 20t18 53h106zM390 672v-3q178 0 279 -143l-96 -79q-70 97 -184 97q-95 0 -153 -61t-58 -156q0 -97 60 -159t159 -62q116 0 174 82v54h-182v117h317v-195q-45 -80 -129 -129
q-83 -49 -187 -49q-149 0 -251 99t-102 244t102 244t251 99z" />
    <glyph glyph-name="gbreve" unicode="&#x11f;" horiz-adv-x="631" 
d="M313 575h-1q-76 0 -124 49q-48 50 -48 124h106q0 -34 18 -53q18 -20 48 -20t48 20q18 19 18 53h106q0 -74 -48 -124q-48 -49 -123 -49zM439 495l124 -2v-440q0 -121 -70 -184q-71 -63 -186 -63q-139 0 -243 92l71 94q82 -64 161 -64q60 0 96 30t36 88v27
q-54 -59 -151 -59q-103 0 -171 69q-67 68 -67 178t67 177q68 68 171 68q110 0 162 -73v62zM305 127l-2 -2q50 0 88 35q37 34 37 99t-36 96q-37 32 -88 32q-56 0 -91 -34q-36 -35 -36 -94q0 -60 37 -96q38 -36 91 -36z" />
    <glyph glyph-name="Gdotaccent" unicode="&#x120;" horiz-adv-x="747" 
d="M392 899h-3q35 0 60 -24q26 -24 26 -59t-25 -59q-26 -24 -60 -24q-36 0 -61 24t-25 59t26 59t62 24zM388 672v-3q178 0 279 -143l-96 -79q-70 97 -184 97q-95 0 -153 -61t-58 -156q0 -97 60 -159t159 -62q116 0 174 82v54h-182v117h317v-195q-45 -80 -129 -129
q-83 -49 -187 -49q-149 0 -251 99t-102 244t102 244t251 99z" />
    <glyph glyph-name="gdotaccent" unicode="&#x121;" horiz-adv-x="631" 
d="M313 592h-2q-35 0 -61 24q-25 24 -25 59q0 36 26 60q25 24 62 24q35 0 61 -24q25 -24 25 -60q0 -35 -25 -59q-26 -24 -61 -24zM438 495l124 -2v-440q0 -121 -70 -184t-186 -63q-139 0 -243 92l71 94q82 -64 161 -64q60 0 96 30t36 88v27q-54 -59 -151 -59q-104 0 -171 69
q-67 68 -67 178t67 177q68 68 171 68q110 0 162 -73v62zM304 127l-2 -2q50 0 88 35q37 34 37 99t-36 96q-37 32 -88 32q-56 0 -91 -34q-36 -35 -36 -94q0 -60 37 -96t91 -36z" />
    <glyph glyph-name="Gcommaaccent" unicode="&#x122;" horiz-adv-x="747" 
d="M391 672v-3q178 0 279 -143l-96 -79q-70 97 -184 97q-95 0 -153 -61t-58 -156q0 -97 60 -159t159 -62q116 0 174 82v54h-182v117h317v-195q-45 -80 -129 -129q-83 -49 -187 -49q-149 0 -251 99t-102 244t102 244t251 99zM455 -49l-25 -174h-103l4 174h124z" />
    <glyph glyph-name="gcommaaccent" unicode="&#x123;" horiz-adv-x="631" 
d="M379 780l-6 -209h-127l34 209h99zM440 495l124 -2v-440q0 -121 -70 -184t-186 -63q-139 0 -243 92l71 94q82 -64 161 -64q60 0 96 30t36 88v27q-54 -59 -151 -59q-104 0 -171 69q-67 68 -67 178t67 177q68 68 171 68q110 0 162 -73v62zM306 127l-2 -2q50 0 88 35
q37 34 37 99t-36 96q-37 32 -88 32q-56 0 -91 -34q-36 -35 -36 -94q0 -60 37 -96t91 -36z" />
    <glyph glyph-name="Hcircumflex" unicode="&#x124;" horiz-adv-x="713" 
d="M356 804l-90 -80h-102l148 186h89l148 -186h-103zM503 660h135v-660h-135v285h-292v-285h-135v660h135v-253h292v253z" />
    <glyph glyph-name="hcircumflex" unicode="&#x125;" horiz-adv-x="585" 
d="M201 894l-90 -80h-102l148 186h89l148 -186h-103zM338 506v-1q84 0 134 -54q50 -55 50 -144v-307h-134v288q0 44 -25 70q-25 27 -66 27q-40 0 -67 -27t-27 -70v-288h-135v750h135v-297q53 53 135 53z" />
    <glyph glyph-name="Hbar" unicode="&#x126;" horiz-adv-x="732" 
d="M647 660v-111h92v-113h-92v-436h-135v214h-292v-214h-135v436h-93v113h93v111h135v-111h292v111h135zM512 436h-292v-106h292v106z" />
    <glyph glyph-name="hbar" unicode="&#x127;" horiz-adv-x="593" 
d="M345 477v-1q84 0 135 -54t51 -144v-278h-135v259q0 44 -25 70q-25 27 -66 27q-42 0 -69 -27t-27 -70v-259h-134v551h-79v111h79v88h134v-88h191v-111h-191v-128q53 54 136 54z" />
    <glyph glyph-name="Itilde" unicode="&#x128;" horiz-adv-x="286" 
d="M60 903v1q36 0 74 -21l31 -18q30 -17 44 -17q28 0 28 34v12h103q2 -14 2 -33q0 -61 -33 -99q-33 -37 -82 -37q-35 0 -75 22l-30 16q-32 17 -45 17q-27 0 -27 -33v-12h-103q-3 17 -3 34q0 59 33 97q33 37 83 37zM211 661v-660h-135v660h135z" />
    <glyph glyph-name="itilde" unicode="&#x129;" horiz-adv-x="269" 
d="M65 759h-1q36 0 68 -26l20 -16q19 -16 32 -16q25 0 25 35v12h102q3 -15 3 -34q0 -62 -31 -99t-79 -37q-34 0 -69 26l-20 15q-24 17 -30 17q-27 0 -27 -35v-12h-102q-3 15 -3 33q0 62 31 99q32 38 81 38zM201 495v-495h-135v495h135z" />
    <glyph glyph-name="Imacron" unicode="&#x12a;" horiz-adv-x="286" 
d="M304 861v-106h-322v106h322zM211 660v-660h-135v660h135z" />
    <glyph glyph-name="imacron" unicode="&#x12b;" horiz-adv-x="269" 
d="M263 729v-107h-257v107h257zM202 495v-495h-135v495h135z" />
    <glyph glyph-name="Ibreve" unicode="&#x12c;" horiz-adv-x="286" 
d="M316 903h-1q0 -75 -48 -124t-123 -49q-76 0 -124 49t-48 124h106q0 -33 18 -53t48 -20t48 20t18 53h106zM210 660v-660h-135v660h135z" />
    <glyph glyph-name="ibreve" unicode="&#x12d;" horiz-adv-x="269" 
d="M307 748h-1q0 -74 -48 -124q-48 -49 -123 -49q-76 0 -124 49q-48 50 -48 124h106q0 -34 18 -53q18 -20 48 -20t48 20q18 19 18 53h106zM201 495v-495h-135v495h135z" />
    <glyph glyph-name="Iogonek" unicode="&#x12e;" horiz-adv-x="286" 
d="M133 -66v1q0 -29 36 -29q11 0 42 6v-88q-45 -15 -86 -15q-56 0 -88 28q-33 29 -33 72q0 59 72 105v647h135v-660l-40 -25q-38 -23 -38 -42z" />
    <glyph glyph-name="iogonek" unicode="&#x12f;" horiz-adv-x="269" 
d="M135 592h-2q-35 0 -61 24q-25 24 -25 59q0 36 26 60q25 24 62 24q36 0 61 -24t25 -60q0 -35 -25 -59q-26 -24 -61 -24zM160 -25v1q-38 -23 -38 -42q0 -29 36 -29q10 0 42 6v-88q-45 -15 -86 -15q-56 0 -88 28q-33 28 -33 72q0 58 72 105v482h135v-495z" />
    <glyph glyph-name="Idotaccent" unicode="&#x130;" horiz-adv-x="286" 
d="M143 899h-3q34 0 60 -24t26 -59t-25 -59t-60 -24t-61 24q-25 24 -25 59t26 59q25 24 62 24zM208 660v-660h-135v660h135z" />
    <glyph glyph-name="dotlessi" unicode="&#x131;" horiz-adv-x="269" 
d="M202 495v-495h-135v495h135z" />
    <glyph glyph-name="IJ" unicode="&#x132;" horiz-adv-x="675" 
d="M211 660v-660h-135v660h135zM599 660l1 -484q0 -95 -52 -141q-53 -47 -150 -47q-47 0 -95 12v115q48 -4 66 -4q49 0 72 18t23 61v470h135z" />
    <glyph glyph-name="ij" unicode="&#x133;" horiz-adv-x="538" 
d="M135 759h-2q35 0 61 -24q25 -24 25 -60q0 -35 -25 -59t-61 -24q-35 0 -61 24q-25 24 -25 59q0 36 26 60q25 24 62 24zM402 759h-2q36 0 61 -24t25 -60q0 -35 -25 -59t-61 -24t-61 24t-25 59q0 36 26 60t62 24zM467 495v-502q0 -91 -51 -138q-52 -47 -139 -47
q-39 0 -75 11v113q24 -3 41 -3q45 0 67 18t22 59v489h135zM198 494v-495h-135v495h135z" />
    <glyph glyph-name="Jcircumflex" unicode="&#x134;" horiz-adv-x="389" 
d="M272 910l148 -186h-103l-90 80l-90 -80h-102l148 186h89zM178 190l1 470h135v-484q0 -95 -52 -141q-53 -47 -150 -47q-47 0 -95 12v115q48 -4 66 -4q49 0 72 18t23 61z" />
    <glyph glyph-name="jcircumflex" unicode="&#x135;" horiz-adv-x="269" 
d="M179 780l134 -209h-98l-80 92l-80 -92h-99l135 209h88zM67 6v488h135v-501q0 -91 -51 -138q-52 -47 -139 -47q-39 0 -75 11v113q24 -3 41 -3q44 0 67 18q22 18 22 59z" />
    <glyph glyph-name="Kcommaaccent" unicode="&#x136;" horiz-adv-x="670" 
d="M371 349l286 -349h-163l-283 344v-344h-135v660h135v-307l252 307h161zM255 -220l4 174h124l-25 -174h-103z" />
    <glyph glyph-name="kcommaaccent" unicode="&#x137;" 
d="M354 276l201 -276h-154l-199 273v-273h-135v750h135v-467l178 212h160zM219 -220l4 174h124l-25 -174h-103z" />
    <glyph glyph-name="Lacute" unicode="&#x139;" horiz-adv-x="524" 
d="M325 910v-24l-137 -162h-98l72 186h163zM211 660v-538h289v-122h-424v660h135z" />
    <glyph glyph-name="lacute" unicode="&#x13a;" horiz-adv-x="269" 
d="M317 1000v-24l-137 -162h-98l72 186h163zM202 750v-750h-135v750h135z" />
    <glyph glyph-name="Lcommaaccent" unicode="&#x13b;" horiz-adv-x="524" 
d="M211 660v-538h289v-122h-424v660h135zM345 -46l-25 -174h-103l4 174h124z" />
    <glyph glyph-name="lcommaaccent" unicode="&#x13c;" horiz-adv-x="269" 
d="M202 750v-750h-135v750h135zM198 -46l-25 -174h-103l4 174h124z" />
    <glyph glyph-name="Lcaron" unicode="&#x13d;" horiz-adv-x="524" 
d="M504 720l-49 -206h-95l5 206h139zM211 660v-538h289v-122h-424v660h135z" />
    <glyph glyph-name="lcaron" unicode="&#x13e;" horiz-adv-x="439" 
d="M202 750v-750h-135v750h135zM432 750l-49 -206h-95l5 206h139z" />
    <glyph glyph-name="Ldot" unicode="&#x13f;" horiz-adv-x="524" 
d="M211 660v-538h289v-122h-424v660h135zM405 471h-1q39 0 66 -27t27 -66t-26 -67q-25 -27 -66 -27q-40 0 -67 27t-27 67q0 39 27 66t67 27z" />
    <glyph glyph-name="ldot" unicode="&#x140;" horiz-adv-x="269" 
d="M202 750v-750h-135v750h135zM338 413h-1q39 0 66 -27t27 -66t-26 -67q-26 -27 -66 -27t-67 27t-27 67q0 39 27 66t67 27z" />
    <glyph glyph-name="Lslash" unicode="&#x141;" horiz-adv-x="524" 
d="M211 122h289v-122h-424v204l-72 -32v124l72 33v331h135v-278l199 91v-125l-199 -90v-136z" />
    <glyph glyph-name="lslash" unicode="&#x142;" horiz-adv-x="331" 
d="M310 467v-125l-87 -41v-301h-135v250l-69 -32v125l69 32v375h135v-323z" />
    <glyph glyph-name="Nacute" unicode="&#x143;" horiz-adv-x="713" 
d="M539 886l-137 -162h-98l72 186h163v-24zM503 660h135v-672h-45l-382 408v-396h-135v672h44l383 -405v393z" />
    <glyph glyph-name="nacute" unicode="&#x144;" horiz-adv-x="585" 
d="M467 756l-137 -185h-98l72 209h163v-24zM336 506l1 -1q85 0 135 -54q50 -55 50 -144v-307h-134v289q0 44 -25 70q-25 27 -66 27q-40 0 -67 -27t-27 -70v-289h-135v495h124v-45q56 56 144 56z" />
    <glyph glyph-name="Ncommaaccent" unicode="&#x145;" horiz-adv-x="713" 
d="M503 660h135v-672h-45l-382 408v-396h-135v672h44l383 -405v393zM292 -220l4 174h124l-25 -174h-103z" />
    <glyph glyph-name="ncommaaccent" unicode="&#x146;" horiz-adv-x="585" 
d="M336 506l1 -1q85 0 135 -54q50 -55 50 -144v-307h-134v289q0 44 -25 70q-25 27 -66 27q-40 0 -67 -27t-27 -70v-289h-135v495h124v-45q56 56 144 56zM233 -221l4 174h124l-25 -174h-103z" />
    <glyph glyph-name="Ncaron" unicode="&#x147;" horiz-adv-x="713" 
d="M401 724h-89l-148 186h102l90 -80l90 80h103zM503 660h135v-672h-45l-382 408v-396h-135v672h44l383 -405v393z" />
    <glyph glyph-name="ncaron" unicode="&#x148;" horiz-adv-x="585" 
d="M326 571h-88l-135 209h99l80 -92l80 92h98zM336 506l1 -1q85 0 135 -54q50 -55 50 -144v-307h-134v289q0 44 -25 70q-25 27 -66 27q-40 0 -67 -27t-27 -70v-289h-135v495h124v-45q56 56 144 56z" />
    <glyph glyph-name="Eng" unicode="&#x14a;" horiz-adv-x="713" 
d="M503 660l135 -1v-666q0 -93 -51 -139q-50 -46 -140 -46q-38 0 -74 11v113q24 -3 41 -3q45 0 67 18t22 59v17l-292 349v-372h-135v672h44l383 -452v440z" />
    <glyph glyph-name="eng" unicode="&#x14b;" horiz-adv-x="585" 
d="M336 506v-3q86 0 135 -54q50 -55 50 -144v-313q0 -93 -51 -139q-50 -46 -139 -46q-38 0 -74 11v113q23 -3 40 -3q47 0 69 18t22 60v282q0 44 -25 70q-25 27 -66 27q-40 0 -67 -27t-27 -70v-288h-135v495h124v-45q56 56 144 56z" />
    <glyph glyph-name="Omacron" unicode="&#x14c;" horiz-adv-x="778" 
d="M550 861v-106h-322v106h322zM388 672q146 0 249 -99t103 -244t-103 -244t-249 -99t-248 99t-102 244t102 244t248 99zM389 547l-2 -1q-92 0 -152 -61t-60 -156q0 -96 60 -156t153 -60q92 0 152 61q60 62 60 156t-60 156q-60 61 -151 61z" />
    <glyph glyph-name="omacron" unicode="&#x14d;" horiz-adv-x="608" 
d="M455 728v-106h-302v106h302zM304 506l-1 -1q110 0 188 -75t78 -184t-78 -184t-189 -75q-110 0 -187 75q-76 75 -76 185q0 109 77 184q76 75 188 75zM303 382l-1 -1q-56 0 -92 -39t-36 -97q0 -59 36 -96t92 -37t92 38t36 96t-36 97t-91 39z" />
    <glyph glyph-name="Obreve" unicode="&#x14e;" horiz-adv-x="778" 
d="M561 903h-1q0 -75 -48 -124t-123 -49q-76 0 -124 49t-48 124h106q0 -33 18 -53t48 -20t48 20t18 53h106zM387 672q145 0 249 -99q103 -99 103 -244t-103 -244q-104 -99 -249 -99q-146 0 -248 99t-102 244t102 244t248 99zM388 547l-2 -1q-92 0 -152 -61t-60 -156
q0 -96 60 -156t153 -60q92 0 152 61q60 62 60 156t-60 156q-60 61 -151 61z" />
    <glyph glyph-name="obreve" unicode="&#x14f;" horiz-adv-x="608" 
d="M477 748h-1q0 -74 -48 -124q-48 -49 -123 -49q-76 0 -124 49q-48 50 -48 124h106q0 -34 18 -53q18 -20 48 -20t48 20q18 19 18 53h106zM303 506l-1 -1q110 0 188 -75t78 -184t-78 -184t-189 -75t-187 75t-76 185q0 109 77 184t188 75zM302 382l-1 -1q-56 0 -92 -39
t-36 -97q0 -59 36 -96t92 -37t92 38t36 96t-36 97t-91 39z" />
    <glyph glyph-name="Ohungarumlaut" unicode="&#x150;" horiz-adv-x="778" 
d="M442 910v-24l-121 -162h-91l72 186h140zM659 910v-24l-121 -162h-92l73 186h140zM388 672q146 0 249 -99t103 -244t-103 -244t-249 -99t-248 99t-102 244t102 244t248 99zM389 547l-2 -1q-92 0 -152 -61t-60 -156q0 -96 60 -156t153 -60q92 0 152 61q60 62 60 156
t-60 156q-60 61 -151 61z" />
    <glyph glyph-name="ohungarumlaut" unicode="&#x151;" horiz-adv-x="608" 
d="M369 780v-24l-121 -185h-91l72 209h140zM566 780v-24l-121 -185h-92l73 209h140zM304 506l-1 -1q110 0 188 -75t78 -184t-78 -184t-189 -75q-110 0 -187 75q-76 75 -76 185q0 109 77 184q76 75 188 75zM303 382l-1 -1q-56 0 -92 -39t-36 -97q0 -59 36 -96t92 -37t92 38
t36 96t-36 97t-91 39z" />
    <glyph glyph-name="OE" unicode="&#x152;" horiz-adv-x="1098" 
d="M736 122l320 -2v-122h-456v69q-82 -81 -213 -81q-149 0 -249 99t-100 244t101 244t249 99q132 0 213 -81v69h444v-122h-309v-135h228v-113h-228v-168zM387 111h-1q92 0 152 60t60 155q0 94 -60 156t-152 62q-91 0 -151 -61t-60 -157q0 -95 60 -155t152 -60z" />
    <glyph glyph-name="oe" unicode="&#x153;" horiz-adv-x="942" 
d="M904 276l-3 -1q0 -37 -9 -75h-342q10 -46 47 -72q35 -25 89 -25q73 0 138 50l56 -92q-86 -74 -195 -74q-128 0 -198 91q-67 -91 -186 -91q-109 0 -186 75q-76 75 -76 184t77 184q76 75 185 75q119 0 186 -90q71 90 187 90q100 0 165 -66q65 -67 65 -163zM664 396h-1
q-41 0 -73 -27q-31 -27 -42 -74h221q-2 47 -31 74q-30 27 -74 27zM299 111v-3q53 0 88 39q34 38 34 97q0 60 -34 98q-34 39 -88 39q-55 0 -91 -39t-36 -97q0 -59 36 -96q36 -38 91 -38z" />
    <glyph glyph-name="Racute" unicode="&#x154;" horiz-adv-x="640" 
d="M447 886l-137 -162h-98l72 186h163v-24zM633 0l-151 -2l-171 233h-99v-233h-135v660h248q106 0 171 -58q66 -58 66 -154q0 -64 -31 -111q-32 -48 -85 -75zM212 539l-1 -189h113q46 0 74 26q27 26 27 69t-27 68q-28 26 -73 26h-113z" />
    <glyph glyph-name="racute" unicode="&#x155;" horiz-adv-x="388" 
d="M214 780h163v-24l-137 -185h-98zM191 435l-1 1q51 66 136 66q26 0 45 -6v-119h-36q-61 0 -97 -33t-36 -97v-247h-135v495h124v-60z" />
    <glyph glyph-name="Rcommaaccent" unicode="&#x156;" horiz-adv-x="640" 
d="M446 260l188 -262h-152l-171 233h-99v-233h-135v660h248q106 0 171 -58q66 -58 66 -154q0 -64 -31 -111q-32 -48 -85 -75zM212 539l-1 -189h113q46 0 74 26q27 26 27 69t-27 68q-28 26 -73 26h-113zM251 -222l4 174h124l-25 -174h-103z" />
    <glyph glyph-name="rcommaaccent" unicode="&#x157;" horiz-adv-x="388" 
d="M327 501l-1 1q26 0 45 -6v-119h-36q-61 0 -97 -33t-36 -97v-247h-135v495h124v-60q51 66 136 66zM68 -219l4 174h124l-25 -174h-103z" />
    <glyph glyph-name="Rcaron" unicode="&#x158;" horiz-adv-x="640" 
d="M308 724h-89l-148 186h102l90 -80l90 80h103zM633 0l-151 -2l-171 233h-99v-233h-135v660h248q106 0 171 -58q66 -58 66 -154q0 -64 -31 -111q-32 -48 -85 -75zM212 539l-1 -189h113q46 0 74 26q27 26 27 69t-27 68q-28 26 -73 26h-113z" />
    <glyph glyph-name="rcaron" unicode="&#x159;" horiz-adv-x="388" 
d="M236 571h-88l-135 209h99l80 -92l80 92h98zM327 501l-1 1q26 0 45 -6v-119h-36q-61 0 -97 -33t-36 -97v-247h-135v495h124v-60q51 66 136 66z" />
    <glyph glyph-name="Sacute" unicode="&#x15a;" horiz-adv-x="559" 
d="M463 910v-24l-137 -162h-98l72 186h163zM283 672l-2 1q77 0 132 -34q56 -35 87 -91l-92 -71q-51 76 -126 76q-35 0 -58 -16q-24 -17 -24 -48q0 -26 18 -41q20 -17 60 -34l75 -33q81 -35 123 -82q40 -44 40 -112q0 -90 -65 -144t-165 -54q-84 0 -150 39t-104 107l93 70
q69 -96 162 -96q43 0 69 20q25 19 25 54q0 20 -12 35q-13 16 -27 23l-46 23l-71 32q-75 34 -118 80q-42 45 -42 110q0 84 62 135q61 51 156 51z" />
    <glyph glyph-name="sacute" unicode="&#x15b;" horiz-adv-x="455" 
d="M418 780v-24l-137 -185h-98l72 209h163zM235 507l-1 -5q110 0 178 -75l-68 -83q-50 47 -111 47q-53 0 -53 -35q0 -14 12 -23q8 -6 41 -20l48 -20q74 -31 105 -62q33 -33 33 -88q0 -74 -54 -116t-138 -42q-131 0 -205 96l68 82q64 -67 138 -67q26 0 45 11q18 11 18 30
q0 16 -12 25q-13 9 -40 21l-53 22q-68 29 -101 63t-33 90q0 71 51 110t132 39z" />
    <glyph glyph-name="Scircumflex" unicode="&#x15c;" horiz-adv-x="559" 
d="M280 804l-90 -80h-102l148 186h89l148 -186h-103zM353 379l-2 1q83 -38 123 -82t40 -112q0 -90 -65 -144t-165 -54q-84 0 -150 39t-104 107l93 70q69 -96 162 -96q43 0 69 20q25 19 25 54q0 20 -12 35q-13 16 -27 23l-46 23l-71 32q-75 34 -118 80q-42 45 -42 110
q0 84 62 135q61 51 156 51q77 0 132 -34q56 -35 87 -91l-92 -71q-51 76 -126 76q-35 0 -58 -16q-24 -17 -24 -48q0 -26 18 -41q20 -17 60 -34z" />
    <glyph glyph-name="scircumflex" unicode="&#x15d;" horiz-adv-x="455" 
d="M233 663l-80 -92h-99l135 209h88l134 -209h-98zM281 297l-1 -5q71 -28 105 -62q33 -33 33 -88q0 -74 -54 -116t-138 -42q-132 0 -205 96l68 82q64 -67 138 -67q26 0 45 11q18 10 18 30q0 16 -12 25q-13 9 -40 21l-53 22q-68 29 -101 63q-33 35 -33 90q0 71 51 110t132 39
q110 0 178 -75l-68 -83q-50 47 -111 47q-53 0 -53 -35q0 -14 12 -23q8 -6 41 -20z" />
    <glyph glyph-name="Scedilla" unicode="&#x15e;" horiz-adv-x="559" 
d="M516 186l-1 -2q0 -73 -43 -122q-44 -50 -115 -66q16 -28 16 -62q0 -55 -42 -91t-114 -36q-41 0 -74 10v89q34 -2 60 -2q29 0 45 15q17 15 17 43q0 15 -3 27q-76 4 -137 44t-95 102l93 70q69 -96 162 -96q43 0 69 20q25 19 25 54q0 20 -12 35q-13 16 -27 23l-46 23l-71 32
q-75 34 -118 80q-42 45 -42 110q0 84 62 135q61 51 156 51q77 0 132 -34q56 -35 87 -91l-92 -71q-51 76 -126 76q-35 0 -58 -16q-24 -16 -24 -48q0 -26 18 -41q20 -17 60 -34l75 -33q81 -35 123 -82q40 -44 40 -112z" />
    <glyph glyph-name="scedilla" unicode="&#x15f;" horiz-adv-x="455" 
d="M420 146v-6q0 -54 -30 -91t-81 -54q19 -29 19 -66q0 -55 -42 -91t-114 -36q-41 0 -74 10v89q34 -2 60 -2q28 0 45 15t17 43q0 13 -3 27q-124 3 -195 95l68 82q64 -67 138 -67q26 0 45 11q18 11 18 30q0 16 -12 25q-13 9 -40 21l-53 22q-68 29 -101 63t-33 90q0 71 51 110
t132 39q111 0 178 -75l-68 -83q-50 47 -111 47q-53 0 -53 -35q0 -14 12 -23q8 -6 41 -20l48 -20q74 -31 105 -62q33 -33 33 -88z" />
    <glyph glyph-name="Scaron" unicode="&#x160;" horiz-adv-x="559" 
d="M325 724h-89l-148 186h102l90 -80l90 80h103zM353 379l-2 1q83 -38 123 -82t40 -112q0 -90 -65 -144t-165 -54q-84 0 -150 39t-104 107l93 70q69 -96 162 -96q43 0 69 20q25 19 25 54q0 20 -12 35q-13 16 -27 23l-46 23l-71 32q-75 34 -118 80q-42 45 -42 110
q0 84 62 135q61 51 156 51q77 0 132 -34q56 -35 87 -91l-92 -71q-51 76 -126 76q-35 0 -58 -16q-24 -17 -24 -48q0 -26 18 -41q20 -17 60 -34z" />
    <glyph glyph-name="scaron" unicode="&#x161;" horiz-adv-x="455" 
d="M277 571h-88l-135 209h99l80 -92l80 92h98zM281 297l-1 -5q71 -28 105 -62q33 -33 33 -88q0 -74 -54 -116t-138 -42q-132 0 -205 96l68 82q64 -67 138 -67q26 0 45 11q18 10 18 30q0 16 -12 25q-13 9 -40 21l-53 22q-68 29 -101 63q-33 35 -33 90q0 71 51 110t132 39
q110 0 178 -75l-68 -83q-50 47 -111 47q-53 0 -53 -35q0 -14 12 -23q8 -6 41 -20z" />
    <glyph glyph-name="uni0162" unicode="&#x162;" horiz-adv-x="585" 
d="M572 538l-211 -1v-534q21 -31 21 -69q0 -55 -42 -91t-114 -36q-41 0 -74 10v89q34 -2 60 -2q28 0 45 15t17 43q0 20 -6 38h-43v538h-211v122h558v-122z" />
    <glyph glyph-name="uni0163" unicode="&#x163;" horiz-adv-x="416" 
d="M385 113v-112q-37 -11 -78 -12q12 -24 12 -54q0 -55 -42 -91t-114 -36q-41 0 -74 10v89q34 -2 60 -2q29 0 45 15q17 15 17 43q0 21 -6 39q-111 38 -111 173v207h-78v114h78v125h135v-125h140v-114h-140v-195q0 -42 22 -60t70 -18q17 0 64 4z" />
    <glyph glyph-name="Tcaron" unicode="&#x164;" horiz-adv-x="585" 
d="M337 724h-89l-148 186h102l90 -80l90 80h103zM14 660h558v-122h-212v-538h-135v538h-211v122z" />
    <glyph glyph-name="tcaron" unicode="&#x165;" horiz-adv-x="469" 
d="M320 750h139l-49 -206h-95zM229 186h1q0 -42 22 -60t70 -18q17 0 64 4v-113q-48 -12 -93 -12q-94 0 -147 47q-52 46 -52 140v207h-78v114h78v125h135v-125h140v-114h-140v-195z" />
    <glyph glyph-name="Tbar" unicode="&#x166;" horiz-adv-x="585" 
d="M572 660v-122h-212v-198h176v-113h-176v-227h-135v227h-176v113h176v198h-211v122h558z" />
    <glyph glyph-name="tbar" unicode="&#x167;" horiz-adv-x="431" 
d="M330 109h2q17 0 64 4v-113q-46 -12 -93 -12q-94 0 -147 47q-52 46 -52 140v23h-79v108h79v82h-79v108h79v125h134v-125h141v-108h-141v-82h141v-108h-141v-11q0 -42 22 -60t70 -18z" />
    <glyph glyph-name="Utilde" unicode="&#x168;" horiz-adv-x="700" 
d="M267 903l-1 1q38 0 75 -21l31 -18q30 -17 44 -17q28 0 28 34v12h103q2 -14 2 -33q0 -61 -33 -99q-33 -37 -82 -37q-35 0 -75 22l-30 16q-32 17 -45 17q-27 0 -27 -33v-12h-103q-3 16 -3 34q0 59 33 97q33 37 83 37zM629 661l-3 -387q-2 -132 -78 -208q-78 -78 -201 -78
t-201 78t-78 208v387h135v-397q0 -72 41 -111q40 -39 105 -39t105 39t40 111v397h135z" />
    <glyph glyph-name="utilde" unicode="&#x169;" horiz-adv-x="580" 
d="M211 759h1q36 0 71 -22l28 -18q27 -18 40 -18q28 0 28 35v12h103q2 -32 2 -34q0 -62 -33 -99t-82 -37q-36 0 -72 22l-28 17q-32 19 -40 19q-28 0 -28 -35v-12h-103q-2 30 -2 33q0 62 33 99q33 38 82 38zM519 495l-3 -278q-2 -105 -64 -166q-64 -63 -162 -63
q-100 0 -165 63q-64 63 -64 167v277h135v-288q0 -43 27 -69q28 -26 68 -26q38 0 66 26q27 26 27 69v288h135z" />
    <glyph glyph-name="Umacron" unicode="&#x16a;" horiz-adv-x="700" 
d="M511 861v-106h-322v106h322zM630 660l-3 -387q-2 -132 -78 -208q-78 -78 -201 -78t-201 78t-78 208v387h135v-397q0 -72 41 -111t105 -39t105 39q40 39 40 111v397h135z" />
    <glyph glyph-name="umacron" unicode="&#x16b;" horiz-adv-x="580" 
d="M441 728v-106h-302v106h302zM518 495l-3 -278q-2 -105 -64 -166q-65 -63 -162 -63q-101 0 -165 63t-64 167v277h135v-288q0 -43 27 -69q28 -26 68 -26q38 0 66 26q27 26 27 69v288h135z" />
    <glyph glyph-name="Ubreve" unicode="&#x16c;" horiz-adv-x="700" 
d="M522 903h-1q0 -75 -48 -124t-123 -49q-76 0 -124 49t-48 124h106q0 -33 18 -53t48 -20t48 20t18 53h106zM629 660l-3 -387q-2 -132 -78 -208q-78 -78 -201 -78t-201 78t-78 208v387h135v-397q0 -72 41 -111q40 -39 105 -39t105 39t40 111v397h135z" />
    <glyph glyph-name="ubreve" unicode="&#x16d;" horiz-adv-x="580" 
d="M462 748h-1q0 -74 -48 -124q-48 -49 -123 -49q-76 0 -124 49q-48 50 -48 124h106q0 -34 18 -53q18 -20 48 -20t48 20q18 19 18 53h106zM517 495l-3 -278q-2 -105 -64 -166q-64 -63 -162 -63q-100 0 -165 63q-64 63 -64 167v277h135v-288q0 -43 27 -69q28 -26 68 -26
q38 0 66 26q27 26 27 69v288h135z" />
    <glyph glyph-name="Uring" unicode="&#x16e;" horiz-adv-x="700" 
d="M349 919q54 0 91 -35q36 -34 36 -86t-36 -88t-91 -36q-54 0 -90 36t-36 88t36 86q37 35 90 35zM350 839q-18 0 -30 -12t-12 -29q0 -18 12 -30t30 -12q17 0 29 12t12 30q0 17 -12 29t-29 12zM630 660l-3 -387q-2 -132 -78 -208q-78 -78 -201 -78t-201 78t-78 208v387h135
v-397q0 -72 41 -111t105 -39t105 39q40 39 40 111v397h135z" />
    <glyph glyph-name="uring" unicode="&#x16f;" horiz-adv-x="580" 
d="M289 793v-1q54 0 91 -35q36 -35 36 -87t-36 -88t-91 -36q-54 0 -90 36t-36 88q0 51 36 87t90 36zM290 711q-18 0 -30 -12t-12 -30t12 -30t30 -12q17 0 29 12t12 30t-12 30t-29 12zM518 494l-3 -278q-2 -105 -64 -166q-65 -63 -162 -63q-101 0 -165 63t-64 167v277h135
v-288q0 -44 27 -69q28 -26 68 -26q38 0 66 26q27 25 27 69v288h135z" />
    <glyph glyph-name="Uhungarumlaut" unicode="&#x170;" horiz-adv-x="700" 
d="M402 910v-24l-121 -162h-91l72 186h140zM619 910v-24l-121 -162h-92l73 186h140zM630 660l-3 -387q-2 -132 -78 -208q-78 -78 -201 -78t-201 78t-78 208v387h135v-397q0 -72 41 -111t105 -39t105 39q40 39 40 111v397h135z" />
    <glyph glyph-name="uhungarumlaut" unicode="&#x171;" horiz-adv-x="580" 
d="M355 780v-24l-121 -185h-91l72 209h140zM552 780v-24l-121 -185h-92l73 209h140zM518 495l-3 -278q-2 -105 -64 -166q-65 -63 -162 -63q-101 0 -165 63t-64 167v277h135v-288q0 -43 27 -69q28 -26 68 -26q38 0 66 26q27 26 27 69v288h135z" />
    <glyph glyph-name="Uogonek" unicode="&#x172;" horiz-adv-x="700" 
d="M495 660l134 -3v-387q0 -36 -4 -61q-4 -28 -15 -52l-18 -40q-6 -14 -26 -37q-18 -21 -27 -30q-2 -2 -32 -30l-30 -27q-32 -30 -32 -55q0 -16 10 -25q11 -9 28 -9q11 0 42 6v-88q-47 -15 -89 -15q-56 0 -87 24t-31 69q0 49 42 88q-3 -1 -12 -1q-119 0 -199 80
q-79 79 -79 206v387h135v-397q0 -67 41 -108t104 -41t104 41t41 108v397z" />
    <glyph glyph-name="uogonek" unicode="&#x173;" horiz-adv-x="580" 
d="M383 495h133v-277q0 -43 -7 -71q-8 -32 -28 -59q-22 -30 -37 -45q-20 -20 -55 -51q-33 -30 -33 -53q0 -34 38 -34q10 0 42 6v-86q-47 -16 -89 -16q-55 0 -87 24q-31 24 -31 69q0 50 43 87q-94 6 -153 68t-59 161v277h135v-288q0 -43 27 -69q28 -26 68 -26q38 0 66 26
q27 26 27 69v288z" />
    <glyph glyph-name="Wcircumflex" unicode="&#x174;" horiz-adv-x="1035" 
d="M517 804l-90 -80h-102l148 186h89l148 -186h-103zM860 660h150l-264 -672h-44l-184 413l-185 -413h-44l-264 672h150l147 -389l173 401h45l173 -401z" />
    <glyph glyph-name="wcircumflex" unicode="&#x175;" horiz-adv-x="857" 
d="M428 663l-80 -92h-99l135 209h88l134 -209h-98zM703 495h142l-230 -507h-44l-143 288l-142 -288h-44l-230 507h142l118 -282l134 293h45l137 -287z" />
    <glyph glyph-name="Ycircumflex" unicode="&#x176;" horiz-adv-x="624" 
d="M310 804l-90 -80h-102l148 186h89l148 -186h-103zM607 660l-227 -400v-260h-135v259l-228 401h150l145 -262l146 262h149z" />
    <glyph glyph-name="ycircumflex" unicode="&#x177;" horiz-adv-x="559" 
d="M279 663l-80 -92h-99l135 209h88l134 -209h-98zM405 495h142l-237 -538q-35 -77 -81 -113q-47 -36 -116 -36q-42 0 -87 12v113q41 -4 58 -4q35 0 61 14q23 12 42 53l15 33l-190 466h143l121 -325z" />
    <glyph glyph-name="Ydieresis" unicode="&#x178;" horiz-adv-x="624" 
d="M182 737l2 -3q-32 0 -57 24t-25 54q0 34 24 56q25 23 56 23q34 0 57 -22q24 -23 24 -55t-24 -54q-25 -23 -57 -23zM442 733l2 -1q-32 0 -57 24t-25 54q0 34 24 56q25 23 56 23q32 0 57 -23q24 -22 24 -56q0 -32 -24 -54q-25 -23 -57 -23zM611 656l-227 -400v-260h-135
v259l-228 401h150l145 -262l146 262h149z" />
    <glyph glyph-name="Zacute" unicode="&#x179;" horiz-adv-x="588" 
d="M482 886l-137 -162h-98l72 186h163v-24zM227 122h333v-122h-540v36l331 502h-288v122h496v-36z" />
    <glyph glyph-name="zacute" unicode="&#x17a;" horiz-adv-x="468" 
d="M424 756l-137 -185h-98l72 209h163v-24zM215 114h237v-114h-435v36l236 345h-213v114h410v-36z" />
    <glyph glyph-name="Zdotaccent" unicode="&#x17b;" horiz-adv-x="588" 
d="M299 731h-3q-36 0 -61 24t-25 59t26 59t62 24q34 0 60 -24t26 -59t-25 -59t-60 -24zM224 122h333v-122h-540v36l331 502h-288v122h496v-36z" />
    <glyph glyph-name="zdotaccent" unicode="&#x17c;" horiz-adv-x="468" 
d="M238 592h-2q-36 0 -61 24t-25 59q0 36 26 60t62 24t61 -24t25 -60q0 -35 -25 -59t-61 -24zM213 114h237v-114h-435v36l236 345h-213v114h410v-36z" />
    <glyph glyph-name="Zcaron" unicode="&#x17d;" horiz-adv-x="588" 
d="M343 724h-89l-148 186h102l90 -80l90 80h103zM227 122h333v-122h-540v36l331 502h-288v122h496v-36z" />
    <glyph glyph-name="zcaron" unicode="&#x17e;" horiz-adv-x="468" 
d="M283 571h-88l-135 209h99l80 -92l80 92h98zM215 114h237v-114h-435v36l236 345h-213v114h410v-36z" />
    <glyph glyph-name="uni018F" unicode="&#x18f;" horiz-adv-x="733" 
d="M352 672l1 2q143 0 242 -99t99 -243t-102 -243t-246 -99q-132 0 -220 85t-88 217q0 44 9 87h506q-13 77 -69 123q-56 47 -132 47q-112 0 -187 -102l-91 79q48 68 119 107t159 39zM350 115h-1q73 0 126 40t73 108h-378q4 -70 57 -109t123 -39z" />
    <glyph glyph-name="florin" unicode="&#x192;" horiz-adv-x="451" 
d="M381 672h-2q38 0 73 -11v-112q-42 2 -45 2q-42 0 -63 -18q-20 -17 -26 -59l-9 -68h92v-115h-106l-29 -239q-23 -185 -196 -185q-43 0 -72 10l-1 113q42 -2 45 -2q42 0 64 18q23 18 27 58l28 227h-73v115h87l10 80q23 186 196 186z" />
    <glyph glyph-name="uni01D4" unicode="&#x1d4;" horiz-adv-x="580" 
d="M335 571h-88l-135 209h99l80 -92l80 92h98zM383 495l132 -1v-277q0 -103 -64 -166q-65 -63 -162 -63q-101 0 -165 63t-64 167v277h135v-288q0 -43 27 -69q28 -26 68 -26q38 0 66 26q27 26 27 69v288z" />
    <glyph glyph-name="AEacute" unicode="&#x1fc;" horiz-adv-x="852" 
d="M603 886l-137 -162h-98l72 186h163v-24zM569 122h243v-122h-355l-15 86h-247l-45 -86h-145l338 660h457v-122h-301l23 -134h197v-115h-178zM380 466l-129 -269h172z" />
    <glyph glyph-name="aeacute" unicode="&#x1fd;" horiz-adv-x="878" 
d="M618 756l-137 -185h-98l72 209h163v-24zM840 276l-3 1q0 -45 -10 -79h-345q28 -93 138 -93q73 0 138 50l56 -92q-86 -74 -195 -74q-134 0 -207 100q-60 -100 -195 -100q-87 0 -134 42t-47 107q0 68 51 109q50 40 137 40h124v16q0 41 -24 63q-25 23 -67 23q-66 0 -132 -68
l-69 83q86 102 215 102q111 0 163 -73q67 73 174 73q102 0 167 -66q65 -67 65 -164zM600 398l-1 -1q-46 0 -79 -30q-32 -29 -43 -81h229q1 52 -29 82t-77 30zM238 88h1q44 0 74 27t30 69v13h-106q-69 0 -69 -52q0 -27 19 -42t51 -15z" />
    <glyph glyph-name="Oslashacute" unicode="&#x1fe;" horiz-adv-x="778" 
d="M571 886l-137 -162h-98l72 186h163v-24zM747 608l-75 -75q68 -89 68 -203q0 -145 -103 -244t-249 -99q-110 0 -200 60l-76 -77l-81 81l74 74q-67 91 -67 204q0 145 102 244t248 99q113 0 201 -61l77 78zM171 330l-1 -1q0 -61 26 -111l305 306q-50 29 -113 29
q-94 0 -156 -63q-61 -62 -61 -160zM606 329l-1 -1q0 60 -27 111l-304 -305q50 -29 114 -29q94 0 156 63q62 64 62 161z" />
    <glyph glyph-name="oslashacute" unicode="&#x1ff;" horiz-adv-x="612" 
d="M493 756l-137 -185h-98l72 209h163v-24zM582 443l-54 -54q43 -64 43 -143q0 -109 -78 -184t-189 -75q-76 0 -138 39l-55 -56l-81 81l53 53q-42 64 -42 142q0 110 77 185q76 75 188 75q75 0 140 -38l55 55zM305 391l1 1q-61 0 -100 -40t-39 -105q0 -31 12 -63l192 192
q-29 15 -66 15zM305 102l1 -1q62 0 101 41q39 40 39 105q0 35 -12 63l-192 -193q32 -15 63 -15z" />
    <glyph glyph-name="Scommaaccent" unicode="&#x218;" horiz-adv-x="559" 
d="M283 672l-2 1q77 0 132 -34q56 -35 87 -91l-92 -71q-51 76 -126 76q-35 0 -58 -16q-24 -17 -24 -48q0 -26 18 -41q20 -17 60 -34l75 -33q81 -35 123 -82q40 -44 40 -112q0 -90 -65 -144t-165 -54q-84 0 -150 39t-104 107l93 70q69 -96 162 -96q43 0 69 20q25 19 25 54
q0 20 -12 35q-13 16 -27 23l-46 23l-71 32q-75 34 -118 80q-42 45 -42 110q0 84 62 135q61 51 156 51zM346 -45l-25 -174h-103l4 174h124z" />
    <glyph glyph-name="scommaaccent" unicode="&#x219;" horiz-adv-x="455" 
d="M235 507l-1 -5q110 0 178 -75l-68 -83q-50 47 -111 47q-53 0 -53 -35q0 -14 12 -23q8 -6 41 -20l48 -20q74 -31 105 -62q33 -33 33 -88q0 -74 -54 -116t-138 -42q-131 0 -205 96l68 82q64 -67 138 -67q26 0 45 11q18 11 18 30q0 16 -12 25q-13 9 -40 21l-53 22
q-68 29 -101 63t-33 90q0 71 51 110t132 39zM301 -51l-25 -174h-103l4 174h124z" />
    <glyph glyph-name="uni021A" unicode="&#x21a;" horiz-adv-x="585" 
d="M572 660v-122h-212v-538h-135v538h-211v122h558zM356 -46l-25 -174h-103l4 174h124z" />
    <glyph glyph-name="uni021B" unicode="&#x21b;" horiz-adv-x="416" 
d="M321 109h1q17 0 64 4v-113q-48 -12 -93 -12q-94 0 -147 47q-52 46 -52 140v207h-78v114h78v125h135v-125h140v-114h-140v-195q0 -42 22 -60t70 -18zM165 -220l4 174h124l-25 -174h-103z" />
    <glyph glyph-name="uni0237" unicode="&#x237;" horiz-adv-x="269" 
d="M202 495v-502q0 -91 -51 -138q-52 -47 -139 -47q-39 0 -75 11v113q24 -3 41 -3q44 0 67 18q22 18 22 59v489h135z" />
    <glyph glyph-name="uni0259" unicode="&#x259;" horiz-adv-x="569" 
d="M268 506l-2 -1q115 0 189 -73q75 -74 75 -183q0 -111 -75 -186t-185 -75q-104 0 -168 66q-64 65 -64 164q0 44 9 75h347q-10 47 -45 72q-34 25 -87 25q-71 0 -135 -49l-56 92q86 73 197 73zM274 97l-1 -1q43 0 75 27t44 74h-226q1 -46 33 -73q31 -27 75 -27z" />
    <glyph glyph-name="circumflex" unicode="&#x2c6;" horiz-adv-x="417" 
d="M387 571h-98l-80 92l-80 -92h-99l135 209h88z" />
    <glyph glyph-name="caron" unicode="&#x2c7;" horiz-adv-x="417" 
d="M289 780h98l-134 -209h-88l-135 209h99l80 -92z" />
    <glyph glyph-name="breve" unicode="&#x2d8;" horiz-adv-x="405" 
d="M375 748h-1q0 -74 -48 -124q-48 -49 -123 -49q-76 0 -124 49q-48 50 -48 124h106q0 -34 18 -53q18 -20 48 -20t48 20q18 19 18 53h106z" />
    <glyph glyph-name="dotaccent" unicode="&#x2d9;" horiz-adv-x="233" 
d="M117 759h-2q35 0 61 -24q25 -24 25 -60q0 -35 -25 -59q-26 -24 -61 -24t-61 24q-25 24 -25 59q0 36 26 60q25 24 62 24z" />
    <glyph glyph-name="ring" unicode="&#x2da;" horiz-adv-x="313" 
d="M156 793v-1q54 0 91 -35q36 -35 36 -87t-36 -88t-91 -36q-54 0 -90 36t-36 88q0 51 36 87t90 36zM157 711q-18 0 -30 -12t-12 -30t12 -30t30 -12q17 0 29 12t12 30t-12 30t-29 12z" />
    <glyph glyph-name="ogonek" unicode="&#x2db;" horiz-adv-x="267" 
d="M177 54l55 -54l-40 -25q-38 -23 -38 -42q0 -29 36 -29q10 0 42 6v-88q-45 -15 -86 -15q-56 0 -88 28q-33 29 -33 72t36 78q36 34 116 69z" />
    <glyph glyph-name="tilde" unicode="&#x2dc;" horiz-adv-x="446" 
d="M144 759q36 0 71 -22l28 -18q27 -18 40 -18q28 0 28 35v12h103q2 -32 2 -34q0 -62 -33 -99t-82 -37q-36 0 -72 22l-28 17q-32 19 -39 19q-28 0 -28 -35v-12h-103q-2 30 -2 33q0 62 33 99q33 38 82 38z" />
    <glyph glyph-name="hungarumlaut" unicode="&#x2dd;" horiz-adv-x="469" 
d="M242 780v-24l-121 -185h-91l72 209h140zM439 780v-24l-121 -185h-92l73 209h140z" />
    <glyph glyph-name="uni030C" unicode="&#x30c;" horiz-adv-x="0" 
d="M-30 750l-49 -206h-95l5 206h139z" />
    <glyph glyph-name="uni0326" unicode="&#x326;" horiz-adv-x="0" 
d="M-30 -46l-25 -174h-103l4 174h124z" />
    <glyph glyph-name="dieresistonos" unicode="&#x385;" horiz-adv-x="620" 
d="M396 780v-24l-62 -185h-93v209h155zM120 754l-1 -1q32 0 57 -23q24 -22 24 -56q0 -32 -24 -54q-25 -23 -56 -23q-30 0 -55 24t-25 54q0 33 24 56q25 23 56 23zM499 753l-1 -1q32 0 57 -23q24 -22 24 -56q0 -31 -24 -54q-25 -23 -57 -23q-30 0 -54 24t-24 54q0 34 24 56
q25 23 55 23z" />
    <glyph glyph-name="Alphatonos" unicode="&#x386;" horiz-adv-x="661" 
d="M160 720l-49 -206h-95l5 206h139zM502 0l-37 86h-270l-37 -86h-145l295 672h45l294 -672h-145zM417 197l-87 222l-87 -222h174z" />
    <glyph glyph-name="Epsilontonos" unicode="&#x388;" horiz-adv-x="573" 
d="M30 720l-49 -206h-95l5 206h139zM520 660v-122h-309v-134h227v-115h-227v-167h321v-122h-456v660h444z" />
    <glyph glyph-name="Etatonos" unicode="&#x389;" horiz-adv-x="713" 
d="M30 720l-49 -206h-95l5 206h139zM638 660v-660h-135v285h-292v-285h-135v660h135v-253h292v253h135z" />
    <glyph glyph-name="Iotatonos" unicode="&#x38a;" horiz-adv-x="286" 
d="M30 720l-49 -206h-95l5 206h139zM211 660v-660h-135v660h135z" />
    <glyph glyph-name="Omicrontonos" unicode="&#x38c;" horiz-adv-x="778" 
d="M63 720l-49 -206h-95l5 206h139zM388 672q146 0 249 -99t103 -244t-103 -244t-249 -99t-248 99t-102 244t102 244t248 99zM389 547l-2 -1q-92 0 -152 -61t-60 -156q0 -96 60 -156t153 -60q92 0 152 61q60 62 60 156t-60 156q-60 61 -151 61z" />
    <glyph glyph-name="Upsilontonos" unicode="&#x38e;" horiz-adv-x="624" 
d="M-176 514l5 206h139l-49 -206h-95zM607 660l-227 -400v-260h-135v259l-228 401h150l145 -262l146 262h149z" />
    <glyph glyph-name="Omegatonos" unicode="&#x38f;" horiz-adv-x="788" 
d="M-77 720h139l-49 -206h-95zM745 347q0 -133 -117 -225h107v-122h-284v122q155 74 155 219q0 92 -60 149t-153 57q-91 0 -151 -57t-60 -148q0 -146 155 -220v-122h-284v122h101q-111 92 -111 225q0 137 102 231q101 94 248 94q146 0 249 -94t103 -231z" />
    <glyph glyph-name="iotadieresistonos" unicode="&#x390;" horiz-adv-x="314" 
d="M234 780v-24l-62 -185h-93v209h155zM-42 754l-1 -1q32 0 57 -23q24 -22 24 -56q0 -32 -24 -54q-25 -23 -56 -23q-30 0 -55 24t-25 54q0 33 24 56q25 23 56 23zM337 753l-1 -1q32 0 57 -23q24 -22 24 -56q0 -31 -24 -54q-25 -23 -57 -23q-30 0 -54 24t-24 54q0 34 24 56
q25 23 55 23zM197 493l-1 -311q0 -39 15 -57t45 -18q2 0 7 0.5t14 1t17 0.5v-113q-34 -10 -72 -10q-159 0 -159 176v331h134z" />
    <glyph glyph-name="Alpha" unicode="&#x391;" horiz-adv-x="661" 
d="M502 0l-37 86h-270l-37 -86h-145l295 672h45l294 -672h-145zM417 197l-87 222l-87 -222h174z" />
    <glyph glyph-name="Beta" unicode="&#x392;" horiz-adv-x="621" 
d="M470 357v-1q56 -20 86 -62t30 -101q0 -86 -60 -140t-156 -54h-294v660h234q92 0 150 -51q59 -51 59 -132q0 -73 -49 -119zM299 543h-94v-151h93q40 0 63 21t23 56t-22 54q-23 20 -63 20zM359 115q44 0 69 22t25 61q0 38 -25 60q-26 23 -69 23h-154v-166h154z" />
    <glyph glyph-name="Gamma" unicode="&#x393;" horiz-adv-x="524" 
d="M211 0h-135v660h424v-122h-289v-538z" />
    <glyph glyph-name="Delta" unicode="&#x394;" horiz-adv-x="661" 
d="M353 672l294 -672h-634l295 672h45zM450 122l-119 278l-120 -278h239z" />
    <glyph glyph-name="Epsilon" unicode="&#x395;" horiz-adv-x="573" 
d="M520 660v-122h-309v-134h227v-115h-227v-167h321v-122h-456v660h444z" />
    <glyph glyph-name="Zeta" unicode="&#x396;" horiz-adv-x="588" 
d="M227 122h333v-122h-540v36l331 502h-288v122h496v-36z" />
    <glyph glyph-name="Eta" unicode="&#x397;" horiz-adv-x="713" 
d="M638 660v-660h-135v285h-292v-285h-135v660h135v-253h292v253h135z" />
    <glyph glyph-name="Theta" unicode="&#x398;" horiz-adv-x="778" 
d="M388 672q146 0 249 -99t103 -244t-103 -244t-249 -99t-248 99t-102 244t102 244t248 99zM388 555h1q-95 0 -157 -63q-61 -62 -61 -162q0 -97 62 -161q61 -63 156 -63t158 63t63 161q0 99 -63 162t-159 63zM511 392v-111h-242v111h242z" />
    <glyph glyph-name="Iota" unicode="&#x399;" horiz-adv-x="286" 
d="M211 660v-660h-135v660h135z" />
    <glyph glyph-name="Kappa" unicode="&#x39a;" horiz-adv-x="670" 
d="M657 0h-163l-283 344v-344h-135v660h135v-307l252 307h161l-253 -311z" />
    <glyph glyph-name="Lambda" unicode="&#x39b;" horiz-adv-x="661" 
d="M647 0h-145l-171 401l-173 -401h-145l295 672h45z" />
    <glyph glyph-name="Mu" unicode="&#x39c;" horiz-adv-x="798" 
d="M678 672h44v-672h-135v353l-166 -209h-44l-166 209v-353h-135v672h44l279 -358z" />
    <glyph glyph-name="Nu" unicode="&#x39d;" horiz-adv-x="713" 
d="M503 660h135v-672h-45l-382 408v-396h-135v672h44l383 -405v393z" />
    <glyph glyph-name="Xi" unicode="&#x39e;" horiz-adv-x="568" 
d="M527 660v-122h-486v122h486zM515 406v-119h-462v119h462zM527 122v-122h-486v122h486z" />
    <glyph glyph-name="Omicron" unicode="&#x39f;" horiz-adv-x="778" 
d="M388 672q146 0 249 -99t103 -244t-103 -244t-249 -99t-248 99t-102 244t102 244t248 99zM389 547l-2 -1q-92 0 -152 -61t-60 -156q0 -96 60 -156t153 -60q92 0 152 61q60 62 60 156t-60 156q-60 61 -151 61z" />
    <glyph glyph-name="Pi" unicode="&#x3a0;" horiz-adv-x="691" 
d="M615 660v-660h-135v538h-269v-538h-135v660h539z" />
    <glyph glyph-name="Rho" unicode="&#x3a1;" horiz-adv-x="594" 
d="M324 660v-1q106 0 171 -58q66 -59 66 -154q0 -94 -66 -154t-171 -60h-113v-233h-135v660h248zM324 540l-114 -1v-190h113q47 0 74 27t27 70t-27 68q-28 26 -73 26z" />
    <glyph glyph-name="Sigma" unicode="&#x3a3;" horiz-adv-x="570" 
d="M251 122h278v-122h-494v29l199 309l-199 293v29h482v-122h-262l130 -185v-29z" />
    <glyph glyph-name="Tau" unicode="&#x3a4;" horiz-adv-x="585" 
d="M572 660v-122h-212v-538h-135v538h-211v122h558z" />
    <glyph glyph-name="Upsilon" unicode="&#x3a5;" horiz-adv-x="624" 
d="M607 660l-227 -400v-260h-135v259l-228 401h150l145 -262l146 262h149z" />
    <glyph glyph-name="Phi" unicode="&#x3a6;" horiz-adv-x="838" 
d="M799 336h-1q0 -129 -87 -204q-88 -76 -226 -77v-86h-135v86q-138 1 -226 77q-87 75 -87 204q0 128 87 201q87 74 226 75v80h135v-80q140 -2 227 -75t87 -201zM170 332v-2q0 -77 48 -119t132 -42v328q-84 -1 -132 -45t-48 -120zM485 168v2q84 0 132 42t48 119t-48 120
t-132 45v-328z" />
    <glyph glyph-name="Chi" unicode="&#x3a7;" horiz-adv-x="614" 
d="M600 0h-153l-140 219l-140 -219h-154l219 336l-206 324h154l127 -209l126 209h153l-202 -324z" />
    <glyph glyph-name="Psi" unicode="&#x3a8;" horiz-adv-x="843" 
d="M489 683l2 -418q74 0 120 38q45 37 45 111v245h135v-257q0 -125 -82 -191q-83 -66 -219 -66v-145h-135v145q-137 0 -219 66t-82 191v257h135v-245q0 -74 45 -111q44 -37 120 -37v417h135z" />
    <glyph glyph-name="Omega" unicode="&#x3a9;" horiz-adv-x="788" 
d="M745 347q0 -133 -117 -225h107v-122h-284v122q155 74 155 219q0 92 -60 149t-153 57q-91 0 -151 -57t-60 -148q0 -146 155 -220v-122h-284v122h101q-111 92 -111 225q0 137 102 231q101 94 248 94q146 0 249 -94t103 -231z" />
    <glyph glyph-name="Iotadieresis" unicode="&#x3aa;" horiz-adv-x="286" 
d="M14 892l2 -3q34 0 57 -22q24 -23 24 -55t-24 -54q-25 -23 -57 -23t-57 24t-25 54q0 33 24 56q25 23 56 23zM274 889l2 -1q32 0 57 -23q24 -22 24 -56q0 -31 -24 -54q-25 -23 -57 -23t-57 24t-25 54q0 34 24 56q25 23 56 23zM215 656v-660h-135v660h135z" />
    <glyph glyph-name="Upsilondieresis" unicode="&#x3ab;" horiz-adv-x="624" 
d="M173 737l2 -3q-31 0 -57 24q-25 24 -25 54q0 34 24 56q25 23 56 23q34 0 57 -22q24 -23 24 -55t-24 -54q-25 -23 -57 -23zM433 733l2 -1q-31 0 -57 24q-25 24 -25 54q0 34 24 56q25 23 56 23q32 0 57 -23q24 -22 24 -56q0 -32 -24 -54q-25 -23 -57 -23zM611 656
l-227 -400v-260h-135v259l-228 401h150l145 -262l146 262h149z" />
    <glyph glyph-name="alphatonos" unicode="&#x3ac;" horiz-adv-x="641" 
d="M408 756l-61 -185h-99v209h160v-24zM598 111l-1 -3q19 0 29 1v-112q-31 -10 -74 -10q-91 0 -118 77q-52 -79 -161 -79q-102 0 -168 74q-66 73 -66 186t66 186q66 74 168 74q109 0 162 -81q0 2 2 34q1 23 3 37h124q-10 -143 -10 -232v-91q0 -61 44 -61zM297 108v-1
q50 0 87 35q36 34 36 101q0 65 -36 101t-87 36q-53 0 -87 -37q-35 -38 -35 -99t35 -99q34 -37 87 -37z" />
    <glyph glyph-name="epsilontonos" unicode="&#x3ad;" horiz-adv-x="509" 
d="M359 756l-61 -185h-99v209h160v-24zM400 161l75 -81q-72 -93 -215 -93q-94 0 -155 41q-60 40 -60 108q0 76 71 118q-51 40 -51 106q0 68 56 107q55 39 147 39q137 0 206 -85l-76 -81q-45 50 -129 50q-71 0 -71 -43q0 -19 15 -31t41 -12h86v-100h-91q-71 0 -71 -48
q0 -52 84 -52q88 0 138 57z" />
    <glyph glyph-name="etatonos" unicode="&#x3ae;" horiz-adv-x="605" 
d="M398 756l-61 -185h-99v209h160v-24zM352 506l1 -2q87 0 138 -54t51 -144v-487h-134v468q0 44 -25 70q-25 27 -66 27q-42 0 -69 -27t-27 -69v-288h-134v323q0 61 -45 61q-15 0 -28 -1v112q31 10 74 10q80 0 110 -57q61 58 154 58z" />
    <glyph glyph-name="iotatonos" unicode="&#x3af;" horiz-adv-x="314" 
d="M227 780v-24l-61 -185h-99v209h160zM199 495l-1 -311q0 -39 15 -57t45 -18q2 0 7 0.5t14 1t17 0.5v-113q-34 -10 -72 -10q-159 0 -159 176v331h134z" />
    <glyph glyph-name="upsilondieresistonos" unicode="&#x3b0;" horiz-adv-x="576" 
d="M381 780v-24l-62 -185h-93v209h155zM105 754l-1 -1q32 0 57 -23q24 -22 24 -56q0 -32 -24 -54q-25 -23 -56 -23q-29 0 -55 24q-25 24 -25 54q0 33 24 56q25 23 56 23zM484 753l-1 -1q32 0 57 -23q24 -22 24 -56q0 -31 -24 -54q-25 -23 -57 -23q-30 0 -54 24t-24 54
q0 34 24 56q25 23 55 23zM483 493v1q42 -136 42 -249q0 -126 -65 -193q-64 -66 -168 -66q-102 0 -167 63t-65 169v275h135v-287q0 -44 27 -71t71 -27q94 0 94 135q0 112 -36 250h132z" />
    <glyph glyph-name="alpha" unicode="&#x3b1;" horiz-adv-x="641" 
d="M598 111l-1 -3q19 0 29 1v-112q-31 -10 -74 -10q-91 0 -118 77q-52 -79 -161 -79q-102 0 -168 74q-66 73 -66 186t66 186q66 74 168 74q109 0 162 -81q0 2 2 34q1 23 3 37h124q-10 -143 -10 -232v-91q0 -61 44 -61zM297 108v-1q50 0 87 35q36 34 36 101q0 65 -36 101
t-87 36q-53 0 -87 -37q-35 -38 -35 -99t35 -99q34 -37 87 -37z" />
    <glyph glyph-name="beta" unicode="&#x3b2;" horiz-adv-x="633" 
d="M453 428l1 -2q64 -22 103 -75t39 -129q0 -108 -72 -172q-71 -64 -175 -64q-85 0 -146 46v-214h-135v711q0 109 66 170q67 62 174 62q100 0 156 -56t56 -135q0 -91 -67 -142zM331 110l-2 -1q58 0 93 32t35 86q0 52 -34 85q-35 33 -87 33h-54v114h17q41 0 63 25
q23 26 23 69t-24 65q-25 23 -61 23q-43 0 -70 -30t-27 -83v-371q58 -47 128 -47z" />
    <glyph glyph-name="gamma" unicode="&#x3b3;" horiz-adv-x="559" 
d="M547 495l-200 -414v-261h-135v261l-200 414h142l125 -281l125 281h143z" />
    <glyph glyph-name="delta" unicode="&#x3b4;" horiz-adv-x="608" 
d="M484 442l-1 1q86 -95 86 -195q0 -110 -78 -185t-189 -75q-110 0 -187 75q-76 75 -76 186q0 101 63 168q63 68 161 80l-197 217v36h469v-114h-228zM303 113l-1 -2q56 0 92 39t36 97q0 59 -36 96q-36 38 -91 38q-56 0 -92 -38q-36 -37 -36 -96t36 -96q36 -38 92 -38z" />
    <glyph glyph-name="epsilon" unicode="&#x3b5;" horiz-adv-x="509" 
d="M400 161l75 -81q-72 -93 -215 -93q-94 0 -155 41q-60 40 -60 108q0 76 71 118q-51 40 -51 106q0 68 56 107q55 39 147 39q137 0 206 -85l-76 -81q-45 50 -129 50q-71 0 -71 -43q0 -19 15 -31t41 -12h86v-100h-91q-71 0 -71 -48q0 -52 84 -52q88 0 138 57z" />
    <glyph glyph-name="zeta" unicode="&#x3b6;" horiz-adv-x="525" 
d="M354 109v-1q164 -44 164 -174q0 -54 -26 -115h-132q20 57 20 92q0 58 -74 78l-55 14q-101 25 -157 83q-55 56 -55 137q0 95 91 207l167 206h-232v114h445v-36l-279 -351q-55 -68 -55 -121q0 -87 116 -117z" />
    <glyph glyph-name="eta" unicode="&#x3b7;" horiz-adv-x="605" 
d="M352 506l1 -2q87 0 138 -54t51 -144v-487h-134v468q0 44 -25 70q-25 27 -66 27q-42 0 -69 -27t-27 -69v-288h-134v323q0 61 -45 61q-15 0 -28 -1v112q31 10 74 10q80 0 110 -57q61 58 154 58z" />
    <glyph glyph-name="theta" unicode="&#x3b8;" horiz-adv-x="641" 
d="M320 762v2q132 0 199 -102q67 -101 67 -283q0 -184 -67 -287q-68 -104 -199 -104q-132 0 -198 104t-66 287q0 181 66 282t198 101zM320 640h-2q-58 0 -88 -47t-36 -150h251q-6 103 -36 150t-89 47zM318 113l1 -1q60 0 91 52q32 53 36 163h-253q4 -111 35 -163
q30 -51 90 -51z" />
    <glyph glyph-name="iota" unicode="&#x3b9;" horiz-adv-x="314" 
d="M199 495l-1 -311q0 -39 15 -57t45 -18q2 0 7 0.5t14 1t17 0.5v-113q-34 -10 -72 -10q-159 0 -159 176v331h134z" />
    <glyph glyph-name="kappa" unicode="&#x3ba;" horiz-adv-x="561" 
d="M556 0h-153l-201 259v-259h-135v495h135v-228l187 228h160l-192 -233z" />
    <glyph glyph-name="lambda" unicode="&#x3bb;" horiz-adv-x="572" 
d="M542 113h24v-113q-30 -10 -60 -10q-48 0 -79 26q-30 26 -48 81l-85 257l-132 -354h-142l208 512l-18 54q-13 39 -39 57q-25 17 -61 17q-19 0 -52 -3v113q35 11 75 11q72 0 119 -33t77 -117l163 -457q15 -41 50 -41z" />
    <glyph glyph-name="mu" unicode="&#x3bc;" horiz-adv-x="610" 
d="M568 111h-1q18 0 27 1v-112q-31 -10 -72 -10q-75 0 -107 53q-40 -55 -111 -55q-63 0 -103 46v-214h-135v675h135v-285q0 -44 26 -72q25 -27 66 -27t68 27t27 72v285h134v-323q0 -61 46 -61z" />
    <glyph glyph-name="nu" unicode="&#x3bd;" horiz-adv-x="559" 
d="M404 495h143l-245 -507h-45l-245 507h142l125 -281z" />
    <glyph glyph-name="xi" unicode="&#x3be;" horiz-adv-x="533" 
d="M357 115l5 -3q82 -13 126 -62q43 -47 43 -119q0 -53 -26 -114h-132q20 57 20 93q0 70 -74 81l-47 7q-109 17 -165 74q-58 59 -58 146q0 60 29 109q28 48 78 75q-82 57 -82 157q0 89 65 146t162 57q73 0 129 -33t87 -91l-93 -72q-50 72 -114 72q-43 0 -71 -25
q-29 -26 -29 -66q0 -39 27 -66t72 -27h114v-115h-123q-52 0 -84 -28q-33 -29 -33 -78q0 -89 114 -108z" />
    <glyph glyph-name="omicron" unicode="&#x3bf;" horiz-adv-x="608" 
d="M304 506l-1 -1q110 0 188 -75t78 -184t-78 -184t-189 -75q-110 0 -187 75q-76 75 -76 184q0 110 77 185q76 75 188 75zM303 382l-2 -2q-55 0 -91 -39t-36 -97t36 -96t92 -38t92 39t36 97t-36 97t-91 39z" />
    <glyph glyph-name="pi" unicode="&#x3c0;" horiz-adv-x="598" 
d="M516 -9v-1q-67 0 -103 41q-36 40 -36 119v231h-174v-381h-135v495h444v-327q0 -57 45 -57q18 0 27 1v-112q-38 -9 -68 -9z" />
    <glyph glyph-name="rho" unicode="&#x3c1;" horiz-adv-x="617" 
d="M319 506l-1 -1q118 0 189 -72q71 -73 71 -186t-66 -186t-170 -73q-91 0 -145 59v-227h-135v423q0 120 70 191q71 72 187 72zM316 110h1q53 0 89 37t36 99t-36 99q-36 38 -90 38q-52 0 -87 -34q-36 -35 -36 -100q0 -67 36 -103t87 -36z" />
    <glyph glyph-name="uni03C2" unicode="&#x3c2;" horiz-adv-x="532" 
d="M324 -180l-2 -6q27 57 27 96q0 20 -6 32t-21 21q-17 10 -27 14q-12 5 -39 12q-37 12 -55 19q-23 9 -57 30t-55 46q-20 25 -37 67q-16 41 -16 94q0 120 73 189t183 69q148 0 217 -124l-93 -72q-52 73 -123 73q-53 0 -86 -34t-33 -93q0 -22 6 -40t12 -30q6 -13 22 -24
q20 -15 24 -17q11 -6 31 -14q16 -6 28 -10q5 -2 30 -9q78 -24 120 -60t42 -106q0 -62 -34 -123h-131z" />
    <glyph glyph-name="sigma" unicode="&#x3c3;" horiz-adv-x="646" 
d="M627 495v-114h-128q63 -60 63 -146q0 -105 -75 -176q-76 -71 -189 -71q-112 0 -186 74q-73 73 -73 183q0 112 74 181q73 69 194 69h320zM300 112l-2 -2q56 0 90 39q35 40 35 97q0 59 -34 96t-90 37t-90 -37t-34 -96q0 -58 35 -96t90 -38z" />
    <glyph glyph-name="tau" unicode="&#x3c4;" horiz-adv-x="479" 
d="M365 109v1q23 0 83 4v-113q-57 -12 -111 -12q-205 0 -205 186v207h-125v114h431v-114h-171v-195q0 -42 23 -60q22 -18 75 -18z" />
    <glyph glyph-name="upsilon" unicode="&#x3c5;" horiz-adv-x="576" 
d="M485 495v1q42 -136 42 -249q0 -126 -65 -193q-64 -66 -168 -66q-102 0 -167 63t-65 169v275h135v-287q0 -44 27 -71t71 -27q94 0 94 135q0 112 -36 250h132z" />
    <glyph glyph-name="phi" unicode="&#x3c6;" horiz-adv-x="803" 
d="M765 248l-1 -1q0 -120 -82 -189q-82 -68 -213 -70v-168h-134v168q-130 1 -213 71q-83 69 -83 189t83 189q82 68 213 70v178h134v-178q131 -2 213 -70q83 -69 83 -189zM169 246l-2 -2q0 -68 43 -105q44 -38 120 -38h6v288h-6q-74 0 -118 -38q-43 -37 -43 -105zM468 100
l-1 2q76 0 120 38t44 105q0 68 -43 105q-44 38 -120 38h-6v-288h6z" />
    <glyph glyph-name="chi" unicode="&#x3c7;" horiz-adv-x="549" 
d="M511 -68v-1q22 0 28 1v-113q-26 -10 -62 -10q-45 0 -74 23q-31 24 -54 69l-76 145l-117 -226h-150l197 351l-95 173q-22 39 -60 39q-21 0 -28 -1v113q24 9 62 9q44 0 75 -23q29 -22 55 -71l63 -121l108 206h149l-186 -328l105 -196q21 -39 60 -39z" />
    <glyph glyph-name="psi" unicode="&#x3c8;" horiz-adv-x="831" 
d="M484 660v-550q160 0 160 162q0 85 -36 223h132q42 -126 42 -231q0 -131 -81 -203t-217 -72v-168h-134v168q-126 0 -208 68q-81 67 -81 192v247h135v-236q0 -72 44 -111t110 -39v550h134z" />
    <glyph glyph-name="omega" unicode="&#x3c9;" horiz-adv-x="844" 
d="M587 504l1 -1q218 -50 218 -262q0 -118 -65 -186q-64 -67 -165 -67q-99 0 -153 68q-53 -68 -153 -68t-165 68q-64 67 -64 186q0 212 218 262l34 -119q-56 -16 -87 -50q-30 -33 -30 -95t29 -96q28 -33 71 -33q38 0 60 27q23 28 23 74v156h128v-156q0 -46 23 -74
q22 -27 60 -27q42 0 71 33q29 34 29 96t-30 95q-31 34 -87 50z" />
    <glyph glyph-name="iotadieresis" unicode="&#x3ca;" horiz-adv-x="314" 
d="M24 754q32 0 57 -23q24 -23 24 -56q0 -31 -24 -54q-25 -23 -57 -23q-31 0 -56 23q-24 23 -24 54q0 33 24 56q25 23 56 23zM244 754l2 -1q32 0 57 -23q24 -22 24 -56q0 -32 -24 -54q-25 -23 -57 -23t-57 24t-25 54q0 33 24 56q25 23 56 23zM201 494l-1 -311q0 -39 15 -57
t45 -18q2 0 7 0.5t14 1t17 0.5v-113q-34 -10 -72 -10q-159 0 -159 176v331h134z" />
    <glyph glyph-name="upsilondieresis" unicode="&#x3cb;" horiz-adv-x="576" 
d="M161 754l2 -1q32 0 57 -23q24 -22 24 -56q0 -32 -24 -54q-25 -23 -57 -23q-31 0 -57 24q-25 24 -25 54q0 33 24 56q25 23 56 23zM401 753l2 -1q32 0 57 -23q24 -22 24 -56q0 -31 -24 -54q-25 -23 -57 -23q-31 0 -57 24q-25 24 -25 54q0 34 24 56q25 23 56 23zM489 493v1
q42 -136 42 -249q0 -126 -65 -193q-64 -66 -168 -66q-102 0 -167 63t-65 169v275h135v-287q0 -44 27 -71t71 -27q94 0 94 135q0 112 -36 250h132z" />
    <glyph glyph-name="omicrontonos" unicode="&#x3cc;" horiz-adv-x="608" 
d="M398 780v-24l-61 -185h-99v209h160zM304 506l-1 -1q110 0 188 -75t78 -184t-78 -184t-189 -75q-110 0 -187 75q-76 75 -76 184q0 110 77 185q76 75 188 75zM303 382l-2 -2q-55 0 -91 -39t-36 -97t36 -96t92 -38t92 39t36 97t-36 97t-91 39z" />
    <glyph glyph-name="upsilontonos" unicode="&#x3cd;" horiz-adv-x="576" 
d="M374 780v-24l-61 -185h-99v209h160zM485 495v1q42 -136 42 -249q0 -126 -65 -193q-64 -66 -168 -66q-102 0 -167 63t-65 169v275h135v-287q0 -44 27 -71t71 -27q94 0 94 135q0 112 -36 250h132z" />
    <glyph glyph-name="omegatonos" unicode="&#x3ce;" horiz-adv-x="844" 
d="M510 756l-61 -185h-99v209h160v-24zM587 504l1 -1q218 -50 218 -262q0 -118 -65 -186q-64 -67 -165 -67q-99 0 -153 68q-53 -68 -153 -68t-165 68q-64 67 -64 186q0 212 218 262l34 -119q-56 -16 -87 -50q-30 -33 -30 -95t29 -96q28 -33 71 -33q38 0 60 27q23 28 23 74
v156h128v-156q0 -46 23 -74q22 -27 60 -27q42 0 71 33q29 34 29 96t-30 95q-31 34 -87 50z" />
    <glyph glyph-name="uni0400" unicode="&#x400;" horiz-adv-x="573" 
d="M272 910l72 -186h-98l-137 162v24h163zM520 660v-122h-309v-134h227v-115h-227v-167h321v-122h-456v660h444z" />
    <glyph glyph-name="uni0401" unicode="&#x401;" horiz-adv-x="573" 
d="M166 892l2 -3q34 0 57 -22q24 -23 24 -55t-24 -54q-25 -23 -57 -23t-57 24t-25 54q0 33 24 56q25 23 56 23zM426 889l2 -1q32 0 57 -23q24 -22 24 -56q0 -31 -24 -54q-25 -23 -57 -23t-57 24t-25 54q0 34 24 56q25 23 56 23zM524 656v-122h-309v-134h227v-115h-227v-167
h321v-122h-456v660h444z" />
    <glyph glyph-name="uni0402" unicode="&#x402;" horiz-adv-x="768" 
d="M572 660l-2 -123h-212v-123h125q110 0 177 -58q68 -59 68 -156t-68 -150q-68 -52 -171 -63l-27 120q58 9 93 30t35 68q0 41 -27 66q-26 25 -77 25h-126v-296h-135v538h-211v122h558z" />
    <glyph glyph-name="uni0403" unicode="&#x403;" horiz-adv-x="525" 
d="M462 910v-24l-137 -162h-98l72 186h163zM501 660v-122h-290v-538h-135v660h425z" />
    <glyph glyph-name="uni0404" unicode="&#x404;" horiz-adv-x="720" 
d="M390 113l-2 -4q118 0 189 111l102 -72q-43 -76 -120 -120q-76 -43 -171 -43q-148 0 -250 99t-102 244t102 244t250 99q95 0 171 -43q77 -44 120 -120l-102 -72q-71 111 -189 111q-72 0 -126 -39t-75 -105h286v-115h-294q13 -78 71 -127q57 -48 140 -48z" />
    <glyph glyph-name="uni0405" unicode="&#x405;" horiz-adv-x="559" 
d="M283 672l-2 1q77 0 132 -34q56 -35 87 -91l-92 -71q-51 76 -126 76q-35 0 -58 -16q-24 -17 -24 -48q0 -26 18 -41q20 -17 60 -34l75 -33q81 -35 123 -82q40 -44 40 -112q0 -90 -65 -144t-165 -54q-84 0 -150 39t-104 107l93 70q69 -96 162 -96q43 0 69 20q25 19 25 54
q0 20 -12 35q-13 16 -27 23l-46 23l-71 32q-75 34 -118 80q-42 45 -42 110q0 84 62 135q61 51 156 51z" />
    <glyph glyph-name="uni0406" unicode="&#x406;" horiz-adv-x="286" 
d="M211 660v-660h-135v660h135z" />
    <glyph glyph-name="uni0407" unicode="&#x407;" horiz-adv-x="286" 
d="M14 892l2 -3q34 0 57 -22q24 -23 24 -55t-24 -54q-25 -23 -57 -23t-57 24t-25 54q0 33 24 56q25 23 56 23zM274 889l2 -1q32 0 57 -23q24 -22 24 -56q0 -31 -24 -54q-25 -23 -57 -23t-57 24t-25 54q0 34 24 56q25 23 56 23zM215 656v-660h-135v660h135z" />
    <glyph glyph-name="uni0408" unicode="&#x408;" horiz-adv-x="389" 
d="M313 660l1 -484q0 -95 -52 -141q-53 -47 -150 -47q-47 0 -95 12v115q48 -4 66 -4q49 0 72 18t23 61v470h135z" />
    <glyph glyph-name="uni0409" unicode="&#x409;" horiz-adv-x="1001" 
d="M586 660l3 -230h135q106 0 174 -60q67 -60 67 -156q0 -97 -67 -157q-68 -60 -174 -60h-270v538h-165q0 -155 -21 -261q-21 -108 -61 -165q-41 -59 -90 -84t-117 -30v127q81 11 119 107q38 97 38 309v122h429zM724 312h-135v-196h135q49 0 76 27t27 71t-27 71t-76 27z" />
    <glyph glyph-name="uni040A" unicode="&#x40a;" horiz-adv-x="1040" 
d="M625 660l-1 -230h135q107 0 174 -60q68 -60 68 -155q0 -98 -67 -156q-68 -59 -174 -59h-270v287h-279v-287h-135v660h135v-252h279v252h135zM759 311h-135v-192h135q49 0 77 26q27 25 27 69q0 43 -28 70t-76 27z" />
    <glyph glyph-name="uni040B" unicode="&#x40b;" horiz-adv-x="798" 
d="M472 414h1q121 0 189 -74t68 -197v-143h-135v138q0 76 -33 114t-103 38q-43 0 -99 -15v-275h-135v538h-211v122h558v-122h-212v-140q52 16 112 16z" />
    <glyph glyph-name="uni040C" unicode="&#x40c;" horiz-adv-x="670" 
d="M502 886l-137 -162h-98l72 186h163v-24zM657 0h-163l-283 344v-344h-135v660h135v-307l252 307h161l-253 -311z" />
    <glyph glyph-name="uni040D" unicode="&#x40d;" horiz-adv-x="723" 
d="M399 724h-98l-137 162v24h163zM603 672h45v-672h-135v405l-393 -417h-44v672h135v-402z" />
    <glyph glyph-name="uni040E" unicode="&#x40e;" horiz-adv-x="631" 
d="M332 730h-1q-76 0 -124 49t-48 124h106q0 -33 18 -53t48 -20t48 20t18 53h106q0 -75 -48 -124t-123 -49zM463 660h153l-224 -520q-65 -152 -228 -152q-41 0 -88 12v116q36 -3 60 -3q84 0 118 58l-234 489h156l152 -339z" />
    <glyph glyph-name="uni040F" unicode="&#x40f;" horiz-adv-x="691" 
d="M615 660v-660h-202v-141h-135v141h-202v660h135v-538h269v538h135z" />
    <glyph glyph-name="uni0410" unicode="&#x410;" horiz-adv-x="661" 
d="M502 0l-37 86h-270l-37 -86h-145l295 672h45l294 -672h-145zM417 197l-87 222l-87 -222h174z" />
    <glyph glyph-name="uni0411" unicode="&#x411;" horiz-adv-x="621" 
d="M510 660l-1 -122h-299v-145h159q96 0 157 -53q60 -52 60 -141t-60 -144q-59 -55 -156 -55h-294v660h434zM359 282h-149v-166h149q44 0 69 22t25 61q0 38 -25 60q-26 23 -69 23z" />
    <glyph glyph-name="uni0412" unicode="&#x412;" horiz-adv-x="621" 
d="M470 357v-1q56 -20 86 -62t30 -101q0 -86 -60 -140t-156 -54h-294v660h234q92 0 150 -51q59 -51 59 -132q0 -73 -49 -119zM299 543h-94v-151h93q40 0 63 21t23 56t-22 54q-23 20 -63 20zM359 115q44 0 69 22t25 61q0 38 -25 60q-26 23 -69 23h-154v-166h154z" />
    <glyph glyph-name="uni0413" unicode="&#x413;" horiz-adv-x="525" 
d="M501 660v-122h-290v-538h-135v660h425z" />
    <glyph glyph-name="uni0414" unicode="&#x414;" horiz-adv-x="727" 
d="M614 122l87 -1v-263h-135v141h-411v-141h-135v263h51q67 55 100 155q33 99 33 275v109h410v-538zM332 537q-5 -288 -112 -416h258v416h-146z" />
    <glyph glyph-name="uni0415" unicode="&#x415;" horiz-adv-x="573" 
d="M520 660v-122h-309v-134h227v-115h-227v-167h321v-122h-456v660h444z" />
    <glyph glyph-name="uni0416" unicode="&#x416;" horiz-adv-x="1015" 
d="M1001 0h-163l-263 344v-344h-135v344l-264 -344h-163l279 349l-246 311h161l233 -307v307h135v-307l232 307h161l-245 -311z" />
    <glyph glyph-name="uni0417" unicode="&#x417;" horiz-adv-x="588" 
d="M453 349l-1 1q97 -49 97 -154q0 -92 -72 -149t-179 -57q-88 0 -156 41t-105 111l95 68q64 -96 165 -96q51 0 84 24t33 65q0 35 -25 57q-26 23 -69 23h-130v111h102q40 0 63 21t23 54q0 35 -25 56q-26 21 -67 21q-84 0 -143 -86l-94 67q35 66 97 105q63 39 141 39
q96 0 161 -55q66 -56 66 -139q0 -79 -61 -128z" />
    <glyph glyph-name="uni0418" unicode="&#x418;" horiz-adv-x="723" 
d="M603 672h45v-672h-135v405l-393 -417h-44v672h135v-402z" />
    <glyph glyph-name="uni0419" unicode="&#x419;" horiz-adv-x="723" 
d="M350 730h-1q-76 0 -124 49t-48 124h106q0 -33 18 -53t48 -20t48 20t18 53h106q0 -75 -48 -124t-123 -49zM602 672h45v-672h-135v405l-393 -417h-44v672h135v-402z" />
    <glyph glyph-name="uni041A" unicode="&#x41a;" horiz-adv-x="670" 
d="M657 0h-163l-283 344v-344h-135v660h135v-307l252 307h161l-253 -311z" />
    <glyph glyph-name="uni041B" unicode="&#x41b;" horiz-adv-x="662" 
d="M157 660l429 -3v-660h-135v538h-165q-2 -157 -22 -261q-21 -108 -61 -165q-41 -59 -88 -84q-48 -26 -115 -30v127q81 11 119 107q38 97 38 309v122z" />
    <glyph glyph-name="uni041C" unicode="&#x41c;" horiz-adv-x="798" 
d="M678 672h44v-672h-135v353l-166 -209h-44l-166 209v-353h-135v672h44l279 -358z" />
    <glyph glyph-name="uni041D" unicode="&#x41d;" horiz-adv-x="713" 
d="M638 660v-660h-135v285h-292v-285h-135v660h135v-253h292v253h135z" />
    <glyph glyph-name="uni041E" unicode="&#x41e;" horiz-adv-x="778" 
d="M388 672q146 0 249 -99t103 -244t-103 -244t-249 -99t-248 99t-102 244t102 244t248 99zM389 547l-2 -1q-92 0 -152 -61t-60 -156q0 -96 60 -156t153 -60q92 0 152 61q60 62 60 156t-60 156q-60 61 -151 61z" />
    <glyph glyph-name="uni041F" unicode="&#x41f;" horiz-adv-x="691" 
d="M615 660v-660h-135v538h-269v-538h-135v660h539z" />
    <glyph glyph-name="uni0420" unicode="&#x420;" horiz-adv-x="594" 
d="M324 660v-1q106 0 171 -58q66 -59 66 -154q0 -94 -66 -154t-171 -60h-113v-233h-135v660h248zM324 540l-114 -1v-190h113q47 0 74 27t27 70t-27 68q-28 26 -73 26z" />
    <glyph glyph-name="uni0421" unicode="&#x421;" horiz-adv-x="720" 
d="M390 672v-5q95 0 171 -43q77 -44 120 -120l-102 -72q-71 111 -189 111q-93 0 -153 -61q-60 -62 -60 -157t60 -155t153 -60q118 0 189 111l102 -72q-43 -77 -120 -120q-76 -43 -171 -43q-148 0 -250 99t-102 244t102 244t250 99z" />
    <glyph glyph-name="uni0422" unicode="&#x422;" horiz-adv-x="585" 
d="M572 660v-122h-212v-538h-135v538h-211v122h558z" />
    <glyph glyph-name="uni0423" unicode="&#x423;" horiz-adv-x="631" 
d="M464 660h153l-224 -520q-65 -152 -228 -152q-41 0 -88 12v116q36 -3 60 -3q84 0 118 58l-234 489h156l152 -339z" />
    <glyph glyph-name="uni0424" unicode="&#x424;" horiz-adv-x="838" 
d="M799 336h-1q0 -129 -87 -204q-88 -76 -226 -77v-86h-135v86q-138 1 -226 77q-87 75 -87 204q0 128 87 201q87 74 226 75v80h135v-80q140 -2 227 -75t87 -201zM170 332v-2q0 -77 48 -119t132 -42v328q-84 -1 -132 -45t-48 -120zM485 168v2q84 0 132 42t48 119t-48 120
t-132 45v-328z" />
    <glyph glyph-name="uni0425" unicode="&#x425;" horiz-adv-x="614" 
d="M600 0h-153l-140 219l-140 -219h-154l219 336l-206 324h154l127 -209l126 209h153l-202 -324z" />
    <glyph glyph-name="uni0426" unicode="&#x426;" horiz-adv-x="726" 
d="M613 660v-538h87v-263h-135v141h-489v660h135v-538h267v538h135z" />
    <glyph glyph-name="uni0427" unicode="&#x427;" horiz-adv-x="644" 
d="M434 660h136v-660h-135v223q-54 -16 -116 -16q-125 0 -202 70q-78 71 -78 196v187h135v-174q0 -74 41 -115q40 -40 108 -40q51 0 111 21v308z" />
    <glyph glyph-name="uni0428" unicode="&#x428;" horiz-adv-x="1038" 
d="M962 660v-660h-886v660h135v-538h241v538h135v-538h240v538h135z" />
    <glyph glyph-name="uni0429" unicode="&#x429;" horiz-adv-x="1075" 
d="M962 660v-538h88v-263h-135v141h-839v660h135v-538h241v538h135v-538h240v538h135z" />
    <glyph glyph-name="uni042A" unicode="&#x42a;" horiz-adv-x="647" 
d="M232 660v-227h135q107 0 174 -60t67 -156q0 -97 -67 -157t-174 -60h-270v538h-107v122h242zM367 315h-135v-196h135q48 0 75 27t27 71t-27 71t-75 27z" />
    <glyph glyph-name="uni042B" unicode="&#x42b;" horiz-adv-x="912" 
d="M211 660v-227h135q106 0 174 -60q67 -60 67 -156q0 -97 -67 -157q-68 -60 -174 -60h-270v660h135zM837 660v-660h-135v660h135zM346 315h-136v-196h135q49 0 76 27t27 71t-27 71t-75 27z" />
    <glyph glyph-name="uni042C" unicode="&#x42c;" horiz-adv-x="626" 
d="M211 660v-227h135q106 0 174 -60q67 -60 67 -156q0 -97 -67 -157q-68 -60 -174 -60h-270v660h135zM346 315h-136v-196h135q49 0 76 27t27 71t-27 71t-75 27z" />
    <glyph glyph-name="uni042D" unicode="&#x42d;" horiz-adv-x="720" 
d="M330 672l-3 1q148 0 250 -99t102 -244t-102 -244t-249 -99q-94 0 -171 44q-77 43 -120 120l102 72q71 -111 189 -111q83 0 140 48t71 128h-294v115h286q-21 66 -75 105t-126 39q-118 0 -189 -111l-102 72q43 76 120 120t171 44z" />
    <glyph glyph-name="uni042E" unicode="&#x42e;" horiz-adv-x="1058" 
d="M670 672h-2q146 0 248 -99t102 -243t-102 -243t-247 -99q-133 0 -229 84q-95 84 -112 213h-118v-285h-135v660h135v-253h124q26 117 119 191q94 74 217 74zM668 113q91 0 151 61q60 62 60 156t-60 156q-60 61 -151 61t-151 -61q-60 -62 -60 -156t60 -156q60 -61 151 -61z
" />
    <glyph glyph-name="uni042F" unicode="&#x42f;" horiz-adv-x="638" 
d="M329 660h234v-660h-135v203h-98q-16 0 -21 1l-134 -204h-151l157 241q-49 30 -78 80q-28 49 -28 111q0 102 71 165q70 63 183 63zM428 322v217h-100q-52 0 -84 -30q-31 -30 -31 -78q0 -49 31 -79q32 -30 84 -30h100z" />
    <glyph glyph-name="uni0430" unicode="&#x430;" horiz-adv-x="545" 
d="M270 506l1 -2q98 0 155 -54t57 -157v-294h-124v48q-57 -60 -151 -60q-80 0 -126 42t-46 107q0 67 51 106t137 39h124v22q0 41 -24 63q-25 23 -69 23q-66 0 -131 -68l-70 83q86 102 216 102zM244 85v1q44 0 74 27t30 71v6h-106q-69 0 -69 -50q0 -25 20 -40q19 -15 51 -15z
" />
    <glyph glyph-name="uni0431" unicode="&#x431;" horiz-adv-x="615" 
d="M343 482l-3 2q97 0 166 -72t69 -175t-73 -175q-74 -72 -187 -72q-117 0 -190 78q-73 77 -73 213v46q0 177 74 269q73 91 227 129l152 37l28 -117l-144 -36q-88 -22 -141 -68q-49 -43 -55 -123q61 64 150 64zM312 114v-1q52 0 88 36t36 89q0 52 -36 88t-88 36
q-51 0 -87 -36t-36 -88t36 -88t87 -36z" />
    <glyph glyph-name="uni0432" unicode="&#x432;" horiz-adv-x="555" 
d="M442 264l-1 -1q74 -36 74 -114q0 -66 -49 -108q-50 -42 -126 -42h-268v495h234q77 0 126 -37q50 -38 50 -100q0 -53 -40 -93zM200 386v-84h102q54 0 54 43q0 41 -54 41h-102zM328 108l-2 -2q30 0 47 14t17 38q0 22 -17 36q-16 13 -45 13h-128v-99h128z" />
    <glyph glyph-name="uni0433" unicode="&#x433;" horiz-adv-x="455" 
d="M440 495v-114h-233v-381h-135v495h368z" />
    <glyph glyph-name="uni0434" unicode="&#x434;" horiz-adv-x="665" 
d="M549 114h88v-255h-134v141h-340v-141h-135v255h50q46 40 69 113q23 74 23 202v66h379v-381zM304 381h-1q-1 -187 -72 -267h184v267h-111z" />
    <glyph glyph-name="uni0435" unicode="&#x435;" horiz-adv-x="569" 
d="M531 276l-1 -2q0 -36 -9 -74h-348q13 -46 50 -72q35 -25 90 -25q73 0 138 50l56 -92q-89 -74 -198 -74q-117 0 -194 75t-77 185q0 109 75 184t185 75q104 0 168 -66q65 -67 65 -164zM292 395h1q-43 0 -75 -27q-32 -28 -44 -73h226q-1 46 -33 73q-31 27 -75 27z" />
    <glyph glyph-name="uni0436" unicode="&#x436;" horiz-adv-x="845" 
d="M837 0h-153l-194 263v-263h-135v263l-194 -263h-153l196 268l-181 227h159l173 -221v221h135v-221l173 221h159l-181 -227z" />
    <glyph glyph-name="uni0437" unicode="&#x437;" horiz-adv-x="509" 
d="M393 255l-2 -4q71 -41 71 -117q0 -68 -60 -108q-59 -40 -155 -40q-143 0 -215 93l76 80q50 -57 138 -57q85 0 85 52q0 22 -18 36q-17 13 -52 13h-92v100h87q26 0 41 12t15 32q0 43 -71 43q-85 0 -129 -50l-77 81q70 85 207 85q90 0 146 -39t56 -106q0 -65 -51 -106z" />
    <glyph glyph-name="uni0438" unicode="&#x438;" horiz-adv-x="609" 
d="M493 506h44v-506h-134v264l-286 -276h-45v507h135v-264z" />
    <glyph glyph-name="uni0439" unicode="&#x439;" horiz-adv-x="609" 
d="M309 575h-1q-76 0 -124 49q-48 50 -48 124h106q0 -34 18 -53q18 -20 48 -20t48 20q18 19 18 53h106q0 -74 -48 -124q-48 -49 -123 -49zM492 506h44v-506h-134v264l-286 -276h-45v507h135v-264z" />
    <glyph glyph-name="uni043A" unicode="&#x43a;" horiz-adv-x="571" 
d="M563 0h-154l-202 268v-268h-135v495h135v-225l186 225h155l-189 -224z" />
    <glyph glyph-name="uni043B" unicode="&#x43b;" horiz-adv-x="591" 
d="M127 495l390 -2v-495h-134v381h-124v-45q0 -92 -18 -158q-18 -65 -53 -105q-34 -39 -78 -57t-99 -21v119q62 8 89 71t27 213v99z" />
    <glyph glyph-name="uni043C" unicode="&#x43c;" horiz-adv-x="697" 
d="M625 506v-506h-134v238l-120 -135h-45l-119 134v-237h-135v506h45l232 -259l233 259h43z" />
    <glyph glyph-name="uni043D" unicode="&#x43d;" horiz-adv-x="600" 
d="M528 495v-495h-134v199h-187v-199h-135v495h135v-181h187v181h134z" />
    <glyph glyph-name="uni043E" unicode="&#x43e;" horiz-adv-x="608" 
d="M304 506l-1 -1q110 0 188 -75t78 -184t-78 -184t-189 -75q-110 0 -187 75q-76 75 -76 185q0 109 77 184q76 75 188 75zM303 382l-1 -1q-56 0 -92 -39t-36 -97q0 -59 36 -96t92 -37t92 38t36 96t-36 97t-91 39z" />
    <glyph glyph-name="uni043F" unicode="&#x43f;" horiz-adv-x="593" 
d="M521 495v-495h-135v381h-179v-381h-135v495h449z" />
    <glyph glyph-name="uni0440" unicode="&#x440;" horiz-adv-x="634" 
d="M355 506l-2 1q106 0 173 -73q68 -74 68 -186t-68 -186t-171 -74q-93 0 -148 60v-228h-135v675h124v-61q52 72 159 72zM328 112h-3q52 0 90 38q37 37 37 99q0 61 -36 99t-90 38q-51 0 -88 -34t-37 -102q0 -66 37 -102q38 -36 90 -36z" />
    <glyph glyph-name="uni0441" unicode="&#x441;" horiz-adv-x="552" 
d="M304 506l-2 1q74 0 129 -33t87 -90l-94 -73q-48 72 -119 72q-57 0 -93 -39t-36 -97t36 -97t93 -39q69 0 119 71l94 -72q-32 -57 -87 -90t-127 -33q-112 0 -188 75q-77 75 -77 185q0 109 77 184q76 75 188 75z" />
    <glyph glyph-name="uni0442" unicode="&#x442;" horiz-adv-x="469" 
d="M458 496v-114h-157v-382h-134v382h-156v114h447z" />
    <glyph glyph-name="uni0443" unicode="&#x443;" horiz-adv-x="559" 
d="M405 495h142l-237 -538q-35 -77 -81 -113q-47 -36 -116 -36q-42 0 -87 12v113q41 -4 58 -4q35 0 61 14q23 12 42 53l15 33l-190 466h143l121 -325z" />
    <glyph glyph-name="uni0444" unicode="&#x444;" horiz-adv-x="786" 
d="M747 248l-1 -2q0 -119 -81 -188q-82 -70 -207 -71v-168h-135v168q-123 1 -205 71q-81 69 -81 188t81 188q82 70 206 71v244h135v-244q127 -2 207 -70q81 -69 81 -187zM170 245h-1q0 -67 42 -105q43 -38 114 -38h2v288h-2q-71 0 -113 -39t-42 -106zM456 101v2q71 0 114 38
q42 37 42 105t-42 105q-43 38 -114 38h-2v-288h2z" />
    <glyph glyph-name="uni0445" unicode="&#x445;" horiz-adv-x="531" 
d="M523 0h-151l-107 158l-107 -158h-150l182 256l-170 239h150l95 -142l96 142h150l-171 -239z" />
    <glyph glyph-name="uni0446" unicode="&#x446;" horiz-adv-x="624" 
d="M509 495v-381h87v-255h-134v141h-390v495h134v-381h169v381h134z" />
    <glyph glyph-name="uni0447" unicode="&#x447;" horiz-adv-x="566" 
d="M359 495h137v-495h-135v169q-45 -13 -87 -13q-101 0 -168 62q-66 62 -66 171v106h134v-97q0 -57 29 -88q29 -30 81 -30q36 0 75 13v202z" />
    <glyph glyph-name="uni0448" unicode="&#x448;" horiz-adv-x="881" 
d="M808 495v-495h-736v495h134v-381h167v381h134v-381h167v381h134z" />
    <glyph glyph-name="uni0449" unicode="&#x449;" horiz-adv-x="924" 
d="M808 495v-381h88v-255h-135v141h-689v495h134v-381h167v381h134v-381h167v381h134z" />
    <glyph glyph-name="uni044A" unicode="&#x44a;" horiz-adv-x="582" 
d="M236 495v-127h98q92 0 150 -49t58 -135t-58 -135t-150 -49h-233v381h-101v114h236zM323 253h-89v-140h87q37 0 59 18q23 18 23 51t-22 52t-58 19z" />
    <glyph glyph-name="uni044B" unicode="&#x44b;" horiz-adv-x="807" 
d="M207 495l-1 -127h97q92 0 150 -49q59 -50 59 -135q0 -86 -58 -135t-150 -49h-232v495h135zM733 494v-495h-134v495h134zM293 253h-88v-140h88q36 0 58 18t22 51t-22 52t-58 19z" />
    <glyph glyph-name="uni044C" unicode="&#x44c;" horiz-adv-x="553" 
d="M207 495l-1 -127h97q92 0 150 -49q59 -50 59 -135q0 -86 -58 -135t-150 -49h-232v495h135zM293 253h-88v-140h88q36 0 58 18t22 51t-22 52t-58 19z" />
    <glyph glyph-name="uni044D" unicode="&#x44d;" horiz-adv-x="552" 
d="M247 506h-1q112 0 189 -75t77 -184q0 -110 -77 -185t-189 -75q-138 0 -214 123l90 69q52 -73 124 -73q46 0 81 27q35 28 47 70h-186v95h184q-14 41 -47 65t-78 24q-71 0 -124 -72l-90 69q75 122 214 122z" />
    <glyph glyph-name="uni044E" unicode="&#x44e;" horiz-adv-x="864" 
d="M559 506l-1 -2q110 0 188 -75t78 -184t-78 -184t-188 -75q-96 0 -167 60q-70 60 -87 152h-97v-199h-135v495h135v-181h101q22 85 91 139t160 54zM559 110l-2 -3q53 0 91 39q37 38 37 98q0 58 -36 97t-91 39t-91 -39t-36 -97t36 -96t92 -38z" />
    <glyph glyph-name="uni044F" unicode="&#x44f;" horiz-adv-x="577" 
d="M273 495l232 1v-495h-135v126h-95l-108 -126h-150l129 159q-81 50 -81 150q0 86 58 135q59 50 150 50zM370 241l-2 140h-87q-35 0 -58 -18q-22 -18 -22 -51q0 -32 23 -52q22 -19 59 -19h87z" />
    <glyph glyph-name="uni0450" unicode="&#x450;" horiz-adv-x="569" 
d="M348 571h-98l-137 185v24h162zM531 276l-1 -2q0 -36 -9 -74h-348q13 -46 50 -72q35 -25 90 -25q73 0 138 50l56 -92q-89 -74 -198 -74q-117 0 -194 75t-77 185q0 109 75 184t185 75q104 0 168 -66q65 -67 65 -164zM292 395h1q-43 0 -75 -27q-32 -28 -44 -73h226
q-1 46 -33 73q-31 27 -75 27z" />
    <glyph glyph-name="uni0451" unicode="&#x451;" horiz-adv-x="569" 
d="M179 598l2 -1q-31 0 -57 24q-25 24 -25 54q0 33 24 56q25 23 56 23q32 0 57 -23q24 -23 24 -56q0 -31 -24 -54q-25 -23 -57 -23zM419 597l2 -1q-31 0 -57 24q-25 24 -25 54q0 34 24 56q25 23 56 23q32 0 57 -23q24 -22 24 -56q0 -32 -24 -54q-25 -23 -57 -23zM535 274
l-1 -2q0 -36 -9 -74h-348q13 -46 50 -72q35 -25 90 -25q73 0 138 50l56 -92q-89 -74 -198 -74q-118 0 -194 75q-77 75 -77 185q0 109 75 184t185 75q104 0 168 -66q65 -67 65 -164zM296 393h1q-43 0 -75 -27q-32 -28 -44 -73h226q-1 46 -33 73q-31 27 -75 27z" />
    <glyph glyph-name="uni0452" unicode="&#x452;" horiz-adv-x="598" 
d="M345 477v-3q84 0 135 -54t51 -144v-284q0 -93 -51 -139q-50 -46 -140 -46q-38 0 -74 11v113q24 -3 41 -3q47 0 68 18t21 60v253q0 44 -25 70q-25 27 -66 27q-42 0 -69 -27t-27 -70v-259h-134v552h-79v111h79v87h134v-87h191v-111h-191v-129q53 54 136 54z" />
    <glyph glyph-name="uni0453" unicode="&#x453;" horiz-adv-x="455" 
d="M433 780v-24l-137 -185h-98l72 209h163zM440 495v-114h-233v-381h-135v495h368z" />
    <glyph glyph-name="uni0454" unicode="&#x454;" horiz-adv-x="558" 
d="M305 107l-2 -1q72 0 124 73l90 -69q-77 -123 -213 -123q-112 0 -189 75t-77 185q0 109 77 184t189 75q139 0 213 -122l-90 -69q-49 72 -123 72q-45 0 -78 -24q-34 -25 -47 -64h184v-95h-186q12 -42 47 -70q34 -27 81 -27z" />
    <glyph glyph-name="uni0455" unicode="&#x455;" horiz-adv-x="455" 
d="M235 507l-1 -5q110 0 178 -75l-68 -83q-50 47 -111 47q-53 0 -53 -35q0 -14 12 -23q8 -6 41 -20l48 -20q74 -31 105 -62q33 -33 33 -88q0 -74 -54 -116t-138 -42q-131 0 -205 96l68 82q64 -67 138 -67q26 0 45 11q18 11 18 30q0 16 -12 25q-13 9 -40 21l-53 22
q-68 29 -101 63t-33 90q0 71 51 110t132 39z" />
    <glyph glyph-name="uni0456" unicode="&#x456;" horiz-adv-x="278" 
d="M139 759h-2q35 0 61 -24q25 -24 25 -60q0 -35 -25 -59q-26 -24 -61 -24t-61 24q-25 24 -25 59q0 36 26 60q25 24 62 24zM204 495v-495h-134v495h134z" />
    <glyph glyph-name="uni0457" unicode="&#x457;" horiz-adv-x="278" 
d="M24 749l2 -1q32 0 57 -23q24 -23 24 -56q0 -31 -24 -54q-25 -23 -57 -23t-57 24t-25 54q0 34 24 56q25 23 56 23zM256 748l-1 -1q32 0 57 -23q24 -22 24 -56q0 -32 -24 -54q-25 -23 -57 -23q-31 0 -55 24t-24 54q0 33 24 56q25 23 56 23zM207 493v-495h-134v495h134z" />
    <glyph glyph-name="uni0458" unicode="&#x458;" horiz-adv-x="278" 
d="M139 759h-2q35 0 61 -24q25 -24 25 -60q0 -35 -25 -59q-26 -24 -61 -24t-61 24q-25 24 -25 59q0 36 26 60q25 24 62 24zM204 495v-502q0 -93 -51 -139q-50 -46 -139 -46q-36 0 -75 11v113q24 -3 42 -3q45 0 67 18t22 59v489h134z" />
    <glyph glyph-name="uni0459" unicode="&#x459;" horiz-adv-x="865" 
d="M616 369l-3 -3q92 0 150 -49q59 -50 59 -135q0 -86 -58 -135t-150 -49h-231v381h-124v-45q0 -92 -18 -158q-18 -65 -53 -105q-34 -39 -78 -57t-99 -21v119q62 8 89 71t27 213v99h392v-126h97zM604 111h-1q35 0 58 18q22 18 22 51t-22 52t-57 19h-88v-140h88z" />
    <glyph glyph-name="uni045A" unicode="&#x45a;" horiz-adv-x="868" 
d="M619 361q91 0 150 -48t59 -132q0 -85 -58 -133t-151 -48h-232v204h-180v-204h-135v495h135v-177h180v177h135v-134h97zM610 114h-2q36 0 59 17t23 48q0 32 -22 50t-58 18h-88v-133h88z" />
    <glyph glyph-name="uni045B" unicode="&#x45b;" horiz-adv-x="598" 
d="M345 477v-1q84 0 135 -54t51 -144v-278h-135v259q0 44 -25 70q-25 27 -66 27q-42 0 -69 -27t-27 -70v-259h-134v552h-79v111h79v87h134v-87h191v-111h-191v-129q53 54 136 54z" />
    <glyph glyph-name="uni045C" unicode="&#x45c;" horiz-adv-x="571" 
d="M481 756l-137 -185h-98l72 209h163v-24zM563 0h-154l-202 268v-268h-135v495h135v-225l186 225h155l-189 -224z" />
    <glyph glyph-name="uni045D" unicode="&#x45d;" horiz-adv-x="609" 
d="M358 571h-98l-137 185v24h162zM493 506h44v-506h-134v264l-286 -276h-45v507h135v-264z" />
    <glyph glyph-name="uni045E" unicode="&#x45e;" horiz-adv-x="559" 
d="M279 575h-1q-76 0 -124 49q-48 50 -48 124h106q0 -34 18 -53q18 -20 48 -20t48 20q18 19 18 53h106q0 -74 -48 -124q-48 -49 -123 -49zM404 495h142l-237 -538q-35 -77 -81 -113q-47 -36 -116 -36q-42 0 -87 12v113q41 -4 58 -4q35 0 61 14q23 12 42 53l15 33l-190 466
h143l121 -325z" />
    <glyph glyph-name="uni045F" unicode="&#x45f;" horiz-adv-x="582" 
d="M510 495v-495h-152v-141h-134v141h-152v495h134v-381h170v381h134z" />
    <glyph glyph-name="uni0462" unicode="&#x462;" horiz-adv-x="626" 
d="M211 660v-67h263v-111h-263v-79h137q110 0 175 -56q64 -55 64 -147t-64 -146q-65 -54 -177 -54h-270v483h-79v111h79v66h135zM349 285l-139 -1v-167h138q46 0 74 23q27 22 27 60q0 37 -27 61t-73 24z" />
    <glyph glyph-name="uni0463" unicode="&#x463;" horiz-adv-x="556" 
d="M209 750l-1 -233h198v-111h-198v-60h98q92 0 150 -46q59 -47 59 -124q0 -80 -58 -128q-59 -48 -150 -48h-232v408h-79v111h79v231h134zM296 238l-88 -2v-126h88q37 0 59 17q21 17 21 47q0 31 -21 47q-23 18 -59 17z" />
    <glyph glyph-name="uni0472" unicode="&#x472;" horiz-adv-x="778" 
d="M388 672q146 0 249 -99t103 -244t-103 -244t-249 -99t-248 99t-102 244t102 244t248 99zM388 547l-1 -1q-73 0 -127 -39q-53 -39 -73 -105q51 23 100 23q38 0 101 -18t102 -18q46 0 96 21q-22 62 -75 100q-52 37 -123 37zM387 112v1q82 0 141 50q58 49 69 132
q-54 -25 -108 -25q-39 0 -102 18t-101 18q-53 0 -106 -25q13 -76 71 -123q56 -46 136 -46z" />
    <glyph glyph-name="uni0473" unicode="&#x473;" horiz-adv-x="608" 
d="M304 506l-2 -1q111 0 189 -75t78 -184t-78 -184t-189 -75q-110 0 -187 75q-76 75 -76 184q0 110 77 185q76 75 188 75zM302 389l-2 -1q-46 0 -81 -24t-48 -66q33 11 58 11q29 0 72 -13t72 -13q25 0 58 11q-13 44 -48 69q-35 26 -81 26zM299 102l-3 -1q48 0 84 27
q35 27 49 72q-33 -11 -60 -11q-29 0 -72 12t-69 12q-32 0 -60 -11q10 -45 47 -73q36 -27 84 -27z" />
    <glyph glyph-name="uni0474" unicode="&#x474;" horiz-adv-x="680" 
d="M612 672h-2q35 0 68 -12v-116q-21 3 -35 3q-25 0 -42 -15q-19 -18 -32 -47l-217 -497h-45l-295 672h153l165 -400l119 290q26 63 64 92q39 30 99 30z" />
    <glyph glyph-name="uni0475" unicode="&#x475;" horiz-adv-x="558" 
d="M495 504l1 -1q38 0 63 -9v-113h-29q-40 0 -60 -42l-168 -352h-45l-245 507h142l125 -281l82 184q24 56 55 81q32 26 79 26z" />
    <glyph glyph-name="uni0490" unicode="&#x490;" horiz-adv-x="499" 
d="M475 781v-243h-264v-538h-135v660h264v121h135z" />
    <glyph glyph-name="uni0491" unicode="&#x491;" horiz-adv-x="470" 
d="M455 624v-243h-248v-381h-135v495h248v129h135z" />
    <glyph glyph-name="uni0492" unicode="&#x492;" horiz-adv-x="513" 
d="M488 538h-268v-165h218v-122h-218v-251h-135v251h-93v122h93v287h403v-122z" />
    <glyph glyph-name="uni0493" unicode="&#x493;" horiz-adv-x="480" 
d="M463 381h-254v-108h213v-112h-213v-161h-134v161h-79v112h79v222h388v-114z" />
    <glyph glyph-name="uni0496" unicode="&#x496;" horiz-adv-x="1015" 
d="M906 121h98v-262h-135v141h-31l-263 344v-344h-135v344l-264 -344h-163l279 349l-246 311h161l233 -307v307h135v-307l232 307h161l-245 -311z" />
    <glyph glyph-name="uni0497" unicode="&#x497;" horiz-adv-x="876" 
d="M754 114h94v-255h-135v141h-29l-194 263v-263h-135v263l-194 -263h-153l196 268l-181 227h159l173 -221v221h135v-221l173 221h159l-181 -227z" />
    <glyph glyph-name="uni0498" unicode="&#x498;" horiz-adv-x="588" 
d="M550 195l-2 1q0 -73 -48 -127t-126 -72q17 -29 17 -63q0 -55 -42 -91t-114 -36q-41 0 -74 10v89q34 -2 60 -2q29 0 45 15q17 15 17 43q0 14 -3 27q-83 5 -146 45q-62 40 -97 108l95 68q64 -96 165 -96q51 0 84 24t33 65q0 35 -25 57q-26 23 -69 23h-130v111h102
q40 0 63 21t23 54q0 35 -25 56q-26 21 -67 21q-84 0 -143 -86l-94 67q35 66 97 105q63 39 141 39q96 0 161 -55q66 -56 66 -139q0 -79 -61 -128q97 -49 97 -154z" />
    <glyph glyph-name="uni0499" unicode="&#x499;" horiz-adv-x="509" 
d="M464 137v-4q0 -52 -36 -88t-97 -51q17 -29 17 -63q0 -55 -42 -91t-114 -36q-41 0 -74 10v89q34 -2 60 -2q28 0 45 15t17 43q0 13 -3 27q-134 3 -205 92l76 80q50 -57 138 -57q85 0 85 52q0 23 -18 36q-17 13 -52 13h-92v100h87q26 0 41 12t15 32q0 43 -71 43
q-85 0 -129 -50l-77 81q70 85 207 85q90 0 146 -39t56 -106q0 -66 -51 -106q71 -41 71 -117z" />
    <glyph glyph-name="uni049A" unicode="&#x49a;" horiz-adv-x="674" 
d="M559 122h104v-263h-135v141h-34l-283 344v-344h-135v660h135v-307l252 307h161l-252 -311z" />
    <glyph glyph-name="uni049B" unicode="&#x49b;" horiz-adv-x="598" 
d="M475 114h95v-255h-135v141h-29l-199 265v-265h-135v495h135v-222l184 222h155l-190 -224z" />
    <glyph glyph-name="uni04A0" unicode="&#x4a0;" horiz-adv-x="706" 
d="M692 0h-163l-283 344v-344h-135v539h-111v121h246v-307l252 307h161l-253 -311z" />
    <glyph glyph-name="uni04A1" unicode="&#x4a1;" horiz-adv-x="600" 
d="M592 0h-154l-202 268v-268h-135v381h-101v114h236v-225l186 225h155l-189 -224z" />
    <glyph glyph-name="uni04A2" unicode="&#x4a2;" horiz-adv-x="751" 
d="M638 660v-538h88v-263h-135v141h-88v285h-292v-285h-135v660h135v-253h292v253h135z" />
    <glyph glyph-name="uni04A3" unicode="&#x4a3;" horiz-adv-x="645" 
d="M528 495v-381h89v-255h-141v141h-82v199h-187v-199h-135v495h135v-181h187v181h134z" />
    <glyph glyph-name="uni04AA" unicode="&#x4aa;" horiz-adv-x="720" 
d="M390 113v-4q118 0 189 111l102 -72q-71 -125 -214 -156q16 -26 16 -61q0 -55 -42 -91t-114 -36q-41 0 -74 10v89q34 -2 60 -2q29 0 45 15q17 15 17 43q0 13 -3 27q-142 6 -238 103t-96 238q0 145 102 244t250 99q95 0 171 -43q77 -43 120 -120l-102 -72q-71 111 -189 111
q-93 0 -153 -61t-60 -157q0 -95 60 -155t153 -60z" />
    <glyph glyph-name="uni04AB" unicode="&#x4ab;" horiz-adv-x="552" 
d="M306 112v-1q69 0 119 71l94 -72q-50 -87 -145 -114q17 -26 17 -62q0 -55 -42 -91t-114 -36q-41 0 -74 10v89q34 -2 60 -2q29 0 45 15q17 15 17 43q0 15 -3 27q-104 9 -173 83t-69 177q0 109 77 184t188 75q73 0 129 -33t87 -90l-94 -73q-48 72 -119 72q-57 0 -93 -39
t-36 -97t36 -97t93 -39z" />
    <glyph glyph-name="uni04AE" unicode="&#x4ae;" horiz-adv-x="624" 
d="M607 660l-227 -400v-260h-135v259l-228 401h150l145 -262l146 262h149z" />
    <glyph glyph-name="uni04AF" unicode="&#x4af;" horiz-adv-x="556" 
d="M546 495l-201 -444v-231h-134v232l-201 443h143l125 -305l125 305h143z" />
    <glyph glyph-name="uni04B0" unicode="&#x4b0;" horiz-adv-x="641" 
d="M615 660l-213 -375h168v-121h-182v-164h-135v164h-181v121h167l-214 375h150l146 -262l146 262h148z" />
    <glyph glyph-name="uni04B1" unicode="&#x4b1;" horiz-adv-x="568" 
d="M552 495l-173 -384h122v-111h-150v-180h-134v180h-150v111h123l-174 384h143l125 -305l125 305h143z" />
    <glyph glyph-name="uni04B2" unicode="&#x4b2;" horiz-adv-x="623" 
d="M523 121h90v-262h-135v141h-31l-140 219l-140 -219h-154l219 336l-206 324h154l127 -209l126 209h153l-202 -324z" />
    <glyph glyph-name="uni04B3" unicode="&#x4b3;" horiz-adv-x="564" 
d="M441 114h95v-255h-135v141h-29l-107 158l-107 -158h-150l182 256l-170 239h150l95 -142l96 142h150l-171 -239z" />
    <glyph glyph-name="uni04B6" unicode="&#x4b6;" horiz-adv-x="682" 
d="M569 122h88v-263h-135v141h-87v223q-54 -16 -116 -16q-125 0 -202 70q-78 71 -78 196v187h135v-174q0 -74 41 -115q40 -40 108 -40q51 0 111 21v308h135v-538z" />
    <glyph glyph-name="uni04B7" unicode="&#x4b7;" horiz-adv-x="609" 
d="M494 114h89v-255h-134v141h-88v169q-45 -13 -87 -13q-101 0 -168 62q-66 62 -66 171v106h134v-97q0 -57 29 -88q29 -30 81 -30q36 0 75 13v202h135v-381z" />
    <glyph glyph-name="uni04BA" unicode="&#x4ba;" horiz-adv-x="646" 
d="M320 444l1 1q121 0 189 -75q68 -76 68 -198v-172h-135v167q0 77 -33 114q-33 38 -103 38q-45 0 -95 -14v-305h-135v660h135v-232q57 16 108 16z" />
    <glyph glyph-name="uni04BB" unicode="&#x4bb;" horiz-adv-x="596" 
d="M343 506v-1q85 0 134 -54q50 -55 50 -144v-307h-134v288q0 44 -25 70q-26 27 -66 27t-67 -27t-27 -70v-288h-135v750h135v-297q53 53 135 53z" />
    <glyph glyph-name="uni04C0" unicode="&#x4c0;" horiz-adv-x="286" 
d="M211 660v-660h-135v660h135z" />
    <glyph glyph-name="uni04C1" unicode="&#x4c1;" horiz-adv-x="1015" 
d="M508 730h-1q-76 0 -124 49q-48 50 -48 124h106q0 -33 18 -53t48 -20t48 20t18 53h106q0 -75 -48 -124t-123 -49zM1000 0h-163l-263 344v-344h-135v344l-264 -344h-163l279 349l-246 311h161l233 -307v307h135v-307l232 307h161l-245 -311z" />
    <glyph glyph-name="uni04C2" unicode="&#x4c2;" horiz-adv-x="845" 
d="M420 575h-1q-76 0 -124 49q-48 50 -48 124h106q0 -34 18 -53q18 -20 48 -20t48 20q18 19 18 53h106q0 -74 -48 -124q-48 -49 -123 -49zM836 0h-153l-194 263v-263h-135v263l-194 -263h-153l196 268l-181 227h159l173 -221v221h135v-221l173 221h159l-181 -227z" />
    <glyph glyph-name="uni04CF" unicode="&#x4cf;" horiz-adv-x="279" 
d="M207 750v-750h-135v750h135z" />
    <glyph glyph-name="uni04D0" unicode="&#x4d0;" horiz-adv-x="661" 
d="M331 730h-1q-76 0 -124 49t-48 124h106q0 -33 18 -53t48 -20t48 20t18 53h106q0 -75 -48 -124t-123 -49zM501 0l-37 86h-270l-37 -86h-145l295 672h45l294 -672h-145zM416 197l-87 222l-87 -222h174z" />
    <glyph glyph-name="uni04D1" unicode="&#x4d1;" horiz-adv-x="545" 
d="M271 575h-1q-76 0 -124 49q-48 50 -48 124h106q0 -34 18 -53q18 -20 48 -20t48 20q18 19 18 53h106q0 -74 -48 -124q-48 -49 -123 -49zM269 506l1 -2q98 0 155 -54t57 -157v-294h-124v48q-57 -60 -151 -60q-79 0 -126 42q-46 42 -46 107q0 67 51 106t137 39h124v22
q0 41 -24 63q-25 23 -69 23q-66 0 -131 -68l-70 83q85 102 216 102zM243 85v1q44 0 74 27t30 71v6h-106q-69 0 -69 -50q0 -25 20 -40t51 -15z" />
    <glyph glyph-name="uni04D4" unicode="&#x4d4;" horiz-adv-x="852" 
d="M569 122h243v-122h-355l-15 86h-247l-45 -86h-145l338 660h457v-122h-301l23 -134h197v-115h-178zM380 466l-129 -269h172z" />
    <glyph glyph-name="uni04D5" unicode="&#x4d5;" horiz-adv-x="878" 
d="M840 276l-3 1q0 -45 -10 -79h-345q28 -93 138 -93q73 0 138 50l56 -92q-86 -74 -195 -74q-134 0 -207 100q-60 -100 -195 -100q-87 0 -134 42t-47 107q0 68 51 109q50 40 137 40h124v16q0 41 -24 63q-25 23 -67 23q-66 0 -132 -68l-69 83q86 102 215 102q111 0 163 -73
q67 73 174 73q102 0 167 -66q65 -67 65 -164zM600 398l-1 -1q-46 0 -79 -30q-32 -29 -43 -81h229q1 52 -29 82t-77 30zM238 88h1q44 0 74 27t30 69v13h-106q-69 0 -69 -52q0 -27 19 -42t51 -15z" />
    <glyph glyph-name="uni04D6" unicode="&#x4d6;" horiz-adv-x="573" 
d="M459 903h-1q0 -75 -48 -124t-123 -49q-76 0 -124 49t-48 124h106q0 -33 18 -53t48 -20t48 20t18 53h106zM519 660v-122h-309v-134h227v-115h-227v-167h321v-122h-456v660h444z" />
    <glyph glyph-name="uni04D7" unicode="&#x4d7;" horiz-adv-x="569" 
d="M285 575h-1q-76 0 -124 49q-48 50 -48 124h106q0 -34 18 -53q18 -20 48 -20t48 20q18 19 18 53h106q0 -74 -48 -124q-48 -49 -123 -49zM530 276l-1 -2q0 -36 -9 -74h-348q13 -46 50 -72q35 -25 90 -25q73 0 138 50l56 -92q-89 -74 -198 -74q-118 0 -194 75
q-77 75 -77 185q0 109 75 184t185 75q103 0 168 -66q65 -67 65 -164zM291 395h1q-44 0 -75 -27q-32 -28 -44 -73h226q-1 46 -33 73t-75 27z" />
    <glyph glyph-name="uni04D8" unicode="&#x4d8;" horiz-adv-x="733" 
d="M352 672l1 2q143 0 242 -99t99 -243t-102 -243t-246 -99q-132 0 -220 85t-88 217q0 44 9 87h506q-13 77 -69 123q-56 47 -132 47q-112 0 -187 -102l-91 79q48 68 119 107t159 39zM350 115h-1q73 0 126 40t73 108h-378q4 -70 57 -109t123 -39z" />
    <glyph glyph-name="uni04D9" unicode="&#x4d9;" horiz-adv-x="569" 
d="M259 506l-1 -1q118 0 195 -74t77 -183q0 -110 -75 -185t-185 -75q-104 0 -168 66q-64 65 -64 164q0 44 9 75h347q-14 47 -49 72t-90 25q-74 0 -138 -49l-56 92q86 73 198 73zM275 97h-2q43 0 76 27q34 28 44 73h-226q1 -46 33 -73t75 -27z" />
    <glyph glyph-name="uni04E2" unicode="&#x4e2;" horiz-adv-x="723" 
d="M511 861v-106h-322v106h322zM603 672h45v-672h-135v405l-393 -417h-44v672h135v-402z" />
    <glyph glyph-name="uni04E3" unicode="&#x4e3;" horiz-adv-x="609" 
d="M459 728v-106h-302v106h302zM493 506h44v-506h-134v264l-286 -276h-45v507h135v-264z" />
    <glyph glyph-name="uni04E6" unicode="&#x4e6;" horiz-adv-x="778" 
d="M260 892l2 -3q34 0 57 -22q24 -23 24 -55t-24 -54q-25 -23 -57 -23t-57 24t-25 54q0 33 24 56q25 23 56 23zM520 889l2 -1q32 0 57 -23q24 -22 24 -56q0 -31 -24 -54q-25 -23 -57 -23t-57 24t-25 54q0 34 24 56q25 23 56 23zM392 668q146 0 249 -99t103 -244t-103 -244
t-249 -99t-248 99t-102 244t102 244t248 99zM393 543l-2 -1q-92 0 -152 -61t-60 -156q0 -96 60 -156t153 -60q92 0 152 61q60 62 60 156t-60 156q-60 61 -151 61z" />
    <glyph glyph-name="uni04E7" unicode="&#x4e7;" horiz-adv-x="608" 
d="M185 754l2 -1q32 0 57 -23q24 -22 24 -56q0 -32 -24 -54q-25 -23 -57 -23q-31 0 -57 24q-25 24 -25 54q0 33 24 56q25 23 56 23zM425 753l2 -1q32 0 57 -23q24 -22 24 -56q0 -31 -24 -54q-25 -23 -57 -23q-31 0 -57 24q-25 24 -25 54q0 34 24 56q25 23 56 23zM308 504
l-1 -1q110 0 188 -75t78 -184t-78 -184t-189 -75t-187 75t-76 185q0 109 77 184q76 75 188 75zM307 380l-1 -1q-56 0 -92 -39t-36 -97q0 -59 36 -96t92 -37t92 38t36 96t-36 97t-91 39z" />
    <glyph glyph-name="uni04E8" unicode="&#x4e8;" horiz-adv-x="778" 
d="M388 672q146 0 249 -99t103 -244t-103 -244t-249 -99t-248 99t-102 244t102 244t248 99zM389 547q-73 0 -127 -39q-55 -39 -74 -105h402q-21 66 -75 105t-126 39zM389 113h-1q80 0 138 48t72 128h-418q14 -81 70 -128q57 -48 139 -48z" />
    <glyph glyph-name="uni04E9" unicode="&#x4e9;" horiz-adv-x="608" 
d="M304 506l-1 -1q111 0 189 -75t78 -184t-78 -184t-190 -75q-110 0 -187 75q-76 75 -76 185q0 109 77 184q76 75 188 75zM303 390h1q-47 -1 -82 -27t-48 -67h258q-13 41 -48 67q-34 25 -81 27zM303 104h-1q47 0 84 26q35 25 49 71h-262q12 -42 47 -70q34 -27 83 -27z" />
    <glyph glyph-name="uni04EE" unicode="&#x4ee;" horiz-adv-x="631" 
d="M493 861v-106h-322v106h322zM464 660h153l-224 -520q-65 -152 -228 -152q-41 0 -88 12v116q36 -3 60 -3q84 0 118 58l-234 489h156l152 -339z" />
    <glyph glyph-name="uni04EF" unicode="&#x4ef;" horiz-adv-x="559" 
d="M430 728v-106h-302v106h302zM405 495h142l-237 -538q-35 -77 -81 -113q-47 -36 -116 -36q-42 0 -87 12v113q41 -4 58 -4q35 0 61 14q23 12 42 53l15 33l-190 466h143l121 -325z" />
    <glyph glyph-name="uni04F2" unicode="&#x4f2;" horiz-adv-x="631" 
d="M384 886l-121 -162h-91l72 186h140v-24zM601 886l-121 -162h-92l73 186h140v-24zM464 660h153l-224 -520q-65 -152 -228 -152q-41 0 -88 12v116q36 -3 60 -3q84 0 118 58l-234 489h156l152 -339z" />
    <glyph glyph-name="uni04F3" unicode="&#x4f3;" horiz-adv-x="559" 
d="M344 756l-121 -185h-91l72 209h140v-24zM420 571h-92l73 209h140v-24zM405 495h142l-237 -538q-35 -77 -81 -113q-47 -36 -116 -36q-42 0 -87 12v113q41 -4 58 -4q35 0 61 14q23 12 42 53l15 33l-190 466h143l121 -325z" />
    <glyph glyph-name="Wgrave" unicode="&#x1e80;" horiz-adv-x="1035" 
d="M567 724h-98l-137 162v24h163zM860 660h150l-264 -672h-44l-184 413l-185 -413h-44l-264 672h150l147 -389l173 401h45l173 -401z" />
    <glyph glyph-name="wgrave" unicode="&#x1e81;" horiz-adv-x="857" 
d="M478 571h-98l-137 185v24h162zM703 495h142l-230 -507h-44l-143 288l-142 -288h-44l-230 507h142l118 -282l134 293h45l137 -287z" />
    <glyph glyph-name="Wacute" unicode="&#x1e82;" horiz-adv-x="1035" 
d="M700 886l-137 -162h-98l72 186h163v-24zM860 660h150l-264 -672h-44l-184 413l-185 -413h-44l-264 672h150l147 -389l173 401h45l173 -401z" />
    <glyph glyph-name="wacute" unicode="&#x1e83;" horiz-adv-x="857" 
d="M614 756l-137 -185h-98l72 209h163v-24zM703 495h142l-230 -507h-44l-143 288l-142 -288h-44l-230 507h142l118 -282l134 293h45l137 -287z" />
    <glyph glyph-name="Wdieresis" unicode="&#x1e84;" horiz-adv-x="1035" 
d="M389 737l2 -3q-31 0 -57 24q-25 24 -25 54q0 34 24 56q25 23 56 23q34 0 57 -22q24 -23 24 -55t-24 -54q-25 -23 -57 -23zM649 733l2 -1q-31 0 -57 24q-25 24 -25 54q0 34 24 56q25 23 56 23q32 0 57 -23q24 -22 24 -56q0 -32 -24 -54q-25 -23 -57 -23zM864 656h150
l-264 -672h-44l-184 413l-185 -413h-44l-264 672h150l147 -389l173 401h45l173 -401z" />
    <glyph glyph-name="wdieresis" unicode="&#x1e85;" horiz-adv-x="857" 
d="M309 598l2 -1q-31 0 -57 24q-25 24 -25 54q0 33 24 56q25 23 56 23q32 0 57 -23q24 -23 24 -56q0 -31 -24 -54q-25 -23 -57 -23zM549 597l2 -1q-31 0 -57 24q-25 24 -25 54q0 34 24 56q25 23 56 23q32 0 57 -23q24 -22 24 -56q0 -32 -24 -54q-25 -23 -57 -23zM707 493
h142l-230 -507h-44l-143 288l-142 -288h-44l-230 507h142l118 -282l134 293h45l137 -287z" />
    <glyph glyph-name="uni1E9E" unicode="&#x1e9e;" horiz-adv-x="731" 
d="M530 419l2 -1q71 -18 117 -73q47 -56 47 -138q0 -98 -67 -159t-162 -61q-112 0 -195 83l72 96q52 -55 114 -55q45 0 72 27t27 72q0 50 -36 75q-37 26 -102 26h-69v34l107 193h-246v-538h-135v660h566v-36z" />
    <glyph glyph-name="Ygrave" unicode="&#x1ef2;" horiz-adv-x="624" 
d="M360 724h-98l-137 162v24h163zM607 660l-227 -400v-260h-135v259l-228 401h150l145 -262l146 262h149z" />
    <glyph glyph-name="ygrave" unicode="&#x1ef3;" horiz-adv-x="559" 
d="M329 571h-98l-137 185v24h162zM405 495h142l-237 -538q-35 -77 -81 -113q-47 -36 -116 -36q-42 0 -87 12v113q41 -4 58 -4q35 0 61 14q23 12 42 53l15 33l-190 466h143l121 -325z" />
    <glyph glyph-name="uni2009" unicode="&#x2009;" horiz-adv-x="148" 
 />
    <glyph glyph-name="endash" unicode="&#x2013;" horiz-adv-x="502" 
d="M467 377v-113h-432v113h432z" />
    <glyph glyph-name="emdash" unicode="&#x2014;" horiz-adv-x="1000" 
d="M950 377v-113h-900v113h900z" />
    <glyph glyph-name="uni2015" unicode="&#x2015;" horiz-adv-x="1000" 
d="M950 377v-113h-900v113h900z" />
    <glyph glyph-name="quoteleft" unicode="&#x2018;" horiz-adv-x="301" 
d="M218 660l-5 -278h-154l56 278h103z" />
    <glyph glyph-name="quoteright" unicode="&#x2019;" horiz-adv-x="301" 
d="M242 660l-56 -278h-103l5 278h154z" />
    <glyph glyph-name="quotesinglbase" unicode="&#x201a;" horiz-adv-x="301" 
d="M242 123l-56 -278h-103l5 278h154z" />
    <glyph glyph-name="quotedblleft" unicode="&#x201c;" horiz-adv-x="538" 
d="M218 660l-5 -278h-154l56 278h103zM455 660l-5 -278h-154l56 278h103z" />
    <glyph glyph-name="quotedblright" unicode="&#x201d;" horiz-adv-x="538" 
d="M242 660l-56 -278h-103l5 278h154zM479 660l-56 -278h-103l5 278h154z" />
    <glyph glyph-name="quotedblbase" unicode="&#x201e;" horiz-adv-x="538" 
d="M242 123l-56 -278h-103l5 278h154zM479 123l-56 -278h-103l5 278h154z" />
    <glyph glyph-name="dagger" unicode="&#x2020;" horiz-adv-x="483" 
d="M309 750v-145h127v-114h-127v-243h-135v243h-127v114h127v145h135z" />
    <glyph glyph-name="daggerdbl" unicode="&#x2021;" horiz-adv-x="483" 
d="M309 750v-115h127v-114h-127v-127h127v-114h-127v-116h-135v116h-127v114h127v127h-127v114h127v115h135z" />
    <glyph glyph-name="bullet" unicode="&#x2022;" horiz-adv-x="427" 
d="M214 430l-1 -1q67 0 114 -45t47 -113q0 -67 -47 -112t-114 -45t-115 45t-48 113t48 113t116 45z" />
    <glyph glyph-name="ellipsis" unicode="&#x2026;" horiz-adv-x="788" 
d="M395 174h-1q39 0 66 -27t27 -66t-26 -67q-25 -27 -66 -27q-40 0 -67 27t-27 67q0 39 27 66t67 27zM653 174q39 0 66 -27t27 -66q0 -40 -27 -67t-66 -27q-40 0 -67 27t-27 67q0 39 27 66t67 27zM135 174h-1q39 0 66 -27t27 -66t-26 -67q-25 -27 -66 -27q-40 0 -67 27
t-27 67q0 39 27 66t67 27z" />
    <glyph glyph-name="perthousand" unicode="&#x2030;" horiz-adv-x="1213" 
d="M212 672h-2q70 0 120 -48t50 -117q0 -70 -49 -118t-120 -48t-120 48t-49 118q0 69 50 117t120 48zM658 660l-380 -660h-108l379 660h109zM211 579q-30 0 -48 -20q-18 -19 -18 -51t18 -51q18 -20 48 -20q28 0 48 20q19 19 19 51t-19 51q-20 20 -48 20zM998 319h-1
q71 0 120 -48q50 -48 50 -117q0 -70 -50 -118q-49 -48 -120 -48t-120 48t-49 118q0 69 50 117t120 48zM616 318h-1q71 0 120 -48q50 -48 50 -117q0 -70 -50 -118q-49 -48 -120 -48t-120 48t-49 118q0 69 50 117t120 48zM997 226v-2q-30 0 -48 -19t-18 -51t18 -51t48 -19
q29 0 47 20t18 51t-18 51t-47 20zM616 223l-1 -2q-31 0 -49 -19q-18 -20 -18 -51t18 -51q18 -19 49 -19q29 0 47 20q18 19 18 51t-18 51q-18 20 -46 20z" />
    <glyph glyph-name="minute" unicode="&#x2032;" horiz-adv-x="288" 
d="M256 660l-87 -284h-103l36 284h154z" />
    <glyph glyph-name="second" unicode="&#x2033;" horiz-adv-x="525" 
d="M256 660l-87 -284h-103l36 284h154zM493 660l-87 -284h-103l36 284h154z" />
    <glyph glyph-name="guilsinglleft" unicode="&#x2039;" horiz-adv-x="340" 
d="M224 500l86 -75l-135 -152l135 -153l-86 -75l-195 209v36z" />
    <glyph glyph-name="guilsinglright" unicode="&#x203a;" horiz-adv-x="340" 
d="M117 500l194 -210v-36l-194 -209l-86 75l134 153l-134 152z" />
    <glyph glyph-name="fraction" unicode="&#x2044;" horiz-adv-x="251" 
d="M370 660l-380 -660h-109l380 660h109z" />
    <glyph glyph-name="uni2070" unicode="&#x2070;" horiz-adv-x="421" 
d="M210 788l-3 -4q82 0 126 -59t44 -153q0 -96 -43 -157t-126 -61q-80 0 -124 62q-43 61 -43 158q0 95 43 154q44 60 126 60zM207 692q-66 0 -66 -122q0 -126 66 -126q67 0 67 126q0 122 -67 122z" />
    <glyph glyph-name="uni2074" unicode="&#x2074;" horiz-adv-x="375" 
d="M365 510v-82h-50v-64h-91v64h-212v26l124 326h103l-104 -270h89v109h91v-109h50z" />
    <glyph glyph-name="uni2075" unicode="&#x2075;" horiz-adv-x="370" 
d="M196 636h1q57 0 99 -36t42 -97q0 -64 -47 -106t-117 -42q-54 0 -95 27t-63 72l70 49q34 -55 84 -55q28 0 47 14q18 14 18 39q0 49 -76 49h-98v230h252v-90h-156v-59q25 5 39 5z" />
    <glyph glyph-name="uni2076" unicode="&#x2076;" horiz-adv-x="374" 
d="M214 652l-1 -4q49 -3 90 -44q40 -40 40 -99q0 -64 -47 -108q-46 -43 -110 -43t-111 44q-46 43 -46 111q0 33 14 63q9 19 44 67l103 141h118zM186 444q24 0 41 17t17 42q0 24 -17 43q-17 18 -41 18t-41 -18q-17 -19 -17 -43q0 -25 17 -42t41 -17z" />
    <glyph glyph-name="uni2077" unicode="&#x2077;" horiz-adv-x="346" 
d="M33 780h296v-27l-181 -389h-108l156 326h-163v90z" />
    <glyph glyph-name="uni2078" unicode="&#x2078;" horiz-adv-x="388" 
d="M278 579l4 -1q75 -33 75 -102q0 -55 -45 -88t-115 -33t-115 33t-45 89q0 70 74 102q-56 38 -56 96q0 53 39 83t101 30t101 -30t39 -83q0 -60 -57 -96zM198 707h-1q-22 0 -35 -10q-14 -11 -14 -27t12 -27q11 -10 38 -24q49 22 49 50q0 16 -14 27t-35 11zM197 436h2
q29 0 44 12t15 32q0 34 -60 57q-61 -22 -61 -57q0 -20 15 -32t45 -12z" />
    <glyph glyph-name="uni2079" unicode="&#x2079;" horiz-adv-x="374" 
d="M187 788h-2q65 0 111 -43t46 -111q0 -34 -13 -61q-14 -30 -43 -69l-104 -141h-117l94 128q-50 3 -90 44q-39 41 -39 101q0 64 47 108t110 44zM185 576q25 0 41 18q17 19 17 43q0 25 -17 42t-41 17t-41 -17t-17 -42q0 -24 17 -43q17 -18 41 -18z" />
    <glyph glyph-name="uni207A" unicode="&#x207a;" horiz-adv-x="427" 
d="M262 750v-134h131v-87h-131v-135h-97v135h-131v87h131v134h97z" />
    <glyph glyph-name="uni207B" unicode="&#x207b;" horiz-adv-x="427" 
d="M393 615v-85h-359v85h359z" />
    <glyph glyph-name="uni207C" unicode="&#x207c;" horiz-adv-x="427" 
d="M42 611v87h343v-87h-343zM42 447v88h343v-88h-343z" />
    <glyph glyph-name="uni207D" unicode="&#x207d;" horiz-adv-x="275" 
d="M216 903l39 -61q-118 -79 -118 -271q0 -194 118 -270l-40 -60q-165 86 -165 331q0 134 46 216t120 115z" />
    <glyph glyph-name="uni207E" unicode="&#x207e;" horiz-adv-x="275" 
d="M59 903h-1q74 -33 120 -115q47 -83 47 -216q0 -134 -46 -216t-120 -115l-40 60q118 76 118 271q0 193 -118 271z" />
    <glyph glyph-name="uni2080" unicode="&#x2080;" horiz-adv-x="421" 
d="M210 304l-3 -4q82 0 126 -59t44 -153q0 -96 -43 -157t-126 -61q-80 0 -124 62q-43 61 -43 158q0 95 43 154q44 60 126 60zM207 208q-66 0 -66 -122q0 -126 66 -126q67 0 67 126q0 122 -67 122z" />
    <glyph glyph-name="uni2081" unicode="&#x2081;" horiz-adv-x="370" 
d="M246 296v-326h86v-90h-290v90h103v236h-94v90h195z" />
    <glyph glyph-name="uni2082" unicode="&#x2082;" horiz-adv-x="385" 
d="M214 -30l132 -1v-90l-313 -1v21l149 162q52 58 52 97q0 25 -13 39q-13 15 -36 15t-36 -15q-13 -14 -13 -40q0 -1 0.5 -5t1 -10.5t0.5 -13.5h-99q-4 15 -4 35q0 56 42 98t109 42q64 0 108 -39q43 -39 43 -97q0 -44 -22 -79q-23 -36 -69 -84z" />
    <glyph glyph-name="uni2083" unicode="&#x2083;" horiz-adv-x="360" 
d="M235 144l-2 -1q39 -14 65 -46q27 -33 27 -80q0 -63 -46 -105q-47 -42 -114 -42q-53 0 -93 27t-61 72l69 49q37 -55 84 -55q26 0 42 15q17 15 17 40q0 48 -76 48h-48v25l78 115h-133v90h275v-27z" />
    <glyph glyph-name="uni2084" unicode="&#x2084;" horiz-adv-x="375" 
d="M365 26v-82h-50v-64h-91v64h-212v26l124 326h103l-104 -270h89v109h91v-109h50z" />
    <glyph glyph-name="uni2085" unicode="&#x2085;" horiz-adv-x="370" 
d="M196 152h1q57 0 99 -36t42 -97q0 -64 -47 -106t-117 -42q-54 0 -95 27t-63 72l70 49q34 -55 84 -55q28 0 47 14q18 14 18 39q0 49 -76 49h-98v230h252v-90h-156v-59q25 5 39 5z" />
    <glyph glyph-name="uni2086" unicode="&#x2086;" horiz-adv-x="374" 
d="M214 168l-1 -4q49 -3 90 -44q40 -40 40 -99q0 -64 -47 -108q-46 -43 -110 -43t-111 44q-46 43 -46 111q0 33 14 63q9 19 44 67l103 141h118zM186 -40q24 0 41 17t17 42q0 24 -17 43q-17 18 -41 18t-41 -18q-17 -19 -17 -43q0 -25 17 -42t41 -17z" />
    <glyph glyph-name="uni2087" unicode="&#x2087;" horiz-adv-x="346" 
d="M33 296h296v-27l-181 -389h-108l156 326h-163v90z" />
    <glyph glyph-name="uni2088" unicode="&#x2088;" horiz-adv-x="388" 
d="M278 95l4 -1q75 -33 75 -102q0 -55 -45 -88t-115 -33t-115 33t-45 89q0 70 74 102q-56 38 -56 96q0 53 39 83t101 30t101 -30t39 -83q0 -60 -57 -96zM198 223h-1q-22 0 -35 -10q-14 -11 -14 -27t12 -27q11 -10 38 -24q49 22 49 50q0 16 -14 27t-35 11zM197 -48h2
q29 0 44 12t15 32q0 34 -60 57q-61 -22 -61 -57q0 -20 15 -32t45 -12z" />
    <glyph glyph-name="uni2089" unicode="&#x2089;" horiz-adv-x="374" 
d="M187 304h-2q65 0 111 -43t46 -111q0 -34 -13 -61q-14 -30 -43 -69l-104 -141h-117l94 128q-50 3 -90 44q-39 41 -39 101q0 64 47 108t110 44zM185 92q25 0 41 18q17 19 17 43q0 25 -17 42t-41 17t-41 -17t-17 -42q0 -24 17 -43q16 -18 41 -18z" />
    <glyph glyph-name="uni208A" unicode="&#x208a;" horiz-adv-x="427" 
d="M262 265v-134h131v-87h-131v-135h-97v135h-131v87h131v134h97z" />
    <glyph glyph-name="uni208B" unicode="&#x208b;" horiz-adv-x="426" 
d="M393 130v-85h-359v85h359z" />
    <glyph glyph-name="uni208C" unicode="&#x208c;" horiz-adv-x="427" 
d="M42 126v87h343v-87h-343zM42 -38v88h343v-88h-343z" />
    <glyph glyph-name="uni208D" unicode="&#x208d;" horiz-adv-x="275" 
d="M216 418l39 -61q-118 -79 -118 -271q0 -194 118 -270l-40 -60q-165 86 -165 331q0 134 46 216t120 115z" />
    <glyph glyph-name="uni208E" unicode="&#x208e;" horiz-adv-x="275" 
d="M59 418h-1q74 -33 120 -115q47 -83 47 -216q0 -134 -46 -216t-120 -115l-40 60q118 76 118 271q0 193 -118 271z" />
    <glyph glyph-name="lira" unicode="&#x20a4;" horiz-adv-x="569" 
d="M302 168l3 2q-11 -34 -30 -60h253v-108h-483v29q101 75 123 139h-114v91h116q-6 26 -24 59h-92v90h48q-12 36 -12 71q0 87 62 140t156 53q85 0 144 -46q60 -46 84 -135l-113 -41q-31 97 -108 97q-42 0 -66 -25q-24 -26 -24 -66q0 -22 9 -49h177v-90h-129q16 -32 22 -60
h107v-91h-109z" />
    <glyph glyph-name="peseta" unicode="&#x20a7;" horiz-adv-x="626" 
d="M626 475l-2 -108h-78q-19 -85 -90 -136q-70 -51 -171 -51h-57v-180h-135v366h-78v109h78v185h192q102 0 173 -50q70 -50 90 -135h78zM284 548h-57v-79h186q-25 79 -129 79zM284 294q103 0 129 80h-186v-80h57z" />
    <glyph glyph-name="Euro" unicode="&#x20ac;" horiz-adv-x="676" 
d="M399 113l-2 -3q93 0 144 72l94 -73q-35 -57 -97 -90q-63 -33 -144 -33q-105 0 -184 59q-77 58 -109 156h-99v96h80q-1 7 -1 33q0 21 1 27h-79v96h96q31 100 110 159t186 59q81 0 144 -33q64 -33 98 -90l-94 -73q-51 72 -144 72q-105 0 -152 -93h235l-26 -96h-235
q-2 -24 -2 -28q0 -6 2 -32h217l-26 -96h-163q48 -89 150 -89z" />
    <glyph glyph-name="uni20AE" unicode="&#x20ae;" horiz-adv-x="585" 
d="M572 538h-212v-107l161 48v-113l-161 -48v-61l161 48v-114l-161 -48v-143h-135v103l-161 -48v114l161 48v61l-161 -48v114l161 47v147h-211v122h558v-122z" />
    <glyph glyph-name="uni20B4" unicode="&#x20b4;" horiz-adv-x="541" 
d="M473 452h60v-95h-523v95h322q10 13 10 33q0 32 -22 47t-57 15q-71 0 -129 -57l-72 88q73 94 201 94q97 0 157 -51t60 -135q0 -17 -7 -34zM10 204l1 94h523v-94h-345q-2 -18 -2 -20q0 -71 89 -71q88 0 167 67l66 -89q-93 -103 -233 -103q-102 0 -166 53q-63 52 -63 143
q0 4 2 20h-39z" />
    <glyph glyph-name="uni20B8" unicode="&#x20b8;" horiz-adv-x="585" 
d="M572 660v-122h-558v122h558zM572 478v-121h-212v-357h-135v357h-211v121h558z" />
    <glyph glyph-name="uni20B9" unicode="&#x20b9;" horiz-adv-x="537" 
d="M463 564l-105 1q19 -28 28 -64h77v-97h-76q-11 -63 -54 -105t-111 -57l240 -242h-168l-233 233v102h77q85 0 108 68h-185v97h183q-26 60 -105 60h-77v100h401v-96z" />
    <glyph glyph-name="uni20BA" unicode="&#x20ba;" horiz-adv-x="538" 
d="M503 298v-1q8 -26 8 -59q0 -251 -414 -251v216l-85 -39v114l85 38v62l-85 -39v114l85 38v168h135v-106l169 77v-113l-169 -77v-62l169 78v-114l-169 -77v-150q72 9 118 44q45 35 45 92q0 21 -3 47h111z" />
    <glyph glyph-name="uni20BD" unicode="&#x20bd;" horiz-adv-x="599" 
d="M347 660h-1q95 0 154 -52q60 -52 60 -141t-60 -141q-59 -52 -153 -52h-118v-63h252v-108h-252v-103h-135v103h-78v108h78v63h-78v114h78v272h253zM337 546l-109 -1v-158h109q39 0 63 21t24 58q0 38 -24 59t-63 21z" />
    <glyph glyph-name="uni2105" unicode="&#x2105;" horiz-adv-x="832" 
d="M212 672v-2q98 0 140 -83l-73 -52q-27 40 -66 40q-30 0 -48 -19q-18 -20 -18 -49q0 -31 18 -51q18 -19 48 -19q39 0 66 40l73 -52q-42 -83 -140 -83q-72 0 -121 48t-49 118t50 117t120 47zM660 658l-381 -660h-108l379 660h110zM620 315h-2q70 0 120 -47t50 -117
t-50 -118t-120 -48q-71 0 -121 48q-49 48 -49 118t50 117t122 47zM618 220v-1q-30 0 -48 -19q-18 -20 -18 -51q0 -29 18 -49q18 -19 48 -19q29 0 47 19t18 49q0 31 -18 51t-47 20z" />
    <glyph glyph-name="uni2113" unicode="&#x2113;" horiz-adv-x="496" 
d="M244 198l-1 -1q0 -89 93 -89q28 0 98 10v-113q-68 -18 -124 -18q-181 0 -201 161l-53 -35l-60 105l111 76v250q0 110 51 164t139 54q167 0 167 -175q0 -94 -52 -174q-52 -81 -168 -171v-44zM243 550l1 -154q56 50 80 93t24 91q0 67 -46 67q-59 0 -59 -97z" />
    <glyph glyph-name="uni2116" unicode="&#x2116;" horiz-adv-x="1123" 
d="M503 267v393h135v-672h-45l-382 408v-396h-135v672h44zM914 236v1q-72 0 -121 48t-49 118t50 117t120 47t120 -48t50 -117q0 -70 -50 -118t-120 -48zM914 473q-29 0 -49 -20q-19 -19 -19 -51t19 -51q20 -20 49 -20t49 20q19 19 19 51t-19 51q-20 20 -49 20zM752 85v85
h325v-85h-325z" />
    <glyph glyph-name="uni2117" unicode="&#x2117;" horiz-adv-x="778" 
d="M388 672v-1q144 0 248 -99t104 -243t-104 -243t-248 -99t-247 99t-103 243q0 145 104 244t246 99zM388 591v1q-109 0 -185 -73q-77 -74 -77 -190q0 -117 77 -189t185 -72q107 0 185 72t78 188q0 117 -78 190q-77 73 -185 73zM415 504v-2q61 0 102 -33q40 -33 40 -89
t-40 -89q-41 -33 -102 -33h-54v-104h-91v350h145zM415 423l-54 -1v-87h54q23 0 36 12t13 32t-13 32t-36 12z" />
    <glyph glyph-name="trademark" unicode="&#x2122;" horiz-adv-x="984" 
d="M915 668v-457h-112v202l-97 -122h-36l-96 122v-202h-113v457h37l191 -237l191 237h35zM397 660v-101h-137v-348h-112v348h-137v101h386z" />
    <glyph glyph-name="uni2126" unicode="&#x2126;" horiz-adv-x="788" 
d="M745 347q0 -133 -117 -225h107v-122h-284v122q155 74 155 219q0 92 -60 149t-153 57q-91 0 -151 -57t-60 -148q0 -146 155 -220v-122h-284v122h101q-111 92 -111 225q0 137 102 231q101 94 248 94q146 0 249 -94t103 -231z" />
    <glyph glyph-name="estimated" unicode="&#x212e;" horiz-adv-x="795" 
d="M731 327l-543 -3v-198q75 -104 219 -104q77 0 144 32q66 32 111 84l26 -23q-49 -59 -123 -94q-72 -34 -159 -34q-148 0 -248 98q-99 97 -99 239q0 144 102 244q101 100 241 100q82 0 158 -35t125 -102q55 -76 50 -150zM408 631q-140 0 -220 -104v-168h421v183
q-75 89 -201 89z" />
    <glyph glyph-name="uni2150" unicode="&#x2150;" horiz-adv-x="967" 
d="M332 334v-90h-290v90h103v236h-94v90h195v-326h86zM631 660h109l-380 -660h-109zM654 416h296v-27l-181 -389h-108l156 326h-163v90z" />
    <glyph glyph-name="uni2151" unicode="&#x2151;" horiz-adv-x="965" 
d="M332 334v-90h-290v90h103v236h-94v90h195v-326h86zM631 660h109l-380 -660h-109zM778 424h-2q65 0 111 -43t46 -111q0 -34 -13 -61q-14 -30 -43 -69l-104 -141h-117l94 128q-50 3 -90 44q-39 41 -39 101q0 64 47 108t110 44zM776 212q24 0 41 18q17 19 17 43q0 25 -17 42
t-41 17t-41 -17t-17 -42q0 -24 17 -43q16 -18 41 -18z" />
    <glyph glyph-name="uni2152" unicode="&#x2152;" horiz-adv-x="1413" 
d="M246 660v-326h86v-90h-290v90h103v236h-94v90h195zM740 660l-380 -660h-109l380 660h109zM1202 424l-3 -4q82 0 126 -59t44 -153q0 -96 -43 -157t-126 -61q-80 0 -124 62q-43 61 -43 158q0 95 43 154q44 60 126 60zM864 412v-326h86v-90h-290v90h103v236h-94v90h195z
M1199 328q-66 0 -66 -122q0 -126 66 -126q67 0 67 126q0 122 -67 122z" />
    <glyph glyph-name="uni2153" unicode="&#x2153;" horiz-adv-x="981" 
d="M332 334v-90h-290v90h103v236h-94v90h195v-326h86zM631 660h109l-380 -660h-109zM856 264l-2 -1q39 -14 65 -46q27 -33 27 -80q0 -63 -46 -105t-114 -42q-52 0 -93 27q-40 27 -61 72l69 49q37 -55 84 -55q25 0 42 15t17 40q0 48 -76 48h-48v25l78 115h-133v90h275v-27z
" />
    <glyph glyph-name="uni2154" unicode="&#x2154;" horiz-adv-x="996" 
d="M346 334v-91l-313 -1v21l149 162q52 58 52 97q0 25 -13 39q-13 15 -36 15t-36 -15q-13 -14 -13 -40q0 -1 0.5 -5t1 -10.5t0.5 -13.5h-99q-4 15 -4 35q0 56 42 98t109 42q64 0 108 -39q43 -39 43 -97q0 -44 -22 -79q-23 -36 -69 -84l-32 -34h132zM646 659h109l-380 -660
h-109zM871 263l-2 -1q39 -14 65 -46q27 -33 27 -80q0 -63 -46 -105q-47 -42 -114 -42q-53 0 -93 27t-61 72l69 49q37 -55 84 -55q26 0 42 15q17 15 17 40q0 48 -76 48h-48v25l78 115h-133v90h275v-27z" />
    <glyph glyph-name="uni2155" unicode="&#x2155;" horiz-adv-x="984" 
d="M332 334v-90h-290v90h103v236h-94v90h195v-326h86zM631 660h109l-380 -660h-109zM809 272h1q57 0 99 -36t42 -97q0 -64 -47 -106q-46 -42 -117 -42q-55 0 -95 27t-63 72l70 49q34 -55 84 -55q28 0 47 14q18 14 18 39q0 49 -76 49h-98v230h252v-90h-156v-59q25 5 39 5z
" />
    <glyph glyph-name="uni2156" unicode="&#x2156;" horiz-adv-x="998" 
d="M346 334v-91l-313 -1v21l149 162q52 58 52 97q0 25 -13 39q-13 15 -36 15t-36 -15q-13 -14 -13 -40q0 -1 0.5 -5t1 -10.5t0.5 -13.5h-99q-4 15 -4 35q0 56 42 98t109 42q64 0 108 -39q43 -39 43 -97q0 -44 -22 -79q-23 -36 -69 -84l-32 -34h132zM646 659h109l-380 -660
h-109zM824 271h1q57 0 99 -36t42 -97q0 -64 -47 -106t-117 -42q-54 0 -95 27t-63 72l70 49q34 -55 84 -55q28 0 47 14q18 13 18 39q0 49 -76 49h-98v230h252v-90h-156v-59q25 5 39 5z" />
    <glyph glyph-name="uni2157" unicode="&#x2157;" horiz-adv-x="938" 
d="M326 382l-1 -1q0 -63 -46 -105q-47 -42 -114 -42q-53 0 -93 27t-61 72l69 49q37 -55 84 -55q26 0 42 15q17 15 17 40q0 48 -76 48h-48v25l78 115h-133v90h275v-27l-85 -125q38 -12 65 -45t27 -81zM585 659h109l-380 -660h-109zM763 271h1q57 0 99 -36t42 -97
q0 -64 -47 -106q-46 -42 -117 -42q-55 0 -95 27t-63 72l70 49q34 -55 84 -55q28 0 47 14q18 13 18 39q0 49 -76 49h-98v230h252v-90h-156v-59q25 5 39 5z" />
    <glyph glyph-name="uni2158" unicode="&#x2158;" horiz-adv-x="998" 
d="M315 244h-91v64h-212v26l124 326h103l-104 -270h89v109h91v-109h50v-82h-50v-64zM646 660h109l-380 -660h-109zM824 272h1q57 0 99 -36t42 -97q0 -64 -47 -106t-117 -42q-54 0 -95 27t-63 72l70 49q34 -55 84 -55q28 0 47 14q18 14 18 39q0 49 -76 49h-98v230h252v-90
h-156v-59q25 5 39 5z" />
    <glyph glyph-name="uni2159" unicode="&#x2159;" horiz-adv-x="915" 
d="M332 334v-90h-290v90h103v236h-94v90h195v-326h86zM631 660h109l-380 -660h-109zM755 288l-1 -4q49 -3 90 -44q40 -40 40 -99q0 -64 -47 -108q-46 -43 -110 -43t-111 44q-46 43 -46 111q0 33 14 63q9 19 44 67l103 141h118zM727 80q24 0 41 17t17 42q0 24 -17 43
q-16 18 -41 18t-41 -18q-17 -19 -17 -43q0 -25 17 -42t41 -17z" />
    <glyph glyph-name="uni215A" unicode="&#x215a;" horiz-adv-x="880" 
d="M337 384q0 -64 -47 -106q-46 -42 -117 -42q-55 0 -95 27t-63 72l70 49q34 -55 84 -55q28 0 47 14q18 13 18 39q0 49 -76 49h-98v230h252v-90h-156v-59q25 5 40 5q57 0 99 -36t42 -97zM596 660h109l-380 -660h-109zM720 288l-1 -4q49 -3 90 -44q40 -40 40 -99
q0 -64 -47 -108q-46 -43 -110 -43t-111 44q-46 43 -46 111q0 33 14 63q9 19 44 67l103 141h118zM692 80q24 0 41 17t17 42q0 24 -17 43q-17 18 -41 18t-41 -18q-17 -19 -17 -43q0 -25 17 -42t41 -17z" />
    <glyph glyph-name="oneeighth" unicode="&#x215b;" horiz-adv-x="964" 
d="M332 334v-90h-290v90h103v236h-94v90h195v-326h86zM631 660h109l-380 -660h-109zM854 215l4 -1q75 -33 75 -102q0 -55 -45 -88t-115 -33t-115 33t-45 89q0 70 74 102q-56 38 -56 96q0 53 39 83t101 30t101 -30t39 -83q0 -60 -57 -96zM774 343h-1q-22 0 -35 -10
q-14 -11 -14 -27t12 -27q11 -10 38 -24q49 22 49 50q0 16 -14 27t-35 11zM773 72h2q29 0 44 12t15 32q0 34 -60 57q-61 -22 -61 -57q0 -20 15 -32t45 -12z" />
    <glyph glyph-name="threeeighths" unicode="&#x215c;" horiz-adv-x="919" 
d="M326 382l-1 -1q0 -63 -46 -105q-47 -42 -114 -42q-53 0 -93 27t-61 72l69 49q37 -55 84 -55q26 0 42 15q17 15 17 40q0 48 -76 48h-48v25l78 115h-133v90h275v-27l-85 -125q38 -12 65 -45t27 -81zM585 659h109l-380 -660h-109zM808 214l4 -1q75 -33 75 -102
q0 -55 -45 -88t-115 -33t-115 33t-45 89q0 70 74 102q-56 38 -56 96q0 53 39 83t101 30t101 -30t39 -83q0 -60 -57 -96zM728 342h-1q-22 0 -35 -10q-14 -11 -14 -27q0 -17 12 -27q11 -10 38 -24q49 22 49 50q0 16 -14 27t-35 11zM727 71h2q29 0 44 12t15 32q0 35 -60 57
q-61 -22 -61 -57q0 -20 15 -32t45 -12z" />
    <glyph glyph-name="fiveeighths" unicode="&#x215d;" horiz-adv-x="929" 
d="M337 384q0 -64 -47 -106q-46 -42 -117 -42q-55 0 -95 27t-63 72l70 49q34 -55 84 -55q28 0 47 14q18 13 18 39q0 49 -76 49h-98v230h252v-90h-156v-59q25 5 40 5q57 0 99 -36t42 -97zM596 660h109l-380 -660h-109zM819 215l4 -1q75 -33 75 -102q0 -55 -45 -88t-115 -33
t-115 33t-45 89q0 70 74 102q-56 38 -56 96q0 53 39 83t101 30t101 -30t39 -83q0 -60 -57 -96zM739 343h-1q-22 0 -35 -10q-14 -11 -14 -27t12 -27q11 -10 38 -24q49 22 49 50q0 16 -14 27t-35 11zM738 72h2q29 0 44 12t15 32q0 34 -60 57q-61 -22 -61 -57q0 -20 15 -32
t45 -12z" />
    <glyph glyph-name="seveneighths" unicode="&#x215e;" horiz-adv-x="842" 
d="M148 244h-108l156 326h-163v90h296v-27zM509 660h109l-380 -660h-109zM732 215l4 -1q75 -33 75 -102q0 -55 -45 -88t-115 -33t-115 33t-45 89q0 70 74 102q-56 38 -56 96q0 53 39 83t101 30t101 -30t39 -83q0 -60 -57 -96zM652 343h-1q-22 0 -35 -10q-14 -11 -14 -27
t12 -27q11 -10 38 -24q49 22 49 50q0 16 -14 27t-35 11zM651 72h2q29 0 44 12t15 32q0 34 -60 57q-61 -22 -61 -57q0 -20 15 -32t45 -12z" />
    <glyph glyph-name="arrowleft" unicode="&#x2190;" horiz-adv-x="650" 
d="M605 264h-306l-68 3l159 -159l-79 -79l-279 278v26l279 279l79 -80l-157 -157l66 3h306v-114z" />
    <glyph glyph-name="arrowup" unicode="&#x2191;" horiz-adv-x="650" 
d="M616 324l-80 -80l-153 153l3 -64v-293h-122v293l2 64l-152 -153l-80 80l278 278h26z" />
    <glyph glyph-name="arrowright" unicode="&#x2192;" horiz-adv-x="650" 
d="M339 612l279 -279v-26l-279 -278l-79 79l159 159l-68 -3h-306v114h306l66 -3l-157 157z" />
    <glyph glyph-name="arrowdown" unicode="&#x2193;" horiz-adv-x="650" 
d="M536 397l80 -79l-278 -279h-26l-278 279l80 79l152 -153l-2 64v294h122v-294l-3 -64z" />
    <glyph glyph-name="arrowboth" unicode="&#x2194;" horiz-adv-x="946" 
d="M635 612l278 -279v-26l-278 -278l-79 79l158 159l-68 -3h-95h-132h-120l-68 3l159 -159l-79 -79l-279 278v26l279 279l79 -80l-157 -157l66 3h347l66 -3l-156 157z" />
    <glyph glyph-name="arrowupdn" unicode="&#x2195;" horiz-adv-x="642" 
d="M380 133l148 148l80 -79l-274 -275h-26l-274 275l80 79l149 -149l-3 64v268l3 64l-149 -149l-80 79l274 275h26l274 -275l-80 -79l-148 148l2 -63v-268z" />
    <glyph glyph-name="uni2196" unicode="&#x2196;" horiz-adv-x="650" 
d="M344 374l237 -237l-83 -83l-236 236l-39 43v-231h-117v410l18 18h404v-113h-231z" />
    <glyph glyph-name="uni2197" unicode="&#x2197;" horiz-adv-x="650" 
d="M526 530l18 -18v-410h-117v231l-39 -43l-236 -236l-83 83l237 237l47 43h-231v113h404z" />
    <glyph glyph-name="uni2198" unicode="&#x2198;" horiz-adv-x="650" 
d="M427 520h117v-410l-18 -19h-404v114h231l-47 43l-237 237l83 83l236 -236l39 -43v231z" />
    <glyph glyph-name="uni2199" unicode="&#x2199;" horiz-adv-x="650" 
d="M344 248l-47 -43h231v-114h-404l-18 19v410h117v-231l39 43l236 236l83 -83z" />
    <glyph glyph-name="partialdiff" unicode="&#x2202;" horiz-adv-x="614" 
d="M316 672q119 0 188 -82t69 -226q0 -164 -85 -270t-219 -106q-95 0 -159 54t-64 150t67 156t183 60q66 0 138 -21q-7 163 -124 163q-70 0 -126 -69l-85 72q72 119 217 119zM279 106l3 -1q53 0 93 43q41 44 54 126q-76 17 -126 17q-61 0 -90 -27t-29 -67t26 -66
q25 -25 69 -25z" />
    <glyph glyph-name="uni2206" unicode="&#x2206;" horiz-adv-x="661" 
d="M353 672l294 -672h-634l295 672h45zM450 122l-119 278l-120 -278h239z" />
    <glyph glyph-name="product" unicode="&#x220f;" horiz-adv-x="701" 
d="M625 660v-781h-135v659h-279v-659h-135v781h549z" />
    <glyph glyph-name="summation" unicode="&#x2211;" horiz-adv-x="570" 
d="M242 1h287v-122h-494v30l210 371l-210 350v30h482v-122h-272l147 -242v-30z" />
    <glyph glyph-name="minus" unicode="&#x2212;" 
d="M515 378v-115h-471v115h471z" />
    <glyph glyph-name="uni2219" unicode="&#x2219;" horiz-adv-x="270" 
d="M136 413h-1q39 0 66 -27t27 -66t-26 -67q-26 -27 -66 -27t-67 27t-27 67q0 39 27 66t67 27z" />
    <glyph glyph-name="radical" unicode="&#x221a;" horiz-adv-x="734" 
d="M609 750h122l-513 -883h-44v309h-164v108h273v-95z" />
    <glyph glyph-name="infinity" unicode="&#x221e;" horiz-adv-x="877" 
d="M651 518l1 -1q94 0 151 -58q57 -59 57 -141t-57 -141q-57 -58 -150 -58q-67 0 -117 30t-96 84q-47 -55 -97 -84q-51 -30 -118 -30q-94 0 -149 58q-56 59 -56 141t56 141t150 59q68 0 117 -30q49 -29 96 -83q47 54 96 83q49 30 116 30zM240 239v2q60 0 129 81
q-69 78 -130 78q-40 0 -64 -21t-24 -58t24 -60q23 -22 65 -22zM640 241l-1 -2q42 0 65 22q24 23 24 60t-24 58t-65 21q-61 0 -129 -78q69 -81 130 -81z" />
    <glyph glyph-name="integral" unicode="&#x222b;" horiz-adv-x="359" 
d="M276 790h-2q45 0 81 -10v-113q-12 0 -24 0.5t-18 1t-8 0.5q-92 0 -92 -98q0 -44 33 -245t33 -265q0 -95 -52 -143q-53 -48 -145 -48q-46 0 -82 10v113q12 0 24 -0.5t18 -1t8 -0.5q92 0 92 98q0 46 -33 247t-33 263q0 95 53 143t147 48z" />
    <glyph glyph-name="approxequal" unicode="&#x2248;" 
d="M151 546l1 1q40 0 84 -26l88 -53q38 -23 54 -23t25 11q9 10 9 27v16h102q3 -15 3 -34q0 -61 -35 -102q-34 -40 -86 -40q-42 0 -85 26l-88 54q-37 23 -55 23q-33 0 -33 -39v-16h-103q-2 26 -2 33q0 61 35 102q34 40 86 40zM152 318l1 1q40 0 84 -26l88 -53q38 -23 54 -23
t25 11q9 10 9 27v16h102q3 -15 3 -34q0 -62 -35 -103q-34 -40 -86 -40q-42 0 -85 26l-88 54q-37 23 -55 23q-33 0 -33 -39v-16h-103q-2 24 -2 34q0 61 35 102q34 40 86 40z" />
    <glyph glyph-name="notequal" unicode="&#x2260;" 
d="M506 371h-135l-61 -101h196v-114h-265l-60 -100h-118l60 100h-68v114h137l61 101h-198v114h267l59 98h118l-59 -98h66v-114z" />
    <glyph glyph-name="lessequal" unicode="&#x2264;" 
d="M501 560v-116l-230 -83l230 -83v-116l-464 181v36zM49 0v108h452v-108h-452z" />
    <glyph glyph-name="greaterequal" unicode="&#x2265;" 
d="M58 560l464 -181v-36l-464 -181v116l230 83l-230 83v116zM58 0v108h451v-108h-451z" />
    <glyph glyph-name="uni24EA" unicode="&#x24ea;" horiz-adv-x="971" 
d="M485 762q179 0 305 -126t126 -305t-126 -305t-305 -126t-305 126t-126 305t126 305t305 126zM485 660h-3q-137 0 -231 -94t-94 -237q0 -142 95 -237q94 -94 231 -94q138 0 233 95t95 236q0 142 -94 236q-95 95 -232 95zM482 562v-1q90 0 137 -63q47 -64 47 -165
q0 -103 -48 -169t-136 -66t-135 66q-47 67 -47 170q0 101 47 165q47 63 135 63zM482 461q-71 0 -71 -130q0 -135 71 -135q73 0 73 135q0 130 -73 130z" />
    <glyph glyph-name="uni24FF" unicode="&#x24ff;" horiz-adv-x="971" 
d="M485 762q179 0 305 -126t126 -305t-126 -305t-305 -126t-305 126t-126 305t126 305t305 126zM485 562l-1 -1q-88 0 -136 -63t-48 -165q0 -103 48 -169t137 -66q90 0 138 66t48 170q0 102 -48 165t-138 63zM484 459q72 0 72 -128q0 -133 -72 -133q-70 0 -70 133
q0 128 70 128z" />
    <glyph glyph-name="filledbox" unicode="&#x25a0;" horiz-adv-x="730" 
d="M640 605v-550h-550v550h550z" />
    <glyph glyph-name="uni25A1" unicode="&#x25a1;" horiz-adv-x="730" 
d="M640 605v-550h-550v550h550zM523 493h-316v-326h316v326z" />
    <glyph glyph-name="uni25AA" unicode="&#x25aa;" horiz-adv-x="541" 
d="M461 438v-380h-381v380h381z" />
    <glyph glyph-name="uni25AB" unicode="&#x25ab;" horiz-adv-x="541" 
d="M461 438v-380h-381v380h381zM352 332h-163v-169h163v169z" />
    <glyph glyph-name="triagup" unicode="&#x25b2;" horiz-adv-x="730" 
d="M374 660l336 -589l-9 -16h-672l-9 16l336 589h18z" />
    <glyph glyph-name="uni25B3" unicode="&#x25b3;" horiz-adv-x="730" 
d="M374 660l336 -589l-9 -16h-672l-9 16l336 589h18zM521 170l-156 273l-155 -273h311z" />
    <glyph glyph-name="uni25B4" unicode="&#x25b4;" horiz-adv-x="528" 
d="M273 477l230 -403l-9 -16h-460l-9 16l230 403h18z" />
    <glyph glyph-name="uni25B5" unicode="&#x25b5;" horiz-adv-x="528" 
d="M273 477l230 -403l-9 -16h-460l-9 16l230 403h18zM352 145l-88 154l-87 -154h175z" />
    <glyph glyph-name="uni25B6" unicode="&#x25b6;" horiz-adv-x="645" 
d="M106 672l516 -333v-18l-516 -333l-16 9v666z" />
    <glyph glyph-name="uni25B7" unicode="&#x25b7;" horiz-adv-x="645" 
d="M106 672l516 -333v-18l-516 -333l-16 9v666zM425 330l-218 140v-280z" />
    <glyph glyph-name="uni25B8" unicode="&#x25b8;" horiz-adv-x="480" 
d="M96 484l353 -227v-18l-353 -226l-16 8v454z" />
    <glyph glyph-name="uni25B9" unicode="&#x25b9;" horiz-adv-x="480" 
d="M96 484l353 -227v-18l-353 -226l-16 8v454zM293 248l-123 79v-157z" />
    <glyph glyph-name="triagrt" unicode="&#x25ba;" horiz-adv-x="961" 
d="M106 672l825 -333v-18l-825 -333l-16 9v666z" />
    <glyph glyph-name="uni25BB" unicode="&#x25bb;" horiz-adv-x="961" 
d="M106 672l825 -333v-18l-825 -333l-16 9v666zM644 330l-437 177v-354z" />
    <glyph glyph-name="triagdn" unicode="&#x25bc;" horiz-adv-x="730" 
d="M374 0h-18l-336 589l9 16h672l9 -16z" />
    <glyph glyph-name="uni25BD" unicode="&#x25bd;" horiz-adv-x="730" 
d="M701 605l9 -16l-336 -589h-18l-336 589l9 16h672zM521 490h-311l155 -273z" />
    <glyph glyph-name="uni25BE" unicode="&#x25be;" horiz-adv-x="528" 
d="M494 438l9 -16l-230 -403h-18l-230 403l9 16h460z" />
    <glyph glyph-name="uni25BF" unicode="&#x25bf;" horiz-adv-x="528" 
d="M494 438l9 -16l-230 -403h-18l-230 403l9 16h460zM352 350h-175l87 -154z" />
    <glyph glyph-name="uni25C0" unicode="&#x25c0;" horiz-adv-x="645" 
d="M539 672l16 -9v-666l-16 -9l-516 333v18z" />
    <glyph glyph-name="uni25C1" unicode="&#x25c1;" horiz-adv-x="682" 
d="M576 672l16 -9v-666l-16 -9l-516 333v18zM475 470l-218 -140l218 -141v281z" />
    <glyph glyph-name="uni25C2" unicode="&#x25c2;" horiz-adv-x="480" 
d="M384 484l16 -9v-454l-16 -8l-353 226v18z" />
    <glyph glyph-name="uni25C3" unicode="&#x25c3;" horiz-adv-x="480" 
d="M384 484l16 -9v-454l-16 -8l-353 226v18zM310 170v157l-123 -79z" />
    <glyph glyph-name="triaglf" unicode="&#x25c4;" horiz-adv-x="961" 
d="M855 672l16 -9v-666l-16 -9l-825 333v18z" />
    <glyph glyph-name="uni25C5" unicode="&#x25c5;" horiz-adv-x="961" 
d="M855 672l16 -9v-666l-16 -9l-825 333v18zM754 507l-437 -177l437 -177v354z" />
    <glyph glyph-name="lozenge" unicode="&#x25ca;" horiz-adv-x="665" 
d="M355 672l213 -342l-213 -342h-45l-213 342l213 342h45zM232 330l104 -163l99 163l-102 162z" />
    <glyph glyph-name="circle" unicode="&#x25cb;" horiz-adv-x="775" 
d="M389 659v-1q134 0 231 -97t97 -231q0 -136 -97 -233q-98 -98 -231 -98q-135 0 -233 98t-98 233q0 134 98 232q97 97 233 97zM389 545v-2q-90 0 -153 -63t-63 -153t63 -153t152 -63q88 0 150 63q62 64 62 155t-61 153q-61 63 -150 63z" />
    <glyph glyph-name="uni25CF" unicode="&#x25cf;" horiz-adv-x="775" 
d="M389 659v-1q134 0 231 -97t97 -231q0 -136 -97 -233q-98 -98 -231 -98q-135 0 -233 98t-98 233q0 134 98 232q97 97 233 97z" />
    <glyph glyph-name="uni261C" unicode="&#x261c;" horiz-adv-x="1212" 
d="M1190 285l-1 -38l-89 -73l52 -178l-35 -24l-232 146q-207 -105 -358 -105q-120 0 -120 74q0 22 14 36q-46 15 -46 58q0 30 24 48q-35 17 -35 53q0 19 11 33l-182 2q-82 1 -122 26q-39 24 -39 77q0 58 46 79t148 21q76 0 163 -9q1 46 32 72t69 26q41 0 81 -25l247 -152
q29 -8 64 -21l236 149l35 -23l-51 -179zM512 529q-22 0 -27 -26q60 -7 115 -18l-61 35q-19 9 -27 9zM510 88h-2q57 0 161 29q100 28 183 74v148q-112 47 -297 75q-188 29 -373 29q-33 0 -48 -5q-14 -5 -14 -18q0 -14 12 -18q16 -6 42 -6l105 -2q184 -3 287 -10v-69l-109 1
q-15 0 -15 -13q0 -15 14 -15h122v-68h-110q-14 0 -14 -14t14 -14h120v-69q-44 -6 -78 -6h-8q-15 0 -15 -14q0 -15 23 -15zM937 356v-179l101 -62l-29 94l75 58l-75 57l29 94z" />
    <glyph glyph-name="uni261E" unicode="&#x261e;" horiz-adv-x="1212" 
d="M996 521h1q101 0 147 -21q47 -21 47 -79q0 -53 -39 -77q-40 -25 -122 -26l-182 -2q11 -14 11 -33q0 -37 -36 -54q25 -18 25 -48q0 -43 -46 -58q14 -17 14 -37q0 -34 -30 -54q-31 -20 -91 -20q-151 0 -360 105l-231 -146l-35 24l51 178l-88 73v39l88 73l-51 179l35 23
l236 -149l63 21l248 152q41 25 81 25t69 -25q31 -26 32 -72q87 9 163 9zM684 519l-61 -35q60 11 115 18q-5 26 -27 26q-7 0 -27 -9zM1048 395h-1q30 1 42 6t12 18q0 14 -13 18q-15 5 -48 5q-187 0 -375 -29q-185 -29 -297 -75v-148q84 -46 185 -74q104 -29 161 -29
q22 0 22 15q0 14 -14 14h-8q-34 0 -81 6v69h121q13 0 13 14t-13 14h-110v68h122q13 0 13 15q0 13 -14 13l-110 -1v69q105 7 287 10zM283 176v179l-101 62l28 -94l-75 -57l75 -58l-28 -94z" />
    <glyph glyph-name="uni2661" unicode="&#x2661;" horiz-adv-x="860" 
d="M614 672l-3 -1q82 0 137 -55q56 -56 56 -141q0 -49 -24 -94q-23 -42 -83 -109l-260 -284h-20l-260 284q-61 65 -84 109q-24 45 -24 95q0 85 56 141q55 55 137 55q64 0 114 -36t72 -93q22 57 72 93t114 36zM596 339l-1 -2q24 27 35 41q10 13 22 38q11 24 11 45
q0 38 -22 59q-23 21 -57 21q-46 0 -78 -42t-45 -108h-69q-14 66 -45 108t-78 42q-35 0 -57 -21t-22 -58q0 -30 17 -58t51 -65l169 -190z" />
    <glyph glyph-name="heart" unicode="&#x2665;" horiz-adv-x="860" 
d="M614 672l-3 -1q82 0 137 -55q56 -56 56 -141q0 -49 -24 -94q-23 -42 -83 -109l-260 -284h-20l-260 284q-61 65 -84 109q-24 45 -24 95q0 85 56 141q55 55 137 55q64 0 114 -36t72 -93q22 57 72 93t114 36z" />
    <glyph glyph-name="uni275B" unicode="&#x275b;" horiz-adv-x="635" 
d="M378 425h-4q90 0 154 -64t64 -156q0 -91 -63 -154t-170 -63q-135 0 -229 97t-94 240q0 147 97 245q97 99 246 99q116 0 204 -70l-54 -86q-65 50 -144 50q-99 0 -165 -67q-66 -68 -66 -169q0 -38 10 -74q16 73 77 123q59 49 137 49z" />
    <glyph glyph-name="uni275C" unicode="&#x275c;" horiz-adv-x="635" 
d="M273 671l-1 -3q135 0 229 -97t94 -240q0 -145 -96 -244t-244 -99q-116 0 -204 70l54 86q65 -50 144 -50q99 0 165 68t66 170q0 38 -10 74q-17 -74 -76 -123t-138 -49q-90 0 -154 64t-64 156q0 91 64 154t171 63z" />
    <glyph glyph-name="uni275D" unicode="&#x275d;" horiz-adv-x="1249" 
d="M378 425h-4q90 0 154 -64t64 -156q0 -91 -63 -154t-170 -63q-135 0 -229 97t-94 240q0 147 97 245q97 99 246 99q116 0 204 -70l-54 -86q-65 50 -144 50q-99 0 -165 -67q-66 -68 -66 -169q0 -38 10 -74q16 73 77 123q59 49 137 49zM988 425h-4q90 0 154 -64t64 -156
q0 -91 -63 -154t-170 -63q-135 0 -229 97t-94 240q0 147 97 245q97 99 246 99q116 0 204 -70l-54 -86q-65 50 -144 50q-99 0 -165 -67q-66 -68 -66 -169q0 -36 10 -72q17 74 77 122t137 48z" />
    <glyph glyph-name="uni275E" unicode="&#x275e;" horiz-adv-x="1255" 
d="M273 671l-1 -3q135 0 229 -97t94 -240q0 -145 -96 -244t-244 -99q-116 0 -204 70l54 86q65 -50 144 -50q99 0 165 68t66 170q0 38 -10 74q-17 -74 -76 -123t-138 -49q-90 0 -154 64t-64 156q0 91 64 154t171 63zM892 668v-3q135 0 229 -97t94 -240q0 -145 -96 -244
t-244 -99q-116 0 -204 70l54 86q65 -50 144 -50q99 0 165 68t66 170q0 36 -11 75q-16 -75 -76 -124q-59 -49 -138 -49q-90 0 -154 64t-64 156q0 91 64 154q65 63 171 63z" />
    <glyph glyph-name="uni2776" unicode="&#x2776;" horiz-adv-x="971" 
d="M485 762q179 0 305 -126t126 -305t-126 -305t-305 -126t-305 126t-126 305t126 305t305 126zM545 554h-197v-93h86v-263h-93v-93h290v93h-86v356z" />
    <glyph glyph-name="uni2777" unicode="&#x2777;" horiz-adv-x="971" 
d="M485 762q179 0 305 -126t126 -305t-126 -305t-305 -126t-305 126t-126 305t126 305t305 126zM482 562l-3 -2q-74 0 -120 -46q-47 -47 -47 -108q0 -13 5 -38h101q0 7 -1 14t-1 15q0 28 16 44q17 17 43 17q25 0 40 -15t15 -40t-13 -45q-15 -23 -45 -56l-157 -176v-23h341
v94h-149l56 62q44 49 61 77q21 34 21 78q0 64 -46 106q-47 42 -117 42z" />
    <glyph glyph-name="uni2778" unicode="&#x2778;" horiz-adv-x="971" 
d="M485 762q179 0 305 -126t126 -305t-126 -305t-305 -126t-305 126t-126 305t126 305t305 126zM640 554l-299 1v-100h134l-84 -122v-28h62q81 0 81 -51q0 -25 -18 -40t-46 -15q-48 0 -88 58l-77 -54q23 -49 66 -78q43 -28 102 -28q73 0 123 45t50 113q0 52 -28 86
q-28 35 -72 48l94 136v29z" />
    <glyph glyph-name="uni2779" unicode="&#x2779;" horiz-adv-x="971" 
d="M485 762q179 0 305 -126t126 -305t-126 -305t-305 -126t-305 126t-126 305t126 305t305 126zM526 554h-119l-126 -352v-30h225v-67h111v67h53v97h-53v103h-111v-103h-91z" />
    <glyph glyph-name="uni277A" unicode="&#x277a;" horiz-adv-x="971" 
d="M485 762q179 0 305 -126t126 -305t-126 -305t-305 -126t-305 126t-126 305t126 305t305 126zM629 554l-276 -1v-250h107q81 0 81 -50q0 -26 -19 -41t-49 -15q-50 0 -91 59l-77 -54q22 -49 68 -78q44 -28 105 -28q76 0 127 45t51 114q0 66 -46 105t-105 39q-28 0 -45 -4
v59h169v100z" />
    <glyph glyph-name="uni277B" unicode="&#x277b;" horiz-adv-x="971" 
d="M485 762q179 0 305 -126t126 -305t-126 -305t-305 -126t-305 126t-126 305t126 305t305 126zM609 554h-130l-112 -151q-35 -47 -48 -75q-14 -30 -14 -66q0 -70 51 -117q52 -47 120 -47t120 47q51 47 51 117q0 50 -27 87q-27 38 -69 53q-27 9 -48 8zM476 324v2
q26 0 44 -18t18 -45t-18 -45t-44 -18q-25 0 -43 18t-18 45q0 25 18 43t43 18z" />
    <glyph glyph-name="uni277C" unicode="&#x277c;" horiz-adv-x="971" 
d="M485 762q179 0 305 -126t126 -305t-126 -305t-305 -126t-305 126t-126 305t126 305t305 126zM657 554h-323v-101h176l-168 -348h121l194 420v29z" />
    <glyph glyph-name="uni277D" unicode="&#x277d;" horiz-adv-x="971" 
d="M485 762q179 0 305 -126t126 -305t-126 -305t-305 -126t-305 126t-126 305t126 305t305 126zM486 562h-1q-67 0 -111 -33q-43 -33 -43 -91q0 -63 63 -102q-83 -35 -83 -109q0 -60 49 -96q50 -36 126 -36q77 0 125 36t48 96q0 75 -81 110q62 38 62 102q0 57 -43 90
t-111 33zM485 475h1q22 0 36 -12t14 -31q0 -32 -52 -54q-49 21 -49 53q0 20 14 32q13 12 36 12zM485 299h-1q32 -12 48 -27q17 -15 17 -37q0 -23 -16 -36q-17 -14 -48 -14t-48 14q-16 13 -16 38q0 23 16 36q18 14 48 26z" />
    <glyph glyph-name="uni277E" unicode="&#x277e;" horiz-adv-x="971" 
d="M486 762q179 0 305 -126t126 -305t-126 -305t-305 -126t-305 126t-126 305t126 305t305 126zM496 563v1q-68 0 -120 -47q-51 -47 -51 -117q0 -50 27 -87q27 -38 69 -53q25 -9 47 -8l-106 -144h131l112 151q35 47 48 75q14 30 14 65q0 71 -51 117q-52 47 -120 47zM496 462
l-1 -2q26 0 44 -18t18 -45q0 -25 -18 -43t-43 -18q-26 0 -44 18t-18 45t18 45t44 18z" />
    <glyph glyph-name="uni2780" unicode="&#x2780;" horiz-adv-x="971" 
d="M485 762q179 0 305 -126t126 -305t-126 -305t-305 -126t-305 126t-126 305t126 305t305 126zM485 657v2q-137 0 -230 -93t-93 -234t93 -234t230 -93t230 93t93 233t-93 233t-230 93zM545 556v-356h86v-93h-290v93h93v263h-86v93h197z" />
    <glyph glyph-name="uni2781" unicode="&#x2781;" horiz-adv-x="971" 
d="M485 762q179 0 305 -126t126 -305t-126 -305t-305 -126t-305 126t-126 305t126 305t305 126zM485 657v2q-137 0 -230 -93t-93 -234t93 -234t230 -93t230 93t93 233t-93 233t-230 93zM482 564l-1 1q71 0 117 -42q47 -42 47 -106q0 -43 -21 -78q-17 -28 -61 -77l-56 -62
h149v-94h-341v23l157 176q30 33 45 56q14 22 14 45q0 25 -15 40t-40 15q-26 0 -43 -17q-16 -16 -16 -44q0 -1 2 -15q0 -3 0.5 -6t1 -4.5t0.5 -2.5h-101q-5 25 -5 38q0 61 47 108q46 46 120 46z" />
    <glyph glyph-name="uni2782" unicode="&#x2782;" horiz-adv-x="971" 
d="M485 762q179 0 305 -126t126 -305t-126 -305t-305 -126t-305 126t-126 305t126 305t305 126zM485 657v2q-137 0 -230 -93t-93 -234t93 -234t230 -93t230 93t93 233t-93 233t-230 93zM640 556l-2 -32l-94 -136q44 -14 72 -48q29 -35 29 -86q0 -67 -50 -112
q-49 -45 -123 -45q-58 0 -102 29q-44 28 -66 78l77 54q40 -58 88 -58q28 0 46 15t18 40q0 51 -81 51h-62v28l84 122h-134v100h300z" />
    <glyph glyph-name="uni2783" unicode="&#x2783;" horiz-adv-x="971" 
d="M485 762q179 0 305 -126t126 -305t-126 -305t-305 -126t-305 126t-126 305t126 305t305 126zM485 657v2q-137 0 -230 -93t-93 -234t93 -234t230 -93t230 93t93 233t-93 233t-230 93zM526 556l-111 -285h91v103h111v-103h53v-97h-53v-67h-111v67h-225v30l126 352h119z" />
    <glyph glyph-name="uni2784" unicode="&#x2784;" horiz-adv-x="971" 
d="M485 762q179 0 305 -126t126 -305t-126 -305t-305 -126t-305 126t-126 305t126 305t305 126zM485 657v2q-137 0 -230 -93t-93 -234t93 -234t230 -93t230 93t93 233t-93 233t-230 93zM630 556l-1 -100h-169v-59q17 4 45 4q59 0 105 -39t46 -105q0 -69 -51 -114t-127 -45
q-58 0 -104 29q-45 29 -69 78l78 54q41 -59 90 -59q31 0 50 15q20 15 20 41q0 50 -81 50h-107v250h275z" />
    <glyph glyph-name="uni2785" unicode="&#x2785;" horiz-adv-x="971" 
d="M485 762q179 0 305 -126t126 -305t-126 -305t-305 -126t-305 126t-126 305t126 305t305 126zM485 657v2q-137 0 -230 -93t-93 -234t93 -234t230 -93t230 93t93 233t-93 233t-230 93zM609 556l-107 -144q21 1 48 -8q42 -15 69 -53q27 -37 27 -87q0 -70 -51 -117
q-52 -47 -120 -47t-120 47q-51 47 -51 117q0 36 14 66q14 28 48 75l112 151h131zM474 326l-1 -2q-25 0 -43 -18t-18 -43q0 -27 18 -45t44 -18t44 18t18 45t-18 45t-44 18z" />
    <glyph glyph-name="uni2786" unicode="&#x2786;" horiz-adv-x="971" 
d="M485 762q179 0 305 -126t126 -305t-126 -305t-305 -126t-305 126t-126 305t126 305t305 126zM485 657v2q-137 0 -230 -93t-93 -234t93 -234t230 -93t230 93t93 233t-93 233t-230 93zM657 556v-29l-194 -420h-122l169 348h-176v101h323z" />
    <glyph glyph-name="uni2787" unicode="&#x2787;" horiz-adv-x="971" 
d="M485 762q179 0 305 -126t126 -305t-126 -305t-305 -126t-305 126t-126 305t126 305t305 126zM485 657v2q-137 0 -230 -93t-93 -234t93 -234t230 -93t230 93t93 233t-93 233t-230 93zM486 564q68 0 111 -33t43 -90q0 -64 -62 -102q81 -34 81 -110q0 -60 -48 -96t-124 -36
q-77 0 -126 36t-49 96q0 74 83 109q-63 39 -63 102q0 58 43 91t111 33zM486 477l-1 -2q-23 0 -36 -12q-14 -12 -14 -31q0 -32 49 -53q52 22 52 54q0 20 -14 32t-36 12zM484 299l-1 -1q-30 -12 -48 -26q-16 -13 -16 -36q0 -25 16 -38q17 -14 48 -14t48 14t17 36q0 23 -16 38
t-48 27z" />
    <glyph glyph-name="uni2788" unicode="&#x2788;" horiz-adv-x="971" 
d="M486 762q179 0 305 -126t126 -305t-126 -305t-305 -126t-305 126t-126 305t126 305t305 126zM486 657l-1 -2q-137 0 -230 -93t-93 -233t93 -233t230 -93t230 93t93 234t-93 234t-229 93zM495 561v-1q68 0 120 -47q51 -47 51 -117q0 -35 -14 -65q-14 -29 -48 -75
l-112 -151h-131l106 144q-22 -1 -47 8q-42 15 -69 53t-27 87q0 71 51 117q52 47 120 47zM495 458l-1 2q-26 0 -44 -18t-18 -45t18 -45t44 -18t44 18t18 43q0 27 -18 45t-43 18z" />
    <glyph glyph-name="uni27F5" unicode="&#x27f5;" horiz-adv-x="1216" 
d="M1171 264h-863l-68 3l158 -159l-79 -79l-279 278v26l279 279l79 -80l-157 -157l67 3h863v-114z" />
    <glyph glyph-name="uni27F6" unicode="&#x27f6;" horiz-adv-x="1216" 
d="M897 612l279 -279v-26l-279 -278l-79 79l158 159l-68 -3h-863v114h863l67 -3l-157 157z" />
    <glyph glyph-name="uniF8FF" unicode="&#xf8ff;" horiz-adv-x="722" 
d="M99 0v660h524v-660h-524zM458 123l-1 2q35 0 58 23q22 22 22 54q0 27 -17 56q-16 28 -45 45l-24 -25q45 -44 45 -76q0 -17 -10 -27q-11 -11 -27 -11q-23 0 -42 27q-20 28 -54 103q81 46 111 77q29 31 29 62q0 39 -27 60t-74 21q-3 0 -33 -2l26 55l-41 7l-33 -71
q-46 -9 -103 -36q-23 -66 -23 -162q0 -78 20 -158l42 -8q23 115 42 186t51 147q17 4 41 4q70 0 70 -50q0 -24 -27 -48q-29 -25 -114 -74l-1 -6q40 -101 67 -137q29 -38 72 -38zM230 204v-1q-2 46 -2 81q0 86 23 157q24 13 51 21q-52 -132 -65 -258h-7z" />
    <glyph glyph-name="fi" unicode="&#xfb01;" horiz-adv-x="626" 
d="M90 576h1q0 94 51 140q52 47 140 47q38 0 74 -11v-113q-22 3 -40 3q-46 0 -69 -18q-22 -18 -22 -60v-69h109v-114h-109v-381h-135v381h-70v114h70v81zM493 592h-2q-35 0 -61 24q-25 24 -25 59q0 36 26 60q25 24 62 24q35 0 61 -24q25 -24 25 -60q0 -35 -25 -59
q-26 -24 -61 -24zM423 0v495h135v-495h-135z" />
    <glyph glyph-name="fl" unicode="&#xfb02;" horiz-adv-x="626" 
d="M90 576h1q0 94 51 140q52 47 140 47q38 0 74 -11v-113q-22 3 -40 3q-46 0 -69 -18q-22 -18 -22 -60v-69h109v-114h-109v-381h-135v381h-70v114h70v81zM425 750h135v-750h-135v750z" />
    <glyph glyph-name="Iacute_J.loclNLD" horiz-adv-x="675" 
d="M326 910v-24l-137 -162h-98l72 186h163zM696 910v-24l-137 -162h-98l72 186h163zM211 660v-660h-135v660h135zM599 660l1 -484q0 -95 -52 -141q-53 -47 -150 -47q-47 0 -95 12v115q48 -4 66 -4q49 0 72 18t23 61v470h135z" />
    <glyph glyph-name="Cacute.loclPLK" horiz-adv-x="720" 
d="M340 724l32 186h163v-24l-97 -162h-98zM390 672v-5q95 0 171 -43q77 -44 120 -120l-102 -72q-71 111 -189 111q-93 0 -153 -61q-60 -62 -60 -157t60 -155t153 -60q118 0 189 111l102 -72q-43 -77 -120 -120q-76 -43 -171 -43q-148 0 -250 99t-102 244t102 244t250 99z
" />
    <glyph glyph-name="Nacute.loclPLK" horiz-adv-x="713" 
d="M502 886l-97 -162h-98l32 186h163v-24zM503 660h135v-672h-45l-382 408v-396h-135v672h44l383 -405v393z" />
    <glyph glyph-name="Oacute.loclPLK" horiz-adv-x="778" 
d="M339 724l32 186h163v-24l-97 -162h-98zM388 672q146 0 249 -99t103 -244t-103 -244t-249 -99t-248 99t-102 244t102 244t248 99zM389 547l-2 -1q-92 0 -152 -61t-60 -156q0 -96 60 -156t153 -60q92 0 152 61q60 62 60 156t-60 156q-60 61 -151 61z" />
    <glyph glyph-name="Sacute.loclPLK" horiz-adv-x="559" 
d="M231 724l32 186h163v-24l-97 -162h-98zM283 672l-2 1q77 0 132 -34q56 -35 87 -91l-92 -71q-51 76 -126 76q-35 0 -58 -16q-24 -17 -24 -48q0 -26 18 -41q20 -17 60 -34l75 -33q81 -35 123 -82q40 -44 40 -112q0 -90 -65 -144t-165 -54q-84 0 -150 39t-104 107l93 70
q69 -96 162 -96q43 0 69 20q25 19 25 54q0 20 -12 35q-13 16 -27 23l-46 23l-71 32q-75 34 -118 80q-42 45 -42 110q0 84 62 135q61 51 156 51z" />
    <glyph glyph-name="Zacute.loclPLK" horiz-adv-x="588" 
d="M444 886l-97 -162h-98l32 186h163v-24zM227 122h333v-122h-540v36l331 502h-288v122h496v-36z" />
    <glyph glyph-name="Idotaccent.loclTRK" horiz-adv-x="286" 
d="M143 899h-3q34 0 60 -24t26 -59t-25 -59t-60 -24t-61 24q-25 24 -25 59t26 59q25 24 62 24zM208 660v-660h-135v660h135z" />
    <glyph glyph-name="A.ordn" horiz-adv-x="429" 
d="M308 244l-17 45h-152l-17 -45h-112l188 424h33l188 -424h-111zM262 366l-48 116l-47 -116h95z" />
    <glyph glyph-name="C.ordn" horiz-adv-x="470" 
d="M252 668l-4 -1q62 0 111 -30q50 -30 78 -82l-79 -53q-41 68 -111 68q-51 0 -84 -33t-33 -87q0 -53 33 -86t85 -33q70 0 111 68l79 -53q-28 -52 -78 -81t-111 -29q-92 0 -157 62q-64 61 -64 153q0 91 65 154t159 63z" />
    <glyph glyph-name="D.ordn" horiz-adv-x="455" 
d="M199 660l-1 1q98 0 163 -57q64 -57 64 -151q0 -93 -64 -151t-162 -58h-143v416h143zM198 567h-41v-229h39q52 0 87 32q34 31 34 84q0 56 -33 84q-34 29 -86 29z" />
    <glyph glyph-name="E.ordn" horiz-adv-x="380" 
d="M341 660v-94h-181v-65h137v-81h-137v-83h189v-93h-293v416h285z" />
    <glyph glyph-name="Egrave.ordn" horiz-adv-x="380" 
d="M213 817l42 -117h-73l-91 99v18h122zM341 660v-94h-181v-65h137v-81h-137v-83h189v-93h-293v416h285z" />
    <glyph glyph-name="G.ordn" horiz-adv-x="486" 
d="M254 668v1q116 0 177 -93l-72 -62q-41 59 -107 59q-54 0 -85 -33q-31 -32 -31 -87t33 -90q33 -34 89 -34q63 0 95 41v22h-101v83h204v-123q-29 -53 -82 -84q-55 -32 -121 -32q-94 0 -159 62q-64 61 -64 153q0 91 65 154t159 63z" />
    <glyph glyph-name="H.ordn" horiz-adv-x="477" 
d="M421 660v-416h-104v169h-157v-169h-104v416h104v-153h157v153h104z" />
    <glyph glyph-name="I.ordn" horiz-adv-x="216" 
d="M160 660v-416h-104v416h104z" />
    <glyph glyph-name="L.ordn" horiz-adv-x="348" 
d="M160 660v-323h173v-93h-277v416h104z" />
    <glyph glyph-name="M.ordn" horiz-adv-x="531" 
d="M441 668h34v-424h-104v183l-89 -107h-33l-89 106v-182h-104v424h34l176 -218z" />
    <glyph glyph-name="N.ordn" horiz-adv-x="477" 
d="M317 660h104v-424h-34l-227 224v-216h-104v424h34l227 -221v213z" />
    <glyph glyph-name="O.ordn" horiz-adv-x="504" 
d="M251 668h-3q93 0 159 -63t66 -154t-65 -153t-159 -62q-92 0 -157 62q-64 61 -64 153q0 91 65 154t158 63zM249 572v1q-52 0 -85 -33t-33 -86q0 -54 33 -87t85 -33q49 0 84 33q34 33 34 86t-34 86q-35 33 -84 33z" />
    <glyph glyph-name="R.ordn" horiz-adv-x="424" 
d="M419 244l-117 1l-95 133h-48v-133h-104v416h161q69 0 114 -39t45 -103q0 -79 -67 -119zM159 570v-100h57q23 0 39 14q15 14 15 36t-15 36q-16 14 -39 14h-57z" />
    <glyph glyph-name="S.ordn" horiz-adv-x="356" 
d="M176 668v-2q102 0 142 -84l-71 -55q-30 43 -70 43q-38 0 -38 -28q0 -23 37 -36l48 -18q106 -39 106 -124q0 -62 -42 -96q-43 -35 -108 -35q-55 0 -99 26q-43 25 -66 69l71 55q39 -53 93 -53q20 0 32 9t12 24q0 22 -44 39l-44 17q-104 40 -104 125q0 55 41 90
q40 34 104 34z" />
    <glyph glyph-name="T.ordn" horiz-adv-x="378" 
d="M367 660v-94h-126v-322h-104v322h-126v94h356z" />
    <glyph glyph-name="U.ordn" horiz-adv-x="467" 
d="M415 660l-1 -240q0 -81 -51 -132t-129 -51q-79 0 -130 51t-51 132v240h104v-249q0 -35 21 -57t56 -22t56 22t21 57v249h104z" />
    <glyph glyph-name="Uacute.ordn" horiz-adv-x="467" 
d="M365 817v-18l-91 -99h-73l41 117h123zM415 660l-1 -240q0 -81 -51 -132t-129 -51q-79 0 -130 51t-51 132v240h104v-249q0 -35 21 -57t56 -22t56 22t21 57v249h104z" />
    <glyph glyph-name="Y.ordn" horiz-adv-x="409" 
d="M397 660l-141 -256v-160h-103v158l-142 258h115l79 -148l79 148h113z" />
    <glyph glyph-name="Z.ordn" horiz-adv-x="381" 
d="M174 337h187v-93h-346v27l185 295h-158v94h318v-27z" />
    <glyph glyph-name="iacute_j.loclNLD" horiz-adv-x="538" 
d="M290 780v-24l-107 -185h-98l42 209h163zM559 780v-24l-107 -185h-98l42 209h163zM471 495v-502q0 -91 -51 -138q-52 -47 -139 -47q-39 0 -75 11v113q24 -3 41 -3q45 0 67 18t22 59v489h135zM202 494v-495h-135v495h135z" />
    <glyph glyph-name="cacute.loclPLK" horiz-adv-x="552" 
d="M249 571l32 209h163v-24l-97 -185h-98zM304 506l-2 1q74 0 129 -33t87 -90l-94 -73q-48 72 -119 72q-57 0 -93 -39t-36 -97t36 -97t93 -39q69 0 119 71l94 -72q-32 -57 -87 -90t-127 -33q-112 0 -188 75q-77 75 -77 185q0 109 77 184q76 75 188 75z" />
    <glyph glyph-name="nacute.loclPLK" horiz-adv-x="585" 
d="M423 756l-97 -185h-98l32 209h163v-24zM336 506l1 -1q85 0 135 -54q50 -55 50 -144v-307h-134v289q0 44 -25 70q-25 27 -66 27q-40 0 -67 -27t-27 -70v-289h-135v495h124v-45q56 56 144 56z" />
    <glyph glyph-name="oacute.loclPLK" horiz-adv-x="608" 
d="M251 571l32 209h163v-24l-97 -185h-98zM304 506l-1 -1q110 0 188 -75t78 -184t-78 -184t-189 -75q-110 0 -187 75q-76 75 -76 185q0 109 77 184q76 75 188 75zM303 382l-1 -1q-56 0 -92 -39t-36 -97q0 -59 36 -96t92 -37t92 38t36 96t-36 97t-91 39z" />
    <glyph glyph-name="sacute.loclPLK" horiz-adv-x="455" 
d="M179 571l32 209h163v-24l-97 -185h-98zM235 507l-1 -5q110 0 178 -75l-68 -83q-50 47 -111 47q-53 0 -53 -35q0 -14 12 -23q8 -6 41 -20l48 -20q74 -31 105 -62q33 -33 33 -88q0 -74 -54 -116t-138 -42q-131 0 -205 96l68 82q64 -67 138 -67q26 0 45 11q18 11 18 30
q0 16 -12 25q-13 9 -40 21l-53 22q-68 29 -101 63t-33 90q0 71 51 110t132 39z" />
    <glyph glyph-name="zacute.loclPLK" horiz-adv-x="468" 
d="M380 756l-97 -185h-98l32 209h163v-24zM215 114h237v-114h-435v36l236 345h-213v114h410v-36z" />
    <glyph glyph-name="i.loclTRK.loclTRK" horiz-adv-x="269" 
d="M135 759h-2q35 0 61 -24q25 -24 25 -60q0 -35 -25 -59t-61 -24q-35 0 -61 24q-25 24 -25 59q0 36 26 60q25 24 62 24zM200 495v-495h-135v495h135z" />
    <glyph glyph-name="c.ordn" horiz-adv-x="366" 
d="M201 565l-1 -1q97 0 139 -82l-72 -51q-28 40 -67 40q-30 0 -48 -20q-18 -19 -18 -51t18 -51q18 -20 48 -20q37 0 66 41l72 -51q-44 -84 -139 -84q-71 0 -121 48q-49 48 -49 118t50 117t122 47z" />
    <glyph glyph-name="d.ordn" horiz-adv-x="418" 
d="M264 717l105 -1v-473h-96v32q-31 -40 -93 -40q-65 0 -107 47q-42 46 -42 119q0 71 42 117q42 47 107 47q54 0 84 -30v182zM202 328l-2 -2q26 0 45 18q20 18 20 53t-19 54t-46 19t-46 -19t-19 -52q0 -31 20 -51t47 -20z" />
    <glyph glyph-name="e.ordn" horiz-adv-x="377" 
d="M347 418l-1 1q0 -21 -7 -48h-209q15 -50 75 -50q44 0 79 28l47 -66q-56 -47 -129 -47q-74 0 -124 48q-49 48 -49 118t48 117q49 47 119 47q67 0 109 -43t42 -105zM191 487l-1 -1q-50 0 -62 -52h121q-1 26 -18 39q-17 14 -40 14z" />
    <glyph glyph-name="egrave.ordn" horiz-adv-x="377" 
d="M240 599h-73l-91 118v18h122zM347 418l-1 1q0 -21 -7 -48h-209q15 -50 75 -50q44 0 79 28l47 -66q-56 -47 -129 -47q-74 0 -124 48q-49 48 -49 118t48 117q49 47 119 47q67 0 109 -43t42 -105zM191 487l-1 -1q-50 0 -62 -52h121q-1 26 -18 39q-17 14 -40 14z" />
    <glyph glyph-name="g.ordn" horiz-adv-x="418" 
d="M274 559l95 -4v-271q0 -76 -48 -120q-49 -44 -124 -44q-88 0 -154 57l53 73q49 -37 93 -37q32 0 54 17q21 16 21 51v15q-30 -30 -85 -30q-65 0 -107 42t-42 109t42 108q41 40 107 40q63 0 95 -39v33zM202 347l-2 -3q26 0 45 18q20 18 20 50t-19 48q-20 17 -46 17t-46 -17
q-19 -16 -19 -45t20 -49q19 -19 47 -19z" />
    <glyph glyph-name="h.ordn" horiz-adv-x="398" 
d="M235 565l1 -1q53 0 84 -34q32 -35 32 -93v-194h-104v179q0 23 -13 36q-14 14 -34 14q-21 0 -34 -13t-13 -36v-179h-104v473h104v-181q32 29 81 29z" />
    <glyph glyph-name="i.ordn" horiz-adv-x="202" 
d="M100 728l1 -1q27 0 45 -18t18 -43t-19 -43t-45 -18t-44 18t-18 43q0 26 18 44t44 18zM154 557v-314h-103v314h103z" />
    <glyph glyph-name="l.ordn" horiz-adv-x="204" 
d="M153 717v-473h-103v473h103z" />
    <glyph glyph-name="m.ordn" horiz-adv-x="592" 
d="M425 565h-2q56 0 87 -34q32 -35 32 -93v-194h-103v179q0 23 -13 36t-34 13t-33 -13t-12 -36v-179h-104v179q0 23 -12 36t-33 13t-33 -13t-12 -36v-179h-104v315h96v-24q31 30 84 30q59 0 93 -40q40 40 103 40z" />
    <glyph glyph-name="n.ordn" horiz-adv-x="398" 
d="M232 565l-2 -1q55 0 88 -34t33 -93v-194h-104v179q0 23 -13 36q-14 14 -34 14q-21 0 -34 -13t-13 -36v-179h-104v315h96v-25q34 31 87 31z" />
    <glyph glyph-name="r.ordn" horiz-adv-x="266" 
d="M223 563q15 0 30 -4v-92h-24q-75 0 -75 -77v-146h-104v315h95v-33q28 37 78 37z" />
    <glyph glyph-name="s.ordn" horiz-adv-x="303" 
d="M153 566l1 -2q76 0 121 -50l-48 -60q-32 29 -69 29q-25 0 -25 -17q0 -8 5 -11q4 -3 18 -9l31 -12q50 -19 69 -36q22 -19 22 -57q0 -49 -36 -78q-35 -28 -91 -28q-85 0 -135 62l48 58q44 -39 87 -39q28 0 28 19q0 13 -23 22l-32 12q-44 16 -67 39q-22 22 -22 58
q0 46 33 73t85 27z" />
    <glyph glyph-name="y.ss01.ordn" horiz-adv-x="405" 
d="M251 559l102 -1v-272q0 -77 -43 -120t-117 -43q-85 0 -146 57l52 72q45 -36 87 -36q65 0 65 66v17q-35 -29 -81 -29q-52 0 -85 36t-33 94v160h103v-145q0 -21 14 -37q13 -15 35 -15q20 0 34 14q13 13 13 36v146z" />
    <glyph glyph-name="t.ordn" horiz-adv-x="278" 
d="M215 329l-3 2h18h22v-86q-30 -8 -60 -8q-64 0 -99 32t-35 93v110h-47v87h47v74h104v-74h84v-87h-84v-100q0 -22 12 -33q11 -10 41 -10z" />
    <glyph glyph-name="u.ordn" horiz-adv-x="394" 
d="M348 559l-3 -171q-2 -70 -42 -110q-42 -42 -107 -42q-66 0 -108 42t-42 110v171h103v-178q0 -22 14 -36t35 -14q19 0 33 14q13 13 13 36v178h104z" />
    <glyph glyph-name="uacute.ordn" horiz-adv-x="394" 
d="M327 735v-18l-91 -118h-73l42 136h122zM348 559l-3 -171q-2 -70 -42 -110q-42 -42 -107 -42q-66 0 -108 42t-42 110v171h103v-178q0 -22 14 -36t35 -14q19 0 33 14q13 13 13 36v178h104z" />
    <glyph glyph-name="y.ordn" horiz-adv-x="367" 
d="M250 559l107 -1l-147 -334q-25 -54 -55 -77q-31 -24 -78 -24q-29 0 -59 8v87q9 0 17.5 -0.5t13 -1t5.5 -0.5q46 0 63 38l6 13l-115 292h110l62 -183z" />
    <glyph glyph-name="z.ordn" horiz-adv-x="307" 
d="M162 331h133v-87h-283v27l134 201h-120v87h269v-28z" />
    <glyph glyph-name="a.ss01" horiz-adv-x="629" 
d="M438 495l122 -2v-495h-126v59q-54 -71 -157 -71q-104 0 -172 74q-67 73 -67 186q0 112 68 186t173 74q107 0 159 -73v62zM302 109v-2q50 0 88 35q37 34 37 102q0 66 -37 102t-88 36q-53 0 -91 -38q-37 -37 -37 -99t37 -99t91 -37z" />
    <glyph glyph-name="aacute.ss01" horiz-adv-x="629" 
d="M498 756l-137 -185h-98l72 209h163v-24zM438 495l122 -2v-495h-126v59q-54 -71 -157 -71q-104 0 -172 74q-67 73 -67 186q0 112 68 186t173 74q107 0 159 -73v62zM302 109v-2q50 0 88 35q37 34 37 102q0 66 -37 102t-88 36q-53 0 -91 -38q-37 -37 -37 -99t37 -99t91 -37z
" />
    </font>
</defs>
</svg>
