<?xml version="1.0" standalone="no"?>
<!DOCTYPE svg PUBLIC "-//W3C//DTD SVG 1.1//EN" "http://www.w3.org/Graphics/SVG/1.1/DTD/svg11.dtd" >
<svg>
<metadata>
Created by FontForge 20090622 at Fri Sep 15 08:47:53 2017
 By deploy user
Copyright (c) 2015 by type me! Font Foundry. All rights reserved.
</metadata>
<defs>
<font id="CeraPro-Regular" horiz-adv-x="560" >
  <font-face 
    font-family="Cera Pro"
    font-weight="400"
    font-stretch="normal"
    units-per-em="1000"
    panose-1="0 0 0 0 0 0 0 0 0 0"
    ascent="799"
    descent="-201"
    x-height="487"
    cap-height="660"
    bbox="-138 -243 1304 1000"
    underline-thickness="50"
    underline-position="-50"
    unicode-range="U+0020-U+FB02"
  />
<missing-glyph horiz-adv-x="707" 
d="M91 660h525v-660h-525v660zM558 51v556h-411z" />
    <glyph glyph-name=".notdef" horiz-adv-x="707" 
d="M91 660h525v-660h-525v660zM558 51v556h-411z" />
    <glyph glyph-name=".null" horiz-adv-x="0" 
 />
    <glyph glyph-name="nonmarkingreturn" horiz-adv-x="333" 
 />
    <glyph glyph-name="space" unicode=" " horiz-adv-x="280" 
 />
    <glyph glyph-name="exclam" unicode="!" horiz-adv-x="305" 
d="M198 660l-14 -451h-64l-15 451h93zM152 115q27 0 45 -18t18 -45t-18 -45t-45 -18q-26 0 -44 18t-18 45t18 45t44 18z" />
    <glyph glyph-name="quotedbl" unicode="&#x22;" horiz-adv-x="463" 
d="M198 660l-43 -257h-61l14 257h90zM381 660l-43 -257h-60l13 257h90z" />
    <glyph glyph-name="numbersign" unicode="#" horiz-adv-x="597" 
d="M568 401h-99l-19 -142h97v-66h-106l-26 -193h-65l26 193h-192l-26 -193h-65l26 193h-90v66h99l19 142h-96v66h104l26 193h67l-27 -193h191l26 193h67l-27 -193h90v-66zM193 259h192l19 142h-192z" />
    <glyph glyph-name="dollar" unicode="$" horiz-adv-x="536" 
d="M473 186l-1 -1q0 -68 -46 -111t-120 -52v-117h-77v118q-121 19 -189 138l56 40q54 -88 133 -106v223l-6 2q-58 20 -102 64q-37 37 -37 97q0 59 41 100t105 51v119h77v-117q97 -14 153 -108l-53 -41q-43 65 -102 75v-199l22 -9q70 -28 108 -68t38 -98zM161 481v2
q0 -31 17 -51q16 -19 50 -36v163q-67 -16 -67 -78zM305 94h-1q40 7 65 32q24 24 24 61q0 35 -22 56q-23 21 -66 42v-191z" />
    <glyph glyph-name="percent" unicode="%" horiz-adv-x="810" 
d="M214 671l-1 -2q69 0 116 -46q48 -47 48 -114t-48 -114q-47 -46 -115 -46t-117 47q-48 46 -48 114t48 114q49 47 117 47zM628 658l-378 -660h-69l378 660h69zM213 612v2q-43 0 -72 -30q-28 -29 -28 -75t28 -75q29 -30 72 -30t72 30q28 29 28 74t-28 74q-29 30 -72 30z
M595 312l-1 -2q69 0 116 -46q48 -46 48 -114t-48 -114q-47 -46 -116 -46q-66 0 -115 47q-48 47 -48 114t48 114q49 47 116 47zM595 253v-1q-43 0 -72 -30q-28 -29 -28 -75q0 -44 28 -73q29 -30 72 -30q41 0 70 30q28 29 28 74q0 46 -28 75q-29 30 -70 30z" />
    <glyph glyph-name="ampersand" unicode="&#x26;" horiz-adv-x="625" 
d="M602 292l1 -1q-93 -139 -111 -161l109 -131h-94l-63 75q-86 -86 -191 -86q-85 0 -144 48q-58 48 -58 125q0 61 38 107q37 45 111 99q-71 91 -71 159q0 64 39 104q39 41 107 41q65 0 105 -39t40 -97q0 -89 -118 -177l140 -168q28 38 96 144zM276 599h1q-71 0 -71 -74
q0 -49 56 -117q84 64 84 123q0 29 -18 49q-18 19 -52 19zM256 60h1q75 0 141 71l-151 182q-38 -28 -61 -48q-20 -17 -36 -43t-16 -55q0 -47 35 -77t87 -30z" />
    <glyph glyph-name="quotesingle" unicode="'" horiz-adv-x="280" 
d="M198 660l-43 -257h-61l14 257h90z" />
    <glyph glyph-name="parenleft" unicode="(" horiz-adv-x="333" 
d="M272 734l33 -55q-151 -97 -151 -380q0 -285 151 -379l-33 -53q-83 40 -139 146q-55 104 -55 287q0 184 55 288q56 106 139 146z" />
    <glyph glyph-name="parenright" unicode=")" horiz-adv-x="333" 
d="M62 734l-1 -2q39 -20 72 -51t61 -82q29 -51 45 -127q16 -74 16 -172q0 -184 -55 -287q-56 -103 -138 -144l-34 53q152 95 152 379q0 281 -152 380z" />
    <glyph glyph-name="asterisk" unicode="*" horiz-adv-x="410" 
d="M364 644l-95 -64l95 -64l-25 -41l-102 50l-8 -114h-48l-9 114l-102 -50l-24 41l94 64l-94 64l24 42l102 -49l9 113h48l8 -113l102 49z" />
    <glyph glyph-name="plus" unicode="+" 
d="M503 281h-183v-193h-76v193h-188v68h188v190h76v-190h183v-68z" />
    <glyph glyph-name="comma" unicode="," horiz-adv-x="270" 
d="M189 90l-41 -269h-63l13 269h91z" />
    <glyph glyph-name="hyphen" unicode="-" horiz-adv-x="346" 
d="M292 347v-65h-239v65h239z" />
    <glyph glyph-name="period" unicode="." horiz-adv-x="270" 
d="M135 115q26 0 44 -18t18 -45t-18 -45t-44 -18t-44 18t-18 45t18 45t44 18z" />
    <glyph glyph-name="slash" unicode="/" horiz-adv-x="628" 
d="M621 780l-523 -901h-91l523 901h91z" />
    <glyph glyph-name="zero" unicode="0" horiz-adv-x="663" 
d="M331 544h-2q117 0 200 -81t83 -197t-82 -197t-201 -81q-117 0 -198 81t-81 197t81 197t200 81zM329 473q-87 0 -144 -60t-57 -148t57 -148t144 -60t144 60t57 148t-57 148t-144 60z" />
    <glyph glyph-name="one" unicode="1" horiz-adv-x="492" 
d="M308 533v-465h141v-68h-371v68h152v394h-142v71h220z" />
    <glyph glyph-name="two" unicode="2" horiz-adv-x="553" 
d="M228 68h270v-68h-455v20l196 144q79 57 108 90q43 47 43 101q0 49 -32 84t-87 35q-57 0 -90 -36t-33 -84q0 -18 6 -52h-76q-8 30 -8 57q0 73 57 129q56 55 148 55q85 0 141 -51t56 -132q0 -70 -42 -123q-41 -52 -122 -111z" />
    <glyph glyph-name="three" unicode="3" horiz-adv-x="518" 
d="M275 289v-3q76 -7 133 -60q57 -52 57 -141q0 -98 -69 -158t-165 -60q-76 0 -134 38q-57 37 -90 98l55 40q69 -105 168 -105q67 0 111 41t44 107q0 65 -45 101t-124 36h-60v23l168 216h-273v71h397v-23z" />
    <glyph glyph-name="four" unicode="4" horiz-adv-x="543" 
d="M527 68v-68h-97v-121h-77v121h-331v23l213 510h81l-196 -465h233v222h77v-222h97z" />
    <glyph glyph-name="five" unicode="5" horiz-adv-x="542" 
d="M263 291l-2 -4q95 0 160 -52q66 -53 66 -151q0 -99 -69 -159t-165 -60q-79 0 -138 38q-57 37 -91 98l54 40q68 -105 174 -105q68 0 111 42q44 42 44 108q0 65 -44 101q-43 36 -123 36h-150v310h342v-71h-265v-179q51 8 96 8z" />
    <glyph glyph-name="six" unicode="6" horiz-adv-x="551" 
d="M285 427l2 1q89 0 152 -63t63 -154q0 -95 -66 -159q-65 -64 -160 -64t-160 64q-66 64 -66 159q0 8 2 24q1 8 3 22q1 10 6 22q1 4 3.5 10.5t3.5 9.5q4 11 10 21l6.5 11t4.5 8q3 6 12 21l12 20l14 21l14 21l164 238h93l-168 -242q24 9 55 9zM277 61v-3q63 0 105 44t42 108
t-42 107q-42 44 -105 44t-105 -43q-42 -44 -42 -106q0 -64 42 -108q42 -43 105 -43z" />
    <glyph glyph-name="seven" unicode="7" horiz-adv-x="501" 
d="M35 533h441v-23l-332 -631h-84l309 583h-334v71z" />
    <glyph glyph-name="eight" unicode="8" horiz-adv-x="578" 
d="M364 345v-1q156 -57 156 -177q0 -79 -63 -129q-62 -49 -167 -49q-104 0 -169 50q-64 49 -64 129q0 119 156 176q-125 59 -125 162q0 76 57 120q58 44 144 44q87 0 143 -43q57 -43 57 -120q0 -106 -125 -162zM164 503h1q0 -43 30 -70q29 -26 93 -52q64 26 93 52
q30 27 30 69q0 47 -34 74q-35 27 -88 27q-55 0 -90 -27t-35 -73zM290 55v-2q73 0 113 32q39 31 39 84q0 52 -39 82q-41 31 -115 56q-76 -26 -114 -55q-39 -30 -39 -82t41 -84q40 -31 114 -31z" />
    <glyph glyph-name="nine" unicode="9" horiz-adv-x="551" 
d="M276 544l-3 -2q95 0 159 -63q65 -63 65 -158q0 -39 -13 -75q-14 -39 -28 -60l-49 -74l-161 -233h-91l165 237q-26 -9 -57 -9q-88 0 -151 63t-63 153q0 95 66 158t161 63zM272 170l1 -1q63 0 105 44q42 43 42 108t-42 108t-106 43q-62 0 -105 -43t-43 -108t43 -108
t105 -43z" />
    <glyph glyph-name="colon" unicode=":" horiz-adv-x="270" 
d="M135 492q26 0 44 -18t18 -45q0 -28 -18 -46t-44 -18t-44 18t-18 46q0 27 18 45t44 18zM135 115q26 0 44 -18t18 -45t-18 -45t-44 -18t-44 18t-18 45t18 45t44 18z" />
    <glyph glyph-name="semicolon" unicode=";" horiz-adv-x="270" 
d="M135 492q26 0 44 -18t18 -45q0 -28 -18 -46t-44 -18t-44 18t-18 46q0 27 18 45t44 18zM189 90l-41 -269h-63l13 269h91z" />
    <glyph glyph-name="less" unicode="&#x3c;" 
d="M490 514v-72l-302 -127l302 -126v-73l-438 187v24z" />
    <glyph glyph-name="equal" unicode="=" 
d="M494 453v-69h-428v69h428zM494 245v-68h-428v68h428z" />
    <glyph glyph-name="greater" unicode="&#x3e;" 
d="M70 514l439 -187v-24l-439 -187v73l302 126l-302 127v72z" />
    <glyph glyph-name="question" unicode="?" horiz-adv-x="445" 
d="M224 671l2 -1q74 0 125 -48t51 -120q0 -46 -24 -82q-23 -35 -72 -79q-36 -34 -39 -37q-11 -11 -22 -30q-10 -17 -10 -34q0 -7 5 -32h-67q-10 19 -10 44q0 24 12 47q12 22 26 38q11 13 41 39q43 40 60 65t17 58q0 44 -28 72q-29 29 -69 29q-82 0 -112 -96l-65 27
q20 68 66 104q47 36 113 36zM212 114q27 0 45 -18t18 -45t-18 -45t-45 -18q-26 0 -45 18t-19 45t19 45t45 18z" />
    <glyph glyph-name="at" unicode="@" horiz-adv-x="922" 
d="M473 657h-3q170 0 286 -108q115 -108 115 -263q0 -117 -71 -183q-70 -66 -185 -66h-24v65q-23 -37 -63 -56q-42 -20 -88 -20q-85 0 -142 61t-57 153t57 152t144 60q96 0 145 -66v58h72v-339q66 6 105 53q39 46 39 129q0 131 -92 218q-91 87 -237 87q-154 0 -254 -97
q-101 -98 -101 -247q0 -148 101 -246t249 -98q70 0 130 22l14 -60q-69 -27 -151 -27q-174 0 -294 117t-120 291q0 176 123 293t302 117zM452 96l-2 1q52 0 91 36t39 107q0 69 -38 105t-90 36q-58 0 -95 -40q-38 -41 -38 -103q0 -61 38 -102q37 -40 95 -40z" />
    <glyph glyph-name="A" unicode="A" horiz-adv-x="663" 
d="M549 0l-57 134h-322l-57 -134h-82l286 671h29l286 -671h-83zM463 204l-132 324l-132 -324h264z" />
    <glyph glyph-name="B" unicode="B" horiz-adv-x="616" 
d="M442 363l1 -1q62 -18 96 -64t34 -109q0 -85 -57 -137q-58 -53 -153 -53h-272v660h227q85 0 137 -47q51 -46 51 -120q0 -83 -64 -129zM311 589l-141 1v-205h141q57 0 86 28q30 29 30 75q0 47 -30 74t-86 27zM356 70q65 0 101 33t36 89t-36 89t-101 33h-186v-244h186z" />
    <glyph glyph-name="C" unicode="C" horiz-adv-x="715" 
d="M391 671l-2 -2q88 0 160 -39q73 -39 114 -103l-58 -46q-80 116 -216 116q-112 0 -187 -77q-75 -76 -75 -192t75 -192q75 -77 188 -77q136 0 216 116l58 -46q-40 -63 -113 -103q-72 -39 -160 -39q-144 0 -243 99t-99 243t99 243t243 99z" />
    <glyph glyph-name="D" unicode="D" horiz-adv-x="694" 
d="M287 660v-1q165 0 262 -91t97 -237q0 -145 -97 -238t-262 -93h-196v660h196zM286 589l-116 -2v-520h117q128 0 204 74q75 74 75 188q0 116 -75 188q-77 73 -205 72z" />
    <glyph glyph-name="E" unicode="E" horiz-adv-x="566" 
d="M514 660v-70h-345v-202h264v-70h-264v-248h357v-70h-435v660h423z" />
    <glyph glyph-name="F" unicode="F" horiz-adv-x="524" 
d="M504 660v-70h-335v-227h278v-71h-278v-292h-78v660h413z" />
    <glyph glyph-name="G" unicode="G" horiz-adv-x="746" 
d="M391 671l1 -2q84 0 153 -36q70 -37 116 -100l-59 -46q-79 109 -210 109q-115 0 -188 -76q-74 -77 -74 -192q0 -116 75 -194t191 -78q71 0 129 32q56 31 91 86v89h-225v70h303v-176q-43 -78 -124 -124q-80 -46 -178 -46q-145 0 -244 99t-99 243t99 243t243 99z" />
    <glyph glyph-name="H" unicode="H" horiz-adv-x="708" 
d="M617 660v-660h-78v318h-370v-318h-78v660h78v-272h370v272h78z" />
    <glyph glyph-name="I" unicode="I" horiz-adv-x="259" 
d="M169 660v-660h-78v660h78z" />
    <glyph glyph-name="J" unicode="J" horiz-adv-x="373" 
d="M283 660v-507q0 -83 -46 -123t-126 -40q-37 0 -87 11v67q40 -6 72 -6q52 0 81 21q28 21 28 77v500h78z" />
    <glyph glyph-name="K" unicode="K" horiz-adv-x="633" 
d="M91 0v660h78v-660h-78zM279 354l323 -354h-99l-325 354l297 306h100z" />
    <glyph glyph-name="L" unicode="L" horiz-adv-x="506" 
d="M169 660v-590h313v-70h-391v660h78z" />
    <glyph glyph-name="M" unicode="M" horiz-adv-x="789" 
d="M671 671h27v-671h-78v474l-211 -287h-28l-212 288v-475h-78v671h28l275 -382z" />
    <glyph glyph-name="N" unicode="N" horiz-adv-x="708" 
d="M539 660h78v-671h-28l-420 507v-496h-78v671h28l420 -508v497z" />
    <glyph glyph-name="O" unicode="O" horiz-adv-x="781" 
d="M390 671h1q143 0 243 -99t100 -243t-100 -243t-243 -99q-144 0 -243 99t-99 243t99 243t242 99zM392 599h-1q-112 0 -187 -76q-75 -77 -75 -192t75 -192t188 -77q112 0 187 77t75 192t-75 191q-75 77 -187 77z" />
    <glyph glyph-name="P" unicode="P" horiz-adv-x="573" 
d="M323 660v1q96 0 153 -54t57 -138q0 -85 -57 -139t-153 -54h-154v-276h-78v660h232zM321 591h-154v-244h152q63 0 98 33t35 89q0 54 -34 88t-97 34z" />
    <glyph glyph-name="Q" unicode="Q" horiz-adv-x="781" 
d="M944 -136v-1q34 0 96 5v-62q-53 -10 -106 -10q-260 0 -414 217q-60 -25 -129 -25q-144 0 -243 99t-99 243t99 243t242 99q142 0 243 -99q100 -99 100 -243q0 -89 -40 -162q-41 -74 -109 -120q139 -184 360 -184zM129 330v-1q0 -115 75 -192t187 -77t187 77t75 192
t-75 192t-187 77t-187 -76t-75 -192z" />
    <glyph glyph-name="R" unicode="R" horiz-adv-x="622" 
d="M606 0h-89l-205 277h-141v-277h-78v660h232q96 0 153 -54t57 -138q0 -68 -37 -115t-102 -67zM171 590l-1 -243h151q65 0 99 33q35 33 35 88q0 53 -35 88q-34 34 -98 34h-151z" />
    <glyph glyph-name="S" unicode="S" horiz-adv-x="558" 
d="M282 671v-1q67 0 120 -31q55 -32 86 -81l-57 -43q-56 83 -151 83q-50 0 -84 -25t-34 -72q0 -24 7 -39q8 -17 25 -30q17 -12 32 -21l42 -21l73 -35q80 -38 116 -79q38 -43 38 -105q0 -82 -60 -133t-153 -51q-76 0 -140 38q-63 37 -102 104l58 43q74 -113 183 -113
q59 0 96 30t37 80q0 43 -25 65t-84 51l-74 35q-67 31 -109 75q-39 41 -39 103q0 77 58 125q59 48 141 48z" />
    <glyph glyph-name="T" unicode="T" horiz-adv-x="581" 
d="M562 660v-70h-233v-590h-78v590h-232v70h543z" />
    <glyph glyph-name="U" unicode="U" horiz-adv-x="689" 
d="M606 660l1 -399q0 -128 -73 -200q-74 -72 -189 -72q-117 0 -190 72t-73 201v398h78v-403q0 -97 51 -146q52 -50 134 -50q80 0 132 50q51 50 51 146v403h78z" />
    <glyph glyph-name="V" unicode="V" horiz-adv-x="663" 
d="M546 660h86l-286 -671h-29l-286 671h86l215 -516z" />
    <glyph glyph-name="W" unicode="W" horiz-adv-x="1066" 
d="M935 660h85l-250 -671h-28l-209 524l-209 -524h-28l-251 671h86l182 -503l206 514h28l206 -514z" />
    <glyph glyph-name="X" unicode="X" horiz-adv-x="599" 
d="M569 0h-91l-178 272l-179 -272h-91l227 338l-211 322h90l165 -257l162 257h90l-208 -323z" />
    <glyph glyph-name="Y" unicode="Y" horiz-adv-x="616" 
d="M576 660l-229 -386v-274h-78v274l-229 386h88l180 -310l181 310h87z" />
    <glyph glyph-name="Z" unicode="Z" horiz-adv-x="589" 
d="M154 70h401v-70h-523v23l399 567h-356v70h479v-23z" />
    <glyph glyph-name="bracketleft" unicode="[" horiz-adv-x="343" 
d="M292 729v-68h-116v-722h116v-70h-191v860h191z" />
    <glyph glyph-name="backslash" unicode="\" horiz-adv-x="628" 
d="M7 780h91l523 -901h-91z" />
    <glyph glyph-name="bracketright" unicode="]" horiz-adv-x="343" 
d="M241 729v-860h-191v70h117v722h-117v68h191z" />
    <glyph glyph-name="asciicircum" unicode="^" horiz-adv-x="512" 
d="M452 284h-80l-116 247l-116 -247h-80l182 386h28z" />
    <glyph glyph-name="underscore" unicode="_" horiz-adv-x="506" 
d="M462 -75v-65h-419v65h419z" />
    <glyph glyph-name="grave" unicode="`" horiz-adv-x="239" 
d="M124 780l85 -214h-59l-120 200v14h94z" />
    <glyph glyph-name="a" unicode="a" horiz-adv-x="528" 
d="M260 498l2 -1q86 0 138 -51t52 -147v-300h-72v63q-56 -74 -165 -74q-76 0 -123 37q-48 37 -48 100q0 61 48 99q47 37 127 37h154v42q0 61 -31 92q-32 32 -87 32q-82 0 -142 -78l-51 42q68 107 198 107zM226 52q62 0 105 39q44 39 44 95v12h-145q-105 0 -105 -69
q0 -37 29 -57t72 -20z" />
    <glyph glyph-name="b" unicode="b" horiz-adv-x="632" 
d="M341 498h-3q104 0 173 -73t69 -183q0 -107 -68 -181q-67 -73 -171 -73q-57 0 -107 24t-78 66v-78h-72v750h77v-335q28 38 77 61q47 22 103 22zM327 60l-2 -2q75 0 124 52t49 132t-49 132t-123 52q-70 0 -120 -47q-49 -46 -49 -137q0 -89 50 -136q49 -46 120 -46z" />
    <glyph glyph-name="c" unicode="c" horiz-adv-x="551" 
d="M305 498h-1q131 0 201 -106l-55 -44q-58 79 -144 79q-76 0 -127 -53q-51 -52 -51 -129q0 -79 51 -131q51 -53 127 -53q86 0 144 78l55 -43q-70 -106 -200 -106q-106 0 -180 74t-74 180t74 180t180 74z" />
    <glyph glyph-name="d" unicode="d" horiz-adv-x="632" 
d="M471 750h78v-750h-73v78q-28 -42 -78 -66t-108 -24q-103 0 -172 73t-69 181q0 110 69 183t173 73q56 0 103 -22q49 -23 77 -61v335zM303 60h-1q70 0 120 47t50 137t-50 137t-120 47q-74 0 -123 -52t-49 -132t49 -132t124 -52z" />
    <glyph glyph-name="e" unicode="e" horiz-adv-x="571" 
d="M521 278l-1 1q0 -31 -6 -58h-384q8 -73 57 -116q50 -44 122 -44q83 0 149 66l45 -52q-79 -85 -195 -85q-110 0 -183 73q-74 74 -74 181q0 106 72 180t177 74q94 0 158 -62q63 -61 63 -158zM296 429l1 1q-61 0 -106 -39t-57 -102h308q-2 65 -43 102q-43 38 -103 38z" />
    <glyph glyph-name="f" unicode="f" horiz-adv-x="303" 
d="M276 691l2 1q-49 0 -76 -21t-27 -73v-111h122v-69h-122v-418h-77v418h-70v69h70v116q0 80 44 119t117 39q30 0 60 -8v-65q-24 3 -43 3z" />
    <glyph glyph-name="g" unicode="g" horiz-adv-x="637" 
d="M480 487l69 -4v-440q0 -111 -64 -174t-172 -63q-135 0 -229 94l45 54q89 -77 183 -77q76 0 120 42q43 42 43 121v43q-31 -38 -78 -59q-48 -21 -103 -21q-104 0 -171 70q-68 71 -68 177t68 177t171 71q58 0 108 -24t78 -66v79zM303 72v-1q71 0 120 45q50 45 50 131
q0 85 -50 129t-120 44q-75 0 -124 -49t-49 -126t49 -125t124 -48z" />
    <glyph glyph-name="h" unicode="h" horiz-adv-x="566" 
d="M308 498l-1 -1q84 0 132 -53q48 -52 48 -138v-306h-77v296q0 59 -33 95t-88 36q-56 0 -92 -37q-36 -38 -36 -94v-296h-77v750h77v-318q53 66 147 66z" />
    <glyph glyph-name="i" unicode="i" horiz-adv-x="246" 
d="M124 729v-1q23 0 39 -16q17 -17 17 -39q0 -24 -16 -40t-40 -16q-25 0 -41 16q-17 17 -17 40q0 22 17 39t41 17zM162 486v-487h-77v487h77z" />
    <glyph glyph-name="j" unicode="j" horiz-adv-x="246" 
d="M124 729v-1q23 0 39 -16q17 -17 17 -39q0 -24 -16 -40t-40 -16q-25 0 -41 16q-17 17 -17 40q0 22 17 39t41 17zM162 486v-520q0 -80 -43 -119t-117 -39q-32 0 -62 8v65q26 -3 45 -3q100 0 100 93v515h77z" />
    <glyph glyph-name="k" unicode="k" horiz-adv-x="506" 
d="M85 0v750h77v-750h-77zM263 273l230 -273h-99l-224 274l203 213h101z" />
    <glyph glyph-name="l" unicode="l" horiz-adv-x="246" 
d="M162 750v-750h-77v750h77z" />
    <glyph glyph-name="m" unicode="m" horiz-adv-x="874" 
d="M619 498l-4 -2q85 0 131 -52q47 -53 47 -139v-306h-77v296q0 59 -30 95t-84 36q-56 0 -90 -36q-35 -37 -35 -88v-303h-77v296q0 60 -31 95q-31 36 -84 36q-55 0 -90 -36q-34 -35 -34 -94v-296h-77v487h72v-51q54 62 145 62q107 0 150 -84q59 84 168 84z" />
    <glyph glyph-name="n" unicode="n" horiz-adv-x="566" 
d="M307 498v-2q85 0 133 -53t48 -138v-306h-77v297q0 58 -33 94t-88 36q-56 0 -92 -36t-36 -93v-297h-77v487h72v-53q54 64 150 64z" />
    <glyph glyph-name="o" unicode="o" horiz-adv-x="610" 
d="M305 498v-2q107 0 181 -73q75 -73 75 -180t-75 -180q-77 -75 -181 -74q-105 0 -180 75q-74 74 -74 180t74 180t180 74zM305 425l1 -1q-76 0 -127 -53q-49 -50 -49 -131q2 -79 50 -130q49 -52 125 -52q75 0 126 53t51 129q0 80 -51 132q-51 53 -126 53z" />
    <glyph glyph-name="p" unicode="p" horiz-adv-x="632" 
d="M341 498l-3 1q104 0 173 -73q69 -74 69 -181q0 -109 -69 -183q-69 -73 -172 -73q-54 0 -102 21q-49 21 -77 60v-251h-77v667h72v-78q29 42 78 66t108 24zM327 61l-1 -2q74 0 123 52q50 53 50 132q0 80 -49 132t-124 52q-71 0 -120 -46t-49 -136t50 -137t120 -47z" />
    <glyph glyph-name="q" unicode="q" horiz-adv-x="632" 
d="M475 487l72 -2v-667h-77v251q-30 -39 -78 -60t-102 -21q-103 0 -172 73t-69 183q0 108 69 181t173 73q59 0 107 -24t77 -65v78zM301 58q70 0 120 47t50 137t-50 137t-120 47q-75 0 -124 -52t-49 -132q0 -79 50 -132q49 -52 123 -52z" />
    <glyph glyph-name="r" unicode="r" horiz-adv-x="362" 
d="M308 491q19 0 36 -4v-68h-29q-62 0 -108 -38q-45 -37 -45 -105v-276h-77v487h72v-70q56 74 151 74z" />
    <glyph glyph-name="s" unicode="s" horiz-adv-x="454" 
d="M232 498l-2 1q100 0 162 -77l-47 -48q-53 54 -120 54q-36 0 -58 -16t-22 -45q0 -24 18 -39t61 -33l45 -19q69 -29 98 -61q30 -33 30 -82q0 -68 -49 -105t-121 -37q-118 0 -189 95l49 51q71 -75 140 -75q40 0 67 18t27 50q0 29 -20 44q-14 11 -65 33l-47 20q-60 25 -91 56
q-30 30 -30 79q0 64 47 100t117 36z" />
    <glyph glyph-name="t" unicode="t" horiz-adv-x="381" 
d="M286 59l-2 1q28 0 66 6v-65q-49 -11 -81 -11q-77 0 -120 39q-44 39 -44 119v271h-82v69h82v133h77v-133h152v-69h-152v-266q0 -52 27 -73t77 -21z" />
    <glyph glyph-name="u" unicode="u" 
d="M482 487l-3 -296q-2 -93 -57 -148q-57 -57 -143 -57q-87 0 -144 57t-57 149v293h76v-298q0 -59 36 -93q37 -35 90 -35t89 36t36 94v298h77z" />
    <glyph glyph-name="v" unicode="v" horiz-adv-x="539" 
d="M431 487h82l-229 -498h-28l-230 498h82l162 -367z" />
    <glyph glyph-name="w" unicode="w" horiz-adv-x="851" 
d="M742 487h82l-205 -498h-28l-166 368l-165 -368h-27l-207 498h82l140 -360l163 371h29l164 -369z" />
    <glyph glyph-name="x" unicode="x" horiz-adv-x="497" 
d="M476 0h-89l-139 197l-138 -197h-90l184 254l-169 233h89l124 -177l125 177h89l-171 -233z" />
    <glyph glyph-name="y" unicode="y" horiz-adv-x="539" 
d="M431 487l81 1l-240 -555q-54 -123 -165 -123q-39 0 -75 10v65q42 -5 59 -5q37 0 65 17q26 16 46 60l26 59l-202 471h83l161 -388z" />
    <glyph glyph-name="z" unicode="z" horiz-adv-x="454" 
d="M145 68h282v-68h-400v23l278 395h-255v69h374v-23z" />
    <glyph glyph-name="braceleft" unicode="{" horiz-adv-x="397" 
d="M297 661v-1q-78 0 -78 -84q0 -26 12 -97t12 -96q0 -61 -53 -85q53 -24 53 -85q0 -26 -12 -95t-12 -97q0 -84 78 -84h49v-68h-63q-138 0 -138 133q0 39 13 111t13 94q0 58 -61 58h-57v68h57q61 0 61 58q0 22 -13 94t-13 111q0 133 138 133h63v-68h-49z" />
    <glyph glyph-name="bar" unicode="|" horiz-adv-x="332" 
d="M199 780v-901h-66v901h66z" />
    <glyph glyph-name="braceright" unicode="}" horiz-adv-x="397" 
d="M287 333h57v-68h-57q-61 0 -61 -58q0 -19 12 -94t12 -111q0 -133 -137 -133h-64v68h50q78 0 78 84q0 29 -12 98t-12 95q0 61 53 85q-53 24 -53 85q0 26 12 96t12 97q0 84 -78 84h-50v68h64q137 0 137 -133q0 -36 -12 -111t-12 -94q0 -58 61 -58z" />
    <glyph glyph-name="asciitilde" unicode="~" 
d="M156 403l-2 -3q40 0 84 -27l94 -57q40 -25 62 -25q18 0 28 12q10 11 10 32v19h63q2 -10 2 -27q0 -45 -27 -75t-70 -30q-39 0 -83 26l-94 57q-43 26 -61 26t-28 -12q-10 -11 -10 -32v-19h-63v12v16q0 43 26 75t69 32z" />
    <glyph glyph-name="exclamdown" unicode="&#xa1;" horiz-adv-x="305" 
d="M152 498q27 0 45 -18t18 -45q0 -28 -18 -46t-45 -18q-26 0 -44 18t-18 46q0 27 18 45t44 18zM184 278l15 -458h-94l15 458h64z" />
    <glyph glyph-name="cent" unicode="&#xa2;" horiz-adv-x="554" 
d="M317 146l-1 -1q70 11 120 78l53 -44q-29 -44 -74 -71q-46 -28 -99 -32v-169h-77v172q-89 17 -146 87t-57 163t57 162t146 86v173h77v-169q112 -12 174 -105l-53 -43q-49 65 -120 76v-363zM114 327h-1q0 -62 35 -111t90 -65v351q-56 -17 -90 -64t-34 -111z" />
    <glyph glyph-name="sterling" unicode="&#xa3;" horiz-adv-x="529" 
d="M268 212l-1 2q0 -86 -60 -144h276v-68h-427v20q133 82 133 191l-3 33h-120v68h96l-21 41l-22 45q-7 16 -15 44q-7 25 -7 53q0 78 54 126t137 48q76 0 129 -42t75 -120l-69 -26q-37 117 -132 117q-54 0 -84 -33t-30 -82q0 -29 10 -55q11 -27 30 -63t27 -54h160v-68h-139
q3 -17 3 -33z" />
    <glyph glyph-name="currency" unicode="&#xa4;" horiz-adv-x="643" 
d="M554 330l1 -1q0 -77 -48 -138l110 -110l-46 -46l-112 111q-61 -43 -138 -43q-74 0 -135 43l-111 -111l-47 46l110 111q-47 59 -47 138q0 78 47 139l-110 110l47 46l111 -111q58 42 135 42q75 0 136 -42l112 111l47 -46l-110 -110q48 -61 48 -139zM321 174l-1 -1
q66 0 111 45t45 110q0 67 -45 112t-109 45q-66 0 -109 -45q-43 -44 -43 -112q0 -67 43 -110q44 -44 108 -44z" />
    <glyph glyph-name="yen" unicode="&#xa5;" horiz-adv-x="552" 
d="M544 660l-211 -300h178v-68h-195v-92h195v-69h-195v-131h-78v131h-194v69h194v92h-194v68h176l-211 300h88l180 -259l180 259h87z" />
    <glyph glyph-name="brokenbar" unicode="&#xa6;" horiz-adv-x="332" 
d="M199 780v-300h-66v300h66zM199 179v-300h-66v300h66z" />
    <glyph glyph-name="section" unicode="&#xa7;" horiz-adv-x="579" 
d="M543 164l-5 2q0 -50 -33 -84q-33 -35 -91 -45v-13q0 -62 -43 -102q-44 -41 -117 -41q-103 0 -170 88l57 47q54 -63 117 -63q36 0 57 18t21 51q0 12 -1 17t-5 15t-6 14q-4 8 -10 14q-9 9 -11 12q-4 7 -13 14q-10 9 -15 12l-3 3t-6 5t-7 6l-16 14l-106 87q-53 43 -79 78
q-25 34 -25 78q0 50 33 83t92 44v6v8q0 60 44 101t117 41q103 0 170 -88l-57 -46q-56 63 -117 63q-36 0 -57 -18t-21 -50q0 -10 3 -19q2 -6 6 -16q3 -8 10 -16q8 -9 12 -15q3 -4 15 -16l15 -15q4 -4 18 -15t18 -15l105 -88q58 -50 79 -78q25 -34 25 -78zM394 100h1
q31 9 48 24t17 42q0 23 -15 41q-14 17 -62 57l-106 88q-81 68 -102 105q-66 -17 -66 -66q0 -23 15 -41q14 -17 62 -57l105 -87q81 -67 103 -106z" />
    <glyph glyph-name="dieresis" unicode="&#xa8;" horiz-adv-x="381" 
d="M85 727v-3q23 0 39 -15t16 -38q0 -22 -16 -37t-39 -15q-22 0 -38 16q-17 17 -17 37q0 22 17 39q16 16 38 16zM297 724v-3q23 0 39 -15t16 -38q0 -22 -16 -37t-39 -15q-22 0 -38 16q-17 17 -17 37q0 22 17 39q16 16 38 16z" />
    <glyph glyph-name="copyright" unicode="&#xa9;" horiz-adv-x="781" 
d="M390 671h-2q142 0 242 -99q101 -99 101 -243t-101 -243q-100 -99 -242 -99q-140 0 -241 99q-100 99 -100 243t101 243q100 99 242 99zM388 616v2q-118 0 -201 -81q-82 -81 -82 -205t82 -205q83 -81 201 -81q117 0 200 81t83 204t-82 204q-83 81 -201 81zM399 524l-3 -3
q93 0 151 -78l-49 -42q-42 55 -101 55q-53 0 -87 -36q-34 -35 -34 -90q0 -52 35 -89q35 -36 86 -36q61 0 102 54l49 -42q-59 -77 -152 -77q-80 0 -135 55t-55 136q0 82 56 138q55 55 137 55z" />
    <glyph glyph-name="ordfeminine" unicode="&#xaa;" horiz-adv-x="364" 
d="M179 560v-1q59 0 93 -33t34 -95v-188h-61v31q-36 -38 -96 -38q-49 0 -78 25q-30 25 -30 66q0 42 30 66t83 24h85v19q0 65 -67 65q-41 0 -85 -38l-34 43q54 54 126 54zM164 289l2 -1q33 0 53 19q21 19 21 51v10h-75q-54 0 -54 -39q0 -19 15 -30q14 -10 38 -10z" />
    <glyph glyph-name="guillemotleft" unicode="&#xab;" horiz-adv-x="504" 
d="M414 471l50 -45l-141 -155l141 -157l-50 -43l-178 188v23zM216 471l50 -45l-141 -155l141 -157l-50 -43l-178 188v23z" />
    <glyph glyph-name="logicalnot" unicode="&#xac;" 
d="M473 349v-253h-77v185h-341v68h418z" />
    <glyph glyph-name="uni00AD" unicode="&#xad;" horiz-adv-x="346" 
d="M292 347v-65h-239v65h239z" />
    <glyph glyph-name="registered" unicode="&#xae;" horiz-adv-x="570" 
d="M286 683l-1 -1q101 0 171 -72q71 -73 71 -175q0 -103 -70 -174q-71 -72 -171 -72t-172 72t-72 174q0 104 72 176t172 72zM285 237l-1 -1q80 0 135 57q56 58 56 141q0 82 -56 140q-55 57 -135 57t-135 -57q-55 -56 -55 -140q0 -82 56 -140q56 -57 135 -57zM380 475v-2
q0 -46 -41 -69l70 -97h-65l-64 84h-35v-84h-58v251h101q40 0 66 -23t26 -60zM245 440l42 1q15 0 24 9t9 23q0 15 -9 24t-24 9h-42v-66z" />
    <glyph glyph-name="macron" unicode="&#xaf;" horiz-adv-x="335" 
d="M305 704v-62h-275v62h275z" />
    <glyph glyph-name="degree" unicode="&#xb0;" horiz-adv-x="360" 
d="M180 671h-2q62 0 105 -43q44 -44 44 -105q0 -62 -43 -105t-105 -43t-105 43t-43 105q0 61 44 105q43 43 105 43zM178 610q-35 0 -59 -25t-24 -61t24 -61t59 -25q36 0 60 25t24 61t-24 61t-60 25z" />
    <glyph glyph-name="plusminus" unicode="&#xb1;" 
d="M319 536v-158h175v-68h-175v-160h-77v160h-176v68h176v158h77zM494 68v-68h-428v68h428z" />
    <glyph glyph-name="uni00B2" unicode="&#xb2;" horiz-adv-x="369" 
d="M154 424l176 -2v-60h-294v15l148 159q32 35 48 62q15 26 15 53q0 32 -19 52q-20 21 -51 21t-51 -21q-19 -20 -19 -55l2 -32h-65q-4 15 -4 36q0 52 38 93q37 40 99 40q59 0 98 -36t39 -92q0 -43 -22 -77q-24 -36 -67 -81z" />
    <glyph glyph-name="uni00B3" unicode="&#xb3;" horiz-adv-x="354" 
d="M205 626l-4 1q44 -9 77 -42t33 -87q0 -63 -43 -102q-44 -39 -106 -39q-98 0 -144 90l46 33q38 -62 96 -62q38 0 61 22q24 22 24 58q0 34 -24 54q-23 19 -70 19h-41v18l97 131h-159v60h257v-19z" />
    <glyph glyph-name="acute" unicode="&#xb4;" horiz-adv-x="239" 
d="M209 780v-14l-120 -200h-59l85 214h94z" />
    <glyph glyph-name="uni00B5" unicode="&#xb5;" horiz-adv-x="592" 
d="M542 62h-2q10 0 30 3v-65q-28 -7 -52 -7q-70 0 -94 59q-48 -63 -134 -63q-83 0 -129 58v-227h-77v667h77v-291q0 -60 35 -98t89 -38t90 38q36 37 36 98v291h77v-351q0 -74 54 -74z" />
    <glyph glyph-name="paragraph" unicode="&#xb6;" horiz-adv-x="564" 
d="M337 660v-422h-60q-103 0 -171 59q-67 58 -67 153q0 96 67 153q68 57 171 57h60zM474 662v-685q0 -85 -44 -126q-43 -40 -122 -40q-34 0 -80 11v66q50 -6 65 -6q49 0 77 23q27 23 27 78v679h77z" />
    <glyph glyph-name="periodcentered" unicode="&#xb7;" horiz-adv-x="270" 
d="M135 377q26 0 44 -18t18 -45q0 -28 -18 -46t-44 -18t-44 18t-18 46q0 27 18 45t44 18z" />
    <glyph glyph-name="cedilla" unicode="&#xb8;" horiz-adv-x="260" 
d="M164 26h2q66 -32 66 -102q0 -49 -36 -82t-96 -33q-36 0 -69 10v55q28 -4 56 -4q36 0 56 16q21 16 21 49q0 39 -33 74z" />
    <glyph glyph-name="uni00B9" unicode="&#xb9;" horiz-adv-x="353" 
d="M219 780v-356h90v-60h-262v60h105v296h-100v60h167z" />
    <glyph glyph-name="ordmasculine" unicode="&#xba;" horiz-adv-x="407" 
d="M203 559l-1 -2q69 0 116 -46q48 -47 48 -114t-48 -114q-47 -46 -116 -46q-66 0 -115 47q-48 46 -48 114t48 114q49 47 116 47zM202 498l-1 -2q-43 0 -70 -28t-27 -73q0 -43 27 -72t70 -29q44 0 71 29t27 72q0 45 -27 74t-70 29z" />
    <glyph glyph-name="guillemotright" unicode="&#xbb;" horiz-adv-x="504" 
d="M288 471l177 -189v-23l-177 -188l-51 43l141 157l-141 155zM90 471l177 -189v-23l-177 -188l-51 43l142 157l-142 155z" />
    <glyph glyph-name="onequarter" unicode="&#xbc;" horiz-adv-x="886" 
d="M309 304v-60h-262v60h105v296h-100v60h167v-356h90zM626 660h69l-378 -660h-68zM870 128v-55h-56v-73h-61v73h-207v18l130 325h67l-116 -288h126v130h61v-130h56z" />
    <glyph glyph-name="onehalf" unicode="&#xbd;" horiz-adv-x="924" 
d="M309 304v-60h-262v60h105v296h-100v60h167v-356h90zM626 660h69l-378 -660h-68zM709 60l176 -2v-60h-294v15l148 159q32 35 48 62q15 26 15 53q0 32 -19 52q-19 21 -51 21t-51 -21q-19 -20 -19 -55l2 -32h-65q-4 15 -4 36q0 52 38 93q37 40 99 40q59 0 98 -36t39 -92
q0 -43 -22 -77q-24 -36 -67 -81z" />
    <glyph glyph-name="threequarters" unicode="&#xbe;" horiz-adv-x="853" 
d="M314 378h-4q0 -63 -43 -102t-106 -39q-97 0 -144 90l46 33q38 -62 96 -62q38 0 61 22q24 22 24 58q0 34 -24 54q-23 19 -70 19h-41v18l97 131h-159v60h257v-19l-100 -136q45 -8 77 -40q33 -33 33 -87zM588 660h69l-378 -660h-68zM832 128v-55h-56v-73h-61v73h-207v18
l130 325h67l-116 -288h126v130h61v-130h56z" />
    <glyph glyph-name="questiondown" unicode="&#xbf;" horiz-adv-x="444" 
d="M233 498q26 0 44 -18t18 -45q0 -28 -18 -46t-44 -18t-44 18t-18 46q0 27 18 45t44 18zM273 278l-5 -1q10 -23 10 -44q0 -25 -13 -48q-13 -24 -27 -39q-16 -17 -39 -38q-43 -40 -61 -67t-18 -61q0 -44 30 -72q31 -29 71 -29q81 0 112 96l64 -27q-19 -67 -66 -103t-111 -36
q-74 0 -125 48t-51 121q0 50 24 86t71 80q36 32 55 56q16 20 16 45q0 17 -4 33h67z" />
    <glyph glyph-name="Agrave" unicode="&#xc0;" horiz-adv-x="663" 
d="M362 724h-58l-121 172v14h94zM549 0l-57 134h-322l-57 -134h-82l286 671h29l286 -671h-83zM463 204l-132 324l-132 -324h264z" />
    <glyph glyph-name="Aacute" unicode="&#xc1;" horiz-adv-x="663" 
d="M482 896l-120 -172h-59l85 186h94v-14zM549 0l-57 134h-322l-57 -134h-82l286 671h29l286 -671h-83zM463 204l-132 324l-132 -324h264z" />
    <glyph glyph-name="Acircumflex" unicode="&#xc2;" horiz-adv-x="663" 
d="M332 832l-110 -108h-61l147 186h48l147 -186h-61zM549 0l-57 134h-322l-57 -134h-82l286 671h29l286 -671h-83zM463 204l-132 324l-132 -324h264z" />
    <glyph glyph-name="Atilde" unicode="&#xc3;" horiz-adv-x="663" 
d="M233 752l-67 1q-2 18 -2 24q0 43 24 72t64 29q33 0 70 -23l34 -22q32 -20 45 -20q29 0 29 37v18h65q1 -5 1 -26q0 -44 -24 -72t-61 -28q-34 0 -73 24l-33 20q-32 20 -42 20q-30 0 -30 -38v-16zM546 1l-57 134h-322l-57 -134h-82l286 671h29l286 -671h-83zM460 205
l-132 324l-132 -324h264z" />
    <glyph glyph-name="Adieresis" unicode="&#xc4;" horiz-adv-x="663" 
d="M215 757l-1 -2q-22 0 -39 15q-16 15 -16 38t17 38q16 15 39 15t39 -15t16 -37t-16 -37t-39 -15zM447 754l-1 -1q-22 0 -39 15q-16 15 -16 38q0 22 17 39q16 16 39 16t39 -16t16 -39q0 -22 -16 -37t-39 -15zM547 -3l-57 134h-322l-57 -134h-82l286 671h29l286 -671h-83z
M461 201l-132 324l-132 -324h264z" />
    <glyph glyph-name="Aring" unicode="&#xc5;" horiz-adv-x="663" 
d="M331 698v-4q-46 0 -78 32t-32 77t32 77t78 32q49 0 80 -31q32 -32 32 -76t-32 -76q-31 -31 -80 -31zM332 853h-2q-22 0 -36 -15q-14 -16 -14 -37q0 -23 15 -36q16 -14 36 -14t36 14q15 13 15 36q0 21 -14 37q-14 15 -36 15zM547 -4l-57 134h-322l-57 -134h-82l286 671h29
l286 -671h-83zM461 200l-132 324l-132 -324h264z" />
    <glyph glyph-name="AE" unicode="&#xc6;" horiz-adv-x="821" 
d="M535 70h246v-70h-314l-23 134h-276l-71 -134h-84l344 660h412v-70h-322l34 -202h208v-70h-196zM377 542l-172 -338h227z" />
    <glyph glyph-name="Ccedilla" unicode="&#xc7;" horiz-adv-x="715" 
d="M392 61h1q136 0 216 116l58 -46q-33 -54 -90 -90q-58 -37 -127 -47q24 -28 24 -69q0 -49 -36 -82t-96 -33q-36 0 -69 10v55q28 -4 56 -4q36 0 56 16q21 17 21 49q0 28 -17 54q-142 1 -241 99q-99 97 -99 240q0 144 99 243t243 99q88 0 160 -39q73 -39 114 -103l-58 -46
q-80 116 -216 116q-112 0 -187 -77q-75 -76 -75 -192t75 -192q75 -77 188 -77z" />
    <glyph glyph-name="Egrave" unicode="&#xc8;" horiz-adv-x="566" 
d="M248 910l85 -186h-58l-121 172v14h94zM514 660v-70h-345v-202h264v-70h-264v-248h357v-70h-435v660h423z" />
    <glyph glyph-name="Eacute" unicode="&#xc9;" horiz-adv-x="566" 
d="M453 910v-14l-120 -172h-59l85 186h94zM514 660v-70h-345v-202h264v-70h-264v-248h357v-70h-435v660h423z" />
    <glyph glyph-name="Ecircumflex" unicode="&#xca;" horiz-adv-x="566" 
d="M303 832l-110 -108h-61l147 186h48l147 -186h-61zM169 70h357v-70h-435v660h423v-70h-345v-202h264v-70h-264v-248z" />
    <glyph glyph-name="Edieresis" unicode="&#xcb;" horiz-adv-x="566" 
d="M186 863l-1 -2q23 0 39 -15t16 -37t-16 -37t-39 -15t-39 15t-16 38t17 38t39 15zM418 861l-1 -1q23 0 39 -16t16 -39q0 -22 -16 -37t-39 -15t-39 15t-16 38q0 22 17 39q16 16 39 16zM512 657v-70h-345v-202h264v-70h-264v-248h357v-70h-435v660h423z" />
    <glyph glyph-name="Igrave" unicode="&#xcc;" horiz-adv-x="259" 
d="M76 910l85 -186h-58l-121 172v14h94zM169 660v-660h-78v660h78z" />
    <glyph glyph-name="Iacute" unicode="&#xcd;" horiz-adv-x="259" 
d="M280 910v-14l-120 -172h-59l85 186h94zM169 660v-660h-78v660h78z" />
    <glyph glyph-name="Icircumflex" unicode="&#xce;" horiz-adv-x="259" 
d="M154 910l147 -186h-61l-110 108l-110 -108h-61l147 186h48zM91 0v660h78v-660h-78z" />
    <glyph glyph-name="Idieresis" unicode="&#xcf;" horiz-adv-x="259" 
d="M14 863l-1 -2q23 0 39 -15t16 -37t-16 -37t-39 -15t-39 15t-16 38t17 38t39 15zM246 861l-1 -1q23 0 39 -16t16 -39q0 -22 -16 -37t-39 -15t-39 15t-16 38q0 22 17 39q16 16 39 16zM167 657v-660h-78v660h78z" />
    <glyph glyph-name="Eth" unicode="&#xd0;" horiz-adv-x="694" 
d="M287 660v-1q165 0 262 -91t97 -237q0 -145 -97 -238t-262 -93h-196v274h-95v66h95v320h196zM286 69l1 -2q128 0 204 74q75 74 75 188q0 116 -75 188t-205 72h-117v-250h130v-66h-130v-204h117z" />
    <glyph glyph-name="Ntilde" unicode="&#xd1;" horiz-adv-x="708" 
d="M255 752l-67 1q-2 18 -2 24q0 43 24 72t64 29q33 0 70 -23l34 -22q32 -20 45 -20q29 0 29 37v18h65q1 -5 1 -26q0 -44 -24 -72t-61 -28q-34 0 -73 24l-33 20q-32 20 -42 20q-30 0 -30 -38v-16zM536 661h78v-671h-28l-420 507v-496h-78v671h28l420 -508v497z" />
    <glyph glyph-name="Ograve" unicode="&#xd2;" horiz-adv-x="781" 
d="M336 910l85 -186h-58l-121 172v14h94zM390 671h1q143 0 243 -99t100 -243t-100 -243t-243 -99q-144 0 -243 99t-99 243t99 243t242 99zM392 599h-1q-112 0 -187 -76q-75 -77 -75 -192t75 -192t188 -77q112 0 187 77t75 192t-75 191q-75 77 -187 77z" />
    <glyph glyph-name="Oacute" unicode="&#xd3;" horiz-adv-x="781" 
d="M541 910v-14l-120 -172h-59l85 186h94zM390 671h1q143 0 243 -99t100 -243t-100 -243t-243 -99q-144 0 -243 99t-99 243t99 243t242 99zM392 599h-1q-112 0 -187 -76q-75 -77 -75 -192t75 -192t188 -77q112 0 187 77t75 192t-75 191q-75 77 -187 77z" />
    <glyph glyph-name="Ocircumflex" unicode="&#xd4;" horiz-adv-x="781" 
d="M391 832l-110 -108h-61l147 186h48l147 -186h-61zM390 671h1q143 0 243 -99t100 -243t-100 -243t-243 -99q-144 0 -243 99t-99 243t99 243t242 99zM392 61h-1q112 0 187 77q75 76 75 192q0 114 -75 191t-187 77t-187 -76t-75 -192t75 -192q75 -77 188 -77z" />
    <glyph glyph-name="Otilde" unicode="&#xd5;" horiz-adv-x="781" 
d="M313 878l-3 1q33 0 70 -23l34 -22q32 -20 45 -20q29 0 29 37v18h65q1 -5 1 -26q0 -43 -24 -72q-24 -28 -61 -28q-34 0 -73 24l-33 20q-32 20 -42 20q-30 0 -30 -38v-16h-64q-2 18 -2 24q0 43 24 72t64 29zM387 672h1q142 0 243 -99q100 -99 100 -243t-100 -243
q-101 -99 -243 -99q-144 0 -243 99t-99 243t99 243t242 99zM389 600h-1q-112 0 -187 -76t-75 -192t75 -192q75 -77 188 -77q112 0 187 77q75 76 75 192q0 115 -75 191q-75 77 -187 77z" />
    <glyph glyph-name="Odieresis" unicode="&#xd6;" horiz-adv-x="781" 
d="M274 863l-1 -2q23 0 39 -15t16 -37t-16 -37t-39 -15t-39 15t-16 38t17 38t39 15zM506 861l-1 -1q23 0 39 -16t16 -39q0 -22 -16 -37t-39 -15t-39 15t-16 38q0 22 17 39q16 16 39 16zM388 668h1q143 0 243 -99t100 -243t-100 -243t-243 -99q-144 0 -243 99t-99 243t99 243
t242 99zM390 596h-1q-112 0 -187 -76t-75 -192t75 -192q75 -77 188 -77q112 0 187 77q75 76 75 192q0 114 -75 191t-187 77z" />
    <glyph glyph-name="multiply" unicode="&#xd7;" 
d="M436 519l47 -47l-156 -156l156 -158l-46 -46l-157 156l-156 -156l-47 46l156 158l-156 156l47 47l156 -156z" />
    <glyph glyph-name="Oslash" unicode="&#xd8;" horiz-adv-x="782" 
d="M739 631l-82 -84q77 -94 77 -217q0 -144 -100 -243t-243 -99q-125 0 -217 76l-83 -84l-48 48l83 83q-77 95 -77 218q0 144 99 243t242 99q125 0 217 -76l84 84zM127 331l-1 -1q0 -95 52 -165l379 379q-73 58 -166 58q-114 0 -189 -78t-75 -193zM655 330l-2 1
q0 94 -52 164l-379 -379q73 -58 168 -58q112 0 189 78q76 77 76 194z" />
    <glyph glyph-name="Ugrave" unicode="&#xd9;" horiz-adv-x="689" 
d="M289 910l85 -186h-58l-121 172v14h94zM606 660l1 -399q0 -128 -73 -200q-74 -72 -189 -72q-117 0 -190 72t-73 201v398h78v-403q0 -97 51 -146q52 -50 134 -50q80 0 132 50q51 50 51 146v403h78z" />
    <glyph glyph-name="Uacute" unicode="&#xda;" horiz-adv-x="689" 
d="M493 910v-14l-120 -172h-59l85 186h94zM606 660l1 -399q0 -128 -73 -200q-74 -72 -189 -72q-117 0 -190 72t-73 201v398h78v-403q0 -97 51 -146q52 -50 134 -50q80 0 132 50q51 50 51 146v403h78z" />
    <glyph glyph-name="Ucircumflex" unicode="&#xdb;" horiz-adv-x="689" 
d="M344 832l-110 -108h-61l147 186h48l147 -186h-61zM528 660l79 -1v-398q0 -128 -73 -200q-74 -72 -189 -72q-117 0 -190 72t-73 201v398h78v-403q0 -97 51 -146q52 -50 134 -50q80 0 132 50q51 50 51 146v403z" />
    <glyph glyph-name="Udieresis" unicode="&#xdc;" horiz-adv-x="689" 
d="M227 863l-1 -2q22 0 39 -15q16 -15 16 -37t-16 -37q-17 -15 -39 -15t-39 15q-16 15 -16 38t17 38q16 15 39 15zM459 861l-1 -1q23 0 39 -16t16 -39q0 -22 -16 -37q-17 -15 -39 -15t-39 15q-16 15 -16 38q0 22 17 39q16 16 39 16zM604 657l1 -399q0 -128 -73 -200
q-74 -72 -189 -72q-117 0 -190 72t-73 201v398h78v-403q0 -96 51 -146q52 -50 134 -50q80 0 132 50q51 49 51 146v403h78z" />
    <glyph glyph-name="Yacute" unicode="&#xdd;" horiz-adv-x="616" 
d="M455 896l-120 -172h-59l85 186h94v-14zM576 660l-229 -386v-274h-78v274l-229 386h88l180 -310l181 310h87z" />
    <glyph glyph-name="Thorn" unicode="&#xde;" horiz-adv-x="573" 
d="M169 660l-1 -118h154q97 0 154 -54t57 -142q0 -87 -57 -142q-56 -55 -153 -55h-154v-149h-78v660h78zM320 472l-154 -1v-253h152q63 0 98 35t35 92q0 58 -34 92q-35 35 -97 35z" />
    <glyph glyph-name="germandbls" unicode="&#xdf;" horiz-adv-x="611" 
d="M295 761v-2q77 0 123 -39q47 -39 47 -107q0 -38 -14 -78l-42 -121q-17 -51 -17 -67q0 -31 40 -56q6 -4 31 -19q7 -4 12 -6q57 -35 83 -66q27 -31 27 -76q0 -62 -48 -100q-47 -37 -121 -37q-98 0 -165 69l43 56q56 -54 128 -54q39 0 63 15t24 47q0 5 -2 15q-2 8 -4 13
q-3 6 -9 12l-10 10q-4 4 -14 11l-6 4t-5.5 3.5t-3.5 2.5t-3.5 2t-7 3.5t-7.5 4.5q-13 7 -18 9q-54 32 -81 60t-27 66q0 27 18 78l42 116q15 44 15 72q0 39 -25 63t-70 24q-57 0 -93 -39t-36 -113v-537h-76v540q0 104 57 162q57 59 152 59z" />
    <glyph glyph-name="agrave" unicode="&#xe0;" horiz-adv-x="528" 
d="M288 566h-59l-120 200v14h94zM260 498l2 -1q86 0 138 -51t52 -147v-300h-72v63q-56 -74 -165 -74q-76 0 -123 37q-48 37 -48 100q0 61 48 99q47 37 127 37h154v42q0 61 -31 92q-32 32 -87 32q-82 0 -142 -78l-51 42q68 107 198 107zM226 52q62 0 105 39q44 39 44 95v12
h-145q-105 0 -105 -69q0 -37 29 -57t72 -20z" />
    <glyph glyph-name="aacute" unicode="&#xe1;" horiz-adv-x="528" 
d="M410 766l-120 -200h-59l85 214h94v-14zM260 498l2 -1q86 0 138 -51t52 -147v-300h-72v63q-56 -74 -165 -74q-76 0 -123 37q-48 37 -48 100q0 61 48 99q47 37 127 37h154v42q0 61 -31 92q-32 32 -87 32q-82 0 -142 -78l-51 42q68 107 198 107zM226 52q62 0 105 39
q44 39 44 95v12h-145q-105 0 -105 -69q0 -37 29 -57t72 -20z" />
    <glyph glyph-name="acircumflex" unicode="&#xe2;" horiz-adv-x="528" 
d="M259 693l-100 -127h-60l136 214h48l135 -214h-59zM260 498l2 -1q86 0 138 -51t52 -147v-300h-72v63q-56 -74 -165 -74q-76 0 -123 37q-48 37 -48 100q0 61 48 99q47 37 127 37h154v42q0 61 -31 92q-32 32 -87 32q-82 0 -142 -78l-51 42q68 107 198 107zM226 52
q62 0 105 39q44 39 44 95v12h-145q-105 0 -105 -69q0 -37 29 -57t72 -20z" />
    <glyph glyph-name="atilde" unicode="&#xe3;" horiz-adv-x="528" 
d="M167 609l-64 1q-1 6 -1 25q0 46 23 75t62 29q37 0 69 -26l26 -22q26 -23 42 -23q28 0 28 41v17h64q1 -6 1 -25q0 -44 -23 -75q-22 -30 -62 -30q-37 0 -69 26l-26 22q-26 23 -42 23q-28 0 -28 -41v-17zM260 499l2 -1q86 0 138 -51t52 -147v-300h-72v63q-56 -74 -165 -74
q-76 0 -123 37q-48 38 -48 100t48 99q47 37 127 37h154v42q0 61 -31 92q-32 32 -87 32q-82 0 -142 -78l-51 42q68 107 198 107zM226 53q62 0 105 39q44 39 44 95v12h-145q-105 0 -105 -69q0 -37 29 -57t72 -20z" />
    <glyph glyph-name="adieresis" unicode="&#xe4;" horiz-adv-x="528" 
d="M152 620v-3q-22 0 -38 16q-17 17 -17 37q0 22 17 39q16 16 38 16t39 -15q16 -15 16 -38q0 -22 -16 -37q-17 -15 -39 -15zM364 617v-3q-22 0 -38 16q-17 17 -17 37q0 22 17 39q16 16 38 16t39 -15q16 -15 16 -38q0 -22 -16 -37q-17 -15 -39 -15zM260 492l2 -1
q86 0 138 -51t52 -147v-300h-72v63q-56 -74 -165 -74q-76 0 -123 37q-48 37 -48 100q0 61 48 99q47 37 127 37h154v42q0 61 -31 92q-32 32 -87 32q-82 0 -142 -78l-51 42q68 107 198 107zM226 46q62 0 105 39q44 39 44 95v12h-145q-105 0 -105 -69q0 -37 29 -57t72 -20z" />
    <glyph glyph-name="aring" unicode="&#xe5;" horiz-adv-x="528" 
d="M257 559q-46 0 -78 32t-32 77q0 46 32 78q31 31 78 31q49 0 80 -31q32 -32 32 -78q0 -45 -32 -77t-80 -32zM258 720h2q-21 0 -36 -15t-15 -37t14 -36t36 -14t36 14t14 36t-15 37t-36 15zM262 498l2 -1q86 0 138 -51t52 -147v-300h-72v63q-56 -74 -165 -74q-76 0 -123 37
q-48 37 -48 100q0 61 48 99q47 37 127 37h154v42q0 61 -31 92q-32 32 -87 32q-82 0 -142 -78l-51 42q68 107 198 107zM228 52q62 0 105 39q44 39 44 95v12h-145q-105 0 -105 -69q0 -37 29 -57t72 -20z" />
    <glyph glyph-name="ae" unicode="&#xe6;" horiz-adv-x="895" 
d="M837 211l-385 -3q11 -69 59 -110q49 -41 119 -41q82 0 147 65l46 -51q-76 -85 -194 -85q-67 0 -123 32t-90 87q-26 -57 -79 -87q-54 -30 -122 -30q-76 0 -124 39t-48 103q0 65 48 104t127 39h154v30q0 60 -32 92t-84 32q-81 0 -141 -78l-51 42q68 107 198 107
q124 0 167 -102q71 102 195 102q93 0 157 -62q63 -62 63 -159q0 -45 -7 -66zM452 271l309 -2q5 71 -38 113q-42 42 -107 42t-110 -42t-54 -111zM221 49l1 2q60 0 104 38t44 93v25h-145q-105 0 -105 -73q0 -40 29 -63q28 -22 72 -22z" />
    <glyph glyph-name="ccedilla" unicode="&#xe7;" horiz-adv-x="551" 
d="M306 60l1 -2q85 0 144 78l55 -43q-57 -84 -155 -102q24 -30 24 -69q0 -49 -36 -82t-96 -33q-36 0 -69 10v55q28 -4 56 -4q36 0 56 16q21 17 21 49q0 29 -17 54q-102 6 -171 79q-69 74 -69 177q0 106 74 180t180 74q131 0 201 -106l-55 -44q-58 79 -144 79q-76 0 -127 -53
t-51 -129q0 -78 51 -131t127 -53z" />
    <glyph glyph-name="egrave" unicode="&#xe8;" horiz-adv-x="571" 
d="M327 566h-59l-120 200v14h94zM521 278l-1 1q0 -31 -6 -58h-384q8 -73 57 -116q50 -44 122 -44q83 0 149 66l45 -52q-79 -85 -195 -85q-110 0 -183 73q-74 74 -74 181q0 106 72 180t177 74q94 0 158 -62q63 -61 63 -158zM296 429l1 1q-61 0 -106 -39t-57 -102h308
q-2 65 -43 102q-43 38 -103 38z" />
    <glyph glyph-name="eacute" unicode="&#xe9;" horiz-adv-x="571" 
d="M449 766l-120 -200h-59l85 214h94v-14zM521 278l-1 1q0 -31 -6 -58h-384q8 -73 57 -116q50 -44 122 -44q83 0 149 66l45 -52q-79 -85 -195 -85q-110 0 -183 73q-74 74 -74 181q0 106 72 180t177 74q94 0 158 -62q63 -61 63 -158zM296 429l1 1q-61 0 -106 -39t-57 -102
h308q-2 65 -43 102q-43 38 -103 38z" />
    <glyph glyph-name="ecircumflex" unicode="&#xea;" horiz-adv-x="571" 
d="M298 693l-100 -127h-60l136 214h48l135 -214h-59zM521 278l-1 1q0 -31 -6 -58h-384q8 -73 57 -116q50 -44 122 -44q83 0 149 66l45 -52q-79 -85 -195 -85q-110 0 -183 73q-74 74 -74 181q0 106 72 180t177 74q94 0 158 -62q63 -61 63 -158zM296 429l1 1q-61 0 -106 -39
t-57 -102h308q-2 65 -43 102q-43 38 -103 38z" />
    <glyph glyph-name="edieresis" unicode="&#xeb;" horiz-adv-x="571" 
d="M191 620v-3q-22 0 -38 16q-17 17 -17 37q0 22 17 39q16 16 38 16q23 0 39 -15t16 -38q0 -22 -16 -37t-39 -15zM403 617v-3q-22 0 -38 16q-17 17 -17 37q0 22 17 39q16 16 38 16q23 0 39 -15t16 -38q0 -22 -16 -37t-39 -15zM521 272l-1 1q0 -31 -6 -58h-384q8 -73 57 -116
q50 -44 122 -44q83 0 149 66l45 -52q-79 -85 -195 -85q-110 0 -183 73q-74 74 -74 181q0 106 72 180t177 74q94 0 158 -62q63 -62 63 -158zM296 423l1 1q-61 0 -106 -39t-57 -102h308q-2 65 -43 102q-43 38 -103 38z" />
    <glyph glyph-name="igrave" unicode="&#xec;" horiz-adv-x="246" 
d="M99 780l55 -214h-59l-90 200v14h94zM162 487v-487h-77v487h77z" />
    <glyph glyph-name="iacute" unicode="&#xed;" horiz-adv-x="246" 
d="M242 780v-14l-90 -200h-59l55 214h94zM162 487v-487h-77v487h77z" />
    <glyph glyph-name="icircumflex" unicode="&#xee;" horiz-adv-x="246" 
d="M148 780l135 -214h-59l-100 127l-100 -127h-60l136 214h48zM85 0v487h77v-487h-77z" />
    <glyph glyph-name="idieresis" unicode="&#xef;" horiz-adv-x="246" 
d="M32 727l-1 -3q23 0 39 -15t16 -38q0 -22 -16 -37t-39 -15t-39 15t-16 38q0 22 17 39q16 16 39 16zM213 724v-3q23 0 39 -15t16 -38q0 -22 -16 -37t-39 -15q-22 0 -38 16q-17 17 -17 37q0 22 17 39q16 16 38 16zM161 481v-487h-77v487h77z" />
    <glyph glyph-name="eth" unicode="&#xf0;" horiz-adv-x="569" 
d="M410 459v-3q39 -52 57 -81q19 -30 35 -71t16 -85q0 -100 -66 -166t-167 -66t-167 66t-66 163q0 96 65 161t159 65q30 0 60 -8l-102 140l-149 -72l-27 57l138 66l-67 93l58 43l77 -103l154 73l28 -55l-145 -70zM284 57v-3q68 0 111 45q44 46 44 113q0 66 -44 112
q-43 45 -111 45t-111 -45q-44 -46 -44 -112q0 -67 44 -111t111 -44z" />
    <glyph glyph-name="ntilde" unicode="&#xf1;" horiz-adv-x="566" 
d="M193 609l-64 1q-1 6 -1 25q0 46 23 75t62 29q37 0 69 -26l26 -22q26 -23 42 -23q28 0 28 41v17h64q1 -6 1 -25q0 -44 -23 -75q-22 -30 -62 -30q-37 0 -69 26l-26 22q-26 23 -42 23q-28 0 -28 -41v-17zM307 499v-2q85 0 133 -53q48 -52 48 -138v-306h-77v297q0 58 -33 94
t-88 36q-56 0 -92 -36t-36 -93v-297h-77v487h72v-53q54 64 150 64z" />
    <glyph glyph-name="ograve" unicode="&#xf2;" horiz-adv-x="610" 
d="M250 780l85 -214h-59l-120 200v14h94zM305 498v-2q107 0 181 -73q75 -73 75 -180t-75 -180q-77 -75 -181 -74q-105 0 -180 75q-74 74 -74 180t74 180t180 74zM305 425l1 -1q-76 0 -127 -53q-49 -50 -49 -131q2 -79 50 -130q49 -52 125 -52q75 0 126 53t51 129
q0 80 -51 132q-51 53 -126 53z" />
    <glyph glyph-name="oacute" unicode="&#xf3;" horiz-adv-x="610" 
d="M457 780v-14l-120 -200h-59l85 214h94zM305 498v-2q107 0 181 -73q75 -73 75 -180t-75 -180q-77 -75 -181 -74q-105 0 -180 75q-74 74 -74 180t74 180t180 74zM305 425l1 -1q-76 0 -127 -53q-49 -50 -49 -131q2 -79 50 -130q49 -52 125 -52q75 0 126 53t51 129
q0 80 -51 132q-51 53 -126 53z" />
    <glyph glyph-name="ocircumflex" unicode="&#xf4;" horiz-adv-x="610" 
d="M306 693l-100 -127h-60l136 214h48l135 -214h-59zM305 498v-2q107 0 181 -73q75 -73 75 -180t-75 -180q-77 -75 -181 -74q-105 0 -180 75q-74 74 -74 180t74 180t180 74zM304 59l1 -1q75 0 126 53t51 129q0 80 -51 132q-51 53 -126 53q-76 0 -127 -53q-49 -50 -49 -131
q2 -79 50 -130q49 -52 125 -52z" />
    <glyph glyph-name="otilde" unicode="&#xf5;" horiz-adv-x="610" 
d="M233 738v1q37 0 69 -26l26 -22q26 -23 42 -23q28 0 28 41v17h64q1 -6 1 -25q0 -44 -23 -75q-22 -30 -62 -30q-37 0 -69 26l-26 22q-26 23 -42 23q-28 0 -28 -41v-17h-64q-1 6 -1 25q0 46 23 75t62 29zM305 499v-2q107 0 181 -73q75 -74 75 -180t-75 -180
q-77 -75 -181 -74q-105 0 -180 75q-74 74 -74 180t74 180t180 74zM305 426l1 -1q-76 0 -127 -53q-49 -50 -49 -131q2 -79 50 -130q49 -52 125 -52q75 0 126 53q51 52 51 129q0 79 -51 132t-126 53z" />
    <glyph glyph-name="odieresis" unicode="&#xf6;" horiz-adv-x="610" 
d="M198 727v-3q22 0 39 -15q16 -15 16 -38q0 -22 -16 -37q-17 -15 -39 -15t-38 16q-17 17 -17 37q0 22 17 39q16 16 38 16zM410 724v-3q22 0 39 -15q16 -15 16 -38q0 -22 -16 -37q-17 -15 -39 -15t-38 16q-17 17 -17 37q0 22 17 39q16 16 38 16zM305 492v-2q107 0 181 -73
q75 -73 75 -180t-75 -180q-77 -75 -181 -74q-105 0 -180 75q-74 74 -74 180t74 180t180 74zM305 419l1 -1q-76 0 -127 -53q-49 -50 -49 -131q2 -79 50 -130q49 -52 125 -52q75 0 126 53t51 129q0 80 -51 132q-51 53 -126 53z" />
    <glyph glyph-name="divide" unicode="&#xf7;" 
d="M278 545v-1q22 0 39 -15q16 -15 16 -38q0 -22 -16 -37q-17 -15 -39 -15t-39 15q-16 15 -16 38t16 38q17 15 39 15zM503 348v-68h-447v68h447zM278 187v-1q22 0 39 -15q16 -15 16 -38q0 -22 -16 -37q-17 -15 -39 -15t-39 15q-16 15 -16 38t16 38q17 15 39 15z" />
    <glyph glyph-name="oslash" unicode="&#xf8;" horiz-adv-x="621" 
d="M572 458l-61 -58q52 -70 52 -156q0 -106 -75 -180q-76 -74 -181 -74q-86 0 -153 52l-58 -60l-48 48l59 59q-52 67 -52 155q0 106 74 180t180 74q86 0 156 -52l59 58zM308 432q-78 0 -129 -53t-51 -134q0 -61 30 -107l258 260q-46 34 -108 34zM307 57q77 0 130 54
q52 53 52 134q0 59 -30 106l-259 -258q45 -36 107 -36z" />
    <glyph glyph-name="ugrave" unicode="&#xf9;" 
d="M224 780l85 -214h-59l-120 200v14h94zM482 487l-3 -296q-2 -93 -57 -148q-57 -57 -143 -57q-87 0 -144 57t-57 149v293h76v-298q0 -59 36 -93q37 -35 90 -35t89 36t36 94v298h77z" />
    <glyph glyph-name="uacute" unicode="&#xfa;" 
d="M431 780v-14l-120 -200h-59l85 214h94zM482 487l-3 -296q-2 -93 -57 -148q-57 -57 -143 -57q-87 0 -144 57t-57 149v293h76v-298q0 -59 36 -93q37 -35 90 -35t89 36t36 94v298h77z" />
    <glyph glyph-name="ucircumflex" unicode="&#xfb;" 
d="M280 693l-100 -127h-60l136 214h48l135 -214h-59zM405 487l74 -3v-293q0 -91 -57 -148t-143 -57q-87 0 -144 57t-57 149v293h76v-298q0 -59 36 -93q37 -35 90 -35t89 36t36 94v298z" />
    <glyph glyph-name="udieresis" unicode="&#xfc;" 
d="M173 727v-3q23 0 39 -15t16 -38q0 -22 -16 -37t-39 -15q-22 0 -38 16q-17 17 -17 37q0 22 17 39q16 16 38 16zM385 724v-3q23 0 39 -15t16 -38q0 -22 -16 -37t-39 -15q-22 0 -38 16q-17 17 -17 37q0 22 17 39q16 16 38 16zM482 481l-3 -296q-2 -93 -57 -148
q-57 -57 -143 -57q-87 0 -144 57t-57 149v293h76v-298q0 -59 36 -93q37 -35 90 -35t89 36t36 94v298h77z" />
    <glyph glyph-name="yacute" unicode="&#xfd;" horiz-adv-x="539" 
d="M418 766l-120 -200h-59l85 214h94v-14zM431 487l81 1l-240 -555q-54 -123 -165 -123q-39 0 -75 10v65q42 -5 59 -5q37 0 65 17q26 16 46 60l26 59l-202 471h83l161 -388z" />
    <glyph glyph-name="thorn" unicode="&#xfe;" horiz-adv-x="632" 
d="M341 498l-2 2q104 0 173 -73t69 -181q0 -110 -69 -183t-172 -73q-54 0 -102 21q-49 21 -77 60v-251h-77v930h77v-334q28 37 77 60q47 22 103 22zM328 62l-1 -2q74 0 123 52q50 53 50 132q0 80 -49 132t-124 52q-71 0 -120 -46t-49 -136t50 -137t120 -47z" />
    <glyph glyph-name="ydieresis" unicode="&#xff;" horiz-adv-x="539" 
d="M160 620v-3q-22 0 -38 16q-17 17 -17 37q0 22 17 39q16 16 38 16t39 -15q16 -15 16 -38q0 -22 -16 -37q-17 -15 -39 -15zM372 617v-3q-22 0 -38 16q-17 17 -17 37q0 22 17 39q16 16 38 16t39 -15q16 -15 16 -38q0 -22 -16 -37q-17 -15 -39 -15zM431 481l81 1l-240 -555
q-54 -123 -165 -123q-39 0 -75 10v65q42 -5 59 -5q37 0 65 17q26 16 46 60l26 59l-202 471h83l161 -388z" />
    <glyph glyph-name="Amacron" unicode="&#x100;" horiz-adv-x="663" 
d="M480 833v-63h-295v63h295zM549 0l-57 134h-322l-57 -134h-82l286 671h29l286 -671h-83zM463 204l-132 324l-132 -324h264z" />
    <glyph glyph-name="amacron" unicode="&#x101;" horiz-adv-x="528" 
d="M396 704v-62h-275v62h275zM260 498l2 -1q86 0 138 -51t52 -147v-300h-72v63q-56 -74 -165 -74q-76 0 -123 37q-48 37 -48 100q0 61 48 99q47 37 127 37h154v42q0 61 -31 92q-32 32 -87 32q-82 0 -142 -78l-51 42q68 107 198 107zM226 52q62 0 105 39q44 39 44 95v12h-145
q-105 0 -105 -69q0 -37 29 -57t72 -20z" />
    <glyph glyph-name="Abreve" unicode="&#x102;" horiz-adv-x="663" 
d="M332 739l2 -2q-65 0 -109 44q-43 43 -43 110h65q0 -41 24 -67q24 -25 62 -25t62 25q24 26 24 67h65q0 -66 -43 -109t-109 -43zM551 -2l-57 134h-322l-57 -134h-82l286 671h29l286 -671h-83zM465 202l-132 324l-132 -324h264z" />
    <glyph glyph-name="abreve" unicode="&#x103;" horiz-adv-x="528" 
d="M258 584l1 -1q-65 0 -109 44q-43 43 -43 108h65q0 -41 24 -66t62 -25t63 25t25 66h64q0 -65 -43 -108t-109 -43zM261 497l2 -1q85 0 138 -51q52 -51 52 -147v-300h-72v63q-56 -74 -165 -74q-76 0 -123 37q-48 38 -48 100t48 99q47 37 127 37h154v42q0 61 -31 92
q-32 32 -87 32q-82 0 -142 -78l-51 42q68 107 198 107zM227 51q61 0 105 39t44 95v12h-145q-105 0 -105 -69q0 -37 29 -57t72 -20z" />
    <glyph glyph-name="Aogonek" unicode="&#x104;" horiz-adv-x="663" 
d="M532 -92q0 -37 48 -37q25 0 54 7v-58q-36 -11 -72 -11q-48 0 -78 24t-30 63q0 30 21 55t71 54l-55 129h-322l-57 -134h-82l286 671h29l286 -670l1 -1l-49 -33l-28 -19q-7 -5 -16 -17q-7 -10 -7 -23zM463 204l-132 324l-132 -324h264z" />
    <glyph glyph-name="aogonek" unicode="&#x105;" horiz-adv-x="528" 
d="M349 -92l2 -2q0 -37 48 -37q24 0 53 7v-58q-36 -11 -72 -11q-48 0 -78 24t-30 63q0 32 24 59t83 59v50q-56 -74 -165 -74q-76 0 -123 37q-48 37 -48 100q0 61 48 99q47 37 127 37h154v42q0 61 -31 92q-32 32 -87 32q-82 0 -142 -78l-51 42q68 107 198 107q85 0 138 -51
q52 -51 52 -147v-300l-49 -33l-28 -19q-7 -5 -16 -17q-7 -10 -7 -23zM226 51q62 0 105 39q44 39 44 95v12h-145q-105 0 -105 -69q0 -37 29 -57t72 -20z" />
    <glyph glyph-name="Cacute" unicode="&#x106;" horiz-adv-x="715" 
d="M541 910v-14l-120 -172h-59l85 186h94zM391 671l-2 -2q88 0 160 -39q73 -39 114 -103l-58 -46q-80 116 -216 116q-112 0 -187 -77q-75 -76 -75 -192t75 -192q75 -77 188 -77q136 0 216 116l58 -46q-40 -63 -113 -103q-72 -39 -160 -39q-144 0 -243 99t-99 243t99 243
t243 99z" />
    <glyph glyph-name="cacute" unicode="&#x107;" horiz-adv-x="551" 
d="M456 780v-14l-120 -200h-59l85 214h94zM305 498h-1q131 0 201 -106l-55 -44q-58 79 -144 79q-76 0 -127 -53q-51 -52 -51 -129q0 -79 51 -131q51 -53 127 -53q86 0 144 78l55 -43q-70 -106 -200 -106q-106 0 -180 74t-74 180t74 180t180 74z" />
    <glyph glyph-name="Ccircumflex" unicode="&#x108;" horiz-adv-x="715" 
d="M391 832l-110 -108h-61l147 186h48l147 -186h-61zM392 61l-2 -2q136 0 216 116l58 -46q-40 -63 -113 -103q-72 -39 -160 -39q-144 0 -243 99t-99 243t99 243t243 99q88 0 160 -39q73 -39 114 -103l-58 -46q-80 116 -216 116q-112 0 -187 -77q-75 -76 -75 -192t75 -192
q75 -77 188 -77z" />
    <glyph glyph-name="ccircumflex" unicode="&#x109;" horiz-adv-x="551" 
d="M305 693l-100 -127h-60l136 214h48l135 -214h-59zM306 60h-1q85 0 144 78l55 -43q-70 -106 -200 -106q-106 0 -180 74t-74 180t74 180t180 74q131 0 201 -106l-55 -44q-58 79 -144 79q-76 0 -127 -53t-51 -129q0 -78 51 -131t127 -53z" />
    <glyph glyph-name="Cdotaccent" unicode="&#x10a;" horiz-adv-x="715" 
d="M391 866v-1q23 0 39 -16q17 -17 17 -39q0 -24 -16 -40t-40 -16q-25 0 -41 16q-17 17 -17 40q0 22 17 39t41 17zM391 670l-2 -2q88 0 160 -39q73 -39 114 -103l-58 -46q-80 116 -216 116q-112 0 -187 -77t-75 -192t75 -192t188 -77q136 0 216 116l58 -46
q-40 -63 -113 -103q-72 -39 -160 -39q-144 0 -243 99t-99 243t99 243t243 99z" />
    <glyph glyph-name="cdotaccent" unicode="&#x10b;" horiz-adv-x="551" 
d="M304 729v-1q23 0 39 -16q17 -17 17 -39q0 -24 -16 -40t-40 -16q-25 0 -41 16q-17 17 -17 40q0 22 17 39t41 17zM305 497h-1q131 0 201 -106l-55 -44q-58 79 -144 79q-76 0 -127 -53t-51 -129q0 -78 51 -131t127 -53q86 0 144 78l55 -43q-70 -106 -200 -106
q-106 0 -180 74t-74 180t74 180t180 74z" />
    <glyph glyph-name="Ccaron" unicode="&#x10c;" horiz-adv-x="715" 
d="M415 724h-48l-147 186h61l110 -107l110 107h61zM392 61l-2 -2q136 0 216 116l58 -46q-40 -63 -113 -103q-72 -39 -160 -39q-144 0 -243 99t-99 243t99 243t243 99q88 0 160 -39q73 -39 114 -103l-58 -46q-80 116 -216 116q-112 0 -187 -77q-75 -76 -75 -192t75 -192
q75 -77 188 -77z" />
    <glyph glyph-name="ccaron" unicode="&#x10d;" horiz-adv-x="551" 
d="M329 566h-48l-136 214h60l100 -127l100 127h59zM306 60h-1q85 0 144 78l55 -43q-70 -106 -200 -106q-106 0 -180 74t-74 180t74 180t180 74q131 0 201 -106l-55 -44q-58 79 -144 79q-76 0 -127 -53t-51 -129q0 -78 51 -131t127 -53z" />
    <glyph glyph-name="Dcaron" unicode="&#x10e;" horiz-adv-x="694" 
d="M309 724h-48l-147 186h61l110 -107l110 107h61zM287 660v-1q165 0 262 -91t97 -237q0 -145 -97 -238t-262 -93h-196v660h196zM286 69l1 -2q128 0 204 74q75 74 75 188q0 116 -75 188t-205 72h-117v-520h117z" />
    <glyph glyph-name="dcaron" unicode="&#x10f;" horiz-adv-x="761" 
d="M471 415l1 335h77v-750h-73v78q-28 -42 -78 -66t-108 -24q-103 0 -172 73t-69 181q0 110 69 183t173 73q56 0 103 -22q49 -23 77 -61zM662 750h83l-38 -211h-58zM303 60h-1q70 0 120 47t50 137t-50 137t-120 47q-74 0 -123 -52t-49 -132t49 -132t124 -52z" />
    <glyph glyph-name="Dcroat" unicode="&#x110;" horiz-adv-x="694" 
d="M287 660v-1q165 0 262 -91t97 -237q0 -145 -97 -238t-262 -93h-196v274h-95v66h95v320h196zM286 69l1 -2q128 0 204 74q75 74 75 188q0 116 -75 188t-205 72h-117v-250h130v-66h-130v-204h117z" />
    <glyph glyph-name="dcroat" unicode="&#x111;" horiz-adv-x="634" 
d="M629 645l-1 -66h-83v-581h-72v79q-29 -42 -79 -66q-51 -24 -108 -24q-100 0 -169 71q-69 70 -69 177q0 106 68 177t170 71q57 0 105 -22q49 -22 79 -61v181h-219v64h219v105h76v-105h83zM300 56l-1 1q71 0 120 45q50 45 50 133q0 89 -49 134q-50 45 -120 45
q-74 0 -124 -51q-49 -50 -49 -129t49 -128q50 -50 124 -50z" />
    <glyph glyph-name="Emacron" unicode="&#x112;" horiz-adv-x="566" 
d="M450 833v-63h-295v63h295zM514 660v-70h-345v-202h264v-70h-264v-248h357v-70h-435v660h423z" />
    <glyph glyph-name="emacron" unicode="&#x113;" horiz-adv-x="571" 
d="M435 704v-62h-275v62h275zM521 278l-1 1q0 -31 -6 -58h-384q8 -73 57 -116q50 -44 122 -44q83 0 149 66l45 -52q-79 -85 -195 -85q-110 0 -183 73q-74 74 -74 181q0 106 72 180t177 74q94 0 158 -62q63 -61 63 -158zM296 429l1 1q-61 0 -106 -39t-57 -102h308
q-2 65 -43 102q-43 38 -103 38z" />
    <glyph glyph-name="Ebreve" unicode="&#x114;" horiz-adv-x="566" 
d="M455 892l2 -2q0 -66 -43 -109t-109 -43q-65 0 -109 44q-43 43 -43 110h65q0 -42 24 -67t62 -25t62 25t24 67h65zM516 658v-70h-345v-202h264v-70h-264v-248h357v-70h-435v660h423z" />
    <glyph glyph-name="ebreve" unicode="&#x115;" horiz-adv-x="571" 
d="M297 584l1 -1q-65 0 -109 44q-43 43 -43 108h65q0 -41 24 -66t62 -25t63 25t25 66h64q0 -65 -43 -108t-109 -43zM522 277l-1 1q0 -31 -6 -58h-384q8 -73 57 -116q50 -44 122 -44q83 0 149 66l45 -52q-79 -85 -195 -85q-110 0 -183 73q-74 74 -74 181t72 180q72 74 177 74
q94 0 158 -62q63 -61 63 -158zM297 428l1 1q-61 0 -106 -39t-57 -102h308q-2 65 -43 102q-43 38 -103 38z" />
    <glyph glyph-name="Edotaccent" unicode="&#x116;" horiz-adv-x="566" 
d="M303 866v-1q23 0 39 -16q17 -17 17 -39q0 -24 -16 -40t-40 -16q-25 0 -41 16q-17 17 -17 40q0 22 17 39t41 17zM514 659v-70h-345v-202h264v-70h-264v-248h357v-70h-435v660h423z" />
    <glyph glyph-name="edotaccent" unicode="&#x117;" horiz-adv-x="571" 
d="M297 617v-1q-25 0 -41 16q-17 17 -17 40q0 22 17 39t41 17q23 0 39 -16q17 -17 17 -39q0 -24 -16 -40t-40 -16zM521 277l-1 1q0 -31 -6 -58h-384q8 -73 57 -116q50 -44 122 -44q83 0 149 66l45 -52q-79 -85 -195 -85q-110 0 -183 73q-74 74 -74 181t72 180q72 74 177 74
q94 0 158 -62q63 -61 63 -158zM296 428l1 1q-61 0 -106 -39t-57 -102h308q-2 65 -43 102q-43 38 -103 38z" />
    <glyph glyph-name="Eogonek" unicode="&#x118;" horiz-adv-x="566" 
d="M425 -92h-1q0 -37 48 -37q24 0 53 7v-58q-36 -11 -72 -11q-48 0 -78 24t-30 63q0 28 20 53q19 24 66 51h-341v660h423v-70h-345v-202h264v-70h-264v-248h357v-70l-49 -33l-28 -19q-7 -5 -16 -17q-7 -10 -7 -23z" />
    <glyph glyph-name="eogonek" unicode="&#x119;" horiz-adv-x="571" 
d="M521 278l-1 1q0 -31 -6 -58h-384q8 -73 57 -116q50 -44 122 -44q86 0 152 68l41 -53q-10 -12 -24 -24l-24 -19q-15 -11 -31 -21t-31 -21q-63 -43 -63 -81q0 -40 51 -40q24 0 53 7v-55q-30 -13 -71 -13q-49 0 -79 24t-30 64q0 49 62 93h-13q-104 0 -178 74q-73 73 -73 180
q0 106 72 180t177 74q94 0 158 -62q63 -61 63 -158zM296 429l1 1q-61 0 -106 -39t-57 -102h308q-2 65 -43 102q-43 38 -103 38z" />
    <glyph glyph-name="Ecaron" unicode="&#x11a;" horiz-adv-x="566" 
d="M327 724h-48l-147 186h61l110 -107l110 107h61zM169 70h357v-70h-435v660h423v-70h-345v-202h264v-70h-264v-248z" />
    <glyph glyph-name="ecaron" unicode="&#x11b;" horiz-adv-x="571" 
d="M322 566h-48l-136 214h60l100 -127l100 127h59zM521 278l-1 1q0 -31 -6 -58h-384q8 -73 57 -116q50 -44 122 -44q83 0 149 66l45 -52q-79 -85 -195 -85q-110 0 -183 73q-74 74 -74 181q0 106 72 180t177 74q94 0 158 -62q63 -61 63 -158zM296 429l1 1q-61 0 -106 -39
t-57 -102h308q-2 65 -43 102q-43 38 -103 38z" />
    <glyph glyph-name="Gcircumflex" unicode="&#x11c;" horiz-adv-x="746" 
d="M393 832l-110 -108h-61l147 186h48l147 -186h-61zM390 336l304 -2v-176q-43 -78 -124 -124q-80 -46 -178 -46q-145 0 -244 99t-99 243t99 243t243 99q84 0 153 -36q70 -37 116 -100l-59 -46q-79 109 -210 109q-115 0 -188 -76q-74 -77 -74 -192q0 -116 75 -194t191 -78
q71 0 129 32q56 31 91 86v89h-225v70z" />
    <glyph glyph-name="gcircumflex" unicode="&#x11d;" horiz-adv-x="637" 
d="M312 693l-100 -127h-60l136 214h48l135 -214h-59zM480 487l69 -4v-440q0 -111 -64 -174t-172 -63q-135 0 -229 94l45 54q89 -77 183 -77q76 0 120 42q43 42 43 121v43q-31 -38 -78 -59q-48 -21 -103 -21q-104 0 -171 70q-68 71 -68 177t68 177t171 71q58 0 108 -24
t78 -66v79zM303 72v-1q71 0 120 45q50 45 50 131q0 85 -50 129t-120 44q-75 0 -124 -49t-49 -126t49 -125t124 -48z" />
    <glyph glyph-name="Gbreve" unicode="&#x11e;" horiz-adv-x="746" 
d="M545 892l2 -2q0 -66 -43 -109t-109 -43q-65 0 -109 44q-43 43 -43 110h65q0 -42 24 -67t62 -25t62 25t24 67h65zM393 669l1 -2q84 0 153 -36q70 -37 116 -100l-59 -46q-79 109 -210 109q-115 0 -188 -76q-74 -77 -74 -192q0 -116 75 -194t191 -78q71 0 129 32
q56 31 91 86v89h-225v70h303v-176q-43 -78 -124 -124q-80 -46 -178 -46q-145 0 -244 99t-99 243t99 243t243 99z" />
    <glyph glyph-name="gbreve" unicode="&#x11f;" horiz-adv-x="637" 
d="M311 584l1 -1q-65 0 -109 44q-43 43 -43 108h65q0 -41 24 -66t62 -25t63 25t25 66h64q0 -65 -43 -108t-109 -43zM481 486l69 -4v-440q0 -111 -64 -174q-65 -63 -172 -63q-135 0 -229 94l45 54q89 -77 183 -77q77 0 120 42t43 121v43q-31 -38 -78 -59q-48 -21 -103 -21
q-104 0 -171 70q-68 71 -68 177t68 177t171 71q59 0 108 -24t78 -66v79zM304 71v-1q70 0 120 45t50 131q0 85 -50 129t-120 44q-75 0 -124 -49t-49 -126t49 -125q50 -48 124 -48z" />
    <glyph glyph-name="Gdotaccent" unicode="&#x120;" horiz-adv-x="746" 
d="M393 866v-1q23 0 39 -16q17 -17 17 -39q0 -24 -16 -40t-40 -16q-25 0 -41 16q-17 17 -17 40q0 22 17 39t41 17zM391 670l1 -2q84 0 153 -36q70 -37 116 -100l-59 -46q-79 109 -210 109q-115 0 -188 -76q-74 -77 -74 -192q0 -116 75 -194t191 -78q71 0 129 32q56 31 91 86
v89h-225v70h303v-176q-43 -78 -124 -124q-80 -46 -178 -46q-145 0 -244 99t-99 243t99 243t243 99z" />
    <glyph glyph-name="gdotaccent" unicode="&#x121;" horiz-adv-x="637" 
d="M311 617v-1q-25 0 -41 16q-17 17 -17 40q0 22 17 39t41 17q23 0 39 -16q17 -17 17 -39q0 -24 -16 -40t-40 -16zM480 486l69 -4v-440q0 -111 -64 -174t-172 -63q-135 0 -229 94l45 54q89 -77 183 -77q76 0 120 42q43 42 43 121v43q-31 -38 -78 -59q-48 -21 -103 -21
q-104 0 -171 70q-68 71 -68 177t68 177t171 71q58 0 108 -24t78 -66v79zM303 71v-1q71 0 120 45q50 45 50 131q0 85 -50 129t-120 44q-75 0 -124 -49t-49 -126t49 -125t124 -48z" />
    <glyph glyph-name="Gcommaaccent" unicode="&#x122;" horiz-adv-x="746" 
d="M391 671l1 -2q84 0 153 -36q70 -37 116 -100l-59 -46q-79 109 -210 109q-115 0 -188 -76q-74 -77 -74 -192q0 -116 75 -194t191 -78q71 0 129 32q56 31 91 86v89h-225v70h303v-176q-43 -78 -124 -124q-80 -46 -178 -46q-145 0 -244 99t-99 243t99 243t243 99zM431 -51
l-24 -171h-61l9 171h76z" />
    <glyph glyph-name="gcommaaccent" unicode="&#x123;" horiz-adv-x="637" 
d="M364 780l-15 -214h-76l32 214h59zM480 487l69 -4v-440q0 -111 -64 -174t-172 -63q-135 0 -229 94l45 54q89 -77 183 -77q76 0 120 42q43 42 43 121v43q-31 -38 -78 -59q-48 -21 -103 -21q-104 0 -171 70q-68 71 -68 177t68 177t171 71q58 0 108 -24t78 -66v79zM303 72v-1
q71 0 120 45q50 45 50 131q0 85 -50 129t-120 44q-75 0 -124 -49t-49 -126t49 -125t124 -48z" />
    <glyph glyph-name="Hcircumflex" unicode="&#x124;" horiz-adv-x="708" 
d="M354 832l-110 -108h-61l147 186h48l147 -186h-61zM539 660h78v-660h-78v318h-370v-318h-78v660h78v-272h370v272z" />
    <glyph glyph-name="hcircumflex" unicode="&#x125;" horiz-adv-x="566" 
d="M271 814l-110 108l-110 -108h-61l147 186h48l147 -186h-61zM308 498l-1 -1q84 0 132 -53q48 -52 48 -138v-306h-77v296q0 59 -33 95t-88 36q-56 0 -92 -37q-36 -38 -36 -94v-296h-77v750h77v-318q53 66 147 66z" />
    <glyph glyph-name="Hbar" unicode="&#x126;" horiz-adv-x="719" 
d="M622 660v-134h100v-66h-100v-460h-78v253h-371v-253h-78v460h-99v66h99v134h78v-134h371v134h78zM544 460h-371v-136h371v136z" />
    <glyph glyph-name="hbar" unicode="&#x127;" horiz-adv-x="570" 
d="M311 484v-3q84 0 132 -52q48 -53 48 -138v-293h-77v284q0 58 -33 94t-88 36q-57 0 -93 -36t-36 -92v-284h-76v579h-83v68h83v103h76v-103h202v-68h-202v-161q52 66 147 66z" />
    <glyph glyph-name="Itilde" unicode="&#x128;" horiz-adv-x="259" 
d="M53 878l-3 1q33 0 70 -23l34 -22q32 -20 45 -20q29 0 29 37v18h65q1 -5 1 -26q0 -43 -24 -72q-24 -28 -61 -28q-34 0 -73 24l-33 20q-32 20 -42 20q-30 0 -30 -38v-16h-64q-2 18 -2 24q0 43 24 72t64 29zM166 661v-660h-78v660h78z" />
    <glyph glyph-name="itilde" unicode="&#x129;" horiz-adv-x="246" 
d="M60 738h-1q36 0 65 -29l19 -19q23 -23 36 -23q26 0 26 41v17h63q2 -14 2 -24q0 -46 -22 -75q-22 -30 -60 -30q-34 0 -65 30l-19 18q-23 23 -36 23q-28 0 -28 -41v-17h-63q-2 10 -2 24q0 46 22 75q23 30 63 30zM161 487v-487h-77v487h77z" />
    <glyph glyph-name="Imacron" unicode="&#x12a;" horiz-adv-x="259" 
d="M278 833v-63h-295v63h295zM169 660v-660h-78v660h78z" />
    <glyph glyph-name="imacron" unicode="&#x12b;" horiz-adv-x="246" 
d="M234 705v-64h-221v64h221zM162 487v-487h-77v487h77z" />
    <glyph glyph-name="Ibreve" unicode="&#x12c;" horiz-adv-x="259" 
d="M282 892l2 -2q0 -66 -43 -109t-109 -43q-65 0 -109 44q-43 43 -43 110h65q0 -42 24 -67t62 -25t62 25t24 67h65zM171 658v-660h-78v660h78z" />
    <glyph glyph-name="ibreve" unicode="&#x12d;" horiz-adv-x="246" 
d="M275 736l1 -1q0 -65 -43 -108t-109 -43q-65 0 -109 44q-43 43 -43 108h65q0 -40 24 -66q24 -25 62 -25t63 25t25 66h64zM163 486v-487h-77v487h77z" />
    <glyph glyph-name="Iogonek" unicode="&#x12e;" horiz-adv-x="259" 
d="M68 -92v-1q0 -37 48 -37q24 0 53 7v-58q-36 -11 -72 -11q-48 0 -78 24t-30 63q0 31 23 57q22 26 78 57v651h78v-660l-49 -33l-28 -19q-7 -5 -16 -17q-7 -10 -7 -23z" />
    <glyph glyph-name="iogonek" unicode="&#x12f;" horiz-adv-x="246" 
d="M124 729v-1q23 0 39 -16q17 -17 17 -39q0 -24 -16 -40t-40 -16q-25 0 -41 16q-17 17 -17 40q0 22 17 39t41 17zM113 -34h1l-28 -19q-7 -5 -16 -17q-7 -10 -7 -23q0 -37 48 -37q24 0 53 7v-58q-36 -11 -72 -11q-48 0 -78 24t-30 63q0 31 23 57t78 57v477h77v-487z" />
    <glyph glyph-name="Idotaccent" unicode="&#x130;" horiz-adv-x="259" 
d="M131 866v-1q23 0 39 -16q17 -17 17 -39q0 -24 -16 -40t-40 -16q-25 0 -41 16q-17 17 -17 40q0 22 17 39t41 17zM169 659v-660h-78v660h78z" />
    <glyph glyph-name="dotlessi" unicode="&#x131;" horiz-adv-x="246" 
d="M162 487v-487h-77v487h77z" />
    <glyph glyph-name="IJ" unicode="&#x132;" horiz-adv-x="633" 
d="M169 660v-660h-78v660h78zM542 660v-507q0 -83 -46 -123t-126 -40q-37 0 -87 11v67q41 -6 72 -6q53 0 81 21t28 77v500h78z" />
    <glyph glyph-name="ij" unicode="&#x133;" horiz-adv-x="492" 
d="M124 729v-1q23 0 39 -16q17 -17 17 -39q0 -24 -16 -40t-40 -16q-25 0 -41 16q-17 17 -17 40q0 22 17 39t41 17zM370 728v-1q23 0 39 -16q17 -17 17 -39q0 -24 -16 -40t-40 -16q-25 0 -41 16q-17 17 -17 40q0 22 17 39t41 17zM408 485v-520q0 -80 -43 -119t-117 -39
q-32 0 -62 8v65q26 -3 45 -3q100 0 100 93v515h77zM162 485v-487h-77v487h77z" />
    <glyph glyph-name="Jcircumflex" unicode="&#x134;" horiz-adv-x="373" 
d="M259 910l147 -186h-61l-110 108l-110 -108h-61l147 186h48zM205 160v500h78v-507q0 -83 -46 -123t-126 -40q-37 0 -87 11v67q40 -6 72 -6q52 0 81 21q28 21 28 77z" />
    <glyph glyph-name="jcircumflex" unicode="&#x135;" horiz-adv-x="246" 
d="M148 780l135 -214h-59l-100 127l-100 -127h-60l136 214h48zM85 -28v515h77v-520q0 -80 -43 -119t-117 -39q-32 0 -62 8v65q26 -3 45 -3q100 0 100 93z" />
    <glyph glyph-name="Kcommaaccent" unicode="&#x136;" horiz-adv-x="633" 
d="M91 0v660h78v-660h-78zM279 354l323 -354h-99l-325 354l297 306h100zM256 -220l9 171h76l-24 -171h-61z" />
    <glyph glyph-name="kcommaaccent" unicode="&#x137;" horiz-adv-x="506" 
d="M85 0v750h77v-750h-77zM263 273l230 -273h-99l-224 274l203 213h101zM206 -220l9 171h76l-24 -171h-61z" />
    <glyph glyph-name="Lacute" unicode="&#x139;" horiz-adv-x="506" 
d="M279 910v-14l-120 -172h-59l85 186h94zM169 660v-590h313v-70h-391v660h78z" />
    <glyph glyph-name="lacute" unicode="&#x13a;" horiz-adv-x="246" 
d="M273 1000v-14l-120 -172h-59l85 186h94zM162 750v-750h-77v750h77z" />
    <glyph glyph-name="Lcommaaccent" unicode="&#x13b;" horiz-adv-x="506" 
d="M169 660v-590h313v-70h-391v660h78zM316 -49l-24 -171h-61l9 171h76z" />
    <glyph glyph-name="lcommaaccent" unicode="&#x13c;" horiz-adv-x="246" 
d="M162 750v-750h-77v750h77zM160 -49l-24 -171h-61l9 171h76z" />
    <glyph glyph-name="Lcaron" unicode="&#x13d;" horiz-adv-x="506" 
d="M459 720l-38 -211h-58l13 211h83zM169 660v-590h313v-70h-391v660h78z" />
    <glyph glyph-name="lcaron" unicode="&#x13e;" horiz-adv-x="370" 
d="M162 750v-750h-77v750h77zM353 750l-38 -211h-58l13 211h83z" />
    <glyph glyph-name="Ldot" unicode="&#x13f;" horiz-adv-x="506" 
d="M169 660v-590h313v-70h-391v660h78zM383 431q26 0 44 -18t18 -45t-18 -45t-44 -18t-44 18t-18 45t18 45t44 18z" />
    <glyph glyph-name="ldot" unicode="&#x140;" horiz-adv-x="246" 
d="M162 750v-750h-77v750h77zM278 377q26 0 44 -18t18 -45t-18 -45t-44 -18t-44 18t-18 45t18 45t44 18z" />
    <glyph glyph-name="Lslash" unicode="&#x141;" horiz-adv-x="506" 
d="M169 70h313v-70h-391v254l-79 -35v72l79 35v334h78v-304l220 101v-74l-220 -99v-214z" />
    <glyph glyph-name="lslash" unicode="&#x142;" horiz-adv-x="360" 
d="M298 450v-73l-87 -40v-337h-77v311l-78 -37v73l78 37v366h77v-340z" />
    <glyph glyph-name="Nacute" unicode="&#x143;" horiz-adv-x="708" 
d="M504 896l-120 -172h-59l85 186h94v-14zM539 660h78v-671h-28l-420 507v-496h-78v671h28l420 -508v497z" />
    <glyph glyph-name="nacute" unicode="&#x144;" horiz-adv-x="566" 
d="M437 766l-120 -200h-59l85 214h94v-14zM307 498v-2q85 0 133 -53t48 -138v-306h-77v297q0 58 -33 94t-88 36q-56 0 -92 -36t-36 -93v-297h-77v487h72v-53q54 64 150 64z" />
    <glyph glyph-name="Ncommaaccent" unicode="&#x145;" horiz-adv-x="708" 
d="M539 660h78v-671h-28l-420 507v-496h-78v671h28l420 -508v497zM306 -220l9 171h76l-24 -171h-61z" />
    <glyph glyph-name="ncommaaccent" unicode="&#x146;" horiz-adv-x="566" 
d="M307 498v-2q85 0 133 -53t48 -138v-306h-77v297q0 58 -33 94t-88 36q-56 0 -92 -36t-36 -93v-297h-77v487h72v-53q54 64 150 64zM237 -222l9 171h76l-24 -171h-61z" />
    <glyph glyph-name="Ncaron" unicode="&#x147;" horiz-adv-x="708" 
d="M378 724h-48l-147 186h61l110 -107l110 107h61zM539 660h78v-671h-28l-420 507v-496h-78v671h28l420 -508v497z" />
    <glyph glyph-name="ncaron" unicode="&#x148;" horiz-adv-x="566" 
d="M310 566h-48l-136 214h60l100 -127l100 127h59zM307 498v-2q85 0 133 -53t48 -138v-306h-77v297q0 58 -33 94t-88 36q-56 0 -92 -36t-36 -93v-297h-77v487h72v-53q54 64 150 64z" />
    <glyph glyph-name="Eng" unicode="&#x14a;" horiz-adv-x="708" 
d="M539 660h77v-693q0 -80 -43 -119t-117 -39q-30 0 -60 8v65q26 -3 45 -3q47 0 73 21q25 21 25 72v40l-370 475v-487h-78v671h28l420 -540v529z" />
    <glyph glyph-name="eng" unicode="&#x14b;" horiz-adv-x="566" 
d="M307 498v-2q85 0 133 -53t48 -138v-339q0 -80 -43 -119t-117 -39q-32 0 -62 8v65q25 -3 44 -3q50 0 75 21q26 21 26 73v324q0 59 -33 95t-88 36q-56 0 -92 -37q-36 -38 -36 -94v-296h-77v487h72v-53q54 64 150 64z" />
    <glyph glyph-name="Omacron" unicode="&#x14c;" horiz-adv-x="781" 
d="M539 833v-63h-295v63h295zM390 671h1q143 0 243 -99t100 -243t-100 -243t-243 -99q-144 0 -243 99t-99 243t99 243t242 99zM392 599h-1q-112 0 -187 -76q-75 -77 -75 -192t75 -192t188 -77q112 0 187 77t75 192t-75 191q-75 77 -187 77z" />
    <glyph glyph-name="omacron" unicode="&#x14d;" horiz-adv-x="610" 
d="M443 704v-62h-275v62h275zM305 498v-2q107 0 181 -73q75 -73 75 -180t-75 -180q-77 -75 -181 -74q-105 0 -180 75q-74 74 -74 180t74 180t180 74zM305 425l1 -1q-76 0 -127 -53q-49 -50 -49 -131q2 -79 50 -130q49 -52 125 -52q75 0 126 53t51 129q0 80 -51 132
q-51 53 -126 53z" />
    <glyph glyph-name="Obreve" unicode="&#x14e;" horiz-adv-x="781" 
d="M543 892l2 -2q0 -66 -43 -109t-109 -43q-65 0 -109 44q-43 43 -43 110h65q0 -42 24 -67t62 -25t62 25t24 67h65zM392 669h1q143 0 243 -99t100 -243t-100 -243t-243 -99q-144 0 -243 99t-99 243t99 243t242 99zM394 597h-1q-112 0 -187 -76q-75 -77 -75 -192t75 -192
t188 -77q112 0 187 77t75 192t-75 191q-75 77 -187 77z" />
    <glyph glyph-name="obreve" unicode="&#x14f;" horiz-adv-x="610" 
d="M457 736l1 -1q0 -65 -43 -108t-109 -43q-65 0 -109 44q-43 43 -43 108h65q0 -40 24 -66q24 -25 62 -25t63 25t25 66h64zM306 497v-2q107 0 181 -73q75 -74 75 -180t-75 -180q-77 -75 -181 -74q-105 0 -180 75q-74 74 -74 180t74 180t180 74zM306 424l1 -1q-76 0 -127 -53
q-49 -50 -49 -131q2 -79 50 -130q49 -52 125 -52q75 0 126 53q51 52 51 129q0 79 -51 132t-126 53z" />
    <glyph glyph-name="Ohungarumlaut" unicode="&#x150;" horiz-adv-x="781" 
d="M431 910v-14l-113 -172h-55l85 186h83zM613 910v-14l-112 -172h-56l85 186h83zM390 671h1q143 0 243 -99t100 -243t-100 -243t-243 -99q-144 0 -243 99t-99 243t99 243t242 99zM392 599h-1q-112 0 -187 -76q-75 -77 -75 -192t75 -192t188 -77q112 0 187 77t75 192
t-75 191q-75 77 -187 77z" />
    <glyph glyph-name="ohungarumlaut" unicode="&#x151;" horiz-adv-x="610" 
d="M361 780v-14l-113 -200h-55l85 214h83zM523 780v-14l-112 -200h-56l85 214h83zM305 498v-2q107 0 181 -73q75 -73 75 -180t-75 -180q-77 -75 -181 -74q-105 0 -180 75q-74 74 -74 180t74 180t180 74zM305 425l1 -1q-76 0 -127 -53q-49 -50 -49 -131q2 -79 50 -130
q49 -52 125 -52q75 0 126 53t51 129q0 80 -51 132q-51 53 -126 53z" />
    <glyph glyph-name="OE" unicode="&#x152;" horiz-adv-x="1127" 
d="M730 70l357 -3v-70h-435v124q-40 -63 -110 -99q-69 -36 -152 -36q-144 0 -243 99t-99 243t99 243t243 99q83 0 152 -36t110 -98v124h423v-70h-345v-204h264v-66h-264v-250zM390 58v-1q112 0 187 77q75 76 75 192t-75 192q-75 77 -187 77t-187 -76q-75 -77 -75 -192
t75 -192t187 -77z" />
    <glyph glyph-name="oe" unicode="&#x153;" horiz-adv-x="981" 
d="M931 277v1q0 -31 -6 -58h-378q8 -73 55 -116q49 -44 119 -44q81 0 145 66l47 -51q-81 -86 -194 -86q-67 0 -123 33q-54 32 -88 89q-31 -55 -85 -88t-121 -33q-106 0 -180 74q-73 73 -73 180q0 106 74 180t179 74q68 0 122 -33t84 -90q32 56 86 89t119 33q91 0 155 -62
q63 -61 63 -158zM708 428q-58 0 -102 -38q-43 -37 -55 -102h302q-2 65 -43 102q-43 38 -102 38zM302 61l-2 -3q75 0 122 53t47 131q0 79 -47 132t-120 53q-74 0 -124 -53q-49 -52 -49 -131q0 -78 49 -130t124 -52z" />
    <glyph glyph-name="Racute" unicode="&#x154;" horiz-adv-x="622" 
d="M412 896l-120 -172h-59l85 186h94v-14zM606 0h-89l-205 277h-141v-277h-78v660h232q96 0 153 -54t57 -138q0 -68 -37 -115t-102 -67zM171 590l-1 -243h151q65 0 99 33q35 33 35 88q0 53 -35 88q-34 34 -98 34h-151z" />
    <glyph glyph-name="racute" unicode="&#x155;" horiz-adv-x="362" 
d="M325 766l-120 -200h-59l85 214h94v-14zM308 491q19 0 36 -4v-68h-29q-62 0 -108 -38q-45 -37 -45 -105v-276h-77v487h72v-70q56 74 151 74z" />
    <glyph glyph-name="Rcommaaccent" unicode="&#x156;" horiz-adv-x="622" 
d="M396 286l212 -286h-91l-205 277h-141v-277h-78v660h232q96 0 153 -54t57 -138q0 -68 -37 -115t-102 -67zM171 590l-1 -243h151q65 0 99 33q35 33 35 88q0 53 -35 88q-34 34 -98 34h-151zM254 -220l9 171h76l-24 -171h-61z" />
    <glyph glyph-name="rcommaaccent" unicode="&#x157;" horiz-adv-x="362" 
d="M308 491q19 0 36 -4v-68h-29q-62 0 -108 -38q-45 -37 -45 -105v-276h-77v487h72v-70q56 74 151 74zM74 -220l9 171h76l-24 -171h-61z" />
    <glyph glyph-name="Rcaron" unicode="&#x158;" horiz-adv-x="622" 
d="M286 724h-48l-147 186h61l110 -107l110 107h61zM606 0h-89l-205 277h-141v-277h-78v660h232q96 0 153 -54t57 -138q0 -68 -37 -115t-102 -67zM171 590l-1 -243h151q65 0 99 33q35 33 35 88q0 53 -35 88q-34 34 -98 34h-151z" />
    <glyph glyph-name="rcaron" unicode="&#x159;" horiz-adv-x="362" 
d="M198 566h-48l-136 214h60l100 -127l100 127h59zM308 491q19 0 36 -4v-68h-29q-62 0 -108 -38q-45 -37 -45 -105v-276h-77v487h72v-70q56 74 151 74z" />
    <glyph glyph-name="Sacute" unicode="&#x15a;" horiz-adv-x="558" 
d="M433 910v-14l-120 -172h-59l85 186h94zM282 671v-1q67 0 120 -31q55 -32 86 -81l-57 -43q-56 83 -151 83q-50 0 -84 -25t-34 -72q0 -24 7 -39q8 -17 25 -30q17 -12 32 -21l42 -21l73 -35q80 -38 116 -79q38 -43 38 -105q0 -82 -60 -133t-153 -51q-76 0 -140 38
q-63 37 -102 104l58 43q74 -113 183 -113q59 0 96 30t37 80q0 43 -25 65t-84 51l-74 35q-67 31 -109 75q-39 41 -39 103q0 77 58 125q59 48 141 48z" />
    <glyph glyph-name="sacute" unicode="&#x15b;" horiz-adv-x="454" 
d="M382 780v-14l-120 -200h-59l85 214h94zM232 498l-2 1q100 0 162 -77l-47 -48q-53 54 -120 54q-36 0 -58 -16t-22 -45q0 -24 18 -39t61 -33l45 -19q69 -29 98 -61q30 -33 30 -82q0 -68 -49 -105t-121 -37q-118 0 -189 95l49 51q71 -75 140 -75q40 0 67 18t27 50
q0 29 -20 44q-14 11 -65 33l-47 20q-60 25 -91 56q-30 30 -30 79q0 64 47 100t117 36z" />
    <glyph glyph-name="Scircumflex" unicode="&#x15c;" horiz-adv-x="558" 
d="M283 832l-110 -108h-61l147 186h48l147 -186h-61zM343 357v-1q80 -38 116 -79q38 -43 38 -105q0 -82 -60 -133t-153 -51q-76 0 -140 38q-63 37 -102 104l58 43q74 -113 183 -113q59 0 96 30t37 80q0 43 -25 65q-25 23 -84 51l-74 35q-67 31 -109 75q-39 40 -39 103
q0 77 58 125q59 48 141 48q67 0 120 -31q55 -32 86 -81l-57 -43q-56 83 -151 83q-50 0 -84 -25t-34 -72q0 -24 7 -39q8 -17 25 -30q17 -12 32 -21l42 -21z" />
    <glyph glyph-name="scircumflex" unicode="&#x15d;" horiz-adv-x="454" 
d="M231 693l-100 -127h-60l136 214h48l135 -214h-59zM271 276l-2 1q69 -29 98 -61q30 -33 30 -82q0 -68 -49 -105t-121 -37q-118 0 -189 95l49 51q71 -75 140 -75q40 0 67 18t27 50q0 29 -20 44q-14 11 -65 33l-47 20q-60 25 -91 56q-30 30 -30 79q0 64 47 100t117 36
q100 0 162 -77l-47 -48q-53 54 -120 54q-36 0 -58 -16t-22 -45q0 -24 18 -39t61 -33z" />
    <glyph glyph-name="Scedilla" unicode="&#x15e;" horiz-adv-x="558" 
d="M497 173l3 -2q0 -68 -44 -117q-44 -48 -116 -62q25 -29 25 -70q0 -49 -36 -82t-96 -33q-36 0 -69 10v55q28 -4 56 -4q36 0 56 16q21 17 21 49q0 28 -17 54q-76 1 -138 39q-60 37 -100 104l58 43q74 -113 183 -113q59 0 96 30t37 80q0 43 -25 65q-25 23 -84 51l-74 35
q-67 31 -109 75q-39 40 -39 103q0 77 58 125q59 48 141 48q67 0 120 -31q55 -32 86 -81l-57 -43q-56 83 -151 83q-50 0 -84 -25t-34 -72q0 -24 7 -39q8 -17 25 -30q17 -12 32 -21l42 -21l73 -35q80 -38 116 -79q38 -43 38 -105z" />
    <glyph glyph-name="scedilla" unicode="&#x15f;" horiz-adv-x="454" 
d="M400 132v1q0 -53 -31 -87q-32 -35 -82 -48q26 -32 26 -72q0 -49 -36 -82t-96 -33q-36 0 -69 10v55q28 -4 56 -4q36 0 56 16q21 16 21 49q0 28 -17 54q-118 0 -189 95l49 51q70 -75 140 -75q40 0 67 18t27 50q0 29 -20 44q-14 11 -65 33l-47 20q-60 25 -91 56
q-30 30 -30 79q0 64 47 100q46 36 117 36q100 0 162 -77l-47 -48q-52 54 -120 54q-36 0 -58 -16t-22 -45q0 -24 18 -39t61 -33l45 -19q69 -29 98 -61q30 -33 30 -82z" />
    <glyph glyph-name="Scaron" unicode="&#x160;" horiz-adv-x="558" 
d="M307 724h-48l-147 186h61l110 -107l110 107h61zM343 357v-1q80 -38 116 -79q38 -43 38 -105q0 -82 -60 -133t-153 -51q-76 0 -140 38q-63 37 -102 104l58 43q74 -113 183 -113q59 0 96 30t37 80q0 43 -25 65q-25 23 -84 51l-74 35q-67 31 -109 75q-39 40 -39 103
q0 77 58 125q59 48 141 48q67 0 120 -31q55 -32 86 -81l-57 -43q-56 83 -151 83q-50 0 -84 -25t-34 -72q0 -24 7 -39q8 -17 25 -30q17 -12 32 -21l42 -21z" />
    <glyph glyph-name="scaron" unicode="&#x161;" horiz-adv-x="454" 
d="M255 566h-48l-136 214h60l100 -127l100 127h59zM271 276l-2 1q69 -29 98 -61q30 -33 30 -82q0 -68 -49 -105t-121 -37q-118 0 -189 95l49 51q71 -75 140 -75q40 0 67 18t27 50q0 29 -20 44q-14 11 -65 33l-47 20q-60 25 -91 56q-30 30 -30 79q0 64 47 100t117 36
q100 0 162 -77l-47 -48q-53 54 -120 54q-36 0 -58 -16t-22 -45q0 -24 18 -39t61 -33z" />
    <glyph glyph-name="uni0162" unicode="&#x162;" horiz-adv-x="581" 
d="M562 590h-231v-588q32 -32 32 -78q0 -49 -36 -82t-96 -33q-36 0 -69 10v55q28 -4 56 -4q36 0 56 16q21 16 21 49q0 36 -25 65h-19v590h-232v70h543v-70z" />
    <glyph glyph-name="uni0163" unicode="&#x163;" horiz-adv-x="381" 
d="M351 65l1 -64q-49 -11 -81 -11q21 -28 21 -65q0 -49 -36 -82t-96 -33q-36 0 -69 10v55q28 -4 56 -4q36 0 56 16q21 17 21 49t-24 64q-96 32 -96 148v271h-82v69h82v133h77v-133h152v-69h-152v-266q0 -52 27 -73t77 -21q29 0 66 6z" />
    <glyph glyph-name="Tcaron" unicode="&#x164;" horiz-adv-x="581" 
d="M315 724h-48l-147 186h61l110 -107l110 107h61zM19 660h543v-70h-233v-590h-78v590h-232v70z" />
    <glyph glyph-name="tcaron" unicode="&#x165;" horiz-adv-x="402" 
d="M375 750l-39 -211h-57l13 211h83zM183 152l-2 1q0 -52 27 -73t77 -21q29 0 66 6v-65q-49 -11 -81 -11q-76 0 -120 39t-44 119v271h-82v69h82v133h77v-133h152v-69h-152v-266z" />
    <glyph glyph-name="Tbar" unicode="&#x166;" horiz-adv-x="581" 
d="M562 660v-70h-233v-264h196v-66h-196v-260h-78v260h-195v66h195v264h-232v70h543z" />
    <glyph glyph-name="tbar" unicode="&#x167;" horiz-adv-x="394" 
d="M293 59h1q28 0 66 6v-65q-46 -11 -81 -11q-75 0 -119 39t-44 119v72h-83v66h83v135h-83v67h83v133h76v-133h152v-67h-152v-135h152v-66h-152v-67q0 -51 26 -72t75 -21z" />
    <glyph glyph-name="Utilde" unicode="&#x168;" horiz-adv-x="689" 
d="M266 878l-3 1q33 0 70 -23l34 -22q32 -20 45 -20q29 0 29 37v18h65q1 -5 1 -26q0 -43 -24 -72q-24 -28 -61 -28q-34 0 -73 24l-33 20q-32 20 -42 20q-30 0 -30 -38v-16h-64q-2 18 -2 24q0 43 24 72t64 29zM603 661l1 -399q0 -128 -73 -200t-189 -72t-190 72
q-73 72 -73 201v398h78v-403q0 -96 51 -146q52 -50 134 -50q80 0 132 50q51 49 51 146v403h78z" />
    <glyph glyph-name="utilde" unicode="&#x169;" 
d="M208 738v1q37 0 69 -26l26 -22q26 -23 42 -23q28 0 28 41v17h64q1 -6 1 -25q0 -44 -23 -75q-22 -30 -62 -30q-37 0 -69 26l-26 22q-26 23 -42 23q-28 0 -28 -41v-17h-64q-1 6 -1 25q0 46 23 75t62 29zM482 488l-3 -296q-2 -93 -57 -148q-57 -57 -143 -57q-87 0 -144 57
t-57 149v293h76v-298q0 -58 36 -93q37 -35 90 -35t89 36t36 94v298h77z" />
    <glyph glyph-name="Umacron" unicode="&#x16a;" horiz-adv-x="689" 
d="M491 833v-63h-295v63h295zM606 660l1 -399q0 -128 -73 -200q-74 -72 -189 -72q-117 0 -190 72t-73 201v398h78v-403q0 -97 51 -146q52 -50 134 -50q80 0 132 50q51 50 51 146v403h78z" />
    <glyph glyph-name="umacron" unicode="&#x16b;" 
d="M417 704v-62h-275v62h275zM482 487l-3 -296q-2 -93 -57 -148q-57 -57 -143 -57q-87 0 -144 57t-57 149v293h76v-298q0 -59 36 -93q37 -35 90 -35t89 36t36 94v298h77z" />
    <glyph glyph-name="Ubreve" unicode="&#x16c;" horiz-adv-x="689" 
d="M496 892l2 -2q0 -66 -43 -109t-109 -43q-65 0 -109 44q-43 43 -43 110h65q0 -42 24 -67t62 -25t62 25t24 67h65zM608 658l1 -399q0 -128 -73 -200q-74 -72 -189 -72q-117 0 -190 72t-73 201v398h78v-403q0 -97 51 -146q52 -50 134 -50q80 0 132 50q51 50 51 146v403h78z
" />
    <glyph glyph-name="ubreve" unicode="&#x16d;" 
d="M431 736l1 -1q0 -65 -43 -108t-109 -43q-65 0 -109 44q-43 43 -43 108h65q0 -40 24 -66q24 -25 62 -25t63 25t25 66h64zM483 486l-3 -296q-2 -93 -57 -148q-57 -57 -143 -57q-87 0 -144 57t-57 149v293h76v-298q0 -58 36 -93q37 -35 90 -35t89 36t36 94v298h77z" />
    <glyph glyph-name="Uring" unicode="&#x16e;" horiz-adv-x="689" 
d="M342 914v-4q49 0 80 -31q32 -32 32 -76t-32 -76q-31 -31 -80 -31q-46 0 -78 32t-32 77t32 77t78 32zM343 853h-2q-23 0 -36 -15q-14 -16 -14 -37q0 -23 15 -36q16 -14 36 -14t36 14q15 13 15 36q0 21 -14 37q-13 15 -36 15zM604 656l1 -399q0 -128 -73 -200
q-74 -72 -189 -72q-117 0 -190 72t-73 201v398h78v-403q0 -96 51 -146q52 -50 134 -50q80 0 132 50q51 50 51 146v403h78z" />
    <glyph glyph-name="uring" unicode="&#x16f;" 
d="M278 776q49 0 80 -31q32 -32 32 -78q0 -45 -32 -77t-80 -32q-46 0 -78 32t-32 77q0 46 32 78q31 31 78 31zM279 720h2q-21 0 -36 -15t-15 -37t14 -36t36 -14t36 14t14 36t-15 37t-36 15zM484 487l-3 -296q-2 -93 -57 -148q-57 -57 -143 -57q-87 0 -144 57t-57 149v293h76
v-298q0 -59 36 -93q37 -35 90 -35t89 36t36 94v298h77z" />
    <glyph glyph-name="Uhungarumlaut" unicode="&#x170;" horiz-adv-x="689" 
d="M384 910v-14l-113 -172h-55l85 186h83zM566 910v-14l-112 -172h-56l85 186h83zM606 660l1 -399q0 -128 -73 -200q-74 -72 -189 -72q-117 0 -190 72t-73 201v398h78v-403q0 -97 51 -146q52 -50 134 -50q80 0 132 50q51 50 51 146v403h78z" />
    <glyph glyph-name="uhungarumlaut" unicode="&#x171;" 
d="M335 780v-14l-113 -200h-55l85 214h83zM497 780v-14l-112 -200h-56l85 214h83zM482 487l-3 -296q-2 -93 -57 -148q-57 -57 -143 -57q-87 0 -144 57t-57 149v293h76v-298q0 -59 36 -93q37 -35 90 -35t89 36t36 94v298h77z" />
    <glyph glyph-name="Uogonek" unicode="&#x172;" horiz-adv-x="689" 
d="M528 660l71 1v-398q0 -31 -4 -54q-5 -27 -9 -44q-4 -16 -17 -39q-12 -21 -18 -33q-5 -11 -24 -31l-24 -25q-5 -6 -28 -25q-23 -20 -27 -24q-26 -22 -36 -39q-11 -17 -11 -36q0 -40 50 -40q25 0 54 7v-57q-36 -12 -73 -12q-48 0 -78 21t-30 62q0 53 63 101q-30 -5 -50 -5
q-109 0 -183 75q-74 76 -74 197v398h78v-403q0 -90 53 -143t132 -53t132 53t53 143v403z" />
    <glyph glyph-name="uogonek" unicode="&#x173;" 
d="M405 487l74 -2v-293q0 -47 -15 -83q-15 -35 -35 -57q-19 -21 -60 -57q-14 -12 -15 -13q-30 -28 -38 -40q-11 -16 -11 -34q0 -42 52 -42q25 0 54 7v-53q-39 -13 -74 -13q-47 0 -75 21t-28 62q0 52 57 96h-11q-88 0 -145 57t-57 149v293h76v-298q0 -59 36 -93
q37 -35 90 -35t89 36t36 94v298z" />
    <glyph glyph-name="Wcircumflex" unicode="&#x174;" horiz-adv-x="1066" 
d="M533 832l-110 -108h-61l147 186h48l147 -186h-61zM935 660h85l-250 -671h-28l-209 524l-209 -524h-28l-251 671h86l182 -503l206 514h28l206 -514z" />
    <glyph glyph-name="wcircumflex" unicode="&#x175;" horiz-adv-x="851" 
d="M424 693l-100 -127h-60l136 214h48l135 -214h-59zM742 487h82l-205 -498h-28l-166 368l-165 -368h-27l-207 498h82l140 -360l163 371h29l164 -369z" />
    <glyph glyph-name="Ycircumflex" unicode="&#x176;" horiz-adv-x="616" 
d="M305 832l-110 -108h-61l147 186h48l147 -186h-61zM576 660l-229 -386v-274h-78v274l-229 386h88l180 -310l181 310h87z" />
    <glyph glyph-name="ycircumflex" unicode="&#x177;" horiz-adv-x="539" 
d="M267 693l-100 -127h-60l136 214h48l135 -214h-59zM431 487l81 1l-240 -555q-54 -123 -165 -123q-39 0 -75 10v65q42 -5 59 -5q37 0 65 17q26 16 46 60l26 59l-202 471h83l161 -388z" />
    <glyph glyph-name="Ydieresis" unicode="&#x178;" horiz-adv-x="616" 
d="M188 757l-1 -2q-23 0 -39 15t-16 38t17 38t39 15t39 -15q16 -15 16 -37t-16 -37q-17 -15 -39 -15zM420 754l-1 -1q-23 0 -39 15t-16 38q0 22 17 39q16 16 39 16t39 -16t16 -39q0 -22 -16 -37q-17 -15 -39 -15zM574 657l-229 -386v-274h-78v274l-229 386h88l180 -310
l181 310h87z" />
    <glyph glyph-name="Zacute" unicode="&#x179;" horiz-adv-x="589" 
d="M450 896l-120 -172h-59l85 186h94v-14zM154 70h401v-70h-523v23l399 567h-356v70h479v-23z" />
    <glyph glyph-name="zacute" unicode="&#x17a;" horiz-adv-x="454" 
d="M389 766l-120 -200h-59l85 214h94v-14zM145 68h282v-68h-400v23l278 395h-255v69h374v-23z" />
    <glyph glyph-name="Zdotaccent" unicode="&#x17b;" horiz-adv-x="589" 
d="M300 754v-1q-25 0 -41 16q-17 17 -17 40q0 22 17 39t41 17q23 0 39 -16q17 -17 17 -39q0 -24 -16 -40t-40 -16zM154 69h401v-70h-523v23l399 567h-356v70h479v-23z" />
    <glyph glyph-name="zdotaccent" unicode="&#x17c;" horiz-adv-x="454" 
d="M237 617v-1q-25 0 -41 16q-17 17 -17 40q0 22 17 39t41 17q23 0 39 -16q17 -17 17 -39q0 -24 -16 -40t-40 -16zM145 67h282v-68h-400v23l278 395h-255v69h374v-23z" />
    <glyph glyph-name="Zcaron" unicode="&#x17d;" horiz-adv-x="589" 
d="M324 724h-48l-147 186h61l110 -107l110 107h61zM154 70h401v-70h-523v23l399 567h-356v70h479v-23z" />
    <glyph glyph-name="zcaron" unicode="&#x17e;" horiz-adv-x="454" 
d="M262 566h-48l-136 214h60l100 -127l100 127h59zM145 68h282v-68h-400v23l278 395h-255v69h374v-23z" />
    <glyph glyph-name="uni018F" unicode="&#x18f;" horiz-adv-x="733" 
d="M351 671h-3q140 0 236 -99t96 -241q0 -143 -98 -243q-98 -99 -237 -99q-125 0 -212 81t-87 212q0 29 6 71h547q-7 108 -78 177q-70 69 -173 69q-64 0 -120 -30t-93 -82l-54 45q47 64 117 102q70 37 153 37zM347 61v-2q95 0 164 63t84 160h-473q-2 -101 64 -161t161 -60z
" />
    <glyph glyph-name="florin" unicode="&#x192;" horiz-adv-x="443" 
d="M379 671l-1 1q30 0 57 -8v-64q-9 0 -19.5 0.5t-16.5 1t-9 0.5q-48 0 -72 -21q-25 -22 -31 -72l-13 -109h104v-69h-113l-37 -306q-19 -157 -165 -157q-31 0 -59 7v65q26 -3 45 -3q47 0 72 21q27 22 33 72l37 300h-78v69h86l14 114q20 158 166 158z" />
    <glyph glyph-name="uni01D4" unicode="&#x1d4;" 
d="M304 566h-48l-136 214h60l100 -127l100 127h59zM405 487l74 -3v-293q0 -91 -57 -148t-143 -57q-87 0 -144 57t-57 149v293h76v-298q0 -59 36 -93q37 -35 90 -35t89 36t36 94v298z" />
    <glyph glyph-name="AEacute" unicode="&#x1fc;" horiz-adv-x="821" 
d="M567 896l-120 -172h-59l85 186h94v-14zM535 70h246v-70h-314l-23 134h-276l-71 -134h-84l344 660h412v-70h-322l34 -202h208v-70h-196zM377 542l-172 -338h227z" />
    <glyph glyph-name="aeacute" unicode="&#x1fd;" horiz-adv-x="895" 
d="M578 766l-120 -200h-59l85 214h94v-14zM837 211l-385 -3q11 -69 59 -110q49 -41 119 -41q82 0 147 65l46 -51q-76 -85 -194 -85q-67 0 -123 32t-90 87q-26 -57 -79 -87q-54 -30 -122 -30q-76 0 -124 39t-48 103q0 65 48 104t127 39h154v30q0 60 -32 92t-84 32
q-81 0 -141 -78l-51 42q68 107 198 107q124 0 167 -102q71 102 195 102q93 0 157 -62q63 -62 63 -159q0 -45 -7 -66zM452 271l309 -2q5 71 -38 113q-42 42 -107 42t-110 -42t-54 -111zM221 49l1 2q60 0 104 38t44 93v25h-145q-105 0 -105 -73q0 -40 29 -63q28 -22 72 -22z
" />
    <glyph glyph-name="Oslashacute" unicode="&#x1fe;" horiz-adv-x="782" 
d="M541 896l-120 -172h-59l85 186h94v-14zM739 631l-82 -84q77 -94 77 -217q0 -144 -100 -243t-243 -99q-125 0 -217 76l-83 -84l-48 48l83 83q-77 95 -77 218q0 144 99 243t242 99q125 0 217 -76l84 84zM127 331l-1 -1q0 -95 52 -165l379 379q-73 58 -166 58
q-114 0 -189 -78t-75 -193zM655 330l-2 1q0 94 -52 164l-379 -379q73 -58 168 -58q112 0 189 78q76 77 76 194z" />
    <glyph glyph-name="oslashacute" unicode="&#x1ff;" horiz-adv-x="621" 
d="M463 766l-120 -200h-59l85 214h94v-14zM572 458l-61 -58q52 -70 52 -156q0 -106 -75 -180q-76 -74 -181 -74q-86 0 -153 52l-58 -60l-48 48l59 59q-52 67 -52 155q0 106 74 180t180 74q86 0 156 -52l59 58zM308 432q-78 0 -129 -53t-51 -134q0 -61 30 -107l258 260
q-46 34 -108 34zM307 57q77 0 130 54q52 53 52 134q0 59 -30 106l-259 -258q45 -36 107 -36z" />
    <glyph glyph-name="Scommaaccent" unicode="&#x218;" horiz-adv-x="558" 
d="M282 671v-1q67 0 120 -31q55 -32 86 -81l-57 -43q-56 83 -151 83q-50 0 -84 -25t-34 -72q0 -24 7 -39q8 -17 25 -30q17 -12 32 -21l42 -21l73 -35q80 -38 116 -79q38 -43 38 -105q0 -82 -60 -133t-153 -51q-76 0 -140 38q-63 37 -102 104l58 43q74 -113 183 -113
q59 0 96 30t37 80q0 43 -25 65t-84 51l-74 35q-67 31 -109 75q-39 41 -39 103q0 77 58 125q59 48 141 48zM328 -50l-24 -171h-61l9 171h76z" />
    <glyph glyph-name="scommaaccent" unicode="&#x219;" horiz-adv-x="454" 
d="M232 498l-2 1q100 0 162 -77l-47 -48q-53 54 -120 54q-36 0 -58 -16t-22 -45q0 -24 18 -39t61 -33l45 -19q69 -29 98 -61q30 -33 30 -82q0 -68 -49 -105t-121 -37q-118 0 -189 95l49 51q71 -75 140 -75q40 0 67 18t27 50q0 29 -20 44q-14 11 -65 33l-47 20q-60 25 -91 56
q-30 30 -30 79q0 64 47 100t117 36zM277 -48l-24 -171h-61l9 171h76z" />
    <glyph glyph-name="uni021A" unicode="&#x21a;" horiz-adv-x="581" 
d="M562 660v-70h-233v-590h-78v590h-232v70h543zM328 -49l-24 -171h-61l9 171h76z" />
    <glyph glyph-name="uni021B" unicode="&#x21b;" horiz-adv-x="381" 
d="M286 59l-2 1q28 0 66 6v-65q-49 -11 -81 -11q-77 0 -120 39q-44 39 -44 119v271h-82v69h82v133h77v-133h152v-69h-152v-266q0 -52 27 -73t77 -21zM172 -219l9 171h76l-24 -171h-61z" />
    <glyph glyph-name="uni0237" unicode="&#x237;" horiz-adv-x="246" 
d="M162 487v-520q0 -80 -43 -119t-117 -39q-32 0 -62 8v65q26 -3 45 -3q100 0 100 93v515h77z" />
    <glyph glyph-name="uni0259" unicode="&#x259;" horiz-adv-x="571" 
d="M272 498v-1q106 0 178 -73q72 -74 72 -180t-72 -181t-177 -75q-94 0 -159 62q-64 61 -64 158q0 28 6 58h385q-7 74 -54 117q-47 44 -117 44q-81 0 -147 -66l-45 52q79 85 194 85zM274 57l-1 -2q62 0 107 39t57 103h-307q0 -65 42 -102q43 -38 102 -38z" />
    <glyph glyph-name="circumflex" unicode="&#x2c6;" horiz-adv-x="379" 
d="M349 566h-59l-100 127l-100 -127h-60l136 214h48z" />
    <glyph glyph-name="caron" unicode="&#x2c7;" horiz-adv-x="379" 
d="M290 780h59l-135 -214h-48l-136 214h60l100 -127z" />
    <glyph glyph-name="breve" unicode="&#x2d8;" horiz-adv-x="364" 
d="M334 736l1 -1q0 -65 -43 -108t-109 -43q-65 0 -109 44q-43 43 -43 108h65q0 -40 24 -66q24 -25 62 -25t63 25t25 66h64z" />
    <glyph glyph-name="dotaccent" unicode="&#x2d9;" horiz-adv-x="175" 
d="M88 729v-1q23 0 39 -16q17 -17 17 -39q0 -24 -16 -40t-40 -16q-25 0 -41 16q-17 17 -17 40q0 22 17 39t41 17z" />
    <glyph glyph-name="ring" unicode="&#x2da;" horiz-adv-x="282" 
d="M140 776q49 0 80 -31q32 -32 32 -78q0 -45 -32 -77t-80 -32q-46 0 -78 32t-32 77q0 46 32 78q31 31 78 31zM141 720h2q-21 0 -36 -15t-15 -37t14 -36t36 -14t36 14t14 36t-15 37t-36 15z" />
    <glyph glyph-name="ogonek" unicode="&#x2db;" horiz-adv-x="239" 
d="M173 35l29 -35l-49 -33l-28 -19q-7 -5 -16 -17q-7 -10 -7 -23q0 -37 48 -37q25 0 54 7v-58q-36 -11 -72 -11q-48 0 -78 24t-30 63q0 37 33 67q32 29 116 72z" />
    <glyph glyph-name="tilde" unicode="&#x2dc;" horiz-adv-x="374" 
d="M115 738v1q37 0 69 -26l26 -22q26 -23 42 -23q28 0 28 41v17h64q1 -6 1 -25q0 -44 -23 -75q-22 -30 -62 -30q-37 0 -69 26l-26 22q-26 23 -42 23q-28 0 -28 -41v-17h-64q-1 6 -1 25q0 46 23 75t62 29z" />
    <glyph glyph-name="hungarumlaut" unicode="&#x2dd;" horiz-adv-x="390" 
d="M198 780v-14l-113 -200h-55l85 214h83zM360 780v-14l-112 -200h-56l85 214h83z" />
    <glyph glyph-name="uni030C" unicode="&#x30c;" horiz-adv-x="0" 
d="M-30 750l-38 -211h-58l13 211h83z" />
    <glyph glyph-name="uni0326" unicode="&#x326;" horiz-adv-x="0" 
d="M-30 -49l-24 -171h-61l9 171h76z" />
    <glyph glyph-name="dieresistonos" unicode="&#x385;" horiz-adv-x="493" 
d="M299 780v-14l-34 -200h-58v214h92zM96 727v-3q22 0 39 -15q16 -15 16 -38q0 -22 -16 -37q-17 -15 -39 -15t-38 16q-17 17 -17 37q0 22 17 39q16 16 38 16zM398 724l-2 -1q23 0 39 -16q17 -17 17 -39t-16 -37t-39 -15t-39 15t-16 38q0 22 17 39q16 16 39 16z" />
    <glyph glyph-name="Alphatonos" unicode="&#x386;" horiz-adv-x="663" 
d="M136 720l-38 -211h-58l13 211h83zM549 0l-57 134h-322l-57 -134h-82l286 671h29l286 -671h-83zM463 204l-132 324l-132 -324h264z" />
    <glyph glyph-name="Epsilontonos" unicode="&#x388;" horiz-adv-x="566" 
d="M8 720l-38 -211h-58l13 211h83zM514 660v-70h-345v-202h264v-70h-264v-248h357v-70h-435v660h423z" />
    <glyph glyph-name="Etatonos" unicode="&#x389;" horiz-adv-x="708" 
d="M8 720l-38 -211h-58l13 211h83zM617 660v-660h-78v318h-370v-318h-78v660h78v-272h370v272h78z" />
    <glyph glyph-name="Iotatonos" unicode="&#x38a;" horiz-adv-x="259" 
d="M8 720l-38 -211h-58l13 211h83zM169 660v-660h-78v660h78z" />
    <glyph glyph-name="Omicrontonos" unicode="&#x38c;" horiz-adv-x="781" 
d="M45 720l-38 -211h-58l13 211h83zM390 671h1q143 0 243 -99t100 -243t-100 -243t-243 -99q-144 0 -243 99t-99 243t99 243t242 99zM392 599h-1q-112 0 -187 -76q-75 -77 -75 -192t75 -192t188 -77q112 0 187 77t75 192t-75 191q-75 77 -187 77z" />
    <glyph glyph-name="Upsilontonos" unicode="&#x38e;" horiz-adv-x="616" 
d="M-138 509l13 211h83l-38 -211h-58zM576 660l-229 -386v-274h-78v274l-229 386h88l180 -310l181 310h87z" />
    <glyph glyph-name="Omegatonos" unicode="&#x38f;" horiz-adv-x="792" 
d="M-51 509l13 211h83l-38 -211h-58zM738 343l-1 -1q0 -162 -162 -273h152v-70h-269v70q198 95 198 270q0 113 -75 186q-74 73 -187 73q-112 0 -186 -72t-74 -185q0 -175 198 -270v-70h-269v70h149q-159 107 -159 273q0 141 99 234t243 93q143 0 243 -94t100 -234z" />
    <glyph glyph-name="iotadieresistonos" unicode="&#x390;" horiz-adv-x="285" 
d="M182 780v-14l-34 -200h-58v214h92zM-21 727l-1 -3q22 0 39 -15q16 -15 16 -38q0 -22 -16 -37q-17 -15 -39 -15t-39 15q-16 15 -16 38q0 22 17 39q16 16 39 16zM280 724l-2 -1q23 0 39 -16q17 -17 17 -39t-16 -37t-39 -15t-39 15t-16 38q0 22 17 39q16 16 39 16zM156 483
l-1 -342q0 -46 17 -66t51 -20q2 0 6.5 0.5t13 1t16.5 0.5v-65q-24 -7 -54 -7q-126 0 -126 148v350h77z" />
    <glyph glyph-name="Alpha" unicode="&#x391;" horiz-adv-x="663" 
d="M549 0l-57 134h-322l-57 -134h-82l286 671h29l286 -671h-83zM463 204l-132 324l-132 -324h264z" />
    <glyph glyph-name="Beta" unicode="&#x392;" horiz-adv-x="616" 
d="M442 363l1 -1q62 -18 96 -64t34 -109q0 -85 -57 -137q-58 -53 -153 -53h-272v660h227q85 0 137 -47q51 -46 51 -120q0 -83 -64 -129zM311 589l-141 1v-205h141q57 0 86 28q30 29 30 75q0 47 -30 74t-86 27zM356 70q65 0 101 33t36 89t-36 89t-101 33h-186v-244h186z" />
    <glyph glyph-name="Gamma" unicode="&#x393;" horiz-adv-x="506" 
d="M169 0h-78v660h391v-70h-313v-590z" />
    <glyph glyph-name="Delta" unicode="&#x394;" horiz-adv-x="663" 
d="M346 671l286 -671h-601l286 671h29zM331 518l-188 -448h377z" />
    <glyph glyph-name="Epsilon" unicode="&#x395;" horiz-adv-x="566" 
d="M514 660v-70h-345v-202h264v-70h-264v-248h357v-70h-435v660h423z" />
    <glyph glyph-name="Zeta" unicode="&#x396;" horiz-adv-x="589" 
d="M154 70h401v-70h-523v23l399 567h-356v70h479v-23z" />
    <glyph glyph-name="Eta" unicode="&#x397;" horiz-adv-x="708" 
d="M617 660v-660h-78v318h-370v-318h-78v660h78v-272h370v272h78z" />
    <glyph glyph-name="Theta" unicode="&#x398;" horiz-adv-x="781" 
d="M390 671h1q143 0 243 -99t100 -243t-100 -243t-243 -99q-144 0 -243 99t-99 243t99 243t242 99zM391 602v2q-114 0 -189 -78t-75 -195t75 -195t189 -78t190 78q76 77 76 194t-76 194q-76 78 -190 78zM530 374v-68h-276v68h276z" />
    <glyph glyph-name="Iota" unicode="&#x399;" horiz-adv-x="259" 
d="M169 660v-660h-78v660h78z" />
    <glyph glyph-name="Kappa" unicode="&#x39a;" horiz-adv-x="633" 
d="M91 0v660h78v-660h-78zM279 354l323 -354h-99l-325 354l297 306h100z" />
    <glyph glyph-name="Lambda" unicode="&#x39b;" horiz-adv-x="663" 
d="M632 0h-83l-218 519l-218 -519h-82l286 671h29z" />
    <glyph glyph-name="Mu" unicode="&#x39c;" horiz-adv-x="789" 
d="M671 671h27v-671h-78v474l-211 -287h-28l-212 288v-475h-78v671h28l275 -382z" />
    <glyph glyph-name="Nu" unicode="&#x39d;" horiz-adv-x="708" 
d="M539 660h78v-671h-28l-420 507v-496h-78v671h28l420 -508v497z" />
    <glyph glyph-name="Xi" unicode="&#x39e;" horiz-adv-x="545" 
d="M505 660v-70h-465v70h465zM494 388v-70h-442v70h442zM505 70v-70h-465v70h465z" />
    <glyph glyph-name="Omicron" unicode="&#x39f;" horiz-adv-x="781" 
d="M390 671h1q143 0 243 -99t100 -243t-100 -243t-243 -99q-144 0 -243 99t-99 243t99 243t242 99zM392 599h-1q-112 0 -187 -76q-75 -77 -75 -192t75 -192t188 -77q112 0 187 77t75 192t-75 191q-75 77 -187 77z" />
    <glyph glyph-name="Pi" unicode="&#x3a0;" horiz-adv-x="682" 
d="M591 660v-660h-78v590h-344v-590h-78v660h500z" />
    <glyph glyph-name="Rho" unicode="&#x3a1;" horiz-adv-x="573" 
d="M323 660v1q96 0 153 -54t57 -138q0 -85 -57 -139t-153 -54h-154v-276h-78v660h232zM321 591h-154v-244h152q63 0 98 33t35 89q0 54 -34 88t-97 34z" />
    <glyph glyph-name="Sigma" unicode="&#x3a3;" horiz-adv-x="574" 
d="M194 70h340v-70h-469v20l230 318l-230 302v20h457v-70h-325l184 -241v-20z" />
    <glyph glyph-name="Tau" unicode="&#x3a4;" horiz-adv-x="581" 
d="M562 660v-70h-233v-590h-78v590h-232v70h543z" />
    <glyph glyph-name="Upsilon" unicode="&#x3a5;" horiz-adv-x="616" 
d="M576 660l-229 -386v-274h-78v274l-229 386h88l180 -310l181 310h87z" />
    <glyph glyph-name="Phi" unicode="&#x3a6;" horiz-adv-x="798" 
d="M749 335l-1 -2q0 -125 -87 -198t-225 -75v-93h-78v93q-137 2 -224 75t-87 198t87 197q88 73 225 74v86h78v-86q139 -2 225 -73q87 -72 87 -196zM128 331v-1q0 -94 63 -147q64 -53 168 -53v401q-104 0 -168 -53q-63 -52 -63 -147zM436 130v1q104 0 168 53q63 52 63 147
t-63 147q-64 53 -168 53v-401z" />
    <glyph glyph-name="Chi" unicode="&#x3a7;" horiz-adv-x="599" 
d="M569 0h-91l-178 272l-179 -272h-91l227 338l-211 322h90l165 -257l162 257h90l-208 -323z" />
    <glyph glyph-name="Psi" unicode="&#x3a8;" horiz-adv-x="820" 
d="M449 681v-459q103 0 162 48t59 145v246h78v-252q0 -126 -80 -191t-219 -65v-152h-78v152q-139 0 -219 65t-80 191v252h78v-246q0 -97 59 -145t162 -48v459h78z" />
    <glyph glyph-name="Omega" unicode="&#x3a9;" horiz-adv-x="792" 
d="M738 343l-1 -1q0 -162 -162 -273h152v-70h-269v70q198 95 198 270q0 113 -75 186q-74 73 -187 73q-112 0 -186 -72t-74 -185q0 -175 198 -270v-70h-269v70h149q-159 107 -159 273q0 141 99 234t243 93q143 0 243 -94t100 -234z" />
    <glyph glyph-name="Iotadieresis" unicode="&#x3aa;" horiz-adv-x="259" 
d="M13 863l-1 -2q22 0 39 -15q16 -15 16 -37t-16 -37q-17 -15 -39 -15t-39 15q-16 15 -16 38t17 38q16 15 39 15zM245 861l-1 -1q23 0 39 -16t16 -39q0 -22 -16 -37q-17 -15 -39 -15t-39 15q-16 15 -16 38q0 22 17 39q16 16 39 16zM167 657v-660h-78v660h78z" />
    <glyph glyph-name="Upsilondieresis" unicode="&#x3ab;" horiz-adv-x="616" 
d="M167 757l-1 -2q-22 0 -39 15q-16 15 -16 38t17 38q16 15 39 15t39 -15t16 -37t-16 -37t-39 -15zM399 754l-1 -1q-22 0 -39 15q-16 15 -16 38q0 22 17 39q16 16 39 16t39 -16t16 -39q0 -22 -16 -37t-39 -15zM574 657l-229 -386v-274h-78v274l-229 386h88l180 -310l181 310
h87z" />
    <glyph glyph-name="alphatonos" unicode="&#x3ac;" horiz-adv-x="644" 
d="M370 766l-33 -200h-60v214h93v-14zM593 62l-4 -1q9 0 30 3v-65q-28 -7 -53 -7q-86 0 -102 85q-29 -42 -76 -66q-48 -24 -104 -24q-102 0 -169 73t-67 183q0 108 67 181t171 73q59 0 108 -25q50 -26 77 -69q1 17 6 84h73q-10 -144 -10 -232v-122q0 -71 53 -71zM293 59h-1
q68 0 118 48q49 48 49 136t-48 136t-118 48q-73 0 -121 -52q-48 -53 -48 -132t48 -132q48 -52 121 -52z" />
    <glyph glyph-name="epsilontonos" unicode="&#x3ad;" horiz-adv-x="498" 
d="M312 766l-33 -200h-60v214h93v-14zM400 129l53 -48q-69 -94 -196 -94q-84 0 -139 41q-54 41 -54 107q0 40 21 71q21 32 59 50q-59 36 -59 108q0 62 48 98t126 36q125 0 186 -85l-52 -46q-49 60 -132 60q-97 0 -97 -68q0 -31 21 -49t63 -18h91v-68h-89q-53 0 -81 -22
t-28 -57q0 -39 30 -62q31 -23 86 -23q91 0 143 69z" />
    <glyph glyph-name="etatonos" unicode="&#x3ae;" horiz-adv-x="586" 
d="M348 766l-33 -200h-60v214h93v-14zM326 498v-1q83 0 133 -53q49 -52 49 -138v-486h-77v476q0 59 -33 95t-88 36q-57 0 -93 -37q-36 -38 -36 -94v-296h-76v354q0 69 -55 69q-19 0 -30 -1v65q27 7 54 7q73 0 96 -65q56 69 156 69z" />
    <glyph glyph-name="iotatonos" unicode="&#x3af;" horiz-adv-x="285" 
d="M179 780v-14l-33 -200h-60v214h93zM159 487l-1 -342q0 -46 17 -66t51 -20q2 0 6.5 0.5t13 1t16.5 0.5v-65q-24 -7 -54 -7q-126 0 -126 148v350h77z" />
    <glyph glyph-name="upsilondieresistonos" unicode="&#x3b0;" horiz-adv-x="552" 
d="M326 780v-14l-34 -200h-58v214h92zM123 727v-3q23 0 39 -15t16 -38q0 -22 -16 -37t-39 -15q-22 0 -38 16q-17 17 -17 37q0 22 17 39q16 16 38 16zM425 724l-2 -1q23 0 39 -16q17 -17 17 -39t-16 -37q-17 -15 -39 -15t-39 15q-16 15 -16 38q0 22 17 39q16 16 39 16z
M439 483h-1q49 -126 49 -254q0 -123 -57 -183t-148 -60q-90 0 -148 56q-57 56 -57 155v287h77v-291q0 -63 36 -100t93 -37q55 0 90 41t35 129q0 59 -13 130q-13 72 -33 127h77z" />
    <glyph glyph-name="alpha" unicode="&#x3b1;" horiz-adv-x="644" 
d="M593 62l-4 -1q9 0 30 3v-65q-28 -7 -53 -7q-86 0 -102 85q-29 -42 -76 -66q-48 -24 -104 -24q-102 0 -169 73t-67 183q0 108 67 181t171 73q59 0 108 -25q50 -26 77 -69q1 17 6 84h73q-10 -144 -10 -232v-122q0 -71 53 -71zM293 59h-1q68 0 118 48q49 48 49 136t-48 136
t-118 48q-73 0 -121 -52q-48 -53 -48 -132t48 -132q48 -52 121 -52z" />
    <glyph glyph-name="beta" unicode="&#x3b2;" horiz-adv-x="610" 
d="M397 425l-3 -2q73 -19 118 -73t45 -136q0 -103 -67 -164q-68 -62 -165 -62q-95 0 -165 60v-229h-77v735q0 96 58 151t150 55q89 0 140 -52t51 -130q0 -96 -85 -153zM316 58v1q71 0 116 42t45 114q0 74 -46 116q-47 42 -120 42h-61v68h26q58 0 91 35q33 34 33 93
q0 58 -33 88t-82 30q-55 0 -90 -36q-35 -37 -35 -103v-419q62 -71 156 -71z" />
    <glyph glyph-name="gamma" unicode="&#x3b3;" horiz-adv-x="539" 
d="M513 487l-205 -447v-220h-76v222l-206 445h82l162 -367l161 367h82z" />
    <glyph glyph-name="delta" unicode="&#x3b4;" horiz-adv-x="610" 
d="M464 446l-2 -2q96 -94 96 -198q0 -110 -75 -183q-76 -74 -181 -74q-106 0 -180 74q-73 73 -73 180t74 179q73 72 180 72h6l-236 233v23h460v-68h-305zM303 58v-1q75 0 126 53q51 52 51 131q0 77 -51 129t-126 52q-77 0 -126 -52q-50 -53 -50 -130t50 -130q49 -52 126 -52
z" />
    <glyph glyph-name="epsilon" unicode="&#x3b5;" horiz-adv-x="498" 
d="M400 129l53 -48q-69 -94 -196 -94q-84 0 -139 41q-54 41 -54 107q0 40 21 71q21 32 59 50q-59 36 -59 108q0 62 48 98t126 36q125 0 186 -85l-52 -46q-49 60 -132 60q-97 0 -97 -68q0 -31 21 -49t63 -18h91v-68h-89q-53 0 -81 -22t-28 -57q0 -39 30 -62q31 -23 86 -23
q91 0 143 69z" />
    <glyph glyph-name="zeta" unicode="&#x3b6;" horiz-adv-x="503" 
d="M345 62l2 -3q144 -37 144 -151q0 -42 -23 -91h-76q20 49 20 82q0 69 -93 92l-70 17q-96 23 -146 76q-51 54 -51 131q0 92 91 204l213 261h-268v68h395v-23l-280 -346q-37 -46 -55 -82t-18 -73q0 -53 35 -88q35 -34 105 -54z" />
    <glyph glyph-name="eta" unicode="&#x3b7;" horiz-adv-x="586" 
d="M326 498v-1q83 0 133 -53q49 -52 49 -138v-486h-77v476q0 59 -33 95t-88 36q-57 0 -93 -37q-36 -38 -36 -94v-296h-76v354q0 69 -55 69q-19 0 -30 -1v65q27 7 54 7q73 0 96 -65q56 69 156 69z" />
    <glyph glyph-name="theta" unicode="&#x3b8;" horiz-adv-x="617" 
d="M309 761q238 0 238 -385q0 -387 -238 -387t-238 387q0 385 238 385zM309 690q-147 0 -159 -268h317q-12 268 -158 268zM309 59h-1q155 0 159 295h-317q4 -295 159 -295z" />
    <glyph glyph-name="iota" unicode="&#x3b9;" horiz-adv-x="285" 
d="M159 487l-1 -342q0 -46 17 -66t51 -20q2 0 6.5 0.5t13 1t16.5 0.5v-65q-24 -7 -54 -7q-126 0 -126 148v350h77z" />
    <glyph glyph-name="kappa" unicode="&#x3ba;" horiz-adv-x="508" 
d="M85 0v487h77v-487h-77zM268 265l227 -265h-97l-226 264l210 223h99z" />
    <glyph glyph-name="lambda" unicode="&#x3bb;" horiz-adv-x="548" 
d="M513 64l19 -1v-64q-21 -6 -39 -6q-39 0 -61 21q-22 20 -37 65l-112 328l-176 -408h-82l222 500l-37 105q-19 52 -39 68q-23 18 -63 18q-18 0 -48 -3v65q29 8 62 8q56 0 94 -27t63 -100l183 -519q18 -49 51 -50z" />
    <glyph glyph-name="mu" unicode="&#x3bc;" horiz-adv-x="592" 
d="M542 62h-2q10 0 30 3v-65q-28 -7 -52 -7q-70 0 -94 59q-48 -63 -134 -63q-83 0 -129 58v-227h-77v667h77v-291q0 -60 35 -98t89 -38t90 38q36 37 36 98v291h77v-351q0 -74 54 -74z" />
    <glyph glyph-name="nu" unicode="&#x3bd;" horiz-adv-x="539" 
d="M431 487h82l-229 -498h-28l-230 498h82l162 -367z" />
    <glyph glyph-name="xi" unicode="&#x3be;" horiz-adv-x="517" 
d="M356 62l-2 -1q71 -14 108 -52q38 -40 38 -100q0 -46 -23 -90h-76q20 49 20 82q0 75 -90 90l-63 11q-102 18 -156 75t-54 140q0 69 34 119q35 51 94 75q-92 54 -92 159q0 82 59 136t146 54q125 0 192 -108l-54 -44q-55 81 -132 81q-55 0 -93 -35t-38 -87q0 -54 39 -90
t98 -36h99v-69h-110q-70 0 -115 -42t-45 -108q0 -58 39 -96q39 -37 110 -51z" />
    <glyph glyph-name="omicron" unicode="&#x3bf;" horiz-adv-x="610" 
d="M305 498v-3q105 0 181 -74q75 -73 75 -180t-75 -180q-74 -73 -181 -73q-106 0 -180 74t-74 180q0 108 74 182t180 74zM305 424h1q-75 0 -126 -53t-51 -131q0 -77 50 -130q49 -52 125 -52t127 53t51 129q0 78 -51 131t-126 53z" />
    <glyph glyph-name="pi" unicode="&#x3c0;" horiz-adv-x="581" 
d="M508 -7l-1 -1q-50 0 -79 33q-28 32 -28 96v297h-238v-418h-77v487h392v-361q0 -64 53 -64q10 0 30 3v-65q-28 -7 -52 -7z" />
    <glyph glyph-name="rho" unicode="&#x3c1;" horiz-adv-x="621" 
d="M321 498l1 -1q111 0 180 -72t69 -181q0 -107 -68 -181q-67 -73 -170 -73q-54 0 -102 21q-47 21 -76 60v-251h-76v421q0 115 66 186t176 71zM322 59v-1q74 0 122 52t48 132t-48 132t-123 52q-71 0 -118 -46q-48 -46 -48 -136q0 -92 49 -138q50 -47 118 -47z" />
    <glyph glyph-name="uni03C2" unicode="&#x3c2;" horiz-adv-x="527" 
d="M371 -180l-5 -4q23 49 23 85q0 43 -24 60q-25 17 -81 32q-42 12 -60 19q-22 8 -61 30q-38 21 -60 46q-23 26 -39 67q-17 43 -17 95q0 114 69 180t174 66q134 0 207 -109l-54 -44q-61 82 -153 82q-71 0 -118 -45q-46 -45 -46 -125q0 -39 12 -69q12 -29 29 -48
q17 -18 45 -33q29 -15 46 -21q18 -6 48 -15q35 -10 50 -15q20 -7 44 -18q26 -12 39 -27t24 -39q10 -23 10 -54q0 -52 -26 -96h-76z" />
    <glyph glyph-name="sigma" unicode="&#x3c3;" horiz-adv-x="634" 
d="M620 487l2 -71h-152q85 -67 85 -181q0 -103 -72 -175t-181 -72t-180 74t-71 180q0 107 72 176t182 69h315zM303 58h-1q74 0 124 53q49 52 49 129t-48 125t-123 48q-76 0 -124 -48t-48 -126q0 -77 48 -129t123 -52z" />
    <glyph glyph-name="tau" unicode="&#x3c4;" horiz-adv-x="448" 
d="M333 59v1q34 0 85 6v-65q-52 -11 -101 -11q-170 0 -170 158v271h-132v69h393v-69h-185v-266q0 -52 27 -73t83 -21z" />
    <glyph glyph-name="upsilon" unicode="&#x3c5;" horiz-adv-x="552" 
d="M441 487h-1q49 -126 49 -254q0 -123 -57 -183t-148 -60q-90 0 -148 56q-57 56 -57 155v287h77v-291q0 -63 36 -100t93 -37q55 0 90 41t35 129q0 59 -13 130q-13 72 -33 127h77z" />
    <glyph glyph-name="phi" unicode="&#x3c6;" horiz-adv-x="747" 
d="M697 243l-2 -1q0 -114 -79 -183q-79 -68 -207 -70v-169h-77v169q-126 1 -205 71q-78 69 -78 183t78 183q77 68 206 70v224h77v-224q128 -2 207 -70q80 -69 80 -183zM125 241h-1q0 -85 56 -135t153 -50h1v370h-1q-97 0 -153 -50q-55 -49 -55 -135zM407 56h-1q97 0 155 50
q57 50 57 135t-57 135q-58 50 -154 50h-1v-370h1z" />
    <glyph glyph-name="chi" unicode="&#x3c7;" horiz-adv-x="504" 
d="M470 -117h1q18 0 24 1v-64q-17 -6 -41 -6q-64 0 -99 69l-105 213l-151 -276h-85l198 348l-108 214q-21 41 -59 41q-18 0 -24 -1v65q16 6 40 6q67 0 105 -78l87 -180l139 252h85l-185 -323l121 -240q20 -41 57 -41z" />
    <glyph glyph-name="psi" unicode="&#x3c8;" horiz-adv-x="773" 
d="M428 660l-1 -602q93 0 149 53t56 152q0 92 -47 224h77q49 -126 49 -227q0 -127 -78 -199t-205 -72v-169h-77v169q-119 0 -195 66q-77 66 -77 189v242h76v-236q0 -92 57 -141q58 -50 139 -50v601h77z" />
    <glyph glyph-name="omega" unicode="&#x3c9;" horiz-adv-x="835" 
d="M583 494v-3q201 -59 201 -260q0 -115 -60 -180q-60 -64 -150 -64q-110 0 -156 88q-46 -88 -156 -88q-91 0 -151 65q-60 64 -60 180q0 201 202 261l22 -68q-70 -24 -107 -69q-38 -46 -38 -124q0 -83 39 -128t95 -45q50 0 83 37t33 100v183h77v-183q0 -62 32 -100
q31 -37 81 -37q57 0 96 45t39 128q0 79 -38 125q-37 45 -108 69z" />
    <glyph glyph-name="iotadieresis" unicode="&#x3ca;" horiz-adv-x="285" 
d="M32 727l-1 -3q23 0 39 -15t16 -38q0 -22 -16 -37t-39 -15t-39 15t-16 38q0 22 17 39q16 16 39 16zM213 724v-3q23 0 39 -15t16 -38q0 -22 -16 -37t-39 -15q-22 0 -38 16q-17 17 -17 37q0 22 17 39q16 16 38 16zM158 481l-1 -342q0 -46 17 -66t51 -20q2 0 6.5 0.5t13 1
t16.5 0.5v-65q-24 -7 -54 -7q-126 0 -126 148v350h77z" />
    <glyph glyph-name="upsilondieresis" unicode="&#x3cb;" horiz-adv-x="552" 
d="M161 727v-3q23 0 39 -15t16 -38q0 -22 -16 -37t-39 -15q-22 0 -38 16q-17 17 -17 37q0 22 17 39q16 16 38 16zM373 724v-3q23 0 39 -15t16 -38q0 -22 -16 -37t-39 -15q-22 0 -38 16q-17 17 -17 37q0 22 17 39q16 16 38 16zM441 481h-1q49 -126 49 -254q0 -123 -57 -183
t-148 -60q-90 0 -148 56q-57 56 -57 155v287h77v-291q0 -63 36 -100t93 -37q55 0 90 41t35 129q0 59 -13 130q-13 72 -33 127h77z" />
    <glyph glyph-name="omicrontonos" unicode="&#x3cc;" horiz-adv-x="610" 
d="M361 780v-14l-33 -200h-60v214h93zM305 498v-3q105 0 181 -74q75 -73 75 -180t-75 -180q-74 -73 -181 -73q-106 0 -180 74t-74 180q0 108 74 182t180 74zM305 424h1q-75 0 -126 -53t-51 -131q0 -77 50 -130q49 -52 125 -52t127 53t51 129q0 78 -51 131t-126 53z" />
    <glyph glyph-name="upsilontonos" unicode="&#x3cd;" horiz-adv-x="552" 
d="M323 780v-14l-33 -200h-60v214h93zM441 487h-1q49 -126 49 -254q0 -123 -57 -183t-148 -60q-90 0 -148 56q-57 56 -57 155v287h77v-291q0 -63 36 -100t93 -37q55 0 90 41t35 129q0 59 -13 130q-13 72 -33 127h77z" />
    <glyph glyph-name="omegatonos" unicode="&#x3ce;" horiz-adv-x="835" 
d="M474 766l-33 -200h-60v214h93v-14zM583 494v-3q201 -59 201 -260q0 -115 -60 -180q-60 -64 -150 -64q-110 0 -156 88q-46 -88 -156 -88q-91 0 -151 65q-60 64 -60 180q0 201 202 261l22 -68q-70 -24 -107 -69q-38 -46 -38 -124q0 -83 39 -128t95 -45q50 0 83 37t33 100
v183h77v-183q0 -62 32 -100q31 -37 81 -37q57 0 96 45t39 128q0 79 -38 125q-37 45 -108 69z" />
    <glyph glyph-name="uni0400" unicode="&#x400;" horiz-adv-x="566" 
d="M248 910l85 -186h-58l-121 172v14h94zM514 660v-70h-345v-202h264v-70h-264v-248h357v-70h-435v660h423z" />
    <glyph glyph-name="uni0401" unicode="&#x401;" horiz-adv-x="566" 
d="M186 863l-1 -2q23 0 39 -15t16 -37t-16 -37t-39 -15t-39 15t-16 38t17 38t39 15zM418 861l-1 -1q23 0 39 -16t16 -39q0 -22 -16 -37t-39 -15t-39 15t-16 38q0 22 17 39q16 16 39 16zM512 657v-70h-345v-202h264v-70h-264v-248h357v-70h-435v660h423z" />
    <glyph glyph-name="uni0402" unicode="&#x402;" horiz-adv-x="757" 
d="M562 660v-71h-233v-187h150q105 0 166 -57t61 -148q0 -95 -63 -146t-162 -63l-15 70q160 24 160 140q0 58 -39 96q-40 38 -109 38h-149v-332h-78v590h-232v70h543z" />
    <glyph glyph-name="uni0403" unicode="&#x403;" horiz-adv-x="508" 
d="M413 910v-14l-120 -172h-59l85 186h94zM484 660v-70h-315v-590h-78v660h393z" />
    <glyph glyph-name="uni0404" unicode="&#x404;" horiz-adv-x="715" 
d="M392 61l-2 -2q136 0 216 116l58 -46q-40 -63 -113 -103q-72 -39 -160 -39q-144 0 -243 99t-99 243t99 243t243 99q88 0 160 -39q73 -39 114 -103l-58 -46q-80 116 -216 116q-97 0 -167 -58q-70 -59 -90 -153h355v-70h-360q4 -111 79 -184q74 -73 184 -73z" />
    <glyph glyph-name="uni0405" unicode="&#x405;" horiz-adv-x="557" 
d="M282 671v-1q67 0 120 -31q55 -32 86 -81l-57 -43q-56 83 -151 83q-50 0 -84 -25t-34 -72q0 -24 7 -39q8 -17 25 -30q17 -12 32 -21l42 -21l73 -35q80 -38 116 -79q38 -43 38 -105q0 -82 -60 -133t-153 -51q-76 0 -140 38q-63 37 -102 104l58 43q74 -113 183 -113
q59 0 96 30t37 80q0 43 -25 65t-84 51l-74 35q-67 31 -109 75q-39 41 -39 103q0 77 58 125q59 48 141 48z" />
    <glyph glyph-name="uni0406" unicode="&#x406;" horiz-adv-x="259" 
d="M169 660v-660h-78v660h78z" />
    <glyph glyph-name="uni0407" unicode="&#x407;" horiz-adv-x="259" 
d="M13 863l-1 -2q22 0 39 -15q16 -15 16 -37t-16 -37q-17 -15 -39 -15t-39 15q-16 15 -16 38t17 38q16 15 39 15zM245 861l-1 -1q23 0 39 -16t16 -39q0 -22 -16 -37q-17 -15 -39 -15t-39 15q-16 15 -16 38q0 22 17 39q16 16 39 16zM167 657v-660h-78v660h78z" />
    <glyph glyph-name="uni0408" unicode="&#x408;" horiz-adv-x="372" 
d="M282 660l-1 -507q0 -83 -46 -123t-126 -40q-37 0 -87 11v67q40 -6 72 -6q54 0 82 21t28 77v500h78z" />
    <glyph glyph-name="uni0409" unicode="&#x409;" horiz-adv-x="1010" 
d="M557 660l-3 -261h183q102 0 161 -55q60 -56 60 -144t-60 -144q-59 -55 -160 -55h-261v590h-223q0 -203 -33 -334q-33 -130 -87 -187q-53 -56 -135 -73v73q91 26 135 144q44 120 44 351v95h379zM736 329h-183v-260h182q68 0 104 36t36 93q0 59 -36 95t-103 36z" />
    <glyph glyph-name="uni040A" unicode="&#x40a;" horiz-adv-x="1055" 
d="M601 660l-1 -270h183q101 0 161 -54t60 -140q0 -88 -60 -142t-160 -54h-261v321h-354v-321h-78v660h78v-269h354v269h78zM782 320l-182 1v-251h182q67 0 104 35q36 35 36 90q0 56 -37 90q-38 35 -103 35z" />
    <glyph glyph-name="uni040B" unicode="&#x40b;" horiz-adv-x="791" 
d="M468 402h-1q113 0 174 -69q61 -68 61 -187v-146h-78v143q0 186 -163 186q-66 0 -132 -22v-307h-78v590h-232v70h543v-70h-233v-212q67 24 139 24z" />
    <glyph glyph-name="uni040C" unicode="&#x40c;" horiz-adv-x="633" 
d="M454 896l-120 -172h-59l85 186h94v-14zM91 0v660h78v-660h-78zM279 354l323 -354h-99l-325 354l297 306h100z" />
    <glyph glyph-name="uni040D" unicode="&#x40d;" horiz-adv-x="718" 
d="M379 724h-58l-121 172v14h94zM599 671h28v-671h-78v504l-430 -515h-28v671h78v-504z" />
    <glyph glyph-name="uni040E" unicode="&#x40e;" horiz-adv-x="610" 
d="M308 739l2 -2q-65 0 -109 44q-43 43 -43 110h65q0 -41 24 -67q24 -25 62 -25t62 25q24 26 24 67h65q0 -66 -43 -109t-109 -43zM494 658h88l-235 -541q-57 -130 -190 -130q-39 0 -78 10v68q48 -6 64 -6q89 0 132 85l3 6l-233 508h88l186 -422z" />
    <glyph glyph-name="uni040F" unicode="&#x40f;" horiz-adv-x="682" 
d="M591 660v-660h-211v-141h-78v141h-211v660h78v-590h344v590h78z" />
    <glyph glyph-name="uni0410" unicode="&#x410;" horiz-adv-x="663" 
d="M549 0l-57 134h-322l-57 -134h-82l286 671h29l286 -671h-83zM463 204l-132 324l-132 -324h264z" />
    <glyph glyph-name="uni0411" unicode="&#x411;" horiz-adv-x="616" 
d="M504 660l1 -69h-335v-205h194q98 0 153 -54q56 -54 56 -139t-57 -139t-153 -54h-272v660h413zM356 315h-186v-244h186q65 0 101 33t36 89t-36 89t-101 33z" />
    <glyph glyph-name="uni0412" unicode="&#x412;" horiz-adv-x="616" 
d="M442 363l1 -1q62 -18 96 -64t34 -109q0 -85 -57 -137q-58 -53 -153 -53h-272v660h227q85 0 137 -47q51 -46 51 -120q0 -83 -64 -129zM311 589l-141 1v-205h141q57 0 86 28q30 29 30 75q0 47 -30 74t-86 27zM356 70q65 0 101 33t36 89t-36 89t-101 33h-186v-244h186z" />
    <glyph glyph-name="uni0413" unicode="&#x413;" horiz-adv-x="508" 
d="M484 660v-70h-315v-590h-78v660h393z" />
    <glyph glyph-name="uni0414" unicode="&#x414;" horiz-adv-x="691" 
d="M578 70h79v-211h-78v141h-478v-141h-78v211h51q144 130 144 511v79h360v-590zM293 590v-1q0 -197 -33 -326q-31 -122 -95 -193h335v520h-207z" />
    <glyph glyph-name="uni0415" unicode="&#x415;" horiz-adv-x="566" 
d="M514 660v-70h-345v-202h264v-70h-264v-248h357v-70h-435v660h423z" />
    <glyph glyph-name="uni0416" unicode="&#x416;" horiz-adv-x="966" 
d="M57 660h101l277 -306l-305 -354h-100l304 354zM444 0v660h78v-660h-78zM632 354l304 -354h-100l-305 354l277 306h101z" />
    <glyph glyph-name="uni0417" unicode="&#x417;" horiz-adv-x="582" 
d="M419 359v3q55 -21 85 -66t30 -102q0 -89 -67 -146t-168 -57q-83 0 -147 39t-103 106l57 42q73 -115 192 -115q66 0 112 38q45 37 45 96q0 49 -36 84q-37 35 -100 35h-136v71h111q55 0 84 29t29 75q0 48 -32 78q-31 30 -87 30q-98 0 -161 -90l-56 42q33 55 90 88t127 33
q88 0 144 -51t56 -127q0 -86 -69 -135z" />
    <glyph glyph-name="uni0418" unicode="&#x418;" horiz-adv-x="718" 
d="M599 671h28v-671h-78v504l-430 -515h-28v671h78v-504z" />
    <glyph glyph-name="uni0419" unicode="&#x419;" horiz-adv-x="718" 
d="M349 739l2 -2q-65 0 -109 44q-43 43 -43 110h65q0 -41 24 -67q24 -25 62 -25t62 25q24 26 24 67h65q0 -66 -43 -109t-109 -43zM601 669h28v-671h-78v504l-430 -515h-28v671h78v-504z" />
    <glyph glyph-name="uni041A" unicode="&#x41a;" horiz-adv-x="633" 
d="M91 0v660h78v-660h-78zM279 354l323 -354h-99l-325 354l297 306h100z" />
    <glyph glyph-name="uni041B" unicode="&#x41b;" horiz-adv-x="648" 
d="M178 660h378v-659h-78v589h-223q-2 -158 -19 -266q-18 -109 -53 -178q-35 -68 -79 -102q-46 -35 -105 -47v73q91 26 135 144q44 120 44 351v95z" />
    <glyph glyph-name="uni041C" unicode="&#x41c;" horiz-adv-x="789" 
d="M671 671h27v-671h-78v474l-211 -287h-28l-212 288v-475h-78v671h28l275 -382z" />
    <glyph glyph-name="uni041D" unicode="&#x41d;" horiz-adv-x="708" 
d="M617 660v-660h-78v318h-370v-318h-78v660h78v-272h370v272h78z" />
    <glyph glyph-name="uni041E" unicode="&#x41e;" horiz-adv-x="781" 
d="M390 671h1q143 0 243 -99t100 -243t-100 -243t-243 -99q-144 0 -243 99t-99 243t99 243t242 99zM392 599h-1q-112 0 -187 -76q-75 -77 -75 -192t75 -192t188 -77q112 0 187 77t75 192t-75 191q-75 77 -187 77z" />
    <glyph glyph-name="uni041F" unicode="&#x41f;" horiz-adv-x="682" 
d="M591 660v-660h-78v590h-344v-590h-78v660h500z" />
    <glyph glyph-name="uni0420" unicode="&#x420;" horiz-adv-x="573" 
d="M323 660v1q96 0 153 -54t57 -138q0 -85 -57 -139t-153 -54h-154v-276h-78v660h232zM321 591h-154v-244h152q63 0 98 33t35 89q0 54 -34 88t-97 34z" />
    <glyph glyph-name="uni0421" unicode="&#x421;" horiz-adv-x="715" 
d="M391 671l-2 -2q88 0 160 -39q73 -39 114 -103l-58 -46q-80 116 -216 116q-112 0 -187 -77q-75 -76 -75 -192t75 -192q75 -77 188 -77q136 0 216 116l58 -46q-40 -63 -113 -103q-72 -39 -160 -39q-144 0 -243 99t-99 243t99 243t243 99z" />
    <glyph glyph-name="uni0422" unicode="&#x422;" horiz-adv-x="581" 
d="M562 660v-70h-233v-590h-78v590h-232v70h543z" />
    <glyph glyph-name="uni0423" unicode="&#x423;" horiz-adv-x="610" 
d="M492 660h88l-235 -541q-57 -130 -190 -130q-39 0 -78 10v68q48 -6 64 -6q89 0 132 85l3 6l-233 508h88l186 -422z" />
    <glyph glyph-name="uni0424" unicode="&#x424;" horiz-adv-x="798" 
d="M749 335l-1 -2q0 -125 -87 -198t-225 -75v-93h-78v93q-137 2 -224 75t-87 198t87 197q88 73 225 74v86h78v-86q139 -2 225 -73q87 -72 87 -196zM128 331v-1q0 -94 63 -147q64 -53 168 -53v401q-104 0 -168 -53q-63 -52 -63 -147zM436 130v1q104 0 168 53q63 52 63 147
t-63 147q-64 53 -168 53v-401z" />
    <glyph glyph-name="uni0425" unicode="&#x425;" horiz-adv-x="599" 
d="M569 0h-91l-178 272l-179 -272h-91l227 338l-211 322h90l165 -257l162 257h90l-208 -323z" />
    <glyph glyph-name="uni0426" unicode="&#x426;" horiz-adv-x="697" 
d="M584 660v-590h80v-211h-78v141h-495v660h78v-590h337v590h78z" />
    <glyph glyph-name="uni0427" unicode="&#x427;" horiz-adv-x="623" 
d="M455 660h78v-660h-78v259q-66 -24 -141 -24q-120 0 -193 69t-73 196v160h78v-154q0 -97 52 -148q53 -51 139 -51q72 0 138 28v325z" />
    <glyph glyph-name="uni0428" unicode="&#x428;" horiz-adv-x="1022" 
d="M932 660v-660h-841v660h78v-590h304v590h78v-590h303v590h78z" />
    <glyph glyph-name="uni0429" unicode="&#x429;" horiz-adv-x="1045" 
d="M932 660v-590h80v-211h-78v141h-843v660h78v-590h304v590h78v-590h303v590h78z" />
    <glyph glyph-name="uni042A" unicode="&#x42a;" horiz-adv-x="639" 
d="M185 660l-1 -262h183q102 0 161 -55q60 -55 60 -144t-60 -144q-59 -55 -160 -55h-261v590h-117v70h195zM366 328h-183v-260h182q68 0 104 36t36 93q0 59 -36 95t-103 36z" />
    <glyph glyph-name="uni042B" unicode="&#x42b;" horiz-adv-x="882" 
d="M169 660l-1 -262h183q102 0 161 -55q60 -55 60 -144t-60 -144q-59 -55 -160 -55h-261v660h78zM791 658v-660h-78v660h78zM350 328h-182v-260h182q68 0 105 36t37 93q0 59 -37 95t-105 36z" />
    <glyph glyph-name="uni042C" unicode="&#x42c;" horiz-adv-x="623" 
d="M169 660l-1 -262h183q102 0 161 -55q60 -55 60 -144t-60 -144q-59 -55 -160 -55h-261v660h78zM350 328h-182v-260h182q68 0 105 36t37 93q0 59 -37 95t-105 36z" />
    <glyph glyph-name="uni042D" unicode="&#x42d;" horiz-adv-x="715" 
d="M324 671l-2 -1q144 0 243 -99t99 -243t-99 -243t-243 -99q-88 0 -160 39q-71 39 -114 104l59 46q80 -116 216 -116q110 0 184 73q75 73 79 184h-360v70h355q-19 94 -90 153t-167 59q-136 0 -216 -116l-59 46q44 66 115 104q72 39 160 39z" />
    <glyph glyph-name="uni042E" unicode="&#x42e;" horiz-adv-x="1075" 
d="M684 671l1 1q143 0 243 -99t100 -243t-100 -243t-243 -99q-139 0 -237 95t-102 234h-177v-318h-78v660h78v-272h181q19 124 113 204t221 80zM686 62h1q112 0 186 77t74 192t-75 191q-75 77 -186 77q-112 0 -187 -76q-75 -77 -75 -192t75 -192t187 -77z" />
    <glyph glyph-name="uni042F" unicode="&#x42f;" horiz-adv-x="618" 
d="M307 660h219v-660h-78v250h-143h-21l-168 -250h-89l178 267q-59 23 -92 72t-33 116q0 91 62 148t165 57zM448 320l-1 268h-143q-66 0 -106 -38q-39 -38 -39 -96q0 -60 39 -97q38 -37 107 -37h143z" />
    <glyph glyph-name="uni0430" unicode="&#x430;" horiz-adv-x="529" 
d="M260 498l2 -1q86 0 138 -51t52 -147v-300h-72v63q-56 -74 -165 -74q-76 0 -123 37q-48 37 -48 100q0 61 48 99q47 37 127 37h154v42q0 61 -31 92q-32 32 -87 32q-82 0 -142 -78l-51 42q68 107 198 107zM226 52q62 0 105 39q44 39 44 95v12h-146q-104 0 -104 -69
q0 -37 29 -57t72 -20z" />
    <glyph glyph-name="uni0431" unicode="&#x431;" horiz-adv-x="625" 
d="M332 480l-4 -2q100 0 172 -72t72 -173q0 -102 -73 -174t-181 -72t-179 75q-71 76 -71 200v73q0 73 13 126q14 57 37 96q24 41 63 72q40 33 84 53q56 26 107 41l127 38l19 -67l-123 -38q-126 -39 -183 -98q-59 -60 -63 -172q67 94 183 94zM318 59q73 0 124 51t51 124
t-51 124t-124 51q-72 0 -123 -51t-51 -124t51 -124t123 -51z" />
    <glyph glyph-name="uni0432" unicode="&#x432;" horiz-adv-x="549" 
d="M416 259l-1 1q82 -31 82 -117q0 -61 -45 -102q-44 -40 -122 -40h-239v487h219q72 0 113 -34q42 -34 42 -93q0 -65 -49 -102zM167 419v-130h143q80 0 80 66q0 64 -80 64h-143zM324 69v-1q49 0 74 22q26 23 26 57t-26 54t-74 20h-157v-152h157z" />
    <glyph glyph-name="uni0433" unicode="&#x433;" horiz-adv-x="442" 
d="M430 487v-69h-262v-418h-77v487h339z" />
    <glyph glyph-name="uni0434" unicode="&#x434;" horiz-adv-x="621" 
d="M500 68h82v-209h-77v141h-387v-141h-77v209h50q47 47 71 132q24 86 24 248v39h314v-419zM264 418l1 -1q-1 -137 -21 -219q-19 -82 -63 -130h243v350h-160z" />
    <glyph glyph-name="uni0435" unicode="&#x435;" horiz-adv-x="571" 
d="M521 278l-1 1q0 -31 -6 -58h-384q8 -73 57 -116q50 -44 122 -44q83 0 149 66l45 -52q-79 -85 -195 -85q-110 0 -183 73q-74 74 -74 181q0 106 72 180t177 74q94 0 158 -62q63 -61 63 -158zM296 429l1 1q-61 0 -106 -39t-57 -102h308q-2 65 -43 102q-43 38 -103 38z" />
    <glyph glyph-name="uni0436" unicode="&#x436;" horiz-adv-x="776" 
d="M41 487h97l202 -223l-223 -264h-97l228 265zM350 0v487h77v-487h-77zM528 265l227 -265h-96l-223 264l201 223h99z" />
    <glyph glyph-name="uni0437" unicode="&#x437;" horiz-adv-x="498" 
d="M354 257l-1 -2q39 -18 60 -50q21 -31 21 -71q0 -66 -54 -106q-53 -40 -139 -40q-128 0 -197 94l52 46q52 -69 144 -69q56 0 86 24t30 62q0 35 -28 57t-81 22h-89v68h91q42 0 63 18t21 49q0 68 -97 68q-82 0 -132 -60l-51 46q60 85 187 85q78 0 126 -36t48 -97
q0 -72 -60 -108z" />
    <glyph glyph-name="uni0438" unicode="&#x438;" horiz-adv-x="598" 
d="M480 498h27v-498h-76v342l-312 -353h-28v498h77v-342z" />
    <glyph glyph-name="uni0439" unicode="&#x439;" horiz-adv-x="598" 
d="M298 584l1 -1q-65 0 -109 44q-43 43 -43 108h65q0 -41 24 -66t62 -25t63 25t25 66h64q0 -65 -43 -108t-109 -43zM481 497h27v-498h-76v342l-312 -353h-28v498h77v-342z" />
    <glyph glyph-name="uni043A" unicode="&#x43a;" horiz-adv-x="521" 
d="M91 0v487h77v-487h-77zM274 265l227 -265h-97l-226 264l205 223h99z" />
    <glyph glyph-name="uni043B" unicode="&#x43b;" horiz-adv-x="558" 
d="M142 487l324 -1v-487h-76v418h-173v-50q0 -97 -15 -168t-43 -112q-29 -42 -63 -63q-36 -22 -81 -29v69q70 21 98 99q29 79 29 245v79z" />
    <glyph glyph-name="uni043C" unicode="&#x43c;" horiz-adv-x="698" 
d="M607 498v-498h-77v329l-166 -198h-30l-166 198v-329h-77v498h28l231 -274l230 274h27z" />
    <glyph glyph-name="uni043D" unicode="&#x43d;" horiz-adv-x="585" 
d="M494 487v-487h-76v225h-250v-225h-77v487h77v-194h250v194h76z" />
    <glyph glyph-name="uni043E" unicode="&#x43e;" horiz-adv-x="610" 
d="M305 498v-2q107 0 181 -73q75 -73 75 -180t-75 -180q-77 -75 -181 -74q-105 0 -180 75q-74 74 -74 180t74 180t180 74zM305 425l1 -1q-76 0 -127 -53q-49 -50 -49 -131q2 -79 50 -130q49 -52 125 -52q75 0 126 53t51 129q0 80 -51 132q-51 53 -126 53z" />
    <glyph glyph-name="uni043F" unicode="&#x43f;" horiz-adv-x="578" 
d="M488 487v-487h-78v418h-242v-418h-77v487h397z" />
    <glyph glyph-name="uni0440" unicode="&#x440;" horiz-adv-x="638" 
d="M347 498l-1 1q104 0 173 -73q69 -74 69 -181q0 -109 -69 -183q-69 -73 -172 -73q-54 0 -102 21q-47 21 -78 59v-250h-77v667h72v-78q28 42 78 66t107 24zM335 61l-1 -2q74 0 123 52q50 53 50 132q0 80 -49 132t-124 52q-71 0 -120 -46t-49 -136t50 -137t120 -47z" />
    <glyph glyph-name="uni0441" unicode="&#x441;" horiz-adv-x="551" 
d="M305 498h-1q131 0 201 -106l-55 -44q-58 79 -144 79q-76 0 -127 -53q-51 -52 -51 -129q0 -79 51 -131q51 -53 127 -53q86 0 144 78l55 -43q-70 -106 -200 -106q-106 0 -180 74t-74 180t74 180t180 74z" />
    <glyph glyph-name="uni0442" unicode="&#x442;" horiz-adv-x="464" 
d="M443 487v-69h-173v-418h-76v418h-174v69h423z" />
    <glyph glyph-name="uni0443" unicode="&#x443;" horiz-adv-x="539" 
d="M431 487l81 1l-240 -555q-54 -123 -165 -123q-39 0 -75 10v65q42 -5 59 -5q37 0 65 17q26 16 46 60l26 59l-202 471h83l161 -388z" />
    <glyph glyph-name="uni0444" unicode="&#x444;" horiz-adv-x="730" 
d="M680 243l-2 -1q0 -114 -78 -183q-77 -68 -199 -70v-169h-77v169q-121 1 -198 71q-77 69 -77 183t78 183q77 68 199 70v254h77v-254q122 -2 199 -70q78 -69 78 -183zM127 241q0 -85 54 -134q55 -50 144 -50h1v368h-1q-89 0 -144 -50q-54 -49 -54 -134zM400 57q89 0 144 50
q54 50 54 134q0 85 -54 134q-55 50 -144 50h-1v-368h1z" />
    <glyph glyph-name="uni0445" unicode="&#x445;" horiz-adv-x="497" 
d="M476 0h-87l-141 197l-140 -197h-88l184 254l-169 233h87l126 -177l126 177h88l-171 -233z" />
    <glyph glyph-name="uni0446" unicode="&#x446;" horiz-adv-x="594" 
d="M475 487v-419h79v-209h-77v141h-386v487h77v-419h230v419h77z" />
    <glyph glyph-name="uni0447" unicode="&#x447;" horiz-adv-x="544" 
d="M377 487l74 -2v-487h-77v186q-57 -20 -111 -20q-97 0 -156 57t-59 162v103h76v-99q0 -77 39 -113t106 -36q57 0 108 19v230z" />
    <glyph glyph-name="uni0448" unicode="&#x448;" horiz-adv-x="861" 
d="M771 487v-487h-680v487h77v-419h224v419h77v-419h225v419h77z" />
    <glyph glyph-name="uni0449" unicode="&#x449;" horiz-adv-x="890" 
d="M771 487v-419h79v-209h-77v141h-682v487h77v-419h225v419h77v-419h224v419h77z" />
    <glyph glyph-name="uni044A" unicode="&#x44a;" horiz-adv-x="566" 
d="M187 487v-157h137q85 0 136 -45t51 -120t-51 -120t-136 -45h-214v418h-110v69h187zM318 261h-131v-193h131q52 0 83 26q30 26 30 69q0 44 -30 71t-83 27z" />
    <glyph glyph-name="uni044B" unicode="&#x44b;" horiz-adv-x="778" 
d="M168 487v-157h137q85 0 136 -45t51 -120t-51 -120t-136 -45h-214v487h77zM687 487v-487h-76v487h76zM299 261h-132v-193h132q52 0 83 26q30 26 30 69q0 44 -30 71t-83 27z" />
    <glyph glyph-name="uni044C" unicode="&#x44c;" horiz-adv-x="547" 
d="M168 487v-157h137q85 0 136 -45t51 -120t-51 -120t-136 -45h-214v487h77zM299 261h-132v-193h132q52 0 83 26q30 26 30 69q0 44 -30 71t-83 27z" />
    <glyph glyph-name="uni044D" unicode="&#x44d;" horiz-adv-x="551" 
d="M246 498h1q106 0 180 -74t74 -180t-74 -180t-180 -74q-130 0 -200 106l54 43q59 -78 145 -78q68 0 117 44q48 43 57 111h-240v68h238q-13 63 -61 103q-47 40 -112 40q-88 0 -146 -79l-54 44q73 106 201 106z" />
    <glyph glyph-name="uni044E" unicode="&#x44e;" horiz-adv-x="850" 
d="M542 498l-1 1q106 0 182 -74q75 -73 75 -180q0 -106 -75 -181t-182 -75q-99 0 -172 68q-71 67 -79 168h-123v-225h-77v488h77v-195h127q16 88 86 147q68 58 162 58zM543 61q75 0 126 53q51 52 51 131q0 77 -51 129q-51 53 -126 53t-126 -53q-51 -52 -51 -131
q0 -77 51 -130q51 -52 126 -52z" />
    <glyph glyph-name="uni044F" unicode="&#x44f;" horiz-adv-x="562" 
d="M257 487l215 1v-487h-77v157h-137h-8l-137 -157h-86l145 172q-48 20 -75 58q-27 39 -27 91q0 75 51 120t136 45zM395 226v192h-131q-52 0 -83 -26q-30 -26 -30 -69t30 -70t83 -27h131z" />
    <glyph glyph-name="uni0450" unicode="&#x450;" horiz-adv-x="571" 
d="M327 566h-59l-120 200v14h94zM521 278l-1 1q0 -31 -6 -58h-384q8 -73 57 -116q50 -44 122 -44q83 0 149 66l45 -52q-79 -85 -195 -85q-110 0 -183 73q-74 74 -74 181q0 106 72 180t177 74q94 0 158 -62q63 -61 63 -158zM296 429l1 1q-61 0 -106 -39t-57 -102h308
q-2 65 -43 102q-43 38 -103 38z" />
    <glyph glyph-name="uni0451" unicode="&#x451;" horiz-adv-x="571" 
d="M191 620v-3q-22 0 -38 16q-17 17 -17 37q0 22 17 39q16 16 38 16q23 0 39 -15t16 -38q0 -22 -16 -37t-39 -15zM403 617v-3q-22 0 -38 16q-17 17 -17 37q0 22 17 39q16 16 38 16q23 0 39 -15t16 -38q0 -22 -16 -37t-39 -15zM521 272l-1 1q0 -31 -6 -58h-384q8 -73 57 -116
q50 -44 122 -44q83 0 149 66l45 -52q-79 -85 -195 -85q-110 0 -183 73q-74 74 -74 181q0 106 72 180t177 74q94 0 158 -62q63 -62 63 -158zM296 423l1 1q-61 0 -106 -39t-57 -102h308q-2 65 -43 102q-43 38 -103 38z" />
    <glyph glyph-name="uni0452" unicode="&#x452;" horiz-adv-x="580" 
d="M311 484l-2 -4q84 0 132 -52t48 -138v-326q0 -80 -43 -119q-44 -39 -117 -39q-32 0 -61 8v65q24 -3 43 -3q49 0 76 21t27 73v312q0 58 -33 94t-88 36q-57 0 -93 -36t-36 -92v-284h-76v580h-83v68h83v102h76v-102h202v-68h-202v-162q52 66 147 66z" />
    <glyph glyph-name="uni0453" unicode="&#x453;" horiz-adv-x="442" 
d="M395 780v-14l-120 -200h-59l85 214h94zM430 487v-69h-262v-418h-77v487h339z" />
    <glyph glyph-name="uni0454" unicode="&#x454;" horiz-adv-x="556" 
d="M306 60h1q85 0 144 78l54 -43q-70 -106 -200 -106q-106 0 -180 74t-74 180t74 180t180 74q131 0 201 -106l-54 -44q-58 79 -146 79q-65 0 -112 -40q-48 -40 -61 -103h238v-68h-240q9 -68 58 -111q50 -44 117 -44z" />
    <glyph glyph-name="uni0455" unicode="&#x455;" horiz-adv-x="454" 
d="M232 498l-2 1q100 0 162 -77l-47 -48q-53 54 -120 54q-36 0 -58 -16t-22 -45q0 -24 18 -39t61 -33l45 -19q69 -29 98 -61q30 -33 30 -82q0 -68 -49 -105t-121 -37q-118 0 -189 95l49 51q71 -75 140 -75q40 0 67 18t27 50q0 29 -20 44q-14 11 -65 33l-47 20q-60 25 -91 56
q-30 30 -30 79q0 64 47 100t117 36z" />
    <glyph glyph-name="uni0456" unicode="&#x456;" horiz-adv-x="268" 
d="M135 729v-1q23 0 39 -16q17 -17 17 -39q0 -24 -16 -40t-40 -16q-25 0 -41 16q-17 17 -17 40q0 22 17 39t41 17zM173 486v-487h-77v487h77z" />
    <glyph glyph-name="uni0457" unicode="&#x457;" horiz-adv-x="268" 
d="M38 722l-1 -1q23 0 39 -16q17 -17 17 -39t-16 -37q-17 -15 -39 -15t-38 16q-17 17 -17 37q0 22 17 39q16 16 38 16zM229 721l-2 -3q23 0 39 -15t16 -38q0 -22 -16 -37t-39 -15q-21 0 -37 16t-16 37q0 22 17 39q16 16 38 16zM170 483v-487h-76v487h76z" />
    <glyph glyph-name="uni0458" unicode="&#x458;" horiz-adv-x="268" 
d="M135 729v-1q23 0 39 -16q17 -17 17 -39q0 -24 -16 -40t-40 -16q-25 0 -41 16q-17 17 -17 40q0 22 17 39t41 17zM173 486v-520q0 -80 -43 -119q-44 -39 -117 -39q-32 0 -62 8v65q25 -3 45 -3q100 0 100 93v515h77z" />
    <glyph glyph-name="uni0459" unicode="&#x459;" horiz-adv-x="847" 
d="M605 330l-2 -1q85 0 136 -45t51 -120t-51 -120t-136 -45h-213v418h-173v-50q0 -97 -15 -168t-43 -112q-29 -42 -63 -63q-36 -22 -81 -29v69q70 21 98 99q29 79 29 245v79h326v-157h137zM598 67v-2q52 0 82 27t30 70q0 44 -30 71t-82 27h-132v-193h132z" />
    <glyph glyph-name="uni045A" unicode="&#x45a;" horiz-adv-x="866" 
d="M623 312h-1q86 0 137 -42t51 -113q0 -73 -50 -115t-137 -42h-214v236h-241v-236h-77v487h77v-183h241v183h77v-175h137zM617 68h-1q53 0 84 23q30 22 30 65q0 40 -30 64t-83 24h-132v-176h132z" />
    <glyph glyph-name="uni045B" unicode="&#x45b;" horiz-adv-x="580" 
d="M311 484v-3q84 0 132 -52q48 -53 48 -138v-293h-77v284q0 58 -33 94t-88 36q-57 0 -93 -36t-36 -92v-284h-76v580h-83v68h83v102h76v-102h202v-68h-202v-162q52 66 147 66z" />
    <glyph glyph-name="uni045C" unicode="&#x45c;" horiz-adv-x="521" 
d="M421 766l-120 -200h-59l85 214h94v-14zM91 0v487h77v-487h-77zM274 265l227 -265h-97l-226 264l205 223h99z" />
    <glyph glyph-name="uni045D" unicode="&#x45d;" horiz-adv-x="598" 
d="M328 566h-59l-120 200v14h94zM480 498h27v-498h-76v342l-312 -353h-28v498h77v-342z" />
    <glyph glyph-name="uni045E" unicode="&#x45e;" horiz-adv-x="539" 
d="M266 584l1 -1q-65 0 -109 44q-43 43 -43 108h65q0 -41 24 -66t62 -25t63 25t25 66h64q0 -65 -43 -108t-109 -43zM432 486l81 1l-240 -555q-54 -123 -165 -123q-39 0 -75 10v65q42 -5 59 -5q37 0 65 17q26 16 46 60l26 59l-202 471h83l161 -388z" />
    <glyph glyph-name="uni045F" unicode="&#x45f;" horiz-adv-x="566" 
d="M476 487v-487h-154v-141h-77v141h-154v487h77v-419h231v419h77z" />
    <glyph glyph-name="uni0462" unicode="&#x462;" horiz-adv-x="623" 
d="M169 660l-1 -92h277v-68h-277v-110h183q102 0 161 -55q60 -56 60 -139q0 -86 -60 -141q-59 -55 -160 -55h-261v499h-83v68h83v93h78zM350 320l-182 -2v-249h182q66 0 104 36t38 89q0 54 -37 90t-105 36z" />
    <glyph glyph-name="uni0463" unicode="&#x463;" horiz-adv-x="544" 
d="M164 750l1 -263h206v-69h-206v-94h139q84 0 135 -45t51 -116q0 -73 -51 -118t-136 -45h-215v418h-83v69h83v263h76zM298 256l-133 -1v-188h133q53 0 84 26q30 25 30 68t-30 69q-31 26 -84 26z" />
    <glyph glyph-name="uni0472" unicode="&#x472;" horiz-adv-x="781" 
d="M390 671h1q143 0 243 -99t100 -243t-100 -243t-243 -99q-144 0 -243 99t-99 243t99 243t242 99zM391 599l-1 -3q-98 0 -168 -60t-87 -156q66 31 132 31q50 0 126 -22t125 -22q62 0 128 28q-20 90 -90 147t-165 57zM390 58l-2 1q111 0 186 75q76 76 77 188
q-71 -30 -135 -30q-47 0 -127 23t-123 23q-62 0 -137 -33q7 -107 81 -177q73 -70 180 -70z" />
    <glyph glyph-name="uni0473" unicode="&#x473;" horiz-adv-x="610" 
d="M305 498v-3q105 0 181 -74q75 -73 75 -180t-75 -180q-74 -73 -181 -73q-106 0 -180 74t-74 180q0 108 74 182t180 74zM305 424l-2 -1q-65 0 -111 -40q-46 -41 -60 -105q41 16 81 16q37 0 92 -16t91 -16q40 0 81 16q-12 64 -60 105q-49 41 -112 41zM302 56l2 -2
q68 0 118 45t57 114q-43 -17 -83 -17q-34 0 -93 17t-90 17q-37 0 -83 -17q8 -69 56 -113q49 -44 116 -44z" />
    <glyph glyph-name="uni0474" unicode="&#x474;" horiz-adv-x="687" 
d="M641 671q21 0 47 -8v-67q-16 3 -30 3q-53 0 -82 -69l-230 -541h-29l-286 671h86l215 -516l176 423q44 104 133 104z" />
    <glyph glyph-name="uni0475" unicode="&#x475;" horiz-adv-x="546" 
d="M503 493h1q22 0 42 -6v-66q-8 1 -25 1q-40 0 -62 -49l-175 -384h-28l-230 498h82l162 -367l125 286q37 87 108 87z" />
    <glyph glyph-name="uni0490" unicode="&#x490;" horiz-adv-x="489" 
d="M465 781v-191h-296v-590h-78v660h296v121h78z" />
    <glyph glyph-name="uni0491" unicode="&#x491;" horiz-adv-x="448" 
d="M436 612v-194h-268v-418h-77v487h268v125h77z" />
    <glyph glyph-name="uni0492" unicode="&#x492;" horiz-adv-x="496" 
d="M477 590h-304v-227h256v-71h-256v-292h-78v292h-99v71h99v297h382v-70z" />
    <glyph glyph-name="uni0493" unicode="&#x493;" horiz-adv-x="465" 
d="M446 418h-282v-149h240v-69h-240v-200h-76v200h-83v69h83v218h358v-69z" />
    <glyph glyph-name="uni0496" unicode="&#x496;" horiz-adv-x="954" 
d="M57 660h101l277 -306l-305 -354h-100l304 354zM444 0v660h78v-660h-78zM877 68h65v-209h-77v141h-29l-305 354l277 306h101l-277 -306z" />
    <glyph glyph-name="uni0497" unicode="&#x497;" horiz-adv-x="805" 
d="M41 487h97l202 -223l-223 -264h-97l228 265zM350 0v487h77v-487h-77zM697 68h67v-209h-77v141h-28l-223 264l201 223h99l-208 -222z" />
    <glyph glyph-name="uni0498" unicode="&#x498;" horiz-adv-x="582" 
d="M534 192l4 2q0 -78 -52 -131q-53 -55 -135 -68q24 -30 24 -69q0 -49 -36 -82t-96 -33q-36 0 -69 10v55q28 -4 56 -4q36 0 56 16q21 16 21 49q0 28 -17 54q-78 3 -141 42q-62 38 -100 104l57 42q73 -115 192 -115q66 0 112 38q45 38 45 96q0 50 -36 84q-37 35 -100 35
h-136v71h111q55 0 84 29t29 75q0 48 -32 78q-31 30 -87 30q-98 0 -161 -90l-56 42q33 55 90 88t127 33q88 0 144 -51t56 -127q0 -85 -69 -135q55 -21 85 -66t30 -102z" />
    <glyph glyph-name="uni0499" unicode="&#x499;" horiz-adv-x="498" 
d="M436 136l2 -1q0 -54 -38 -92t-102 -50q25 -29 25 -70q0 -49 -36 -82t-96 -33q-36 0 -69 10v55q28 -4 56 -4q36 0 56 16q21 16 21 49q0 28 -17 54q-124 1 -193 94l52 46q53 -69 144 -69q56 0 86 24t30 62q0 35 -28 57t-81 22h-89v68h91q42 0 63 18t21 49q0 68 -97 68
q-83 0 -132 -60l-51 46q60 85 187 85q78 0 126 -36t48 -97q0 -72 -60 -108q39 -18 60 -50q21 -31 21 -71z" />
    <glyph glyph-name="uni049A" unicode="&#x49a;" horiz-adv-x="629" 
d="M91 0v660h78v-660h-78zM539 70h78v-211h-78v141h-36l-325 354l297 306h100l-296 -306z" />
    <glyph glyph-name="uni049B" unicode="&#x49b;" horiz-adv-x="550" 
d="M91 0v487h77v-487h-77zM443 68h67v-209h-77v141h-29l-226 264l205 223h99l-208 -222z" />
    <glyph glyph-name="uni04A0" unicode="&#x4a0;" horiz-adv-x="661" 
d="M0 592v68h197v-660h-78v592h-119zM308 354l322 -354h-99l-325 354l297 306h100z" />
    <glyph glyph-name="uni04A1" unicode="&#x4a1;" horiz-adv-x="540" 
d="M0 418v69h187v-487h-77v418h-110zM293 265l227 -265h-97l-226 264l205 223h99z" />
    <glyph glyph-name="uni04A2" unicode="&#x4a2;" horiz-adv-x="730" 
d="M617 660v-590h80v-211h-78v141h-80v318h-370v-318h-78v660h78v-272h370v272h78z" />
    <glyph glyph-name="uni04A3" unicode="&#x4a3;" horiz-adv-x="617" 
d="M494 487v-419h83v-209h-77v141h-82v225h-250v-225h-77v487h77v-194h250v194h76z" />
    <glyph glyph-name="uni04AA" unicode="&#x4aa;" horiz-adv-x="715" 
d="M392 61h1q136 0 216 116l58 -46q-33 -54 -90 -90q-58 -37 -127 -47q24 -28 24 -69q0 -49 -36 -82t-96 -33q-36 0 -69 10v55q28 -4 56 -4q36 0 56 16q21 17 21 49q0 28 -17 54q-142 1 -241 99q-99 97 -99 240q0 144 99 243t243 99q88 0 160 -39q73 -39 114 -103l-58 -46
q-80 116 -216 116q-112 0 -187 -77q-75 -76 -75 -192t75 -192q75 -77 188 -77z" />
    <glyph glyph-name="uni04AB" unicode="&#x4ab;" horiz-adv-x="551" 
d="M306 60l1 -2q85 0 144 78l55 -43q-57 -84 -155 -102q24 -30 24 -69q0 -49 -36 -82t-96 -33q-36 0 -69 10v55q28 -4 56 -4q36 0 56 16q21 17 21 49q0 29 -17 54q-102 6 -171 79q-69 74 -69 177q0 106 74 180t180 74q131 0 201 -106l-55 -44q-58 79 -144 79q-76 0 -127 -53
t-51 -129q0 -78 51 -131t127 -53z" />
    <glyph glyph-name="uni04AE" unicode="&#x4ae;" horiz-adv-x="616" 
d="M576 660l-229 -386v-274h-78v274l-229 386h88l180 -310l181 310h87z" />
    <glyph glyph-name="uni04AF" unicode="&#x4af;" horiz-adv-x="533" 
d="M510 487l-204 -460v-207h-77v207l-206 460h82l162 -379l161 379h82z" />
    <glyph glyph-name="uni04B0" unicode="&#x4b0;" horiz-adv-x="625" 
d="M581 660l-225 -379h194v-70h-198v-211h-78v211h-198v70h193l-224 379h87l181 -310l181 310h87z" />
    <glyph glyph-name="uni04B1" unicode="&#x4b1;" horiz-adv-x="551" 
d="M519 487l-186 -419h138v-68h-156v-180h-77v180h-158v68h139l-186 419h81l162 -379l161 379h82z" />
    <glyph glyph-name="uni04B2" unicode="&#x4b2;" horiz-adv-x="596" 
d="M523 68h61v-209h-77v141h-29l-178 272l-179 -272h-91l227 338l-211 322h90l165 -257l162 257h90l-208 -323z" />
    <glyph glyph-name="uni04B3" unicode="&#x4b3;" horiz-adv-x="535" 
d="M426 68h68v-209h-77v141h-28l-141 197l-140 -197h-88l184 254l-169 233h87l126 -177l126 177h88l-171 -233z" />
    <glyph glyph-name="uni04B6" unicode="&#x4b6;" horiz-adv-x="646" 
d="M533 70h79v-211h-78v141h-79v259q-66 -24 -141 -24q-120 0 -193 69t-73 196v160h78v-154q0 -97 52 -148q53 -51 139 -51q72 0 138 28v325h78v-590z" />
    <glyph glyph-name="uni04B7" unicode="&#x4b7;" horiz-adv-x="573" 
d="M454 68l75 -2v-209h-77v141h-78v186q-57 -20 -111 -20q-97 0 -156 57t-59 162v103h76v-99q0 -77 39 -113t106 -36q57 0 108 19v230h77v-419z" />
    <glyph glyph-name="uni04BA" unicode="&#x4ba;" horiz-adv-x="623" 
d="M301 415h-1q112 0 174 -69q61 -68 61 -187v-159h-78v157q0 186 -162 186q-61 0 -126 -24v-319h-78v660h78v-268q67 23 132 23z" />
    <glyph glyph-name="uni04BB" unicode="&#x4bb;" horiz-adv-x="583" 
d="M314 498v-1q84 0 132 -53q48 -52 48 -138v-306h-77v296q0 59 -33 95t-88 36q-56 0 -92 -37q-36 -38 -36 -94v-296h-77v750h77v-318q52 66 146 66z" />
    <glyph glyph-name="uni04C0" unicode="&#x4c0;" horiz-adv-x="259" 
d="M169 660v-660h-78v660h78z" />
    <glyph glyph-name="uni04C1" unicode="&#x4c1;" horiz-adv-x="966" 
d="M483 739l2 -2q-65 0 -109 44q-43 43 -43 110h65q0 -41 24 -67q24 -25 62 -25t62 25q24 26 24 67h65q0 -66 -43 -109t-109 -43zM59 658h101l277 -306l-305 -354h-100l304 354zM446 -2v660h78v-660h-78zM634 352l304 -354h-100l-305 354l277 306h101z" />
    <glyph glyph-name="uni04C2" unicode="&#x4c2;" horiz-adv-x="776" 
d="M388 584l1 -1q-65 0 -109 44q-43 43 -43 108h65q0 -41 24 -66t62 -25t63 25t25 66h64q0 -65 -43 -108t-109 -43zM42 486h97l202 -223l-223 -264h-97l228 265zM351 -1v487h77v-487h-77zM529 264l227 -265h-96l-223 264l201 223h99z" />
    <glyph glyph-name="uni04CF" unicode="&#x4cf;" horiz-adv-x="258" 
d="M168 750v-750h-77v750h77z" />
    <glyph glyph-name="uni04D0" unicode="&#x4d0;" horiz-adv-x="663" 
d="M332 739l2 -2q-65 0 -109 44q-43 43 -43 110h65q0 -41 24 -67q24 -25 62 -25t62 25q24 26 24 67h65q0 -66 -43 -109t-109 -43zM551 -2l-57 134h-322l-57 -134h-82l286 671h29l286 -671h-83zM465 202l-132 324l-132 -324h264z" />
    <glyph glyph-name="uni04D1" unicode="&#x4d1;" horiz-adv-x="529" 
d="M258 584l1 -1q-65 0 -109 44q-43 43 -43 108h65q0 -41 24 -66t62 -25t63 25t25 66h64q0 -65 -43 -108t-109 -43zM261 497l2 -1q85 0 138 -51q52 -51 52 -147v-300h-72v63q-56 -74 -165 -74q-76 0 -123 37q-48 38 -48 100t48 99q47 37 127 37h154v42q0 61 -31 92
q-32 32 -87 32q-82 0 -142 -78l-51 42q68 107 198 107zM227 51q61 0 105 39t44 95v12h-146q-104 0 -104 -69q0 -37 29 -57t72 -20z" />
    <glyph glyph-name="uni04D4" unicode="&#x4d4;" horiz-adv-x="821" 
d="M535 70h246v-70h-314l-23 134h-276l-71 -134h-84l344 660h412v-70h-322l34 -202h208v-70h-196zM377 542l-172 -338h227z" />
    <glyph glyph-name="uni04D5" unicode="&#x4d5;" horiz-adv-x="895" 
d="M837 211l-385 -3q11 -69 59 -110q49 -41 119 -41q82 0 147 65l46 -51q-76 -85 -194 -85q-67 0 -123 32t-90 87q-26 -57 -79 -87q-54 -30 -122 -30q-76 0 -124 39t-48 103q0 65 48 104t127 39h154v30q0 60 -32 92t-84 32q-81 0 -141 -78l-51 42q68 107 198 107
q124 0 167 -102q71 102 195 102q93 0 157 -62q63 -62 63 -159q0 -45 -7 -66zM452 271l309 -2q5 71 -38 113q-42 42 -107 42t-110 -42t-54 -111zM221 49l1 2q60 0 104 38t44 93v25h-145q-105 0 -105 -73q0 -40 29 -63q28 -22 72 -22z" />
    <glyph glyph-name="uni04D6" unicode="&#x4d6;" horiz-adv-x="566" 
d="M435 892l2 -2q0 -66 -43 -109t-109 -43q-65 0 -109 44q-43 43 -43 110h65q0 -42 24 -67t62 -25t62 25t24 67h65zM516 658v-70h-345v-202h264v-70h-264v-248h357v-70h-435v660h423z" />
    <glyph glyph-name="uni04D7" unicode="&#x4d7;" horiz-adv-x="571" 
d="M286 584l1 -1q-65 0 -109 44q-43 43 -43 108h65q0 -41 24 -66t62 -25t63 25t25 66h64q0 -65 -43 -108t-109 -43zM522 277l-1 1q0 -31 -6 -58h-384q8 -73 57 -116q50 -44 122 -44q83 0 149 66l45 -52q-79 -85 -195 -85q-110 0 -183 73q-74 74 -74 181t72 180q72 74 177 74
q94 0 158 -62q63 -61 63 -158zM297 428l1 1q-61 0 -106 -39t-57 -102h308q-2 65 -43 102q-43 38 -103 38z" />
    <glyph glyph-name="uni04D8" unicode="&#x4d8;" horiz-adv-x="731" 
d="M351 671h-3q140 0 236 -99t96 -241q0 -143 -98 -243q-98 -99 -237 -99q-125 0 -212 81t-87 212q0 29 6 71h547q-7 108 -78 177q-70 69 -173 69q-64 0 -120 -30t-93 -82l-54 45q47 64 117 102q70 37 153 37zM347 61v-2q95 0 164 63t84 160h-473q-2 -101 64 -161t161 -60z
" />
    <glyph glyph-name="uni04D9" unicode="&#x4d9;" horiz-adv-x="571" 
d="M263 498l2 -1q110 0 183 -73q74 -74 74 -181t-72 -180q-72 -74 -177 -74q-94 0 -159 62q-64 61 -64 158q0 28 6 58h384q-8 73 -57 116q-50 44 -121 44q-83 0 -149 -66l-45 52q79 85 195 85zM276 57v-2q61 0 106 39t58 103h-308q0 -65 42 -102q43 -38 102 -38z" />
    <glyph glyph-name="uni04E2" unicode="&#x4e2;" horiz-adv-x="718" 
d="M497 833v-63h-295v63h295zM599 671h28v-671h-78v504l-430 -515h-28v671h78v-504z" />
    <glyph glyph-name="uni04E3" unicode="&#x4e3;" horiz-adv-x="598" 
d="M436 704v-62h-275v62h275zM480 498h27v-498h-76v342l-312 -353h-28v498h77v-342z" />
    <glyph glyph-name="uni04E6" unicode="&#x4e6;" horiz-adv-x="781" 
d="M274 863l-1 -2q23 0 39 -15t16 -37t-16 -37t-39 -15t-39 15t-16 38t17 38t39 15zM506 861l-1 -1q23 0 39 -16t16 -39q0 -22 -16 -37t-39 -15t-39 15t-16 38q0 22 17 39q16 16 39 16zM388 668h1q143 0 243 -99t100 -243t-100 -243t-243 -99q-144 0 -243 99t-99 243t99 243
t242 99zM390 596h-1q-112 0 -187 -76t-75 -192t75 -192q75 -77 188 -77q112 0 187 77q75 76 75 192q0 114 -75 191t-187 77z" />
    <glyph glyph-name="uni04E7" unicode="&#x4e7;" horiz-adv-x="610" 
d="M198 727v-3q22 0 39 -15q16 -15 16 -38q0 -22 -16 -37q-17 -15 -39 -15t-38 16q-17 17 -17 37q0 22 17 39q16 16 38 16zM410 724v-3q22 0 39 -15q16 -15 16 -38q0 -22 -16 -37q-17 -15 -39 -15t-38 16q-17 17 -17 37q0 22 17 39q16 16 38 16zM305 492v-2q107 0 181 -73
q75 -73 75 -180t-75 -180q-77 -75 -181 -74q-105 0 -180 75q-74 74 -74 180t74 180t180 74zM305 419l1 -1q-76 0 -127 -53q-49 -50 -49 -131q2 -79 50 -130q49 -52 125 -52q75 0 126 53t51 129q0 80 -51 132q-51 53 -126 53z" />
    <glyph glyph-name="uni04E8" unicode="&#x4e8;" horiz-adv-x="781" 
d="M390 671h1q143 0 243 -99t100 -243t-100 -243t-243 -99q-144 0 -243 99t-99 243t99 243t242 99zM392 599h1q-98 0 -168 -58t-88 -153h511q-18 94 -88 152q-71 59 -168 59zM393 61h1q109 0 182 73q74 74 78 184h-522q4 -110 78 -184q73 -73 183 -73z" />
    <glyph glyph-name="uni04E9" unicode="&#x4e9;" horiz-adv-x="610" 
d="M305 498v-2q107 0 181 -73q75 -73 75 -180t-75 -180q-77 -75 -181 -74q-105 0 -180 75q-74 74 -74 180t74 180t180 74zM305 425h1q-65 0 -112 -40q-48 -41 -60 -103h344q-13 63 -61 103q-47 40 -112 40zM305 59v-1q67 0 117 44q49 43 58 111h-348q9 -67 57 -111
q47 -43 116 -43z" />
    <glyph glyph-name="uni04EE" unicode="&#x4ee;" horiz-adv-x="610" 
d="M455 833v-63h-295v63h295zM492 660h88l-235 -541q-57 -130 -190 -130q-39 0 -78 10v68q48 -6 64 -6q89 0 132 85l3 6l-233 508h88l186 -422z" />
    <glyph glyph-name="uni04EF" unicode="&#x4ef;" horiz-adv-x="539" 
d="M407 704v-62h-275v62h275zM431 487l81 1l-240 -555q-54 -123 -165 -123q-39 0 -75 10v65q42 -5 59 -5q37 0 65 17q26 16 46 60l26 59l-202 471h83l161 -388z" />
    <glyph glyph-name="uni04F2" unicode="&#x4f2;" horiz-adv-x="610" 
d="M348 896l-113 -172h-55l85 186h83v-14zM530 896l-112 -172h-56l85 186h83v-14zM492 660h88l-235 -541q-57 -130 -190 -130q-39 0 -78 10v68q48 -6 64 -6q89 0 132 85l3 6l-233 508h88l186 -422z" />
    <glyph glyph-name="uni04F3" unicode="&#x4f3;" horiz-adv-x="539" 
d="M325 766l-113 -200h-55l85 214h83v-14zM375 566h-56l85 214h83v-14zM431 487l81 1l-240 -555q-54 -123 -165 -123q-39 0 -75 10v65q42 -5 59 -5q37 0 65 17q26 16 46 60l26 59l-202 471h83l161 -388z" />
    <glyph glyph-name="Wgrave" unicode="&#x1e80;" horiz-adv-x="1066" 
d="M563 724h-58l-121 172v14h94zM935 660h85l-250 -671h-28l-209 524l-209 -524h-28l-251 671h86l182 -503l206 514h28l206 -514z" />
    <glyph glyph-name="wgrave" unicode="&#x1e81;" horiz-adv-x="851" 
d="M452 566h-59l-120 200v14h94zM742 487h82l-205 -498h-28l-166 368l-165 -368h-27l-207 498h82l140 -360l163 371h29l164 -369z" />
    <glyph glyph-name="Wacute" unicode="&#x1e82;" horiz-adv-x="1066" 
d="M683 896l-120 -172h-59l85 186h94v-14zM935 660h85l-250 -671h-28l-209 524l-209 -524h-28l-251 671h86l182 -503l206 514h28l206 -514z" />
    <glyph glyph-name="wacute" unicode="&#x1e83;" horiz-adv-x="851" 
d="M575 766l-120 -200h-59l85 214h94v-14zM742 487h82l-205 -498h-28l-166 368l-165 -368h-27l-207 498h82l140 -360l163 371h29l164 -369z" />
    <glyph glyph-name="Wdieresis" unicode="&#x1e84;" horiz-adv-x="1066" 
d="M416 757l-1 -2q-23 0 -39 15t-16 38t17 38t39 15t39 -15q16 -15 16 -37t-16 -37q-17 -15 -39 -15zM648 754l-1 -1q-23 0 -39 15t-16 38q0 22 17 39q16 16 39 16t39 -16t16 -39q0 -22 -16 -37q-17 -15 -39 -15zM933 657h85l-250 -671h-28l-209 524l-209 -524h-28l-251 671
h86l182 -503l206 514h28l206 -514z" />
    <glyph glyph-name="wdieresis" unicode="&#x1e85;" horiz-adv-x="851" 
d="M316 620v-3q-22 0 -38 16q-17 17 -17 37q0 22 17 39q16 16 38 16t39 -15q16 -15 16 -38q0 -22 -16 -37q-17 -15 -39 -15zM528 617v-3q-22 0 -38 16q-17 17 -17 37q0 22 17 39q16 16 38 16t39 -15q16 -15 16 -38q0 -22 -16 -37q-17 -15 -39 -15zM742 481h82l-205 -498h-28
l-166 368l-165 -368h-27l-207 498h82l140 -360l163 371h29l164 -369z" />
    <glyph glyph-name="uni1E9E" unicode="&#x1e9e;" horiz-adv-x="710" 
d="M469 411l-1 -1q80 -11 135 -67q56 -58 56 -143q0 -91 -63 -151t-153 -60q-111 0 -186 85l47 56q60 -69 136 -69q60 0 99 39t39 101q0 66 -46 105t-121 39h-53v22l137 223h-326v-590h-78v660h518v-23z" />
    <glyph glyph-name="Ygrave" unicode="&#x1ef2;" horiz-adv-x="616" 
d="M335 724h-58l-121 172v14h94zM576 660l-229 -386v-274h-78v274l-229 386h88l180 -310l181 310h87z" />
    <glyph glyph-name="ygrave" unicode="&#x1ef3;" horiz-adv-x="539" 
d="M296 566h-59l-120 200v14h94zM431 487l81 1l-240 -555q-54 -123 -165 -123q-39 0 -75 10v65q42 -5 59 -5q37 0 65 17q26 16 46 60l26 59l-202 471h83l161 -388z" />
    <glyph glyph-name="uni2009" unicode="&#x2009;" horiz-adv-x="147" 
 />
    <glyph glyph-name="endash" unicode="&#x2013;" horiz-adv-x="506" 
d="M462 347v-65h-419v65h419z" />
    <glyph glyph-name="emdash" unicode="&#x2014;" horiz-adv-x="1000" 
d="M950 347v-65h-900v65h900z" />
    <glyph glyph-name="uni2015" unicode="&#x2015;" horiz-adv-x="1000" 
d="M950 347v-65h-900v65h900z" />
    <glyph glyph-name="quoteleft" unicode="&#x2018;" horiz-adv-x="280" 
d="M186 660l-13 -257h-90l42 257h61z" />
    <glyph glyph-name="quoteright" unicode="&#x2019;" horiz-adv-x="280" 
d="M198 660l-43 -257h-61l14 257h90z" />
    <glyph glyph-name="quotesinglbase" unicode="&#x201a;" horiz-adv-x="280" 
d="M198 90l-43 -257h-61l14 257h90z" />
    <glyph glyph-name="quotedblleft" unicode="&#x201c;" horiz-adv-x="463" 
d="M186 660l-13 -257h-90l42 257h61zM369 660l-13 -257h-90l43 257h60z" />
    <glyph glyph-name="quotedblright" unicode="&#x201d;" horiz-adv-x="463" 
d="M198 660l-43 -257h-61l14 257h90zM381 660l-43 -257h-61l14 257h90z" />
    <glyph glyph-name="quotedblbase" unicode="&#x201e;" horiz-adv-x="463" 
d="M381 90l-43 -257h-60l13 257h90zM198 90l-43 -257h-61l14 257h90z" />
    <glyph glyph-name="dagger" unicode="&#x2020;" horiz-adv-x="451" 
d="M263 750v-133h125v-68h-125v-224h-76v224h-124v68h124v133h76z" />
    <glyph glyph-name="daggerdbl" unicode="&#x2021;" horiz-adv-x="451" 
d="M263 750v-103h125v-68h-125v-135h125v-69h-125v-104h-76v104h-124v69h124v135h-124v68h124v103h76z" />
    <glyph glyph-name="bullet" unicode="&#x2022;" horiz-adv-x="377" 
d="M189 397q54 0 92 -37q39 -38 39 -93q0 -56 -39 -92t-92 -36t-92 36t-39 92q0 55 39 93q38 37 92 37z" />
    <glyph glyph-name="ellipsis" unicode="&#x2026;" horiz-adv-x="769" 
d="M385 115q26 0 44 -18t18 -45t-18 -45t-44 -18q-27 0 -45 18t-18 45t18 45t45 18zM634 115q27 0 45 -18t18 -45t-18 -45t-45 -18q-26 0 -44 18t-18 45t18 45t44 18zM135 115q26 0 44 -18t18 -45t-18 -45t-44 -18t-44 18t-18 45t18 45t44 18z" />
    <glyph glyph-name="perthousand" unicode="&#x2030;" horiz-adv-x="1192" 
d="M214 671l-1 -2q69 0 116 -46q48 -47 48 -114t-48 -114q-47 -46 -115 -46t-117 47q-48 46 -48 114t48 114q49 47 117 47zM628 658l-378 -660h-69l378 660h69zM213 612v2q-43 0 -72 -30q-28 -29 -28 -75t28 -75q29 -30 72 -30t72 30q28 29 28 74t-28 74q-29 30 -72 30z
M978 313v-2q70 0 117 -46q48 -47 48 -114t-48 -114q-47 -46 -117 -46q-67 0 -114 47t-47 114t47 114t114 47zM595 310l-1 -2q69 0 116 -46q48 -46 48 -114t-48 -114q-47 -46 -116 -46q-66 0 -115 47q-48 47 -48 114t48 114q49 47 116 47zM978 252v-1q-44 0 -72 -30
q-28 -29 -28 -75q0 -44 28 -73q28 -30 72 -30t72 30q28 29 28 74q0 46 -28 75q-28 30 -72 30zM595 250v-1q-43 0 -72 -30q-28 -29 -28 -75q0 -44 28 -73q29 -30 72 -30q41 0 70 30q28 29 28 74q0 46 -28 75q-29 30 -70 30z" />
    <glyph glyph-name="minute" unicode="&#x2032;" horiz-adv-x="248" 
d="M201 660l-71 -272h-62l41 272h92z" />
    <glyph glyph-name="second" unicode="&#x2033;" horiz-adv-x="431" 
d="M201 660l-71 -272h-62l41 272h92zM384 660l-71 -272h-62l41 272h92z" />
    <glyph glyph-name="guilsinglleft" unicode="&#x2039;" horiz-adv-x="306" 
d="M216 471l50 -45l-141 -155l141 -157l-50 -43l-178 188v23z" />
    <glyph glyph-name="guilsinglright" unicode="&#x203a;" horiz-adv-x="306" 
d="M90 471l177 -189v-23l-177 -188l-51 43l142 157l-142 155z" />
    <glyph glyph-name="fraction" unicode="&#x2044;" horiz-adv-x="238" 
d="M342 660l-378 -660h-69l378 660h69z" />
    <glyph glyph-name="uni2070" unicode="&#x2070;" horiz-adv-x="410" 
d="M205 787q78 0 117 -58q39 -59 39 -153q0 -98 -39 -159t-117 -61q-77 0 -116 62t-39 158q0 94 39 153q39 58 116 58zM205 726l1 -1q-88 0 -88 -151q0 -73 21 -115t66 -42q89 0 89 158q0 151 -89 151z" />
    <glyph glyph-name="uni2074" unicode="&#x2074;" horiz-adv-x="356" 
d="M340 492v-55h-56v-73h-61v73h-207v18l130 325h67l-116 -288h126v130h61v-130h56z" />
    <glyph glyph-name="uni2075" unicode="&#x2075;" horiz-adv-x="366" 
d="M182 628l-1 -2q62 0 104 -33t42 -94q0 -64 -45 -103t-109 -39q-50 0 -87 25t-58 66l46 33q38 -62 99 -62q38 0 62 21t24 57q0 74 -96 74h-94v209h226v-60h-162v-97q32 5 49 5z" />
    <glyph glyph-name="uni2076" unicode="&#x2076;" horiz-adv-x="373" 
d="M198 639h1q53 0 93 -40q41 -41 41 -99q0 -62 -43 -102q-44 -41 -105 -41q-59 0 -102 41q-42 40 -42 104q0 35 13 61q14 28 43 70l103 147h78l-99 -143q16 2 19 2zM187 418h-1q34 0 57 23t23 59q0 34 -23 59q-23 24 -57 24t-57 -24q-22 -23 -22 -59t23 -59t57 -23z" />
    <glyph glyph-name="uni2077" unicode="&#x2077;" horiz-adv-x="327" 
d="M28 780h280v-19l-198 -397h-71l181 356h-192v60z" />
    <glyph glyph-name="uni2078" unicode="&#x2078;" horiz-adv-x="382" 
d="M251 580l2 -3q89 -35 89 -108q0 -53 -42 -84q-41 -31 -109 -31q-66 0 -107 32t-41 84q0 73 89 108q-70 36 -70 101q0 49 36 78q37 29 92 29q57 0 94 -28t37 -78q0 -64 -70 -100zM192 731l1 1q-29 0 -48 -15t-19 -41q0 -24 17 -39t51 -30q34 15 51 30t17 38q0 26 -20 41
q-19 15 -50 15zM193 409l-2 -1q41 0 63 18q23 18 23 47t-21 45q-22 17 -63 32q-40 -15 -62 -32q-21 -16 -21 -45q0 -28 22 -46t61 -18z" />
    <glyph glyph-name="uni2079" unicode="&#x2079;" horiz-adv-x="373" 
d="M187 787l-1 -1q59 0 102 -41q42 -41 42 -104q0 -35 -13 -61q-14 -28 -43 -70l-103 -147h-78l99 143q-16 -2 -19 -2q-52 0 -93 41t-41 99q0 62 43 102q44 41 105 41zM186 559h-2q34 0 57 24q23 25 23 59q0 37 -22 59q-23 23 -57 23t-57 -23q-22 -22 -22 -59q0 -34 23 -59
q23 -24 57 -24z" />
    <glyph glyph-name="uni207A" unicode="&#x207a;" horiz-adv-x="427" 
d="M245 745v-144h140v-57h-140v-144h-63v144h-140v57h140v144h63z" />
    <glyph glyph-name="uni207B" unicode="&#x207b;" horiz-adv-x="427" 
d="M385 599v-52h-343v52h343z" />
    <glyph glyph-name="uni207C" unicode="&#x207c;" horiz-adv-x="427" 
d="M49 623v57h329v-57h-329zM49 465v57h329v-57h-329z" />
    <glyph glyph-name="uni207D" unicode="&#x207d;" horiz-adv-x="255" 
d="M208 901l25 -41q-117 -75 -117 -289q0 -215 117 -288l-25 -41q-68 45 -108 120q-41 76 -41 209q0 139 42 219q42 79 107 111z" />
    <glyph glyph-name="uni207E" unicode="&#x207e;" horiz-adv-x="255" 
d="M46 901v1q65 -32 107 -111t42 -219q0 -138 -42 -218q-42 -79 -107 -111l-25 41q117 74 117 288t-117 289z" />
    <glyph glyph-name="uni2080" unicode="&#x2080;" horiz-adv-x="410" 
d="M205 303q78 0 117 -58q39 -59 39 -153q0 -98 -39 -159t-117 -61q-77 0 -116 62t-39 158q0 94 39 153q39 58 116 58zM205 242q-88 0 -88 -151q0 -158 88 -158q89 0 89 158q0 151 -89 151z" />
    <glyph glyph-name="uni2081" unicode="&#x2081;" horiz-adv-x="353" 
d="M219 296v-356h90v-60h-262v60h105v296h-100v60h167z" />
    <glyph glyph-name="uni2082" unicode="&#x2082;" horiz-adv-x="369" 
d="M155 -60l175 -1v-60h-294v15l148 159q32 35 48 62q15 25 15 53q0 32 -19 52q-20 21 -51 21t-51 -21q-19 -20 -19 -55l2 -32h-65q-4 15 -4 36q0 52 38 93q37 40 99 40q59 0 98 -36t39 -92q0 -43 -22 -77q-25 -38 -67 -83z" />
    <glyph glyph-name="uni2083" unicode="&#x2083;" horiz-adv-x="354" 
d="M205 142l-4 1q44 -9 77 -42t33 -87q0 -63 -43 -102t-106 -39q-98 0 -144 90l46 33q38 -62 96 -62q38 0 61 22q24 22 24 58q0 34 -24 54q-23 19 -70 19h-41v18l97 131h-159v60h257v-19z" />
    <glyph glyph-name="uni2084" unicode="&#x2084;" horiz-adv-x="356" 
d="M340 8v-55h-56v-73h-61v73h-207v18l130 325h67l-116 -288h126v130h61v-130h56z" />
    <glyph glyph-name="uni2085" unicode="&#x2085;" horiz-adv-x="366" 
d="M182 144l-1 -2q62 0 104 -33t42 -94q0 -64 -45 -103t-109 -39q-50 0 -87 25t-58 66l46 33q38 -62 99 -62q38 0 62 21t24 57q0 74 -96 74h-94v209h226v-60h-162v-97q32 5 49 5z" />
    <glyph glyph-name="uni2086" unicode="&#x2086;" horiz-adv-x="373" 
d="M198 155h1q53 0 93 -40q41 -41 41 -99q0 -62 -43 -102q-44 -41 -105 -41q-59 0 -102 41q-42 41 -42 104q0 35 13 61q14 28 43 70l103 147h78l-99 -143q16 2 19 2zM187 -66h-1q34 0 57 23t23 59q0 34 -23 59q-23 24 -57 24t-57 -24q-22 -23 -22 -59t23 -59t57 -23z" />
    <glyph glyph-name="uni2087" unicode="&#x2087;" horiz-adv-x="327" 
d="M28 296h280v-19l-198 -397h-71l181 356h-192v60z" />
    <glyph glyph-name="uni2088" unicode="&#x2088;" horiz-adv-x="382" 
d="M251 96l2 -3q89 -35 89 -108q0 -53 -42 -84q-41 -31 -109 -31q-66 0 -107 32t-41 84q0 73 89 108q-70 36 -70 101q0 49 36 78q37 29 92 29q57 0 94 -28t37 -78q0 -64 -70 -100zM192 247l1 1q-29 0 -48 -15t-19 -41q0 -24 17 -39t51 -30q34 15 51 30t17 38q0 26 -20 41
q-19 15 -50 15zM193 -75l-2 -1q41 0 63 18q23 18 23 47t-21 45t-63 30q-41 -14 -62 -30t-21 -45q0 -28 22 -46t61 -18z" />
    <glyph glyph-name="uni2089" unicode="&#x2089;" horiz-adv-x="373" 
d="M187 303l-1 -1q59 0 102 -41q42 -41 42 -104q0 -35 -13 -61q-14 -28 -43 -70l-103 -147h-78l99 143q-16 -2 -19 -2q-52 0 -93 41t-41 99q0 62 43 102q44 41 105 41zM186 75h-2q34 0 57 24q23 25 23 59q0 37 -22 59q-23 23 -57 23t-57 -23q-22 -22 -22 -59q0 -34 23 -59
q23 -24 57 -24z" />
    <glyph glyph-name="uni208A" unicode="&#x208a;" horiz-adv-x="427" 
d="M245 260v-144h140v-57h-140v-144h-63v144h-140v57h140v144h63z" />
    <glyph glyph-name="uni208B" unicode="&#x208b;" horiz-adv-x="427" 
d="M385 114v-52h-343v52h343z" />
    <glyph glyph-name="uni208C" unicode="&#x208c;" horiz-adv-x="427" 
d="M49 138v57h329v-57h-329zM49 -20v57h329v-57h-329z" />
    <glyph glyph-name="uni208D" unicode="&#x208d;" horiz-adv-x="255" 
d="M208 416l25 -41q-117 -75 -117 -289t117 -288l-25 -41q-68 45 -108 120q-41 76 -41 209q0 140 42 219t107 111z" />
    <glyph glyph-name="uni208E" unicode="&#x208e;" horiz-adv-x="255" 
d="M46 416v1q65 -32 107 -111q42 -80 42 -219t-42 -218t-107 -111l-25 41q117 73 117 288q0 214 -117 289z" />
    <glyph glyph-name="lira" unicode="&#x20a4;" horiz-adv-x="529" 
d="M264 173l1 -1q-13 -64 -57 -105h276v-68h-427v20q110 71 128 153h-118v68h120q-5 32 -30 83h-90v68h55q-25 54 -25 105q0 78 54 126t137 48q76 0 129 -42t75 -120l-69 -26q-37 117 -132 117q-54 0 -84 -33t-30 -82q0 -42 26 -92h192v-68h-156q21 -45 27 -83h129v-68h-131
z" />
    <glyph glyph-name="peseta" unicode="&#x20a7;" horiz-adv-x="590" 
d="M591 489v-68h-83q-12 -77 -72 -123q-59 -46 -151 -46h-102v-253h-78v421h-82v68h82v171h180q93 0 152 -46q61 -47 71 -124h83zM285 590l-101 -1v-102h243q-9 49 -46 76t-96 27zM285 322l-1 1q58 0 95 26t47 72h-242v-99h101z" />
    <glyph glyph-name="Euro" unicode="&#x20ac;" horiz-adv-x="681" 
d="M410 61v-1q106 0 166 81l56 -45q-34 -50 -93 -79q-57 -28 -132 -28q-109 0 -187 63q-79 64 -107 166h-108v68h95q-2 20 -2 45q0 32 1 41h-92v68h105q28 104 107 168q78 63 188 63q75 0 132 -28q59 -29 93 -79l-56 -45q-60 81 -166 81q-80 0 -135 -43t-81 -117h292
l-16 -68h-290q-2 -18 -2 -42q0 -25 2 -45h264l-17 -68h-231q26 -72 81 -114q56 -42 133 -42z" />
    <glyph glyph-name="uni20AE" unicode="&#x20ae;" horiz-adv-x="581" 
d="M562 590h-233v-179l183 69v-73l-183 -69v-89l183 69v-73l-183 -69v-176h-78v147l-181 -69v74l181 68v89l-181 -68v73l181 68v208h-232v70h543v-70z" />
    <glyph glyph-name="uni20B4" unicode="&#x20b4;" horiz-adv-x="542" 
d="M521 222l-357 -2q-14 -23 -14 -52q0 -49 35 -79t90 -30q111 0 183 112l57 -42q-34 -64 -99 -103q-64 -39 -142 -39q-88 0 -147 50q-58 49 -58 131q0 26 8 53h-55v64h98q24 23 105 69l26 15h-227v64h331q28 28 28 69q0 50 -34 74q-35 24 -81 24q-84 0 -143 -81l-55 41
q28 52 81 82t120 30q85 0 138 -46q54 -46 54 -123q0 -42 -16 -70h74v-64h-136q-24 -17 -70 -43l-53 -31l-15 -9h274v-64z" />
    <glyph glyph-name="uni20B8" unicode="&#x20b8;" horiz-adv-x="581" 
d="M562 660v-70h-543v70h543zM562 504v-70h-233v-434h-78v434h-232v70h543z" />
    <glyph glyph-name="uni20B9" unicode="&#x20b9;" horiz-adv-x="513" 
d="M439 592l-120 1q32 -35 41 -81h78v-68h-75q-9 -76 -64 -121q-55 -44 -145 -46l285 -277h-98l-286 277v68h91q119 0 136 98h-229v68h226q-24 81 -133 81h-91v68h384v-68z" />
    <glyph glyph-name="uni20BA" unicode="&#x20ba;" horiz-adv-x="518" 
d="M474 290l1 -1q9 -31 9 -66q0 -119 -98 -178q-97 -58 -263 -58v243l-97 -44v73l97 45v89l-97 -44v73l97 44v192h78v-156l188 85v-73l-188 -86v-89l188 87v-73l-188 -87v-206q89 8 150 51q62 44 62 120q0 22 -5 59h66z" />
    <glyph glyph-name="uni20BD" unicode="&#x20bd;" horiz-adv-x="576" 
d="M328 660l2 2q92 0 146 -51t54 -133q0 -81 -55 -132t-147 -51h-144v-93h265v-68h-265v-134h-78v134h-82v68h82v93h-82v68h82v297h222zM328 594h-142v-229h142q61 0 93 31q33 32 33 82q0 52 -33 84q-34 32 -93 32z" />
    <glyph glyph-name="uni2105" unicode="&#x2105;" horiz-adv-x="811" 
d="M213 671h-2q89 0 132 -72l-46 -38q-35 48 -85 48q-40 0 -67 -28q-27 -29 -27 -70q0 -43 27 -72q27 -28 68 -28q50 0 84 49l46 -38q-43 -73 -131 -73q-66 0 -115 47q-48 46 -48 114t48 114q49 47 116 47zM625 660l-378 -660h-68l377 660h69zM595 312v-3q67 0 116 -47
q48 -46 48 -114t-48 -114q-47 -46 -116 -46q-68 0 -117 47q-48 47 -48 114q0 69 48 116q49 47 117 47zM595 247v-1q-42 0 -69 -28t-27 -72q0 -42 27 -70t69 -28q41 0 68 28t27 70q0 44 -27 72q-27 29 -68 29z" />
    <glyph glyph-name="uni2113" unicode="&#x2113;" horiz-adv-x="422" 
d="M180 173l-1 -1q0 -114 105 -114q28 0 87 10v-65q-49 -15 -99 -15q-82 0 -125 45q-44 46 -44 132v5l-54 -44l-41 58q55 45 95 81v304q0 98 41 145q40 46 110 46q63 0 99 -36t36 -111q0 -176 -209 -373v-67zM256 694q-77 0 -77 -121v-236q140 143 140 270q0 87 -63 87z" />
    <glyph glyph-name="uni2116" unicode="&#x2116;" horiz-adv-x="1126" 
d="M539 163v497h78v-671h-28l-420 507v-496h-78v671h28zM912 237l-1 -2q-66 0 -115 47q-48 46 -48 114t48 114q49 47 116 47q69 0 116 -46q48 -47 48 -114t-48 -114q-47 -46 -116 -46zM911 500l-1 -1q-44 0 -72 -30q-28 -29 -28 -75q0 -44 28 -73q28 -30 72 -30t72 30
q29 31 29 74q0 46 -28 75q-29 30 -72 30zM752 102v56h318v-56h-318z" />
    <glyph glyph-name="uni2117" unicode="&#x2117;" horiz-adv-x="781" 
d="M390 671h-2q142 0 242 -99q101 -99 101 -243t-101 -243q-100 -99 -242 -99q-140 0 -241 99q-100 99 -100 243t101 243q100 99 242 99zM388 616v2q-118 0 -201 -81q-82 -81 -82 -205t82 -205q83 -81 201 -81q117 0 200 81t83 204t-82 204q-83 81 -201 81zM416 505l-1 1
q59 0 95 -33t36 -85t-36 -84q-37 -32 -94 -32h-75v-120h-66v353h141zM415 449h-74v-120h74q31 0 48 17t17 42q0 27 -17 44t-48 17z" />
    <glyph glyph-name="trademark" unicode="&#x2122;" horiz-adv-x="959" 
d="M886 667v-456h-67v294l-133 -179h-23l-132 179v-294h-68v456h24l188 -254l188 254h23zM387 660v-61h-154v-388h-66v388h-154v61h374z" />
    <glyph glyph-name="uni2126" unicode="&#x2126;" horiz-adv-x="792" 
d="M738 343l-1 -1q0 -162 -162 -273h152v-70h-269v70q198 95 198 270q0 113 -75 186q-74 73 -187 73q-112 0 -186 -72t-74 -185q0 -175 198 -270v-70h-269v70h149q-159 107 -159 273q0 141 99 234t243 93q143 0 243 -94t100 -234z" />
    <glyph glyph-name="estimated" unicode="&#x212e;" horiz-adv-x="795" 
d="M731 327l-542 -4v-202q77 -104 220 -104q77 0 145 33t111 87l24 -21q-49 -59 -123 -94q-72 -34 -159 -34q-148 0 -248 98q-99 98 -99 239q0 144 102 244q101 100 242 100q80 0 156 -35t125 -102q55 -76 50 -151zM409 634q-142 0 -220 -104v-176h421v192q-75 88 -201 88z
" />
    <glyph glyph-name="uni2150" unicode="&#x2150;" horiz-adv-x="917" 
d="M309 304v-60h-262v60h105v296h-100v60h167v-356h90zM626 660h69l-378 -660h-68zM618 416h280v-19l-198 -397h-71l181 356h-192v60z" />
    <glyph glyph-name="uni2151" unicode="&#x2151;" horiz-adv-x="933" 
d="M309 304v-60h-262v60h105v296h-100v60h167v-356h90zM626 660h69l-378 -660h-68zM747 423l-1 -1q59 0 102 -41q42 -41 42 -104q0 -35 -13 -61q-14 -28 -43 -70l-103 -147h-78l99 143q-16 -2 -19 -2q-52 0 -93 41t-41 99q0 62 43 102q44 41 105 41zM746 195h-2q34 0 57 24
q23 25 23 59q0 37 -22 59q-23 23 -57 23t-57 -23q-22 -22 -22 -59q0 -34 23 -59q23 -24 57 -24z" />
    <glyph glyph-name="uni2152" unicode="&#x2152;" horiz-adv-x="1352" 
d="M219 660v-356h90v-60h-262v60h105v296h-100v60h167zM695 660l-378 -660h-68l377 660h69zM1148 423q78 0 117 -58q39 -59 39 -153q0 -98 -39 -159t-117 -61q-77 0 -116 62q-39 61 -39 158q0 94 39 153q39 58 116 58zM809 416v-356h90v-60h-262v60h105v296h-100v60h167z
M1148 362l1 -1q-88 0 -88 -151q0 -73 21 -115t66 -42q89 0 89 158q0 151 -89 151z" />
    <glyph glyph-name="uni2153" unicode="&#x2153;" horiz-adv-x="944" 
d="M309 304v-60h-262v60h105v296h-100v60h167v-356h90zM626 660h69l-378 -660h-68zM795 262l-4 1q44 -9 77 -42t33 -87q0 -63 -43 -102q-44 -39 -106 -39q-98 0 -144 90l46 33q38 -62 96 -62q38 0 61 22q24 22 24 58q0 34 -24 54q-23 19 -70 19h-41v18l97 131h-159v60h257
v-19z" />
    <glyph glyph-name="uni2154" unicode="&#x2154;" horiz-adv-x="960" 
d="M329 304l1 -62h-294v15l148 159q32 35 48 62q15 26 15 53q0 32 -19 52q-20 21 -51 21t-51 -21q-19 -20 -19 -55l2 -32h-65q-4 15 -4 36q0 52 38 93q37 40 99 40q59 0 98 -36t39 -92q0 -43 -22 -77q-24 -36 -67 -81l-71 -75h175zM643 658h69l-378 -660h-68zM812 260l-4 1
q44 -9 77 -42t33 -87q0 -63 -43 -102t-106 -39q-97 0 -144 90l46 33q38 -62 96 -62q38 0 61 22q24 23 24 58q0 34 -24 54q-23 19 -70 19h-41v18l97 131h-159v60h257v-19z" />
    <glyph glyph-name="uni2155" unicode="&#x2155;" horiz-adv-x="948" 
d="M309 304v-60h-262v60h105v296h-100v60h167v-356h90zM626 660h69l-378 -660h-68zM764 264l-1 -2q62 0 104 -33t42 -94q0 -64 -45 -103t-109 -39q-50 0 -87 25t-58 66l46 33q38 -62 99 -62q38 0 62 21t24 57q0 74 -96 74h-94v209h226v-60h-162v-97q32 5 49 5z" />
    <glyph glyph-name="uni2156" unicode="&#x2156;" horiz-adv-x="964" 
d="M329 304l1 -62h-294v15l148 159q32 35 48 62q15 26 15 53q0 32 -19 52q-20 21 -51 21t-51 -21q-19 -20 -19 -55l2 -32h-65q-4 15 -4 36q0 52 38 93q37 40 99 40q59 0 98 -36t39 -92q0 -43 -22 -77q-24 -36 -67 -81l-71 -75h175zM643 658h69l-378 -660h-68zM781 262l-1 -2
q62 0 104 -33t42 -94q0 -64 -45 -103t-109 -39q-50 0 -87 25t-58 66l46 33q38 -62 99 -62q38 0 62 21t24 57q0 74 -96 74h-94v209h226v-60h-162v-97q32 5 49 5z" />
    <glyph glyph-name="uni2157" unicode="&#x2157;" horiz-adv-x="914" 
d="M314 378h-4q0 -63 -43 -102t-106 -39q-97 0 -144 90l46 33q38 -62 96 -62q38 0 61 22q24 22 24 58q0 34 -24 54q-23 19 -70 19h-41v18l97 131h-159v60h257v-19l-100 -136q45 -8 77 -40q33 -33 33 -87zM588 660h69l-378 -660h-68zM726 264l-1 -2q62 0 104 -33t42 -94
q0 -64 -45 -103t-109 -39q-50 0 -87 25t-58 66l46 33q38 -62 99 -62q38 0 62 21t24 57q0 74 -96 74h-94v209h226v-60h-162v-97q32 5 49 5z" />
    <glyph glyph-name="uni2158" unicode="&#x2158;" horiz-adv-x="962" 
d="M284 244h-61v73h-207v18l130 325h67l-116 -288h126v130h61v-130h56v-55h-56v-73zM639 660h69l-378 -660h-68zM778 264l-1 -2q62 0 104 -33t42 -94q0 -64 -45 -103t-109 -39q-50 0 -87 25t-58 66l46 33q38 -62 99 -62q38 0 62 21t24 57q0 74 -96 74h-94v209h226v-60h-162
v-97q32 5 49 5z" />
    <glyph glyph-name="uni2159" unicode="&#x2159;" horiz-adv-x="883" 
d="M309 304v-60h-262v60h105v296h-100v60h167v-356h90zM626 660h69l-378 -660h-68zM708 275h1q53 0 93 -40q41 -41 41 -99q0 -62 -43 -102q-44 -41 -105 -41q-59 0 -102 41q-42 41 -42 104q0 35 13 61q14 28 43 70l103 147h78l-99 -143q16 2 19 2zM697 54h-1q34 0 57 23
t23 59q0 34 -23 59q-23 24 -57 24t-57 -24q-22 -23 -22 -59t23 -59t57 -23z" />
    <glyph glyph-name="uni215A" unicode="&#x215a;" horiz-adv-x="861" 
d="M327 380v-2q0 -64 -45 -103t-109 -39q-50 0 -87 25t-58 66l46 33q38 -62 99 -62q38 0 62 21t24 57q0 74 -96 74h-94v209h226v-60h-162v-98q25 6 48 6q62 0 104 -33t42 -94zM604 658h69l-378 -660h-68zM686 273h1q53 0 93 -40q41 -41 41 -99q0 -62 -43 -102
q-44 -41 -105 -41q-59 0 -102 41q-42 40 -42 104q0 35 13 61q14 28 43 70l103 147h78l-99 -143q16 2 19 2zM675 52h-1q34 0 57 23t23 59q0 34 -23 59q-23 24 -57 24t-57 -24q-22 -23 -22 -59t23 -59t57 -23z" />
    <glyph glyph-name="oneeighth" unicode="&#x215b;" horiz-adv-x="927" 
d="M309 304v-60h-262v60h105v296h-100v60h167v-356h90zM626 660h69l-378 -660h-68zM796 216l2 -3q89 -35 89 -108q0 -53 -42 -84q-41 -31 -109 -31q-66 0 -107 32t-41 84q0 73 89 108q-70 36 -70 101q0 49 36 78q37 29 92 29q57 0 94 -28t37 -78q0 -64 -70 -100zM737 367
l1 1q-28 0 -48 -15q-19 -15 -19 -41q0 -24 17 -39q16 -15 51 -30q35 15 51 30q17 15 17 38q0 26 -20 41q-19 15 -50 15zM738 45l-2 -1q40 0 63 18t23 47t-21 45q-22 17 -63 32q-40 -15 -62 -32q-21 -16 -21 -45q0 -28 22 -46q23 -18 61 -18z" />
    <glyph glyph-name="threeeighths" unicode="&#x215c;" horiz-adv-x="893" 
d="M314 378h-4q0 -63 -43 -102t-106 -39q-97 0 -144 90l46 33q38 -62 96 -62q38 0 61 22q24 22 24 58q0 34 -24 54q-23 19 -70 19h-41v18l97 131h-159v60h257v-19l-100 -136q45 -8 77 -40q33 -33 33 -87zM588 660h69l-378 -660h-68zM758 216l2 -3q89 -35 89 -108
q0 -53 -42 -84q-41 -31 -109 -31q-66 0 -107 32t-41 84q0 73 89 108q-70 36 -70 101q0 49 36 78q37 29 92 29q57 0 94 -28t37 -78q0 -64 -70 -100zM699 367l1 1q-28 0 -48 -15q-19 -15 -19 -41q0 -24 17 -39q16 -15 51 -30q35 15 51 30q17 15 17 38q0 26 -20 41
q-19 15 -50 15zM700 45l-2 -1q40 0 63 18t23 47t-21 45q-22 17 -63 32q-40 -15 -62 -32q-21 -16 -21 -45q0 -28 22 -46q23 -18 61 -18z" />
    <glyph glyph-name="fiveeighths" unicode="&#x215d;" horiz-adv-x="905" 
d="M327 380v-2q0 -64 -45 -103t-109 -39q-50 0 -87 25t-58 66l46 33q38 -62 99 -62q38 0 62 21t24 57q0 74 -96 74h-94v209h226v-60h-162v-98q25 6 48 6q62 0 104 -33t42 -94zM604 658h69l-378 -660h-68zM774 214l2 -3q89 -35 89 -108q0 -53 -42 -84q-41 -31 -109 -31
q-66 0 -107 32t-41 84q0 73 89 108q-70 36 -70 101q0 49 36 78q37 29 92 29q57 0 94 -28t37 -78q0 -64 -70 -100zM715 365l1 1q-28 0 -48 -15q-19 -15 -19 -41q0 -24 17 -39q16 -15 51 -30q35 15 51 30q17 15 17 38q0 26 -20 41q-19 15 -50 15zM716 43l-2 -1q40 0 63 18
t23 47t-21 45q-22 17 -63 32q-40 -15 -62 -32q-21 -16 -21 -45q0 -28 22 -46q23 -18 61 -18z" />
    <glyph glyph-name="seveneighths" unicode="&#x215e;" horiz-adv-x="804" 
d="M308 660v-19l-198 -397h-71l181 356h-192v60h280zM502 660h69l-378 -660h-68zM673 216l2 -3q89 -35 89 -108q0 -53 -42 -84q-41 -31 -109 -31q-66 0 -107 32t-41 84q0 73 89 108q-70 36 -70 101q0 49 36 78q37 29 92 29q57 0 94 -28t37 -78q0 -64 -70 -100zM614 367l1 1
q-29 0 -48 -15t-19 -41q0 -24 17 -39t51 -30q34 15 51 30t17 38q0 26 -20 41t-50 15zM615 45l-2 -1q41 0 63 18q23 18 23 47t-21 45q-22 17 -63 32q-40 -15 -62 -32q-21 -16 -21 -45q0 -28 22 -46t61 -18z" />
    <glyph glyph-name="arrowleft" unicode="&#x2190;" horiz-adv-x="650" 
d="M597 281l-435 1l194 -195l-45 -46l-265 265v18l265 264l45 -45l-193 -194h434v-68z" />
    <glyph glyph-name="arrowup" unicode="&#x2191;" horiz-adv-x="650" 
d="M598 317l-46 -46l-191 189v-415h-71v417l-192 -191l-46 46l264 263h18z" />
    <glyph glyph-name="arrowright" unicode="&#x2192;" horiz-adv-x="650" 
d="M339 588l265 -264v-18l-265 -265l-45 46l194 195l-435 -1v68h434l-193 194z" />
    <glyph glyph-name="arrowdown" unicode="&#x2193;" horiz-adv-x="650" 
d="M552 359l46 -46l-264 -264h-18l-264 264l46 46l192 -191v417h71v-416z" />
    <glyph glyph-name="arrowboth" unicode="&#x2194;" horiz-adv-x="926" 
d="M615 588l265 -264v-18l-265 -265l-46 46l195 195l-196 -1h-210l-196 1l194 -195l-45 -46l-265 265v18l265 264l45 -45l-193 -194h600l-194 194z" />
    <glyph glyph-name="arrowupdn" unicode="&#x2195;" horiz-adv-x="631" 
d="M352 56l181 181l45 -46l-254 -254h-17l-255 254l46 46l182 -182v550l-182 -182l-46 46l255 254h17l254 -254l-45 -46l-181 181v-548z" />
    <glyph glyph-name="uni2196" unicode="&#x2196;" horiz-adv-x="650" 
d="M280 397l277 -277l-49 -48l-321 321v-280h-70v386l13 13h382v-67h-281z" />
    <glyph glyph-name="uni2197" unicode="&#x2197;" horiz-adv-x="650" 
d="M520 512l13 -13v-386h-70v280l-321 -321l-49 48l277 277l49 48h-281v67h382z" />
    <glyph glyph-name="uni2198" unicode="&#x2198;" horiz-adv-x="650" 
d="M463 497h70v-385l-13 -13h-382v66h281l-326 326l49 48l321 -321v279z" />
    <glyph glyph-name="uni2199" unicode="&#x2199;" horiz-adv-x="650" 
d="M231 165h281v-66h-382l-13 13v385h70v-279l321 321l49 -48z" />
    <glyph glyph-name="partialdiff" unicode="&#x2202;" horiz-adv-x="578" 
d="M293 672l2 -2q107 0 170 -78t63 -227q0 -167 -76 -273t-201 -106q-84 0 -145 53q-60 52 -60 146q0 95 66 155t181 60q65 0 156 -21q-5 222 -157 222q-83 0 -143 -78l-52 42q28 49 80 78t116 29zM258 54q78 0 129 71q50 70 61 189q-89 19 -150 19q-87 0 -129 -42t-42 -103
q0 -60 37 -97t94 -37z" />
    <glyph glyph-name="uni2206" unicode="&#x2206;" horiz-adv-x="663" 
d="M346 671l286 -671h-601l286 671h29zM331 518l-188 -448h377z" />
    <glyph glyph-name="product" unicode="&#x220f;" horiz-adv-x="692" 
d="M601 660v-781h-78v711h-354v-711h-78v781h510z" />
    <glyph glyph-name="summation" unicode="&#x2211;" horiz-adv-x="574" 
d="M185 -51h349v-70h-469v21l236 379l-236 360v21h457v-70h-334l196 -299v-21z" />
    <glyph glyph-name="minus" unicode="&#x2212;" 
d="M503 349v-68h-447v68h447z" />
    <glyph glyph-name="uni2219" unicode="&#x2219;" horiz-adv-x="270" 
d="M135 377q26 0 44 -18t18 -45q0 -28 -18 -46t-44 -18t-44 18t-18 46q0 27 18 45t44 18z" />
    <glyph glyph-name="radical" unicode="&#x221a;" horiz-adv-x="733" 
d="M641 750h85l-513 -883h-29v337h-157v69h232v-180z" />
    <glyph glyph-name="infinity" unicode="&#x221e;" horiz-adv-x="822" 
d="M611 482l-4 -1q80 0 129 -49q50 -50 50 -120q0 -71 -49 -119t-127 -48q-62 0 -108 30t-93 84q-49 -55 -94 -84q-47 -30 -108 -30q-77 0 -126 48t-49 119t49 120t129 49q62 0 108 -30q48 -31 93 -82q45 53 92 83t108 30zM212 215v1q42 0 74 25q36 28 74 73q-40 47 -73 72
q-34 25 -75 25q-46 0 -76 -27t-30 -70q0 -45 30 -72t76 -27zM602 216l-2 -2q46 0 76 27t30 72q0 44 -30 71t-76 27q-40 0 -73 -24t-74 -71q45 -51 76 -75q32 -25 73 -25z" />
    <glyph glyph-name="integral" unicode="&#x222b;" horiz-adv-x="327" 
d="M258 787l1 4q37 0 65 -7v-64q-11 0 -22.5 0.5t-17.5 1t-9 0.5q-107 0 -105 -123q0 -56 34 -267t34 -279q0 -90 -45 -135t-122 -45q-37 0 -65 7v64q11 0 22.5 -0.5t17.5 -1t9 -0.5q105 0 105 122q0 53 -35 269t-35 275q0 89 45 134t123 45z" />
    <glyph glyph-name="approxequal" unicode="&#x2248;" 
d="M153 509l-2 -2q37 0 84 -28l94 -57q40 -25 62 -25q17 0 28 12q10 11 10 32v19h63q2 -10 2 -27q0 -46 -27 -76t-70 -30q-41 0 -83 26l-94 58q-40 25 -61 25q-17 0 -28 -12q-10 -11 -10 -32v-18h-63v12v16q0 43 26 75t69 32zM151 294l-2 -3q41 0 84 -27l94 -57
q40 -25 62 -25q17 0 28 12q10 11 10 32v19h63q2 -10 2 -26q0 -46 -27 -76t-70 -30q-39 0 -83 26l-94 57q-43 26 -61 26q-17 0 -28 -12q-10 -11 -10 -32v-18h-63v12v15q0 44 26 76q25 31 69 31z" />
    <glyph glyph-name="notequal" unicode="&#x2260;" 
d="M494 384h-133l-88 -139h221v-68h-263l-70 -111h-72l69 111h-92v68h135l88 139h-223v69h266l68 107h71l-67 -107h90v-69z" />
    <glyph glyph-name="lessequal" unicode="&#x2264;" 
d="M490 527v-73l-293 -110l293 -110v-73l-438 172v22zM62 0v68h428v-68h-428z" />
    <glyph glyph-name="greaterequal" unicode="&#x2265;" 
d="M70 527l439 -172v-22l-439 -172v73l293 110l-293 110v73zM70 0v68h428v-68h-428z" />
    <glyph glyph-name="uni24EA" unicode="&#x24ea;" horiz-adv-x="975" 
d="M487 761v-2q179 0 305 -126t126 -304t-126 -304t-305 -126q-178 0 -304 126t-126 305t126 305t304 126zM487 697q-154 0 -260 -106q-107 -107 -107 -262t107 -262q106 -106 260 -106q153 0 262 107q108 106 108 261t-108 261q-109 107 -262 107zM487 559h1q84 0 127 -63
q43 -62 43 -166t-43 -169q-43 -66 -127 -66t-126 66t-42 169t42 166t125 63zM488 499q-100 0 -100 -168q0 -175 100 -175q102 0 102 175q0 168 -102 168z" />
    <glyph glyph-name="uni24FF" unicode="&#x24ff;" horiz-adv-x="975" 
d="M487 761v-2q179 0 305 -126t126 -304t-126 -304t-305 -126q-178 0 -304 126t-126 305t126 305t304 126zM487 559h-1q-84 0 -126 -63t-42 -166t42 -169t127 -66t129 66q43 65 43 169t-43 166q-44 63 -129 63zM486 495q98 0 98 -164q0 -171 -98 -171q-96 0 -96 171
q0 164 96 164z" />
    <glyph glyph-name="filledbox" unicode="&#x25a0;" horiz-adv-x="730" 
d="M640 605v-550h-550v550h550z" />
    <glyph glyph-name="uni25A1" unicode="&#x25a1;" horiz-adv-x="730" 
d="M640 605v-550h-550v550h550zM562 534h-394v-408h394v408z" />
    <glyph glyph-name="uni25AA" unicode="&#x25aa;" horiz-adv-x="541" 
d="M461 434v-380h-381v380h381z" />
    <glyph glyph-name="uni25AB" unicode="&#x25ab;" horiz-adv-x="541" 
d="M461 434v-380h-381v380h381zM387 366h-233v-244h233v244z" />
    <glyph glyph-name="triagup" unicode="&#x25b2;" horiz-adv-x="730" 
d="M373 660l336 -592l-7 -13h-674l-7 13l337 592h15z" />
    <glyph glyph-name="uni25B3" unicode="&#x25b3;" horiz-adv-x="730" 
d="M373 660l336 -592l-7 -13h-674l-7 13l337 592h15zM586 133l-221 388l-221 -388h442z" />
    <glyph glyph-name="uni25B4" unicode="&#x25b4;" horiz-adv-x="528" 
d="M272 473l231 -406l-7 -13h-464l-7 13l232 406h15z" />
    <glyph glyph-name="uni25B5" unicode="&#x25b5;" horiz-adv-x="528" 
d="M272 473l231 -406l-7 -13h-464l-7 13l232 406h15zM393 119l-129 226l-128 -226h257z" />
    <glyph glyph-name="uni25B6" unicode="&#x25b6;" horiz-adv-x="645" 
d="M103 671l519 -334v-15l-519 -333l-13 7v668z" />
    <glyph glyph-name="uni25B7" unicode="&#x25b7;" horiz-adv-x="645" 
d="M103 671l519 -334v-15l-519 -333l-13 7v668zM494 330l-326 209v-418z" />
    <glyph glyph-name="uni25B8" unicode="&#x25b8;" horiz-adv-x="480" 
d="M93 480l356 -228v-15l-356 -228l-13 7v457z" />
    <glyph glyph-name="uni25B9" unicode="&#x25b9;" horiz-adv-x="480" 
d="M93 480l356 -228v-15l-356 -228l-13 7v457zM332 244l-181 116v-231z" />
    <glyph glyph-name="triagrt" unicode="&#x25ba;" horiz-adv-x="961" 
d="M103 671l828 -334v-15l-828 -333l-13 7v668z" />
    <glyph glyph-name="uni25BB" unicode="&#x25bb;" horiz-adv-x="961" 
d="M103 671l828 -334v-15l-828 -333l-13 7v668zM749 330l-581 233v-467z" />
    <glyph glyph-name="triagdn" unicode="&#x25bc;" horiz-adv-x="730" 
d="M373 0h-15l-337 592l7 13h674l7 -13z" />
    <glyph glyph-name="uni25BD" unicode="&#x25bd;" horiz-adv-x="730" 
d="M702 605l7 -13l-336 -592h-15l-337 592l7 13h674zM586 527h-442l221 -388z" />
    <glyph glyph-name="uni25BE" unicode="&#x25be;" horiz-adv-x="528" 
d="M496 434l7 -13l-231 -406h-15l-232 406l7 13h464z" />
    <glyph glyph-name="uni25BF" unicode="&#x25bf;" horiz-adv-x="528" 
d="M496 434l7 -13l-231 -406h-15l-232 406l7 13h464zM393 368h-257l128 -225z" />
    <glyph glyph-name="uni25C0" unicode="&#x25c0;" horiz-adv-x="645" 
d="M542 671l13 -7v-668l-13 -7l-519 333v15z" />
    <glyph glyph-name="uni25C1" unicode="&#x25c1;" horiz-adv-x="682" 
d="M579 671l13 -7v-668l-13 -7l-519 333v15zM514 539l-326 -210l326 -208v418z" />
    <glyph glyph-name="uni25C2" unicode="&#x25c2;" horiz-adv-x="480" 
d="M387 480l13 -7v-457l-13 -7l-356 228v15z" />
    <glyph glyph-name="uni25C3" unicode="&#x25c3;" horiz-adv-x="480" 
d="M387 480l13 -7v-457l-13 -7l-356 228v15zM329 360l-181 -116l181 -115v231z" />
    <glyph glyph-name="triaglf" unicode="&#x25c4;" horiz-adv-x="961" 
d="M858 671l13 -7v-668l-13 -7l-828 333v15z" />
    <glyph glyph-name="uni25C5" unicode="&#x25c5;" horiz-adv-x="961" 
d="M858 671l13 -7v-668l-13 -7l-828 333v15zM793 96v467l-581 -233z" />
    <glyph glyph-name="lozenge" unicode="&#x25ca;" horiz-adv-x="665" 
d="M347 671l213 -341l-213 -341h-29l-213 342l213 340h29zM334 103l142 227l-144 229l-142 -228z" />
    <glyph glyph-name="circle" unicode="&#x25cb;" horiz-adv-x="776" 
d="M388 659q136 0 232 -96t96 -233q0 -136 -96 -232t-232 -96q-137 0 -233 96t-96 232q0 137 96 233t233 96zM388 587v-1q-106 0 -180 -75q-73 -74 -73 -183t73 -182q74 -74 180 -74t180 75q73 74 73 182q0 109 -73 183q-74 75 -180 75z" />
    <glyph glyph-name="uni25CF" unicode="&#x25cf;" horiz-adv-x="776" 
d="M388 659q136 0 232 -96t96 -233q0 -136 -96 -232t-232 -96q-137 0 -233 96t-96 232q0 137 96 233t233 96z" />
    <glyph glyph-name="uni261C" unicode="&#x261c;" horiz-adv-x="1216" 
d="M1178 275v-30l-85 -73l47 -174l-25 -18l-223 143q-94 -49 -187 -77q-98 -29 -164 -29q-105 0 -105 69q0 22 14 39q-46 15 -46 58q0 27 24 46q-35 17 -35 53q0 19 14 36l-194 6q-88 3 -125 24q-38 21 -38 67q0 50 42 68t146 18q96 0 185 -10q2 45 25 68q24 24 59 24
q39 0 77 -23l238 -144q44 -13 67 -21l226 144l25 -16l-47 -175zM522 521q-31 0 -33 -38q77 -11 147 -24l-83 51q-24 11 -31 11zM537 74l1 -3q56 0 156 30q102 31 180 76v158q-121 47 -303 77q-185 30 -346 30q-63 0 -85 -6t-22 -24q0 -16 18 -24q14 -6 71 -9l135 -6
q52 -3 129 -6q19 -1 43.5 -2l37.5 -1.5t21 -0.5v-52l-97 2q-10 0 -18 -6q-7 -6 -7 -15q0 -10 6 -16t16 -6h110v-51h-99q-9 0 -15 -6t-6 -16q0 -22 21 -22h109v-52q-25 -3 -67 -3h-8q-24 0 -24 -22q0 -24 43 -24zM934 347v-184l125 -78l-31 108l77 63l-77 61l32 109z" />
    <glyph glyph-name="uni261E" unicode="&#x261e;" horiz-adv-x="1216" 
d="M990 503v1q104 0 146 -18t42 -67q0 -46 -38 -67q-37 -21 -125 -24l-194 -6q15 -16 15 -36q0 -36 -36 -53q24 -19 24 -46q0 -43 -46 -58q14 -17 14 -39q0 -69 -105 -69q-66 0 -164 29q-93 28 -187 77l-223 -143l-25 18l47 174l-85 73v27l85 73l-47 175l25 16l226 -144
q23 8 67 21l238 144q38 23 77 23q35 0 59 -24t25 -67q89 10 185 10zM675 514l-83 -51q70 13 147 24q-2 38 -33 38q-7 0 -31 -11zM1023 385l2 1q53 2 71 9t18 24q0 18 -22 24t-87 6q-161 0 -346 -30q-182 -30 -303 -77v-158q78 -45 180 -76q100 -30 156 -30q43 0 43 24
q0 22 -24 22h-8q-41 0 -67 3v52h109q21 0 21 22q0 11 -6 17t-15 6h-99v51h110q10 0 16 6t6 17q0 21 -24 21l-97 -2v52q8 0 21 0.5l37.5 1.5t43.5 2q77 3 129 6zM297 171v184l-126 79l32 -109l-77 -61l77 -63l-31 -108z" />
    <glyph glyph-name="uni2661" unicode="&#x2661;" horiz-adv-x="860" 
d="M613 671h-3q82 0 137 -55q56 -56 56 -141q0 -50 -24 -95q-23 -44 -84 -109l-261 -282h-15l-261 282q-61 65 -84 109q-24 45 -24 95q0 85 56 141q55 55 137 55q65 0 113 -36q49 -37 71 -93q23 57 72 93t114 36zM634 317l-1 -1q49 55 68 88q21 36 21 75q0 53 -33 86t-84 33
q-58 0 -99 -47q-40 -46 -61 -120h-37q-21 74 -61 120q-41 47 -100 47q-50 0 -83 -33t-33 -85q0 -38 21 -76q22 -39 67 -87l207 -227z" />
    <glyph glyph-name="heart" unicode="&#x2665;" horiz-adv-x="860" 
d="M613 671h-3q82 0 137 -55q56 -56 56 -141q0 -50 -24 -95q-23 -44 -84 -109l-261 -282h-15l-261 282q-61 65 -84 109q-24 45 -24 95q0 85 56 141q55 55 137 55q65 0 113 -36q49 -37 71 -93q23 57 72 93t114 36z" />
    <glyph glyph-name="uni275B" unicode="&#x275b;" horiz-adv-x="655" 
d="M388 426l1 -1q89 0 154 -63q64 -63 64 -154q0 -88 -63 -153q-63 -64 -170 -64q-133 0 -229 99t-96 241q0 143 96 242t243 99q116 0 204 -70l-32 -51q-74 57 -168 57q-118 0 -196 -80t-78 -198q0 -103 62 -182q-10 30 -10 60q0 90 64 154t154 64z" />
    <glyph glyph-name="uni275C" unicode="&#x275c;" horiz-adv-x="655" 
d="M281 670l-1 -1q134 0 230 -99t96 -241q0 -143 -96 -242t-243 -99q-116 0 -204 70l33 51q74 -57 168 -57q117 0 195 80t78 198q0 103 -62 182q9 -28 9 -60q0 -90 -64 -154t-154 -64q-89 0 -154 63q-64 63 -64 155q0 88 63 153t170 65z" />
    <glyph glyph-name="uni275D" unicode="&#x275d;" horiz-adv-x="1275" 
d="M1008 426l1 -1q89 0 154 -63q64 -63 64 -154q0 -88 -63 -153q-63 -64 -170 -64q-133 0 -229 99t-96 241q0 143 96 242t243 99q116 0 204 -70l-32 -51q-74 57 -168 57q-118 0 -196 -80t-78 -198q0 -104 61 -183q-9 30 -9 61q0 90 64 154t154 64zM389 425l1 -1
q89 0 154 -63q64 -63 64 -154q0 -89 -63 -153t-170 -64q-133 0 -229 99t-96 241q0 143 96 242t243 99q116 0 204 -70l-32 -51q-73 57 -168 57q-118 0 -196 -80q-78 -79 -78 -198q0 -103 62 -182q-10 30 -10 60q0 90 64 154t154 64z" />
    <glyph glyph-name="uni275E" unicode="&#x275e;" horiz-adv-x="1275" 
d="M281 670l-1 -1q134 0 230 -99t96 -241q0 -143 -96 -242t-243 -99q-116 0 -204 70l33 51q74 -57 168 -57q117 0 195 80t78 198q0 103 -62 182q9 -28 9 -60q0 -90 -64 -154t-154 -64q-89 0 -154 63q-64 63 -64 155q0 88 63 153t170 65zM901 669h-2q134 0 230 -99t96 -241
q0 -143 -96 -242t-243 -99q-116 0 -204 70l32 51q74 -57 168 -57q118 0 196 80t78 198q0 105 -61 182q9 -30 9 -61q0 -90 -64 -154t-154 -64t-154 63t-64 155q0 89 63 153q63 65 170 65z" />
    <glyph glyph-name="uni2776" unicode="&#x2776;" horiz-adv-x="975" 
d="M487 761v-2q179 0 305 -126t126 -304t-126 -304t-305 -126q-178 0 -304 126t-126 305t126 305t304 126zM527 552h-164v-61h93v-327h-100v-61h265v61h-94v388z" />
    <glyph glyph-name="uni2777" unicode="&#x2777;" horiz-adv-x="975" 
d="M487 761v-2q179 0 305 -126t126 -304t-126 -304t-305 -126q-178 0 -304 126t-126 305t126 305t304 126zM483 559l1 -1q-68 0 -111 -42t-43 -100q0 -17 5 -42h65q-4 21 -4 38q0 34 23 59q23 24 62 24q37 0 58 -22q21 -23 21 -57q0 -32 -18 -59t-54 -66l-160 -172v-16h323
v61h-198l92 97q43 44 65 80q23 37 23 80q0 60 -42 99t-108 39z" />
    <glyph glyph-name="uni2778" unicode="&#x2778;" horiz-adv-x="975" 
d="M487 761v-2q179 0 305 -126t126 -304t-126 -304t-305 -126q-178 0 -304 126t-126 305t126 305t304 126zM628 552h-278v-63h172l-109 -143v-20h49q51 0 78 -21t27 -58q0 -39 -26 -63q-25 -24 -65 -24q-61 0 -108 68l-49 -36q22 -43 63 -70q40 -27 93 -27q68 0 116 42
t48 109q0 58 -36 94q-35 36 -88 43l113 149v20z" />
    <glyph glyph-name="uni2779" unicode="&#x2779;" horiz-adv-x="975" 
d="M487 761v-2q179 0 305 -126t126 -304t-126 -304t-305 -126q-178 0 -304 126t-126 305t126 305t304 126zM512 552h-75l-138 -351v-20h226v-78h70v78h61v63h-61v133h-70v-133h-139z" />
    <glyph glyph-name="uni277A" unicode="&#x277a;" horiz-adv-x="975" 
d="M487 761v-2q179 0 305 -126t126 -304t-126 -304t-305 -126q-178 0 -304 126t-126 305t126 305t304 126zM613 552h-244v-226h102q104 0 104 -79q0 -39 -26 -63q-25 -24 -66 -24q-61 0 -108 69l-50 -36q22 -43 63 -70q40 -27 96 -27q68 0 116 42t48 110t-45 104t-107 36
q-37 0 -60 -4v105h177v63z" />
    <glyph glyph-name="uni277B" unicode="&#x277b;" horiz-adv-x="975" 
d="M487 761v-2q179 0 305 -126t126 -304t-126 -304t-305 -126q-178 0 -304 126t-126 305t126 305t304 126zM577 552h-84l-112 -158l-34 -51q-9 -15 -19 -42q-9 -25 -9 -51q0 -68 46 -111q47 -44 112 -44q66 0 113 44t47 110q0 55 -35 96q-34 40 -86 48q-29 4 -55 -5z
M477 340l-1 -2q38 0 63 -25q26 -26 26 -63q0 -38 -25 -64q-26 -27 -63 -27t-63 27q-25 26 -25 65q0 38 25 63q26 26 63 26z" />
    <glyph glyph-name="uni277C" unicode="&#x277c;" horiz-adv-x="975" 
d="M487 761v-2q179 0 305 -126t126 -304t-126 -304t-305 -126q-178 0 -304 126t-126 305t126 305t304 126zM652 553h-307v-65h212l-200 -384h78l217 429v20z" />
    <glyph glyph-name="uni277D" unicode="&#x277d;" horiz-adv-x="975" 
d="M487 761v-2q179 0 305 -126t126 -304t-126 -304t-305 -126q-178 0 -304 126t-126 305t126 305t304 126zM488 559l1 1q-61 0 -102 -30q-40 -30 -40 -84q0 -70 79 -107q-100 -37 -100 -117q0 -56 45 -91q44 -34 118 -34q73 0 117 34q45 35 45 90q0 79 -99 118q78 37 78 106
q0 54 -40 84t-102 30zM489 503l-3 -1q33 0 53 -16q21 -16 21 -45q0 -27 -18 -43q-18 -17 -55 -30q-72 27 -72 73q0 29 21 45q22 17 53 17zM485 311v-2q45 -16 69 -35q23 -18 23 -51q0 -31 -24 -51q-23 -19 -67 -19q-43 0 -68 20q-24 20 -24 53q0 32 23 50q23 19 68 35z" />
    <glyph glyph-name="uni277E" unicode="&#x277e;" horiz-adv-x="975" 
d="M488 761q178 0 304 -126t126 -305t-126 -305t-304 -126q-179 0 -305 126t-126 305t126 305t305 126zM498 562l-3 -1q-65 0 -112 -44q-46 -43 -46 -110q0 -55 35 -96q34 -41 87 -48q29 -5 54 6l-115 -164h84l112 158q43 61 55 96q7 21 7 47q0 66 -46 111q-47 45 -112 45z
M495 497l-1 -1q38 0 63 -27q25 -26 25 -64t-25 -63q-26 -26 -63 -26t-63 26q-25 25 -25 63q0 37 26 65q26 27 63 27z" />
    <glyph glyph-name="uni2780" unicode="&#x2780;" horiz-adv-x="975" 
d="M487 761v-2q179 0 305 -126t126 -304t-126 -304t-305 -126q-178 0 -304 126t-126 305t126 305t304 126zM487 692l-1 2q-151 0 -256 -105t-105 -259t105 -259t257 -105t257 105t105 258t-105 258t-257 105zM526 554v-388h94v-61h-265v61h100v327h-93v61h164z" />
    <glyph glyph-name="uni2781" unicode="&#x2781;" horiz-adv-x="975" 
d="M487 761v-2q179 0 305 -126t126 -304t-126 -304t-305 -126q-178 0 -304 126t-126 305t126 305t304 126zM487 692l-1 2q-151 0 -256 -105t-105 -259t105 -259t257 -105t257 105t105 258t-105 258t-257 105zM482 561l-3 -1q66 0 108 -39t42 -99q0 -45 -22 -80
q-23 -36 -64 -79l-93 -97h199v-61h-323v16l160 172q36 39 54 66t18 59q0 34 -21 57q-21 22 -58 22q-39 0 -62 -24q-23 -25 -23 -59q0 -17 4 -38h-65q-5 25 -5 42q0 59 43 101t111 42z" />
    <glyph glyph-name="uni2782" unicode="&#x2782;" horiz-adv-x="975" 
d="M487 761v-2q179 0 305 -126t126 -304t-126 -304t-305 -126q-178 0 -304 126t-126 305t126 305t304 126zM487 692l-1 2q-151 0 -256 -105t-105 -259t105 -259t257 -105t257 105t105 258t-105 258t-257 105zM627 554l-2 -21l-113 -149q52 -8 88 -43q36 -36 36 -94
q0 -67 -48 -109t-116 -42q-52 0 -93 27t-63 70l49 36q47 -68 108 -68q39 0 65 24t26 63q0 38 -27 59t-78 21h-49v20l109 143h-172v63h280z" />
    <glyph glyph-name="uni2783" unicode="&#x2783;" horiz-adv-x="975" 
d="M487 761v-2q179 0 305 -126t126 -304t-126 -304t-305 -126q-178 0 -304 126t-126 305t126 305t304 126zM487 692l-1 2q-151 0 -256 -105t-105 -259t105 -259t257 -105t257 105t105 258t-105 258t-257 105zM511 554l-126 -308h139v133h70v-133h61v-63h-61v-78h-70v78h-226
v20l138 351h75z" />
    <glyph glyph-name="uni2784" unicode="&#x2784;" horiz-adv-x="975" 
d="M487 761v-2q179 0 305 -126t126 -304t-126 -304t-305 -126q-178 0 -304 126t-126 305t126 305t304 126zM487 692l-1 2q-151 0 -256 -105t-105 -259t105 -259t257 -105t257 105t105 258t-105 258t-257 105zM613 554l-2 -64h-177v-105q23 4 60 4q64 0 108 -37
q45 -38 45 -103q0 -68 -48 -110t-117 -42q-109 0 -161 97l51 36q45 -69 107 -69q41 0 68 24t27 63q0 38 -27 59t-77 21h-103v226h246z" />
    <glyph glyph-name="uni2785" unicode="&#x2785;" horiz-adv-x="975" 
d="M487 761v-2q179 0 305 -126t126 -304t-126 -304t-305 -126q-178 0 -304 126t-126 305t126 305t304 126zM487 692l-1 2q-151 0 -256 -105t-105 -259t105 -259t257 -105t257 105t105 258t-105 258t-257 105zM576 554l-116 -164q26 9 55 5q52 -8 86 -48q35 -41 35 -96
q0 -66 -47 -110t-113 -44q-65 0 -112 44q-46 43 -46 111q0 26 9 51q10 27 19 42l34 51l112 158h84zM476 342l-1 -1q-37 0 -63 -26q-25 -25 -25 -63t25 -64q26 -27 63 -27t63 27q26 28 26 65q0 38 -25 63q-26 26 -63 26z" />
    <glyph glyph-name="uni2786" unicode="&#x2786;" horiz-adv-x="975" 
d="M487 761v-2q179 0 305 -126t126 -304t-126 -304t-305 -126q-178 0 -304 126t-126 305t126 305t304 126zM487 692l-1 2q-151 0 -256 -105t-105 -259t105 -259t257 -105t257 105t105 258t-105 258t-257 105zM650 555v-20l-217 -429h-78l200 384h-212v65h307z" />
    <glyph glyph-name="uni2787" unicode="&#x2787;" horiz-adv-x="975" 
d="M487 761v-2q179 0 305 -126t126 -304t-126 -304t-305 -126q-178 0 -304 126t-126 305t126 305t304 126zM487 692l-1 2q-151 0 -256 -105t-105 -259t105 -259t257 -105t257 105t105 258t-105 258t-257 105zM487 561l-1 -1q62 0 102 -30t40 -84q0 -68 -78 -106
q99 -39 99 -118q0 -56 -45 -90q-44 -34 -117 -34q-74 0 -118 34q-45 35 -45 91q0 80 100 117q-79 37 -79 107q0 54 40 84q41 30 102 30zM486 503v-2q-32 0 -52 -16q-21 -17 -21 -45q0 -46 72 -73q38 14 56 30q18 17 18 44q0 29 -21 45q-22 17 -52 17zM485 310v-1
q-45 -16 -68 -35q-23 -18 -23 -50t24 -52q23 -19 68 -19q42 0 67 20q24 19 24 51q0 33 -23 51q-24 19 -69 35z" />
    <glyph glyph-name="uni2788" unicode="&#x2788;" horiz-adv-x="975" 
d="M488 761q178 0 304 -126t126 -305t-126 -305t-304 -126q-179 0 -305 126t-126 305t126 305t305 126zM488 694l-1 -2q-152 0 -257 -105t-105 -258t105 -258t257 -105t257 105t105 259t-105 259t-256 105zM497 560l-3 2q66 0 113 -45t47 -111q0 -26 -10 -52
q-10 -25 -18 -40q-15 -27 -33 -52l-112 -158h-84l115 164q-26 -10 -54 -6q-52 8 -87 48q-34 40 -34 96q0 66 47 110t113 44zM494 498l-1 -2q-37 0 -63 -27q-25 -26 -25 -64q0 -37 26 -63q25 -25 63 -25q37 0 63 26q25 25 25 63q0 39 -25 65q-25 27 -63 27z" />
    <glyph glyph-name="uni27F5" unicode="&#x27f5;" horiz-adv-x="1216" 
d="M1164 281l-982 1l195 -195l-46 -46l-265 265v18l265 264l46 -45l-194 -194h981v-68z" />
    <glyph glyph-name="uni27F6" unicode="&#x27f6;" horiz-adv-x="1216" 
d="M885 588l265 -264v-18l-265 -265l-45 46l194 195l-982 -1v68h981l-193 194z" />
    <glyph glyph-name="uniF8FF" unicode="&#xf8ff;" horiz-adv-x="722" 
d="M99 0v660h524v-660h-524zM458 123l-1 2q35 0 58 23q22 22 22 54q0 27 -17 56q-16 28 -45 45l-24 -25q45 -44 45 -76q0 -17 -10 -27q-11 -11 -27 -11q-23 0 -42 27q-20 28 -54 103q81 46 111 77q29 31 29 62q0 39 -27 60t-74 21q-3 0 -33 -2l26 55l-41 7l-33 -71
q-46 -9 -103 -36q-23 -66 -23 -162q0 -78 20 -158l42 -8q23 115 42 186t51 147q17 4 41 4q70 0 70 -50q0 -24 -27 -48q-29 -25 -114 -74l-1 -6q40 -101 67 -137q29 -38 72 -38zM230 204v-1q-2 46 -2 81q0 86 23 157q24 13 51 21q-52 -132 -65 -258h-7z" />
    <glyph glyph-name="fi" unicode="&#xfb01;" horiz-adv-x="564" 
d="M97 603l2 1q0 80 44 119q43 39 117 39q30 0 60 -8v-65q-24 3 -43 3q-49 0 -76 -21t-27 -73v-111h122v-69h-122v-418h-77v418h-70v69h70v116zM444 730v-1q23 0 39 -16q17 -17 17 -39q0 -24 -16 -40t-40 -16q-25 0 -41 16q-17 17 -17 40q0 22 17 39t41 17zM405 0v487h77
v-487h-77z" />
    <glyph glyph-name="fl" unicode="&#xfb02;" horiz-adv-x="564" 
d="M97 603l2 1q0 80 44 119q43 39 117 39q30 0 60 -8v-65q-24 3 -43 3q-49 0 -76 -21t-27 -73v-111h122v-69h-122v-418h-77v418h-70v69h70v116zM405 751h77v-750h-77v750z" />
    <glyph glyph-name="Iacute_J.loclNLD" horiz-adv-x="633" 
d="M280 910v-14l-120 -172h-59l85 186h94zM644 910v-14l-120 -172h-59l85 186h94zM169 660v-660h-78v660h78zM542 660v-507q0 -83 -46 -123t-126 -40q-37 0 -87 11v67q41 -6 72 -6q53 0 81 21t28 77v500h78z" />
    <glyph glyph-name="Cacute.loclPLK" horiz-adv-x="715" 
d="M361 724l45 186h94v-14l-80 -172h-59zM391 671l-2 -2q88 0 160 -39q73 -39 114 -103l-58 -46q-80 116 -216 116q-112 0 -187 -77q-75 -76 -75 -192t75 -192q75 -77 188 -77q136 0 216 116l58 -46q-40 -63 -113 -103q-72 -39 -160 -39q-144 0 -243 99t-99 243t99 243
t243 99z" />
    <glyph glyph-name="Nacute.loclPLK" horiz-adv-x="708" 
d="M463 896l-80 -172h-59l45 186h94v-14zM539 660h78v-671h-28l-420 507v-496h-78v671h28l420 -508v497z" />
    <glyph glyph-name="Oacute.loclPLK" horiz-adv-x="781" 
d="M361 724l45 186h94v-14l-80 -172h-59zM390 671h1q143 0 243 -99t100 -243t-100 -243t-243 -99q-144 0 -243 99t-99 243t99 243t242 99zM392 599h-1q-112 0 -187 -76q-75 -77 -75 -192t75 -192t188 -77q112 0 187 77t75 192t-75 191q-75 77 -187 77z" />
    <glyph glyph-name="Sacute.loclPLK" horiz-adv-x="558" 
d="M253 724l45 186h94v-14l-80 -172h-59zM282 671v-1q67 0 120 -31q55 -32 86 -81l-57 -43q-56 83 -151 83q-50 0 -84 -25t-34 -72q0 -24 7 -39q8 -17 25 -30q17 -12 32 -21l42 -21l73 -35q80 -38 116 -79q38 -43 38 -105q0 -82 -60 -133t-153 -51q-76 0 -140 38
q-63 37 -102 104l58 43q74 -113 183 -113q59 0 96 30t37 80q0 43 -25 65t-84 51l-74 35q-67 31 -109 75q-39 41 -39 103q0 77 58 125q59 48 141 48z" />
    <glyph glyph-name="Zacute.loclPLK" horiz-adv-x="589" 
d="M409 896l-80 -172h-59l45 186h94v-14zM154 70h401v-70h-523v23l399 567h-356v70h479v-23z" />
    <glyph glyph-name="Idotaccent.loclTRK" horiz-adv-x="259" 
d="M131 866v-1q23 0 39 -16q17 -17 17 -39q0 -24 -16 -40t-40 -16q-25 0 -41 16q-17 17 -17 40q0 22 17 39t41 17zM169 659v-660h-78v660h78z" />
    <glyph glyph-name="A.ordn" horiz-adv-x="434" 
d="M338 244l-28 71h-186l-27 -71h-73l182 423h23l182 -423h-73zM289 369l-72 176l-73 -176h145z" />
    <glyph glyph-name="C.ordn" horiz-adv-x="467" 
d="M252 667l1 -4q59 0 105 -25q46 -26 75 -72l-52 -35q-46 70 -126 70q-64 0 -106 -42t-42 -109t42 -109t106 -42q80 0 126 70l52 -35q-29 -46 -75 -72q-46 -25 -105 -25q-90 0 -154 62q-63 61 -63 153t63 153q64 62 153 62z" />
    <glyph glyph-name="D.ordn" horiz-adv-x="459" 
d="M197 660v-1q103 0 164 -57q62 -57 62 -150q0 -92 -63 -150q-62 -58 -163 -58h-130v416h130zM197 597l-61 1v-293h62q70 0 113 41q42 40 42 107q0 66 -42 105q-40 37 -114 39z" />
    <glyph glyph-name="E.ordn" horiz-adv-x="376" 
d="M337 660v-61h-201v-106h158v-55h-158v-133h209v-61h-278v416h270z" />
    <glyph glyph-name="Egrave.ordn" horiz-adv-x="376" 
d="M198 817l51 -117h-46l-79 106v11h74zM337 660v-61h-201v-106h158v-55h-158v-133h209v-61h-278v416h270z" />
    <glyph glyph-name="G.ordn" horiz-adv-x="487" 
d="M255 667q110 0 171 -88l-48 -40q-47 65 -125 65q-65 0 -105 -42q-41 -43 -41 -109q0 -67 42 -111q42 -43 108 -43q82 0 124 62v46h-127v55h195v-113q-28 -52 -81 -82q-52 -30 -114 -30q-90 0 -154 62q-63 61 -63 153t63 153q64 62 155 62z" />
    <glyph glyph-name="H.ordn" horiz-adv-x="476" 
d="M409 660v-416h-69v190h-205v-190h-68v416h68v-164h205v164h69z" />
    <glyph glyph-name="I.ordn" horiz-adv-x="201" 
d="M134 660v-416h-67v416h67z" />
    <glyph glyph-name="L.ordn" horiz-adv-x="337" 
d="M135 660v-355h192v-61h-260v416h68z" />
    <glyph glyph-name="M.ordn" horiz-adv-x="527" 
d="M436 667h23v-423h-67v257l-116 -157h-24l-117 157v-257h-68v423h25l171 -233z" />
    <glyph glyph-name="N.ordn" horiz-adv-x="476" 
d="M340 660h69v-423h-25l-249 279v-272h-68v423h25l248 -278v271z" />
    <glyph glyph-name="O.ordn" horiz-adv-x="507" 
d="M253 667h-1q91 0 155 -62q63 -61 63 -153t-63 -153q-64 -62 -154 -62t-154 62q-63 61 -63 153t63 153q64 62 154 62zM253 604l-1 -2q-64 0 -106 -42t-42 -109t42 -109t107 -42q63 0 105 43t42 109t-42 109t-105 43z" />
    <glyph glyph-name="R.ordn" horiz-adv-x="414" 
d="M401 244h-78l-115 160h-74v-160h-68v416h150q62 0 102 -35q39 -35 39 -92q0 -41 -21 -72t-58 -46zM134 600l-1 -138h81q35 0 54 19q20 20 20 51q0 30 -19 49t-54 19h-81z" />
    <glyph glyph-name="S.ordn" horiz-adv-x="359" 
d="M177 667l-3 3q90 0 133 -75l-48 -36q-35 48 -84 48q-26 0 -44 -12t-18 -37q0 -36 54 -59l47 -20q101 -43 101 -119q0 -55 -39 -88t-99 -33q-51 0 -92 24t-63 66l47 37q47 -65 111 -65q30 0 49 15t19 41q0 39 -61 64l-44 18q-97 40 -97 117q0 51 37 81q38 30 94 30z" />
    <glyph glyph-name="T.ordn" horiz-adv-x="380" 
d="M363 660v-62h-139v-354h-68v354h-139v62h346z" />
    <glyph glyph-name="U.ordn" horiz-adv-x="460" 
d="M399 660v-248q0 -79 -48 -127t-121 -48t-121 49q-48 50 -48 127v247h68v-253q0 -49 29 -78t72 -29t72 29t29 78v253h68z" />
    <glyph glyph-name="Uacute.ordn" horiz-adv-x="460" 
d="M334 817v-11l-80 -106h-46l51 117h75zM399 660v-248q0 -79 -48 -127t-121 -48t-121 49q-48 50 -48 127v247h68v-253q0 -49 29 -78t72 -29t72 29t29 78v253h68z" />
    <glyph glyph-name="Y.ordn" horiz-adv-x="402" 
d="M374 660l-139 -248v-168h-67v166l-140 250h74l99 -179l100 179h73z" />
    <glyph glyph-name="Z.ordn" horiz-adv-x="383" 
d="M357 660v-19l-225 -335h225v-62h-334v19l226 335h-198v62h306z" />
    <glyph glyph-name="iacute_j.loclNLD" horiz-adv-x="492" 
d="M242 780v-14l-90 -200h-59l55 214h94zM489 780v-14l-90 -200h-59l55 214h94zM408 487v-520q0 -80 -43 -119t-117 -39q-32 0 -62 8v65q26 -3 45 -3q100 0 100 93v515h77zM162 487v-487h-77v487h77z" />
    <glyph glyph-name="cacute.loclPLK" horiz-adv-x="551" 
d="M273 566l45 214h94v-14l-80 -200h-59zM305 498h-1q131 0 201 -106l-55 -44q-58 79 -144 79q-76 0 -127 -53q-51 -52 -51 -129q0 -79 51 -131q51 -53 127 -53q86 0 144 78l55 -43q-70 -106 -200 -106q-106 0 -180 74t-74 180t74 180t180 74z" />
    <glyph glyph-name="nacute.loclPLK" horiz-adv-x="566" 
d="M393 766l-80 -200h-59l45 214h94v-14zM307 498v-2q85 0 133 -53t48 -138v-306h-77v297q0 58 -33 94t-88 36q-56 0 -92 -36t-36 -93v-297h-77v487h72v-53q54 64 150 64z" />
    <glyph glyph-name="oacute.loclPLK" horiz-adv-x="610" 
d="M274 566l45 214h94v-14l-80 -200h-59zM305 498v-2q107 0 181 -73q75 -73 75 -180t-75 -180q-77 -75 -181 -74q-105 0 -180 75q-74 74 -74 180t74 180t180 74zM305 425l1 -1q-76 0 -127 -53q-49 -50 -49 -131q2 -79 50 -130q49 -52 125 -52q75 0 126 53t51 129
q0 80 -51 132q-51 53 -126 53z" />
    <glyph glyph-name="sacute.loclPLK" horiz-adv-x="454" 
d="M199 566l45 214h94v-14l-80 -200h-59zM232 498l-2 1q100 0 162 -77l-47 -48q-53 54 -120 54q-36 0 -58 -16t-22 -45q0 -24 18 -39t61 -33l45 -19q69 -29 98 -61q30 -33 30 -82q0 -68 -49 -105t-121 -37q-118 0 -189 95l49 51q71 -75 140 -75q40 0 67 18t27 50
q0 29 -20 44q-14 11 -65 33l-47 20q-60 25 -91 56q-30 30 -30 79q0 64 47 100t117 36z" />
    <glyph glyph-name="zacute.loclPLK" horiz-adv-x="454" 
d="M345 766l-80 -200h-59l45 214h94v-14zM145 68h282v-68h-400v23l278 395h-255v69h374v-23z" />
    <glyph glyph-name="i.loclTRK.loclTRK" horiz-adv-x="246" 
d="M124 729v-1q23 0 39 -16q17 -17 17 -39q0 -24 -16 -40t-40 -16q-25 0 -41 16q-17 17 -17 40q0 22 17 39t41 17zM162 486v-487h-77v487h77z" />
    <glyph glyph-name="c.ordn" horiz-adv-x="369" 
d="M203 560l-1 2q88 0 132 -72l-45 -35q-35 48 -87 48q-42 0 -69 -30t-27 -73t27 -73t69 -30q52 0 86 49l45 -35q-43 -73 -131 -73q-66 0 -115 47q-48 47 -48 114t48 114q49 47 116 47z" />
    <glyph glyph-name="d.ordn" horiz-adv-x="424" 
d="M294 717l67 -1v-473h-63v42q-37 -49 -108 -49q-64 0 -108 47q-43 46 -43 116q0 69 43 115t108 46t104 -45v202zM203 295l-1 -3q37 0 64 27t27 76q0 50 -27 77t-64 27q-40 0 -69 -29q-28 -28 -28 -72q0 -42 29 -73q28 -30 69 -30z" />
    <glyph glyph-name="e.ordn" horiz-adv-x="384" 
d="M343 417v-2q0 -23 -5 -40h-230q7 -37 33 -58q25 -21 63 -21q50 0 90 39l36 -46q-52 -54 -124 -54q-69 0 -118 47q-48 46 -48 116q0 68 46 114q47 47 114 47q62 0 102 -40q41 -41 41 -102zM197 500h-1q-33 0 -56 -19q-25 -20 -32 -54h169q-1 35 -24 54q-22 19 -56 19z" />
    <glyph glyph-name="egrave.ordn" horiz-adv-x="384" 
d="M227 596h-46l-80 128v11h74zM343 417v-2q0 -23 -5 -40h-230q7 -37 33 -58q25 -21 63 -21q50 0 90 39l36 -46q-52 -54 -124 -54q-69 0 -118 47q-48 46 -48 116q0 68 46 114q47 47 114 47q62 0 102 -40q41 -41 41 -102zM197 500h-1q-33 0 -56 -19q-25 -20 -32 -54h169
q-1 35 -24 54q-22 19 -56 19z" />
    <glyph glyph-name="g.ordn" horiz-adv-x="424" 
d="M302 554l60 -2v-277q0 -71 -46 -111q-47 -41 -117 -41q-86 0 -141 58l36 47q53 -44 102 -44q44 0 72 24t28 69v16q-36 -42 -102 -42t-109 45q-43 44 -43 112q0 66 42 109t107 43q74 0 111 -49v43zM204 309v-4q36 0 64 26q27 25 27 71q0 45 -27 69t-65 24q-41 0 -69 -25
t-28 -64q0 -40 29 -69q28 -28 69 -28z" />
    <glyph glyph-name="h.ordn" horiz-adv-x="387" 
d="M216 560l1 1q52 0 82 -34q30 -35 30 -90v-193h-66v184q0 32 -18 51q-18 20 -48 20q-28 0 -48 -20q-19 -19 -19 -51v-184h-67v473h67v-193q33 36 86 36z" />
    <glyph glyph-name="i.ordn" horiz-adv-x="189" 
d="M94 707q18 0 31 -12t13 -30t-13 -30q-14 -12 -31 -12q-18 0 -30 12t-12 30t12 30t30 12zM128 553v-309h-66v309h66z" />
    <glyph glyph-name="l.ordn" horiz-adv-x="192" 
d="M129 717v-473h-66v473h66z" />
    <glyph glyph-name="m.ordn" horiz-adv-x="581" 
d="M410 560l-3 1q53 0 83 -34q30 -35 30 -90v-193h-66v184q0 32 -17 52q-16 19 -45 19q-30 0 -48 -19q-18 -20 -18 -49v-187h-66v184q0 32 -18 52q-18 19 -46 19q-30 0 -48 -19q-18 -20 -18 -52v-184h-67v310h63v-29q32 35 86 35q65 0 93 -49q37 49 105 49z" />
    <glyph glyph-name="n.ordn" horiz-adv-x="387" 
d="M214 560l2 -1q53 0 83 -33t30 -89v-193h-66v184q0 32 -18 51q-18 20 -48 20q-28 0 -48 -20q-19 -19 -19 -51v-184h-67v310h63v-30q35 36 88 36z" />
    <glyph glyph-name="r.ordn" horiz-adv-x="249" 
d="M209 557h-1q6 0 27 -3v-60h-20q-38 0 -61 -22q-24 -22 -24 -64v-164h-67v310h62v-39q30 42 84 42z" />
    <glyph glyph-name="s.ordn" horiz-adv-x="316" 
d="M160 560q66 0 108 -49l-35 -42q-34 34 -72 34q-41 0 -41 -30q0 -8 5 -15q4 -6 11 -9l20 -10l31 -15q41 -20 60 -39q20 -20 20 -52q0 -44 -31 -69t-79 -25q-77 0 -123 63l38 38q41 -44 84 -44q45 0 45 33q0 13 -9 21q-10 8 -29 17l-31 14q-79 36 -79 90q0 41 30 65t77 24z
" />
    <glyph glyph-name="y.ss01.ordn" horiz-adv-x="392" 
d="M262 554l63 -1v-288q0 -67 -39 -105q-38 -37 -102 -37q-77 0 -128 58l36 46q43 -43 91 -43q34 0 56 20q21 20 21 60v25q-31 -34 -86 -34q-52 0 -82 35q-30 34 -30 89v175h67v-166q0 -31 18 -52t48 -21q29 0 48 21q19 20 19 51v167z" />
    <glyph glyph-name="t.ordn" horiz-adv-x="252" 
d="M189 298h1q2 0 7 0.5t14.5 1t17.5 0.5v-56q-24 -7 -50 -7q-53 0 -83 27t-30 80v152h-47v58h47v74h67v-74h88v-58h-88v-145q0 -29 14 -41q13 -12 42 -12z" />
    <glyph glyph-name="u.ordn" horiz-adv-x="381" 
d="M322 554l1 -184q0 -62 -37 -99t-94 -37t-95 38t-38 99v181h67v-184q0 -32 18 -52q18 -19 47 -19t47 20q18 19 18 53v184h66z" />
    </font>
</defs>
</svg>
